%TF.GenerationSoftware,Altium Limited,Altium Designer,19.1.7 (138)*%
G04 Layer_Physical_Order=1*
G04 Layer_Color=255*
%FSLAX45Y45*%
%MOMM*%
%TF.FileFunction,Copper,L1,Top,Signal*%
%TF.Part,Single*%
G01*
G75*
%TA.AperFunction,ConnectorPad*%
%ADD10R,1.35000X0.40000*%
%ADD11R,0.98000X2.18000*%
%TA.AperFunction,SMDPad,CuDef*%
%ADD12R,0.80000X0.80000*%
%ADD13R,4.85000X4.05000*%
%ADD14R,0.85000X0.20000*%
%ADD15R,0.20000X0.85000*%
%ADD16R,1.50000X1.00000*%
G04:AMPARAMS|DCode=17|XSize=1mm|YSize=1.5mm|CornerRadius=0.25mm|HoleSize=0mm|Usage=FLASHONLY|Rotation=90.000|XOffset=0mm|YOffset=0mm|HoleType=Round|Shape=RoundedRectangle|*
%AMROUNDEDRECTD17*
21,1,1.00000,1.00000,0,0,90.0*
21,1,0.50000,1.50000,0,0,90.0*
1,1,0.50000,0.50000,0.25000*
1,1,0.50000,0.50000,-0.25000*
1,1,0.50000,-0.50000,-0.25000*
1,1,0.50000,-0.50000,0.25000*
%
%ADD17ROUNDEDRECTD17*%
%ADD18R,0.80000X0.80000*%
%ADD19R,0.85000X0.60000*%
%ADD20R,1.80000X1.20000*%
%ADD21R,0.50000X0.60000*%
%TA.AperFunction,Conductor*%
%ADD22C,0.20320*%
%ADD23C,0.50800*%
%ADD24C,0.63500*%
%ADD25C,0.25400*%
%TA.AperFunction,ComponentPad*%
%ADD26C,1.37000*%
%ADD27R,1.37000X1.37000*%
%ADD28C,1.50000*%
%ADD29R,1.50000X1.50000*%
%TA.AperFunction,WasherPad*%
%ADD30C,3.10000*%
%TA.AperFunction,ComponentPad*%
%ADD31C,1.87500*%
%ADD32C,0.50000*%
%TA.AperFunction,ViaPad*%
%ADD33C,0.55880*%
D10*
X3873500Y5908500D02*
D03*
Y5843500D02*
D03*
Y5778500D02*
D03*
Y5713500D02*
D03*
Y5648500D02*
D03*
Y5238500D02*
D03*
Y5173500D02*
D03*
Y5108500D02*
D03*
Y5043500D02*
D03*
Y4978500D02*
D03*
D11*
X3576500Y5067000D02*
D03*
D12*
X6386695Y6337294D02*
D03*
X6211695D02*
D03*
X6386695Y6527794D02*
D03*
X6211695D02*
D03*
X6385300Y6718300D02*
D03*
X6210300D02*
D03*
X6386695Y6908794D02*
D03*
X6211695D02*
D03*
X5916804Y7340608D02*
D03*
X5741804D02*
D03*
X5916795Y7150094D02*
D03*
X5741795D02*
D03*
X4978400Y6639468D02*
D03*
X4803400D02*
D03*
X4976995Y6819894D02*
D03*
X4801995D02*
D03*
D13*
X5969000Y5524500D02*
D03*
D14*
X6314000Y5784500D02*
D03*
Y5744500D02*
D03*
Y5704500D02*
D03*
Y5664500D02*
D03*
Y5624500D02*
D03*
Y5584500D02*
D03*
Y5544500D02*
D03*
Y5504500D02*
D03*
Y5464500D02*
D03*
Y5424500D02*
D03*
Y5384500D02*
D03*
Y5344500D02*
D03*
Y5304500D02*
D03*
Y5264500D02*
D03*
X5624000D02*
D03*
Y5304500D02*
D03*
Y5344500D02*
D03*
Y5384500D02*
D03*
Y5424500D02*
D03*
Y5464500D02*
D03*
Y5504500D02*
D03*
Y5544500D02*
D03*
Y5584500D02*
D03*
Y5624500D02*
D03*
Y5664500D02*
D03*
Y5704500D02*
D03*
Y5744500D02*
D03*
Y5784500D02*
D03*
D15*
X6229000Y5179500D02*
D03*
X6189000D02*
D03*
X6149000D02*
D03*
X6109000D02*
D03*
X6069000D02*
D03*
X6029000D02*
D03*
X5989000D02*
D03*
X5949000D02*
D03*
X5909000D02*
D03*
X5869000D02*
D03*
X5829000D02*
D03*
X5789000D02*
D03*
X5749000D02*
D03*
X5709000D02*
D03*
Y5869500D02*
D03*
X5749000D02*
D03*
X5789000D02*
D03*
X5829000D02*
D03*
X5869000D02*
D03*
X5909000D02*
D03*
X5949000D02*
D03*
X5989000D02*
D03*
X6029000D02*
D03*
X6069000D02*
D03*
X6109000D02*
D03*
X6149000D02*
D03*
X6189000D02*
D03*
X6229000D02*
D03*
D16*
X5461000Y7340600D02*
D03*
X4305300Y7327900D02*
D03*
D17*
X5461000Y7019603D02*
D03*
X4305300Y7006903D02*
D03*
D18*
X5181608Y7138796D02*
D03*
Y7313796D02*
D03*
X4292600Y6350000D02*
D03*
Y6525000D02*
D03*
X4559300Y7152900D02*
D03*
Y7327900D02*
D03*
X5397500Y6032500D02*
D03*
Y6207500D02*
D03*
X4572008Y6021196D02*
D03*
Y6196196D02*
D03*
X4292600Y5930900D02*
D03*
Y6105900D02*
D03*
X5333994Y4700405D02*
D03*
Y4875405D02*
D03*
X5537200Y4874000D02*
D03*
Y4699000D02*
D03*
D19*
X4997000Y7226300D02*
D03*
X4782000Y7131300D02*
D03*
Y7321300D02*
D03*
D20*
X5191100Y5963300D02*
D03*
X4791100D02*
D03*
Y6203300D02*
D03*
X5191100D02*
D03*
D21*
X4456007Y5315581D02*
D03*
X4561003D02*
D03*
X4456007Y5435606D02*
D03*
X4561003D02*
D03*
D22*
X6464300Y4241800D02*
X7023100Y3683000D01*
X5869000Y4837100D02*
X6464300Y4241800D01*
X5867400D02*
X6464300D01*
X5752500Y5791200D02*
X5854700D01*
X5697500Y5736200D02*
X5752500Y5791200D01*
X5697500Y5253000D02*
Y5736200D01*
X5461000Y5016500D02*
X5697500Y5253000D01*
X5143500Y5016500D02*
X5461000D01*
X5041900Y4914900D02*
X5143500Y5016500D01*
X5041900Y4305300D02*
Y4914900D01*
Y4305300D02*
X5105400Y4241800D01*
X5613400D01*
X5854700Y5791200D02*
X5868840Y5805340D01*
Y5869340D01*
X5869000Y5869500D01*
Y4837100D02*
Y5179500D01*
X5867400Y4241800D02*
X5869000Y4243400D01*
X7327900Y3683000D02*
X7747000D01*
X7023100D02*
X7122160D01*
X7221220D01*
Y3579857D02*
Y3683000D01*
Y3579857D02*
X7292340D01*
Y3683000D01*
X7327900D01*
X5829000Y5179500D02*
Y5384500D01*
X6708956Y5872026D02*
X6715760Y5878830D01*
X6684826Y5872026D02*
X6708956D01*
X6453074Y5640274D02*
X6684826Y5872026D01*
X6549100Y5304500D02*
X6718300Y5473700D01*
X6715760Y5878830D02*
X6718300Y5876290D01*
Y5473700D02*
Y5876290D01*
X6314000Y5304500D02*
X6549100D01*
X6814820Y4566920D02*
X7165339D01*
Y4677466D01*
X7236459D01*
Y4566920D02*
Y4677466D01*
Y4566920D02*
X7307579D01*
Y4693920D01*
X7378699D01*
Y4475480D02*
Y4693920D01*
Y4475480D02*
X7449819D01*
Y4566920D01*
X7459980D01*
X6558280D02*
X6814820D01*
X7459980D02*
X7879080D01*
X6913880Y4445000D02*
X6962139D01*
Y4493231D01*
X7033259D01*
Y4445000D02*
Y4493231D01*
Y4445000D02*
X7104379D01*
Y4536440D01*
X7175499D01*
Y4343400D02*
Y4536440D01*
Y4343400D02*
X7246619D01*
Y4536440D01*
X7317739D01*
Y4343400D02*
Y4536440D01*
Y4343400D02*
X7388859D01*
Y4445000D01*
X7399020D01*
X6634480D02*
X6913880D01*
X7399020D02*
X7747000D01*
X6868160Y4312920D02*
X6908799D01*
Y4324018D01*
X6979919D01*
Y4221480D02*
Y4324018D01*
Y4221480D02*
X7051039D01*
Y4414520D01*
X7122159D01*
Y4284771D02*
Y4414520D01*
Y4284771D02*
X7193279D01*
Y4312920D01*
X7203440D01*
X6718300D02*
X6868160D01*
X7203440D02*
X7879080D01*
X7007860Y4191000D02*
X7175499D01*
Y4254291D01*
X7246619D01*
Y4099560D02*
Y4254291D01*
Y4099560D02*
X7317739D01*
Y4282440D01*
X7388859D01*
Y4099560D02*
Y4282440D01*
Y4099560D02*
X7459979D01*
Y4191000D01*
X7470140D01*
X6794500D02*
X7007860D01*
X7470140D02*
X7747000D01*
X7193281Y4069080D02*
X7396480D01*
X7193281D02*
Y4158889D01*
X7122161D02*
X7193281D01*
X7122161Y4069080D02*
Y4158889D01*
X7112000Y4069080D02*
X7122161D01*
X7396480D02*
X7889240D01*
X6799580D02*
X7112000D01*
X7498081Y3942080D02*
X7592060D01*
X7498081Y3938262D02*
Y3942080D01*
X7426961Y3938262D02*
X7498081D01*
X7426961D02*
Y3942080D01*
X7345680D02*
X7426961D01*
X7592060D02*
X7741920D01*
X7343140D02*
X7345680D01*
X7147560D02*
X7190739D01*
Y4038600D01*
X7261859D01*
Y3837940D02*
Y4038600D01*
Y3837940D02*
X7332979D01*
Y3942080D01*
X7343140D01*
X6878320D02*
X7147560D01*
X7327452Y5549452D02*
X7345680Y5567680D01*
X7271113Y5605791D02*
X7327452Y5549452D01*
X7220824Y5555502D02*
X7271113Y5605791D01*
X7220824Y5555502D02*
X7366965Y5409360D01*
X7316676Y5359071D02*
X7366965Y5409360D01*
X7137071Y5538676D02*
X7316676Y5359071D01*
X7086781Y5488387D02*
X7137071Y5538676D01*
X7086781Y5488387D02*
X7266387Y5308782D01*
X7216097Y5258492D02*
X7266387Y5308782D01*
X7036492Y5438098D02*
X7216097Y5258492D01*
X6986202Y5387808D02*
X7036492Y5438098D01*
X6986202Y5387808D02*
X7076005Y5298005D01*
X7068820Y5290820D02*
X7076005Y5298005D01*
X7345680Y5567680D02*
X7747000Y5969000D01*
X7042500Y5264500D02*
X7068820Y5290820D01*
X6314000Y5264500D02*
X7042500D01*
X5293360Y5537200D02*
Y5547360D01*
X6314000Y5624500D02*
X6433820D01*
X6229000Y5869500D02*
X6451160D01*
X6451600Y5869940D01*
X6484300Y5544500D02*
X6540500Y5600700D01*
X6314000Y5544500D02*
X6484300D01*
X5989000Y5504500D02*
X6314000D01*
X5969000Y5524500D02*
X5989000Y5504500D01*
X6029000Y5584500D02*
X6314000D01*
X5969000Y5524500D02*
X6029000Y5584500D01*
X5624000Y5784500D02*
Y5960940D01*
X5580380Y6004560D02*
X5624000Y5960940D01*
X5765800Y4737100D02*
X5767070Y4738370D01*
Y4969510D01*
X5768340Y4970780D01*
X5501640Y5448300D02*
X5506720D01*
X6012180Y4947920D02*
X6057900Y4902200D01*
X6012180Y4947920D02*
Y5067300D01*
X5768340Y4970780D02*
X5773420D01*
X7868920Y6863080D02*
X8001000Y6731000D01*
X6822440Y6202680D02*
X7482840Y6863080D01*
X7868920D01*
X6070600Y6202680D02*
X6822440D01*
X7434580Y6731000D02*
X7747000D01*
X6875780Y6172200D02*
X7434580Y6731000D01*
X6085840Y6172200D02*
X6875780D01*
X7995920Y6477000D02*
X8001000D01*
X7861300Y6611620D02*
X7995920Y6477000D01*
X6949440Y6141720D02*
X7419340Y6611620D01*
X7861300D01*
X6106160Y6141720D02*
X6949440D01*
X7731760Y6461760D02*
X7747000Y6477000D01*
X7386320Y6461760D02*
X7731760D01*
X6240780Y6111240D02*
X7035800D01*
X7386320Y6461760D01*
X7874000Y6350000D02*
X8001000Y6223000D01*
X7493000Y6350000D02*
X7874000D01*
X7223760Y6080760D02*
X7493000Y6350000D01*
X6253405Y6080760D02*
X7223760D01*
X7327900Y6050280D02*
X7498080Y6220460D01*
X7744460D01*
X6266030Y6050280D02*
X7327900D01*
X7744460Y6220460D02*
X7747000Y6223000D01*
X7868920Y6101080D02*
X8001000Y5969000D01*
X7574280Y6101080D02*
X7868920D01*
X8001000Y5969000D02*
X8001000D01*
X7493000Y6019800D02*
X7574280Y6101080D01*
X6278655Y6019800D02*
X7493000D01*
X7879080Y4566920D02*
X8001000Y4445000D01*
X6189000Y4890480D02*
X6634480Y4445000D01*
X7879080Y4312920D02*
X8001000Y4191000D01*
X6149000Y4882220D02*
X6718300Y4312920D01*
X6271259Y4549140D02*
X6271260D01*
X6024880Y4843780D02*
X6799580Y4069080D01*
X5941928Y4825132D02*
X6959600Y3807460D01*
X5979480Y4884025D02*
X6019725Y4843780D01*
X6271260Y4549140D02*
X6878320Y3942080D01*
X6019725Y4843780D02*
X6024880D01*
X6959600Y3807460D02*
X7876540D01*
X6118520Y4866980D02*
X6794500Y4191000D01*
X6229000Y4896200D02*
X6558280Y4566920D01*
X6229000Y4896200D02*
Y5179500D01*
X7889240Y4069080D02*
X8001000Y3957320D01*
Y3937000D02*
Y3957320D01*
X6118520Y4866980D02*
Y5067300D01*
X6189000Y4890480D02*
Y5179500D01*
X7741920Y3942080D02*
X7747000Y3937000D01*
X5976620Y4843780D02*
X6271259Y4549140D01*
X5949000Y4871400D02*
X5976620Y4843780D01*
X5979480Y4884025D02*
Y5102860D01*
X5909000Y4858061D02*
Y5179500D01*
Y4858061D02*
X5941928Y4825132D01*
X5989000Y5112380D02*
Y5179500D01*
X5979480Y5102860D02*
X5989000Y5112380D01*
X5949000Y4871400D02*
Y5179500D01*
X7876540Y3807460D02*
X8001000Y3683000D01*
X6149000Y4882220D02*
Y5179500D01*
X6109000Y5076820D02*
Y5179500D01*
Y5076820D02*
X6118520Y5067300D01*
X6029000Y5084120D02*
Y5179500D01*
X6012180Y5067300D02*
X6029000Y5084120D01*
X6067740Y5024861D02*
Y5036500D01*
X6069000Y5037760D01*
Y5179500D01*
X5819140Y5016500D02*
Y5092700D01*
X5773420Y4970780D02*
X5819140Y5016500D01*
X5789000Y5179500D02*
X5789160Y5179340D01*
Y5122680D02*
Y5179340D01*
Y5122680D02*
X5819140Y5092700D01*
X5829000Y5384500D02*
X5969000Y5524500D01*
X5438140Y5351780D02*
X5520397D01*
X5433060Y5356860D02*
X5438140Y5351780D01*
X5450840Y5473700D02*
X5478780Y5501640D01*
X5219700Y5473700D02*
X5450840D01*
X5478780Y5501640D02*
X5575150D01*
X5438140Y5504180D02*
X5466080Y5532120D01*
X5326380Y5504180D02*
X5438140D01*
X5466080Y5532120D02*
X5562525D01*
X5293360Y5537200D02*
X5326380Y5504180D01*
X5552440Y5565140D02*
X5571640Y5584340D01*
X5397124Y5565140D02*
X5552440D01*
X5571640Y5584340D02*
X5623840D01*
X5506720Y5448300D02*
X5521960Y5463540D01*
X5445049Y5427980D02*
X5485689Y5387340D01*
X5546420Y5424500D02*
X5624000D01*
X5485689Y5387340D02*
X5509260D01*
X5553117Y5384500D02*
X5624000D01*
X5520397Y5351780D02*
X5553117Y5384500D01*
X5509260Y5387340D02*
X5546420Y5424500D01*
X5559935Y5344500D02*
X5624000D01*
X5467794Y5288280D02*
X5477514Y5298000D01*
X5513434D01*
X5559935Y5344500D01*
X5173980Y5519420D02*
X5219700Y5473700D01*
X5528000Y5464500D02*
X5624000D01*
X5575150Y5501640D02*
X5577850Y5504340D01*
X5527040Y5463540D02*
X5528000Y5464500D01*
X5562525Y5532120D02*
X5574745Y5544340D01*
X5521960Y5463540D02*
X5527040D01*
X5749000Y5070820D02*
Y5179500D01*
X5333994Y4700405D02*
X5406249Y4772660D01*
X5435860D02*
X5537200Y4874000D01*
X5406249Y4772660D02*
X5435860D01*
X5537200Y4874000D02*
Y4937760D01*
X5709000Y5109560D02*
Y5179500D01*
X5537200Y4937760D02*
X5709000Y5109560D01*
X6090920Y6291580D02*
Y6296660D01*
X6131554Y6337294D02*
X6211695D01*
X6090920Y6296660D02*
X6131554Y6337294D01*
X6090920Y6050280D02*
X6093460D01*
X6029000Y5869500D02*
Y5988360D01*
X6090920Y6050280D01*
X6189160Y5930305D02*
X6278655Y6019800D01*
X6189000Y5869500D02*
X6189160Y5869660D01*
Y5930305D01*
X6149000Y5869500D02*
Y5933250D01*
X6266030Y6050280D01*
X6109000Y5936355D02*
X6253405Y6080760D01*
X6109000Y5869500D02*
Y5936355D01*
X6069000Y5939460D02*
X6240780Y6111240D01*
X6069000Y5869500D02*
Y5939460D01*
X5989000Y6024560D02*
X6106160Y6141720D01*
X5989000Y5869500D02*
Y6024560D01*
X5949000Y6035360D02*
X6085840Y6172200D01*
X5949000Y5869500D02*
Y6035360D01*
X5909000Y5869500D02*
Y6041080D01*
X6070600Y6202680D01*
X5910580Y6217920D02*
Y6220460D01*
X5869000Y5869500D02*
Y6176340D01*
X5910580Y6217920D01*
X5976620Y6377940D02*
X6032500D01*
X6098540Y6443980D02*
Y6471920D01*
X6032500Y6377940D02*
X6098540Y6443980D01*
X5829000Y5869500D02*
Y6230320D01*
X5976620Y6377940D01*
X6209149Y6530340D02*
X6211695Y6527794D01*
X6098540Y6471920D02*
X6156960Y6530340D01*
X6209149D01*
X5931723Y6502325D02*
X6147698Y6718300D01*
X6210300D01*
X5931723Y6756325D02*
X6084191Y6908794D01*
X6211695D01*
X5789000Y5869500D02*
Y6645048D01*
X5677723Y6756325D02*
X5789000Y6645048D01*
X5749000Y5869500D02*
Y6424431D01*
X5677723Y6495708D02*
X5749000Y6424431D01*
X5677723Y6495708D02*
Y6502325D01*
X5491480Y5821680D02*
Y6190777D01*
X5568500Y5744660D02*
X5623840D01*
X5491480Y5821680D02*
X5568500Y5744660D01*
X5623840D02*
X5624000Y5744500D01*
X5397500Y6207500D02*
X5402320Y6202680D01*
X5479577D01*
X5491480Y6190777D01*
X5536223Y5722620D02*
X5547360D01*
X5565320Y5704660D02*
X5623840D01*
X5547360Y5722620D02*
X5565320Y5704660D01*
X5623840D02*
X5624000Y5704500D01*
X5537200Y5689600D02*
X5562300Y5664500D01*
X5624000D01*
X5405120Y5689600D02*
X5537200D01*
X5513400Y5624500D02*
X5624000D01*
X5511800Y5626100D02*
X5513400Y5624500D01*
X5623840Y5504340D02*
X5624000Y5504500D01*
X5577850Y5504340D02*
X5623840D01*
Y5544340D02*
X5624000Y5544500D01*
X5574745Y5544340D02*
X5623840D01*
Y5584340D02*
X5624000Y5584500D01*
X5400040Y5684520D02*
X5405120Y5689600D01*
X5582763Y5304500D02*
X5624000D01*
X5473132Y5194868D02*
X5582763Y5304500D01*
X5596564Y5264500D02*
X5624000D01*
X5596404Y5264340D02*
X5596564Y5264500D01*
X5596404Y5236904D02*
Y5264340D01*
X5482000Y5122500D02*
X5596404Y5236904D01*
D23*
X7750000Y4950000D02*
X8200000D01*
X7747000Y4953000D02*
X7750000Y4950000D01*
X8275000Y5025000D02*
Y7150000D01*
X8200000Y4950000D02*
X8275000Y5025000D01*
X8001000Y7239000D02*
X8186000D01*
X8275000Y7150000D01*
X7747000Y7239000D02*
X8001000D01*
X6650000Y7225000D02*
X6657000Y7232000D01*
X7740000D01*
X7747000Y7239000D01*
X5285740Y7019603D02*
X5461000D01*
X5537200Y4607560D02*
X5595620Y4549140D01*
X5715000D01*
X5537200Y4607560D02*
Y4699000D01*
X4091940Y7327900D02*
X4305300D01*
X4086860Y7332980D02*
X4091940Y7327900D01*
X5220657Y7019603D02*
X5285740D01*
X4801995Y6214195D02*
Y6819894D01*
X4791100Y6203300D02*
X4801995Y6214195D01*
X4787548Y6199748D02*
X4791100Y6203300D01*
X4099560Y6179820D02*
X4163060Y6116320D01*
X3619320Y6179820D02*
X4099560D01*
X3576500Y5084900D02*
Y5365202D01*
X3606258Y5394960D02*
X3892000D01*
X4163060Y6116320D02*
X4282180D01*
X4292600Y6105900D01*
X3606258Y5394960D02*
X3614940Y5403642D01*
X3576500Y5365202D02*
X3606258Y5394960D01*
X3614940Y6175440D02*
X3615500Y6176000D01*
X3614940Y5403642D02*
Y6175440D01*
X3873500Y5648500D02*
X3886600D01*
X3892000Y5643100D01*
Y5419500D02*
Y5643100D01*
Y5419500D02*
X3910500Y5401000D01*
X3615500Y6176000D02*
X3619320Y6179820D01*
X3615500Y4846000D02*
X3950500D01*
X3576500Y5067000D02*
X3596000Y5047500D01*
Y4865500D02*
Y5047500D01*
Y4865500D02*
X3615500Y4846000D01*
X3600100Y5108500D02*
X3873500D01*
X3576500Y5084900D02*
X3600100Y5108500D01*
X3576500Y5067000D02*
Y5084900D01*
X5158740Y4909820D02*
X5193155Y4875405D01*
X5333994D01*
X4517232Y7034372D02*
X4544700Y7061840D01*
X4489763Y7006903D02*
X4517232Y7034372D01*
X4576763Y6974840D02*
X4577080D01*
X4584700Y6967220D01*
X4517232Y7034372D02*
X4576763Y6974840D01*
X5072578Y5356860D02*
X5433060D01*
X5059562Y5343844D02*
X5072578Y5356860D01*
X4585066Y5343844D02*
X5059562D01*
X5049060Y5423145D02*
X5440213D01*
X5033259Y5407344D02*
X5049060Y5423145D01*
X4585066Y5407344D02*
X5033259D01*
X5279306Y5639251D02*
X5354771D01*
X5400040Y5684520D01*
X5916795Y7011805D02*
X5918200Y7010400D01*
X5916795Y7011805D02*
Y7150094D01*
X4572008Y6021196D02*
X4703204D01*
X4761100Y5963300D01*
X4791100D01*
X5191100D02*
X5328300D01*
X5397500Y6032500D01*
X5161100Y5963300D02*
X5191100D01*
X5038560Y6085840D02*
X5161100Y5963300D01*
X4938560Y6085840D02*
X5038560D01*
X4821100Y6203300D02*
X4938560Y6085840D01*
X5191100Y6203300D02*
X5193200Y6205400D01*
X5395400D01*
X5397500Y6207500D01*
X4572008Y6196196D02*
X4575560Y6199748D01*
X4787548D01*
X5433135Y6502325D02*
X5677723D01*
X5295992Y6639468D02*
X5433135Y6502325D01*
X4978400Y6639468D02*
X5295992D01*
X5675108Y6758940D02*
X5677723Y6756325D01*
X5455920Y6758940D02*
X5675108D01*
X4976995Y6819894D02*
X5394966D01*
X5455920Y6758940D01*
X4894580Y7340600D02*
X5461000D01*
X4782000Y7321300D02*
X4875280D01*
X4894580Y7340600D01*
X5741800Y7340604D02*
X5741804Y7340608D01*
X5461004Y7340604D02*
X5741800D01*
X5461000Y7340600D02*
X5461004Y7340604D01*
X5916799Y7340603D02*
X5916804Y7340608D01*
X5916799Y7150098D02*
Y7340603D01*
X5916795Y7150094D02*
X5916799Y7150098D01*
X5741795Y7049895D02*
Y7150094D01*
X5711503Y7019603D02*
X5741795Y7049895D01*
X5461000Y7019603D02*
X5711503D01*
X5177860Y7135048D02*
X5181600Y7138788D01*
Y7058660D02*
X5220657Y7019603D01*
X5181600Y7138788D02*
X5181608Y7138796D01*
X5181600Y7058660D02*
Y7138788D01*
X4782000Y7131300D02*
X4785748Y7135048D01*
X5177860D01*
X4559300Y7152900D02*
X4632700Y7226300D01*
X4997000D01*
X4544700Y7138300D02*
X4559300Y7152900D01*
X4544700Y7061840D02*
Y7138300D01*
X4305300Y7006903D02*
X4489763D01*
X4559300Y7327900D02*
X4762900D01*
X4305300D02*
X4559300D01*
X4762900D02*
X4769500Y7321300D01*
X4782000D01*
X4292600Y6525000D02*
X4298950Y6531350D01*
Y7000553D01*
X4305300Y7006903D01*
X4292600Y6350000D02*
X4307200Y6335400D01*
X4383400D01*
X4424680Y5986780D02*
Y6294120D01*
X4383400Y6335400D02*
X4424680Y6294120D01*
X4383400Y5945500D02*
X4424680Y5986780D01*
X4292600Y5930900D02*
X4307200Y5945500D01*
X4383400D01*
X4282440Y5941060D02*
X4292600Y5930900D01*
X4196080Y5941060D02*
X4282440D01*
X3873500Y5908500D02*
X4163520D01*
X4196080Y5941060D01*
X4083425Y5727700D02*
X5190858D01*
X5217160Y5791200D02*
X5302693Y5705667D01*
X4109727Y5791200D02*
X5217160D01*
X5190858Y5727700D02*
X5279306Y5639251D01*
X3874250Y5842750D02*
X4058178D01*
X3873500Y5843500D02*
X3874250Y5842750D01*
X4058178D02*
X4109727Y5791200D01*
X3874250Y5779250D02*
X4031875D01*
X3873500Y5778500D02*
X3874250Y5779250D01*
X4031875D02*
X4083425Y5727700D01*
X5373993Y5189942D02*
X5468205D01*
X5347691Y5126442D02*
X5468205D01*
X4946199Y5212898D02*
X5351037D01*
X5373993Y5189942D01*
X4776050Y5042750D02*
X4946199Y5212898D01*
X3874250Y5042750D02*
X4776050D01*
X3873500Y5043500D02*
X3874250Y5042750D01*
X5324734Y5149398D02*
X5347691Y5126442D01*
X4802353Y4979250D02*
X4972501Y5149398D01*
X5324734D01*
X3874250Y4979250D02*
X4802353D01*
X3873500Y4978500D02*
X3874250Y4979250D01*
X4561003Y5431406D02*
Y5435606D01*
Y5431406D02*
X4585066Y5407344D01*
X4561003Y5319781D02*
X4585066Y5343844D01*
X4561003Y5315581D02*
Y5319781D01*
X4241800Y5410200D02*
X4457700D01*
X4268102Y5346700D02*
X4457700D01*
X4095652Y5174250D02*
X4268102Y5346700D01*
X4069350Y5237750D02*
X4241800Y5410200D01*
X3874250Y5174250D02*
X4095652D01*
X3873500Y5173500D02*
X3874250Y5174250D01*
X3874250Y5237750D02*
X4069350D01*
X3873500Y5238500D02*
X3874250Y5237750D01*
D24*
X6386695Y6718300D02*
Y6908794D01*
Y6337294D02*
X6738614D01*
X6278880Y7239000D02*
X6393180D01*
X6386695Y6908794D02*
Y7232515D01*
Y6527794D02*
Y6718300D01*
Y6337294D02*
Y6527794D01*
Y7232515D02*
X6393180Y7239000D01*
X5711503Y7019603D02*
X5812146Y6918960D01*
X5958840D01*
X6278880Y7239000D01*
D25*
X5466080Y5722620D02*
X5536223D01*
X5334000Y5854700D02*
X5466080Y5722620D01*
X4929700Y5854700D02*
X5334000D01*
X4791100Y5963300D02*
X4821100D01*
X4929700Y5854700D01*
D26*
X5867400Y4241800D02*
D03*
D27*
X5613400D02*
D03*
D28*
X6396000Y7225000D02*
D03*
X5677723Y6502325D02*
D03*
Y6756325D02*
D03*
X8001000Y3683000D02*
D03*
X7747000Y3937000D02*
D03*
Y4191000D02*
D03*
Y4445000D02*
D03*
Y4699000D02*
D03*
Y4953000D02*
D03*
X8001000Y3937000D02*
D03*
Y4191000D02*
D03*
Y4445000D02*
D03*
Y4699000D02*
D03*
Y4953000D02*
D03*
Y5969000D02*
D03*
X7747000Y6223000D02*
D03*
Y6477000D02*
D03*
Y6731000D02*
D03*
Y6985000D02*
D03*
Y7239000D02*
D03*
X8001000Y6223000D02*
D03*
Y6477000D02*
D03*
Y6731000D02*
D03*
Y6985000D02*
D03*
Y7239000D02*
D03*
D29*
X6650000Y7225000D02*
D03*
X5931723Y6502325D02*
D03*
Y6756325D02*
D03*
X7747000Y3683000D02*
D03*
Y5969000D02*
D03*
D30*
X3594861Y3588206D02*
D03*
X3600000Y7300000D02*
D03*
D31*
X3615500Y6176000D02*
D03*
Y4846000D02*
D03*
X3950500D02*
D03*
X3910500Y5401000D02*
D03*
X3950500Y6176000D02*
D03*
D32*
X3700500Y6001000D02*
D03*
Y5021000D02*
D03*
D33*
X6012180Y5603240D02*
D03*
X6139180Y5527040D02*
D03*
Y5603240D02*
D03*
X4800600Y6431280D02*
D03*
X4086860Y7327900D02*
D03*
X5720080Y4546600D02*
D03*
X5293360Y5547360D02*
D03*
X5285740Y7023100D02*
D03*
X6715760Y5878830D02*
D03*
X6433820Y5623560D02*
D03*
X6548120Y5610860D02*
D03*
X6461760Y5875020D02*
D03*
X6761480Y6352540D02*
D03*
X5582920Y6019800D02*
D03*
X5765800Y4737100D02*
D03*
X6057900Y4902200D02*
D03*
X5768340Y4970780D02*
D03*
X4594860Y6962140D02*
D03*
X5161280Y4909820D02*
D03*
X6067740Y5024861D02*
D03*
X5749000Y5070820D02*
D03*
X5397124Y5565140D02*
D03*
X5501640Y5450840D02*
D03*
X6078220Y6294120D02*
D03*
X6098540Y6052820D02*
D03*
X5920740Y6223000D02*
D03*
X5913120Y7005320D02*
D03*
X5513400Y5624500D02*
D03*
X5173980Y5519420D02*
D03*
X5321300Y5712460D02*
D03*
X5467794Y5288280D02*
D03*
%TF.MD5,bc1eaa171b8bf2f462149b06a4793f57*%
M02*
