%TF.GenerationSoftware,Altium Limited,Altium Designer,19.1.7 (138)*%
G04 Layer_Color=32896*
%FSLAX45Y45*%
%MOMM*%
%TF.FileFunction,Legend,Bot*%
%TF.Part,Single*%
G01*
G75*
%TA.AperFunction,NonConductor*%
%ADD34C,0.15240*%
%ADD35C,0.10000*%
D34*
X5878975Y5574175D02*
X5943600Y5638800D01*
X6100207Y5679456D02*
Y5775945D01*
X6051963D01*
X6035882Y5759863D01*
Y5727700D01*
X6051963Y5711619D01*
X6100207D01*
X6068044D02*
X6035882Y5679456D01*
X5939393Y5775945D02*
X5971555Y5759863D01*
X6003718Y5727700D01*
Y5695537D01*
X5987637Y5679456D01*
X5955474D01*
X5939393Y5695537D01*
Y5711619D01*
X5955474Y5727700D01*
X6003718D01*
X5606637Y5021985D02*
X5590555Y5038066D01*
Y5070229D01*
X5606637Y5086311D01*
X5670963D01*
X5687044Y5070229D01*
Y5038066D01*
X5670963Y5021985D01*
X5687044Y4989822D02*
Y4957659D01*
Y4973741D01*
X5590555D01*
X5606637Y4989822D01*
X5590555Y4845089D02*
Y4909415D01*
X5638800D01*
X5622718Y4877252D01*
Y4861170D01*
X5638800Y4845089D01*
X5670963D01*
X5687044Y4861170D01*
Y4893333D01*
X5670963Y4909415D01*
X6152737Y5021985D02*
X6136655Y5038066D01*
Y5070229D01*
X6152737Y5086311D01*
X6217063D01*
X6233144Y5070229D01*
Y5038066D01*
X6217063Y5021985D01*
X6233144Y4989822D02*
Y4957659D01*
Y4973741D01*
X6136655D01*
X6152737Y4989822D01*
X6233144Y4861170D02*
X6136655D01*
X6184900Y4909415D01*
Y4845089D01*
X5783985Y5874163D02*
X5800066Y5890245D01*
X5832229D01*
X5848311Y5874163D01*
Y5809837D01*
X5832229Y5793756D01*
X5800066D01*
X5783985Y5809837D01*
X5751822Y5793756D02*
X5719659D01*
X5735741D01*
Y5890245D01*
X5751822Y5874163D01*
X5671415D02*
X5655333Y5890245D01*
X5623170D01*
X5607089Y5874163D01*
Y5858082D01*
X5623170Y5842000D01*
X5639252D01*
X5623170D01*
X5607089Y5825919D01*
Y5809837D01*
X5623170Y5793756D01*
X5655333D01*
X5671415Y5809837D01*
X6444837Y5491885D02*
X6428755Y5507966D01*
Y5540129D01*
X6444837Y5556211D01*
X6509163D01*
X6525244Y5540129D01*
Y5507966D01*
X6509163Y5491885D01*
X6525244Y5459722D02*
Y5427559D01*
Y5443641D01*
X6428755D01*
X6444837Y5459722D01*
X6525244Y5314989D02*
Y5379315D01*
X6460918Y5314989D01*
X6444837D01*
X6428755Y5331070D01*
Y5363233D01*
X6444837Y5379315D01*
X5860637Y5018604D02*
X5844555Y5034685D01*
Y5066848D01*
X5860637Y5082929D01*
X5924963D01*
X5941044Y5066848D01*
Y5034685D01*
X5924963Y5018604D01*
X5941044Y4986441D02*
Y4954278D01*
Y4970359D01*
X5844555D01*
X5860637Y4986441D01*
X5941044Y4906033D02*
Y4873870D01*
Y4889952D01*
X5844555D01*
X5860637Y4906033D01*
D35*
X6241892Y5586996D02*
X6381892D01*
X6241892Y5286996D02*
Y5586996D01*
X6381892Y5286996D02*
Y5586996D01*
X6241892Y5286996D02*
X6381892D01*
X6000600Y5133200D02*
X6140600D01*
Y5433200D01*
X6000600Y5133200D02*
Y5433200D01*
X6000600D02*
X6140600D01*
X5577700Y5619600D02*
Y5759600D01*
Y5619600D02*
X5877700D01*
X5577700Y5759600D02*
X5877700D01*
Y5619600D02*
Y5759600D01*
X5820175Y5133200D02*
X5960175D01*
Y5433200D01*
X5820175Y5133200D02*
Y5433200D01*
X5820175D02*
X5960175D01*
X5632300Y5133200D02*
X5772300D01*
Y5433200D01*
X5632300Y5133200D02*
Y5433200D01*
X5632300D02*
X5772300D01*
X5573775Y5586875D02*
X5873775D01*
X5573775Y5456875D02*
Y5586875D01*
Y5456875D02*
X5873775D01*
Y5586875D01*
%TF.MD5,844d46cb835ffd0392d7f38332c3258c*%
M02*
