%TF.GenerationSoftware,Altium Limited,Altium Designer,19.1.7 (138)*%
G04 Layer_Color=255*
%FSLAX45Y45*%
%MOMM*%
%TF.FileFunction,Pads,Bot*%
%TF.Part,Single*%
G01*
G75*
%TA.AperFunction,SMDPad,CuDef*%
%ADD12R,0.80000X0.80000*%
%ADD18R,0.80000X0.80000*%
%TA.AperFunction,ComponentPad*%
%ADD26C,1.37000*%
%ADD27R,1.37000X1.37000*%
%ADD28C,1.50000*%
%ADD29R,1.50000X1.50000*%
%TA.AperFunction,WasherPad*%
%ADD30C,3.10000*%
%TA.AperFunction,ComponentPad*%
%ADD31C,1.87500*%
%ADD32C,0.50000*%
D12*
X5640196Y5689608D02*
D03*
X5815196D02*
D03*
X5811270Y5521881D02*
D03*
X5636270D02*
D03*
D18*
X6311900Y5524500D02*
D03*
Y5349500D02*
D03*
X6070592Y5195696D02*
D03*
Y5370696D02*
D03*
X5890167Y5195696D02*
D03*
Y5370696D02*
D03*
X5702292Y5195696D02*
D03*
Y5370696D02*
D03*
D26*
X5867400Y4241800D02*
D03*
D27*
X5613400D02*
D03*
D28*
X6396000Y7225000D02*
D03*
X5677723Y6502325D02*
D03*
Y6756325D02*
D03*
X8001000Y3683000D02*
D03*
X7747000Y3937000D02*
D03*
Y4191000D02*
D03*
Y4445000D02*
D03*
Y4699000D02*
D03*
Y4953000D02*
D03*
X8001000Y3937000D02*
D03*
Y4191000D02*
D03*
Y4445000D02*
D03*
Y4699000D02*
D03*
Y4953000D02*
D03*
Y5969000D02*
D03*
X7747000Y6223000D02*
D03*
Y6477000D02*
D03*
Y6731000D02*
D03*
Y6985000D02*
D03*
Y7239000D02*
D03*
X8001000Y6223000D02*
D03*
Y6477000D02*
D03*
Y6731000D02*
D03*
Y6985000D02*
D03*
Y7239000D02*
D03*
D29*
X6650000Y7225000D02*
D03*
X5931723Y6502325D02*
D03*
Y6756325D02*
D03*
X7747000Y3683000D02*
D03*
Y5969000D02*
D03*
D30*
X3594861Y3588206D02*
D03*
X3600000Y7300000D02*
D03*
D31*
X3615500Y6176000D02*
D03*
Y4846000D02*
D03*
X3950500D02*
D03*
X3910500Y5401000D02*
D03*
X3950500Y6176000D02*
D03*
D32*
X3700500Y6001000D02*
D03*
Y5021000D02*
D03*
%TF.MD5,8a30e09dff7187f43bf261c5a6bd4599*%
M02*
