%TF.GenerationSoftware,Altium Limited,Altium Designer,19.1.7 (138)*%
G04 Layer_Color=8388736*
%FSLAX45Y45*%
%MOMM*%
%TF.FileFunction,Soldermask,Top*%
%TF.Part,Single*%
G01*
G75*
%TA.AperFunction,SMDPad,CuDef*%
%ADD36R,1.00320X1.00320*%
%ADD37R,1.00320X1.00320*%
%TA.AperFunction,ComponentPad*%
%ADD38C,1.57320*%
%ADD39R,1.57320X1.57320*%
%ADD40C,1.70320*%
%ADD41R,1.70320X1.70320*%
%TA.AperFunction,WasherPad*%
%ADD42C,3.30320*%
%TA.AperFunction,ComponentPad*%
%ADD43C,2.07820*%
%ADD44C,0.70320*%
%TA.AperFunction,ViaPad*%
%ADD45C,0.76200*%
%TA.AperFunction,ConnectorPad*%
%ADD51R,1.55320X0.60320*%
%ADD52R,1.18320X2.38320*%
%TA.AperFunction,SMDPad,CuDef*%
%ADD53R,5.05320X4.25320*%
%ADD54R,1.05320X0.40320*%
%ADD55R,0.40320X1.05320*%
%ADD56R,1.70320X1.20320*%
G04:AMPARAMS|DCode=57|XSize=1.2032mm|YSize=1.7032mm|CornerRadius=0.3516mm|HoleSize=0mm|Usage=FLASHONLY|Rotation=90.000|XOffset=0mm|YOffset=0mm|HoleType=Round|Shape=RoundedRectangle|*
%AMROUNDEDRECTD57*
21,1,1.20320,1.00000,0,0,90.0*
21,1,0.50000,1.70320,0,0,90.0*
1,1,0.70320,0.50000,0.25000*
1,1,0.70320,0.50000,-0.25000*
1,1,0.70320,-0.50000,-0.25000*
1,1,0.70320,-0.50000,0.25000*
%
%ADD57ROUNDEDRECTD57*%
%ADD58R,1.05320X0.80320*%
%ADD59R,2.00320X1.40320*%
%ADD60R,0.70320X0.80320*%
D36*
X5181608Y7138796D02*
D03*
Y7313796D02*
D03*
X4292600Y6350000D02*
D03*
Y6525000D02*
D03*
X4559300Y7152900D02*
D03*
Y7327900D02*
D03*
X5397500Y6032500D02*
D03*
Y6207500D02*
D03*
X4572008Y6021196D02*
D03*
Y6196196D02*
D03*
X4292600Y5930900D02*
D03*
Y6105900D02*
D03*
X5333994Y4700405D02*
D03*
Y4875405D02*
D03*
X5537200Y4874000D02*
D03*
Y4699000D02*
D03*
D37*
X6386695Y6337294D02*
D03*
X6211695D02*
D03*
X6386695Y6527794D02*
D03*
X6211695D02*
D03*
X6385300Y6718300D02*
D03*
X6210300D02*
D03*
X6386695Y6908794D02*
D03*
X6211695D02*
D03*
X5916804Y7340608D02*
D03*
X5741804D02*
D03*
X5916795Y7150094D02*
D03*
X5741795D02*
D03*
X4978400Y6639468D02*
D03*
X4803400D02*
D03*
X4976995Y6819894D02*
D03*
X4801995D02*
D03*
D38*
X5867400Y4241800D02*
D03*
D39*
X5613400D02*
D03*
D40*
X6396000Y7225000D02*
D03*
X5677723Y6502325D02*
D03*
Y6756325D02*
D03*
X8001000Y3683000D02*
D03*
X7747000Y3937000D02*
D03*
Y4191000D02*
D03*
Y4445000D02*
D03*
Y4699000D02*
D03*
Y4953000D02*
D03*
X8001000Y3937000D02*
D03*
Y4191000D02*
D03*
Y4445000D02*
D03*
Y4699000D02*
D03*
Y4953000D02*
D03*
Y5969000D02*
D03*
X7747000Y6223000D02*
D03*
Y6477000D02*
D03*
Y6731000D02*
D03*
Y6985000D02*
D03*
Y7239000D02*
D03*
X8001000Y6223000D02*
D03*
Y6477000D02*
D03*
Y6731000D02*
D03*
Y6985000D02*
D03*
Y7239000D02*
D03*
D41*
X6650000Y7225000D02*
D03*
X5931723Y6502325D02*
D03*
Y6756325D02*
D03*
X7747000Y3683000D02*
D03*
Y5969000D02*
D03*
D42*
X3594861Y3588206D02*
D03*
X3600000Y7300000D02*
D03*
D43*
X3615500Y6176000D02*
D03*
Y4846000D02*
D03*
X3950500D02*
D03*
X3910500Y5401000D02*
D03*
X3950500Y6176000D02*
D03*
D44*
X3700500Y6001000D02*
D03*
Y5021000D02*
D03*
D45*
X6012180Y5603240D02*
D03*
X6139180Y5527040D02*
D03*
Y5603240D02*
D03*
X4800600Y6431280D02*
D03*
X4086860Y7327900D02*
D03*
X5720080Y4546600D02*
D03*
X5293360Y5547360D02*
D03*
X5285740Y7023100D02*
D03*
X6715760Y5878830D02*
D03*
X6433820Y5623560D02*
D03*
X6548120Y5610860D02*
D03*
X6461760Y5875020D02*
D03*
X6761480Y6352540D02*
D03*
X5582920Y6019800D02*
D03*
X5765800Y4737100D02*
D03*
X6057900Y4902200D02*
D03*
X5768340Y4970780D02*
D03*
X4594860Y6962140D02*
D03*
X5161280Y4909820D02*
D03*
X6067740Y5024861D02*
D03*
X5749000Y5070820D02*
D03*
X5397124Y5565140D02*
D03*
X5501640Y5450840D02*
D03*
X6078220Y6294120D02*
D03*
X6098540Y6052820D02*
D03*
X5920740Y6223000D02*
D03*
X5913120Y7005320D02*
D03*
X5513400Y5624500D02*
D03*
X5173980Y5519420D02*
D03*
X5321300Y5712460D02*
D03*
X5467794Y5288280D02*
D03*
D51*
X3873500Y5908500D02*
D03*
Y5843500D02*
D03*
Y5778500D02*
D03*
Y5713500D02*
D03*
Y5648500D02*
D03*
Y5238500D02*
D03*
Y5173500D02*
D03*
Y5108500D02*
D03*
Y5043500D02*
D03*
Y4978500D02*
D03*
D52*
X3576500Y5067000D02*
D03*
D53*
X5969000Y5524500D02*
D03*
D54*
X6314000Y5784500D02*
D03*
Y5744500D02*
D03*
Y5704500D02*
D03*
Y5664500D02*
D03*
Y5624500D02*
D03*
Y5584500D02*
D03*
Y5544500D02*
D03*
Y5504500D02*
D03*
Y5464500D02*
D03*
Y5424500D02*
D03*
Y5384500D02*
D03*
Y5344500D02*
D03*
Y5304500D02*
D03*
Y5264500D02*
D03*
X5624000D02*
D03*
Y5304500D02*
D03*
Y5344500D02*
D03*
Y5384500D02*
D03*
Y5424500D02*
D03*
Y5464500D02*
D03*
Y5504500D02*
D03*
Y5544500D02*
D03*
Y5584500D02*
D03*
Y5624500D02*
D03*
Y5664500D02*
D03*
Y5704500D02*
D03*
Y5744500D02*
D03*
Y5784500D02*
D03*
D55*
X6229000Y5179500D02*
D03*
X6189000D02*
D03*
X6149000D02*
D03*
X6109000D02*
D03*
X6069000D02*
D03*
X6029000D02*
D03*
X5989000D02*
D03*
X5949000D02*
D03*
X5909000D02*
D03*
X5869000D02*
D03*
X5829000D02*
D03*
X5789000D02*
D03*
X5749000D02*
D03*
X5709000D02*
D03*
Y5869500D02*
D03*
X5749000D02*
D03*
X5789000D02*
D03*
X5829000D02*
D03*
X5869000D02*
D03*
X5909000D02*
D03*
X5949000D02*
D03*
X5989000D02*
D03*
X6029000D02*
D03*
X6069000D02*
D03*
X6109000D02*
D03*
X6149000D02*
D03*
X6189000D02*
D03*
X6229000D02*
D03*
D56*
X5461000Y7340600D02*
D03*
X4305300Y7327900D02*
D03*
D57*
X5461000Y7019603D02*
D03*
X4305300Y7006903D02*
D03*
D58*
X4997000Y7226300D02*
D03*
X4782000Y7131300D02*
D03*
Y7321300D02*
D03*
D59*
X5191100Y5963300D02*
D03*
X4791100D02*
D03*
Y6203300D02*
D03*
X5191100D02*
D03*
D60*
X4456007Y5315581D02*
D03*
X4561003D02*
D03*
X4456007Y5435606D02*
D03*
X4561003D02*
D03*
%TF.MD5,0ae6b5cbdba3060471ac241b0f0d1693*%
M02*
