%TF.GenerationSoftware,Altium Limited,Altium Designer,19.1.7 (138)*%
G04 Layer_Physical_Order=2*
G04 Layer_Color=16711680*
%FSLAX45Y45*%
%MOMM*%
%TF.FileFunction,Copper,L2,Bot,Signal*%
%TF.Part,Single*%
G01*
G75*
%TA.AperFunction,SMDPad,CuDef*%
%ADD12R,0.80000X0.80000*%
%ADD18R,0.80000X0.80000*%
%TA.AperFunction,Conductor*%
%ADD22C,0.20320*%
%ADD23C,0.50800*%
%ADD24C,0.63500*%
%ADD25C,0.25400*%
%TA.AperFunction,ComponentPad*%
%ADD26C,1.37000*%
%ADD27R,1.37000X1.37000*%
%ADD28C,1.50000*%
%ADD29R,1.50000X1.50000*%
%TA.AperFunction,WasherPad*%
%ADD30C,3.10000*%
%TA.AperFunction,ComponentPad*%
%ADD31C,1.87500*%
%ADD32C,0.50000*%
%TA.AperFunction,ViaPad*%
%ADD33C,0.55880*%
G36*
X8369300Y3317240D02*
X8361680Y3309620D01*
X3318606D01*
X3309631Y3318606D01*
X3314692Y7602656D01*
X3319780Y7604760D01*
X8369300D01*
Y3317240D01*
D02*
G37*
%LPC*%
G36*
X4099560Y7379759D02*
Y7340600D01*
X4138719D01*
X4137105Y7348712D01*
X4125316Y7366356D01*
X4107672Y7378145D01*
X4099560Y7379759D01*
D02*
G37*
G36*
X4074160D02*
X4066048Y7378145D01*
X4048404Y7366356D01*
X4036615Y7348712D01*
X4035001Y7340600D01*
X4074160D01*
Y7379759D01*
D02*
G37*
G36*
X4138719Y7315200D02*
X4099560D01*
Y7276041D01*
X4107672Y7277655D01*
X4125316Y7289444D01*
X4137105Y7307088D01*
X4138719Y7315200D01*
D02*
G37*
G36*
X4074160D02*
X4035001D01*
X4036615Y7307088D01*
X4048404Y7289444D01*
X4066048Y7277655D01*
X4074160Y7276041D01*
Y7315200D01*
D02*
G37*
G36*
X8001000Y7324895D02*
X7978769Y7321968D01*
X7958053Y7313387D01*
X7940263Y7299737D01*
X7926613Y7281947D01*
X7918032Y7261231D01*
X7915105Y7239000D01*
X7918032Y7216769D01*
X7926613Y7196053D01*
X7940263Y7178263D01*
X7958053Y7164613D01*
X7978769Y7156032D01*
X8001000Y7153105D01*
X8023231Y7156032D01*
X8043947Y7164613D01*
X8061737Y7178263D01*
X8075387Y7196053D01*
X8083968Y7216769D01*
X8086895Y7239000D01*
X8083968Y7261231D01*
X8075387Y7281947D01*
X8061737Y7299737D01*
X8043947Y7313387D01*
X8023231Y7321968D01*
X8001000Y7324895D01*
D02*
G37*
G36*
X7747000D02*
X7724769Y7321968D01*
X7704053Y7313387D01*
X7686263Y7299737D01*
X7672613Y7281947D01*
X7664032Y7261231D01*
X7661105Y7239000D01*
X7664032Y7216769D01*
X7672613Y7196053D01*
X7686263Y7178263D01*
X7704053Y7164613D01*
X7724769Y7156032D01*
X7747000Y7153105D01*
X7769231Y7156032D01*
X7789947Y7164613D01*
X7807737Y7178263D01*
X7821387Y7196053D01*
X7829968Y7216769D01*
X7832895Y7239000D01*
X7829968Y7261231D01*
X7821387Y7281947D01*
X7807737Y7299737D01*
X7789947Y7313387D01*
X7769231Y7321968D01*
X7747000Y7324895D01*
D02*
G37*
G36*
X6735160Y7310160D02*
X6564840D01*
Y7139840D01*
X6735160D01*
Y7310160D01*
D02*
G37*
G36*
X6396000Y7310895D02*
X6373769Y7307968D01*
X6353053Y7299387D01*
X6335263Y7285737D01*
X6321613Y7267947D01*
X6313032Y7247231D01*
X6310105Y7225000D01*
X6313032Y7202769D01*
X6321613Y7182053D01*
X6335263Y7164263D01*
X6353053Y7150613D01*
X6373769Y7142032D01*
X6396000Y7139105D01*
X6418231Y7142032D01*
X6438947Y7150613D01*
X6456737Y7164263D01*
X6470387Y7182053D01*
X6478968Y7202769D01*
X6481895Y7225000D01*
X6478968Y7247231D01*
X6470387Y7267947D01*
X6456737Y7285737D01*
X6438947Y7299387D01*
X6418231Y7307968D01*
X6396000Y7310895D01*
D02*
G37*
G36*
X3600000Y7465959D02*
X3567623Y7462770D01*
X3536490Y7453326D01*
X3507798Y7437990D01*
X3482649Y7417351D01*
X3462010Y7392202D01*
X3446674Y7363510D01*
X3437230Y7332377D01*
X3434041Y7300000D01*
X3437230Y7267623D01*
X3446674Y7236490D01*
X3462010Y7207798D01*
X3482649Y7182649D01*
X3507798Y7162010D01*
X3536490Y7146674D01*
X3567623Y7137230D01*
X3600000Y7134041D01*
X3632377Y7137230D01*
X3663510Y7146674D01*
X3692202Y7162010D01*
X3717351Y7182649D01*
X3737990Y7207798D01*
X3753326Y7236490D01*
X3762770Y7267623D01*
X3765959Y7300000D01*
X3762770Y7332377D01*
X3753326Y7363510D01*
X3737990Y7392202D01*
X3717351Y7417351D01*
X3692202Y7437990D01*
X3663510Y7453326D01*
X3632377Y7462770D01*
X3600000Y7465959D01*
D02*
G37*
G36*
X8013700Y7084594D02*
Y6997700D01*
X8100594D01*
X8098816Y7011210D01*
X8088699Y7035633D01*
X8072606Y7056606D01*
X8051633Y7072699D01*
X8027210Y7082816D01*
X8013700Y7084594D01*
D02*
G37*
G36*
X7759700D02*
Y6997700D01*
X7846594D01*
X7844816Y7011210D01*
X7834699Y7035633D01*
X7818606Y7056606D01*
X7797633Y7072699D01*
X7773210Y7082816D01*
X7759700Y7084594D01*
D02*
G37*
G36*
X7734300D02*
X7720790Y7082816D01*
X7696367Y7072699D01*
X7675394Y7056606D01*
X7659301Y7035633D01*
X7649184Y7011210D01*
X7647406Y6997700D01*
X7734300D01*
Y7084594D01*
D02*
G37*
G36*
X7988300D02*
X7974790Y7082816D01*
X7950367Y7072699D01*
X7929394Y7056606D01*
X7913301Y7035633D01*
X7903184Y7011210D01*
X7901406Y6997700D01*
X7988300D01*
Y7084594D01*
D02*
G37*
G36*
X8100594Y6972300D02*
X8013700D01*
Y6885406D01*
X8027210Y6887184D01*
X8051633Y6897301D01*
X8072606Y6913394D01*
X8088699Y6934367D01*
X8098816Y6958790D01*
X8100594Y6972300D01*
D02*
G37*
G36*
X7846594D02*
X7759700D01*
Y6885406D01*
X7773210Y6887184D01*
X7797633Y6897301D01*
X7818606Y6913394D01*
X7834699Y6934367D01*
X7844816Y6958790D01*
X7846594Y6972300D01*
D02*
G37*
G36*
X7734300D02*
X7647406D01*
X7649184Y6958790D01*
X7659301Y6934367D01*
X7675394Y6913394D01*
X7696367Y6897301D01*
X7720790Y6887184D01*
X7734300Y6885406D01*
Y6972300D01*
D02*
G37*
G36*
X7988300D02*
X7901406D01*
X7903184Y6958790D01*
X7913301Y6934367D01*
X7929394Y6913394D01*
X7950367Y6897301D01*
X7974790Y6887184D01*
X7988300Y6885406D01*
Y6972300D01*
D02*
G37*
G36*
X6016883Y6841485D02*
X5846563D01*
Y6671165D01*
X6016883D01*
Y6841485D01*
D02*
G37*
G36*
X5677723Y6842220D02*
X5655492Y6839293D01*
X5634776Y6830712D01*
X5616986Y6817062D01*
X5603336Y6799273D01*
X5594755Y6778556D01*
X5591828Y6756325D01*
X5594755Y6734094D01*
X5603336Y6713378D01*
X5616986Y6695589D01*
X5634776Y6681938D01*
X5655492Y6673357D01*
X5677723Y6670431D01*
X5699954Y6673357D01*
X5720670Y6681938D01*
X5738460Y6695589D01*
X5752110Y6713378D01*
X5760691Y6734094D01*
X5763618Y6756325D01*
X5760691Y6778556D01*
X5752110Y6799273D01*
X5738460Y6817062D01*
X5720670Y6830712D01*
X5699954Y6839293D01*
X5677723Y6842220D01*
D02*
G37*
G36*
X8001000Y6816895D02*
X7978769Y6813968D01*
X7958053Y6805387D01*
X7940263Y6791737D01*
X7926613Y6773947D01*
X7918032Y6753231D01*
X7915105Y6731000D01*
X7918032Y6708769D01*
X7926613Y6688053D01*
X7940263Y6670263D01*
X7958053Y6656613D01*
X7978769Y6648032D01*
X8001000Y6645105D01*
X8023231Y6648032D01*
X8043947Y6656613D01*
X8061737Y6670263D01*
X8075387Y6688053D01*
X8083968Y6708769D01*
X8086895Y6731000D01*
X8083968Y6753231D01*
X8075387Y6773947D01*
X8061737Y6791737D01*
X8043947Y6805387D01*
X8023231Y6813968D01*
X8001000Y6816895D01*
D02*
G37*
G36*
X7747000D02*
X7724769Y6813968D01*
X7704053Y6805387D01*
X7686263Y6791737D01*
X7672613Y6773947D01*
X7664032Y6753231D01*
X7661105Y6731000D01*
X7664032Y6708769D01*
X7672613Y6688053D01*
X7686263Y6670263D01*
X7704053Y6656613D01*
X7724769Y6648032D01*
X7747000Y6645105D01*
X7769231Y6648032D01*
X7789947Y6656613D01*
X7807737Y6670263D01*
X7821387Y6688053D01*
X7829968Y6708769D01*
X7832895Y6731000D01*
X7829968Y6753231D01*
X7821387Y6773947D01*
X7807737Y6791737D01*
X7789947Y6805387D01*
X7769231Y6813968D01*
X7747000Y6816895D01*
D02*
G37*
G36*
X4813300Y6483139D02*
Y6443980D01*
X4852459D01*
X4850845Y6452092D01*
X4839056Y6469736D01*
X4821412Y6481525D01*
X4813300Y6483139D01*
D02*
G37*
G36*
X4787900D02*
X4779788Y6481525D01*
X4762144Y6469736D01*
X4750355Y6452092D01*
X4748741Y6443980D01*
X4787900D01*
Y6483139D01*
D02*
G37*
G36*
X6016883Y6587485D02*
X5846563D01*
Y6417165D01*
X6016883D01*
Y6587485D01*
D02*
G37*
G36*
X5677723Y6588220D02*
X5655492Y6585293D01*
X5634776Y6576712D01*
X5616986Y6563062D01*
X5603336Y6545273D01*
X5594755Y6524556D01*
X5591828Y6502325D01*
X5594755Y6480094D01*
X5603336Y6459378D01*
X5616986Y6441589D01*
X5634776Y6427938D01*
X5655492Y6419357D01*
X5677723Y6416431D01*
X5699954Y6419357D01*
X5720670Y6427938D01*
X5738460Y6441589D01*
X5752110Y6459378D01*
X5760691Y6480094D01*
X5763618Y6502325D01*
X5760691Y6524556D01*
X5752110Y6545273D01*
X5738460Y6563062D01*
X5720670Y6576712D01*
X5699954Y6585293D01*
X5677723Y6588220D01*
D02*
G37*
G36*
X5913120Y7044167D02*
X5898254Y7041209D01*
X5885651Y7032789D01*
X5877231Y7020186D01*
X5874273Y7005320D01*
X5877231Y6990454D01*
X5885651Y6977851D01*
X5898254Y6969431D01*
X5913120Y6966473D01*
X5921083Y6968057D01*
X6057502Y6831638D01*
Y6422082D01*
X6028998Y6393578D01*
X5989321D01*
X5989320Y6393578D01*
X5981392Y6392001D01*
X5974670Y6387510D01*
X5974670Y6387509D01*
X5906090Y6318930D01*
X5901599Y6312209D01*
X5900022Y6304280D01*
X5900022Y6304279D01*
Y6254979D01*
X5893271Y6250469D01*
X5884851Y6237866D01*
X5881893Y6223000D01*
X5884851Y6208134D01*
X5893271Y6195531D01*
X5905874Y6187111D01*
X5920740Y6184153D01*
X5935606Y6187111D01*
X5948209Y6195531D01*
X5956629Y6208134D01*
X5959587Y6223000D01*
X5956629Y6237866D01*
X5948209Y6250469D01*
X5941458Y6254979D01*
Y6295698D01*
X5997902Y6352142D01*
X6037579D01*
X6037580Y6352142D01*
X6045509Y6353719D01*
X6052230Y6358210D01*
X6092869Y6398850D01*
X6092870Y6398850D01*
X6097361Y6405571D01*
X6098938Y6413500D01*
Y6840219D01*
X6098938Y6840220D01*
X6097361Y6848148D01*
X6092870Y6854870D01*
X6092869Y6854870D01*
X5950383Y6997357D01*
X5951967Y7005320D01*
X5949009Y7020186D01*
X5940589Y7032789D01*
X5927986Y7041209D01*
X5913120Y7044167D01*
D02*
G37*
G36*
X8001000Y6562895D02*
X7978769Y6559968D01*
X7958053Y6551387D01*
X7940263Y6537737D01*
X7926613Y6519947D01*
X7918032Y6499231D01*
X7915105Y6477000D01*
X7918032Y6454769D01*
X7926613Y6434053D01*
X7940263Y6416263D01*
X7958053Y6402613D01*
X7978769Y6394032D01*
X8001000Y6391105D01*
X8023231Y6394032D01*
X8043947Y6402613D01*
X8061737Y6416263D01*
X8075387Y6434053D01*
X8083968Y6454769D01*
X8086895Y6477000D01*
X8083968Y6499231D01*
X8075387Y6519947D01*
X8061737Y6537737D01*
X8043947Y6551387D01*
X8023231Y6559968D01*
X8001000Y6562895D01*
D02*
G37*
G36*
X7747000D02*
X7724769Y6559968D01*
X7704053Y6551387D01*
X7686263Y6537737D01*
X7672613Y6519947D01*
X7664032Y6499231D01*
X7661105Y6477000D01*
X7664032Y6454769D01*
X7672613Y6434053D01*
X7686263Y6416263D01*
X7704053Y6402613D01*
X7724769Y6394032D01*
X7747000Y6391105D01*
X7769231Y6394032D01*
X7789947Y6402613D01*
X7807737Y6416263D01*
X7821387Y6434053D01*
X7829968Y6454769D01*
X7832895Y6477000D01*
X7829968Y6499231D01*
X7821387Y6519947D01*
X7807737Y6537737D01*
X7789947Y6551387D01*
X7769231Y6559968D01*
X7747000Y6562895D01*
D02*
G37*
G36*
X4852459Y6418580D02*
X4813300D01*
Y6379421D01*
X4821412Y6381035D01*
X4839056Y6392824D01*
X4850845Y6410468D01*
X4852459Y6418580D01*
D02*
G37*
G36*
X4787900D02*
X4748741D01*
X4750355Y6410468D01*
X4762144Y6392824D01*
X4779788Y6381035D01*
X4787900Y6379421D01*
Y6418580D01*
D02*
G37*
G36*
X3963200Y6294506D02*
Y6188700D01*
X4069006D01*
X4066583Y6207104D01*
X4054577Y6236089D01*
X4035479Y6260979D01*
X4010589Y6280077D01*
X3981604Y6292083D01*
X3963200Y6294506D01*
D02*
G37*
G36*
X3628200D02*
Y6188700D01*
X3734006D01*
X3731583Y6207104D01*
X3719577Y6236089D01*
X3700479Y6260979D01*
X3675589Y6280077D01*
X3646604Y6292083D01*
X3628200Y6294506D01*
D02*
G37*
G36*
X3937800D02*
X3919396Y6292083D01*
X3890411Y6280077D01*
X3865521Y6260979D01*
X3846423Y6236089D01*
X3834417Y6207104D01*
X3831994Y6188700D01*
X3937800D01*
Y6294506D01*
D02*
G37*
G36*
X3602800D02*
X3584396Y6292083D01*
X3555411Y6280077D01*
X3530521Y6260979D01*
X3511423Y6236089D01*
X3499417Y6207104D01*
X3496994Y6188700D01*
X3602800D01*
Y6294506D01*
D02*
G37*
G36*
X8001000Y6308895D02*
X7978769Y6305968D01*
X7958053Y6297387D01*
X7940263Y6283737D01*
X7926613Y6265947D01*
X7918032Y6245231D01*
X7915105Y6223000D01*
X7918032Y6200769D01*
X7926613Y6180053D01*
X7940263Y6162263D01*
X7958053Y6148613D01*
X7978769Y6140032D01*
X8001000Y6137105D01*
X8023231Y6140032D01*
X8043947Y6148613D01*
X8061737Y6162263D01*
X8075387Y6180053D01*
X8083968Y6200769D01*
X8086895Y6223000D01*
X8083968Y6245231D01*
X8075387Y6265947D01*
X8061737Y6283737D01*
X8043947Y6297387D01*
X8023231Y6305968D01*
X8001000Y6308895D01*
D02*
G37*
G36*
X7747000D02*
X7724769Y6305968D01*
X7704053Y6297387D01*
X7686263Y6283737D01*
X7672613Y6265947D01*
X7664032Y6245231D01*
X7661105Y6223000D01*
X7664032Y6200769D01*
X7672613Y6180053D01*
X7686263Y6162263D01*
X7704053Y6148613D01*
X7724769Y6140032D01*
X7747000Y6137105D01*
X7769231Y6140032D01*
X7789947Y6148613D01*
X7807737Y6162263D01*
X7821387Y6180053D01*
X7829968Y6200769D01*
X7832895Y6223000D01*
X7829968Y6245231D01*
X7821387Y6265947D01*
X7807737Y6283737D01*
X7789947Y6297387D01*
X7769231Y6305968D01*
X7747000Y6308895D01*
D02*
G37*
G36*
X4069006Y6163300D02*
X3963200D01*
Y6057494D01*
X3981604Y6059917D01*
X4010589Y6071923D01*
X4035479Y6091021D01*
X4054577Y6115911D01*
X4066583Y6144896D01*
X4069006Y6163300D01*
D02*
G37*
G36*
X3734006D02*
X3628200D01*
Y6057494D01*
X3646604Y6059917D01*
X3675589Y6071923D01*
X3700479Y6091021D01*
X3719577Y6115911D01*
X3731583Y6144896D01*
X3734006Y6163300D01*
D02*
G37*
G36*
X3602800D02*
X3496994D01*
X3499417Y6144896D01*
X3511423Y6115911D01*
X3530521Y6091021D01*
X3555411Y6071923D01*
X3584396Y6059917D01*
X3602800Y6057494D01*
Y6163300D01*
D02*
G37*
G36*
X3937800D02*
X3831994D01*
X3834417Y6144896D01*
X3846423Y6115911D01*
X3865521Y6091021D01*
X3890411Y6071923D01*
X3919396Y6059917D01*
X3937800Y6057494D01*
Y6163300D01*
D02*
G37*
G36*
X6078220Y6332967D02*
X6063354Y6330009D01*
X6050751Y6321589D01*
X6042331Y6308986D01*
X6039373Y6294120D01*
X6042331Y6279254D01*
X6050751Y6266651D01*
X6063354Y6258231D01*
X6074693Y6255975D01*
X6077822Y6252846D01*
Y6084799D01*
X6071071Y6080289D01*
X6062651Y6067686D01*
X6059693Y6052820D01*
X6062651Y6037954D01*
X6071071Y6025351D01*
X6083674Y6016931D01*
X6098540Y6013973D01*
X6113406Y6016931D01*
X6126009Y6025351D01*
X6134429Y6037954D01*
X6137387Y6052820D01*
X6134429Y6067686D01*
X6126009Y6080289D01*
X6119258Y6084799D01*
Y6261427D01*
X6119258Y6261428D01*
X6117681Y6269357D01*
X6113190Y6276078D01*
X6112469Y6276799D01*
X6114109Y6279254D01*
X6117067Y6294120D01*
X6114109Y6308986D01*
X6105689Y6321589D01*
X6093086Y6330009D01*
X6078220Y6332967D01*
D02*
G37*
G36*
X3700500Y6062338D02*
X3677027Y6057669D01*
X3657127Y6044373D01*
X3643831Y6024473D01*
X3639162Y6001000D01*
X3643831Y5977527D01*
X3657127Y5957627D01*
X3677027Y5944331D01*
X3700500Y5939661D01*
X3723973Y5944331D01*
X3743873Y5957627D01*
X3757170Y5977527D01*
X3761839Y6001000D01*
X3757170Y6024473D01*
X3743873Y6044373D01*
X3723973Y6057669D01*
X3700500Y6062338D01*
D02*
G37*
G36*
X7832160Y6054160D02*
X7661840D01*
Y5883840D01*
X7832160D01*
Y6054160D01*
D02*
G37*
G36*
X8001000Y6054895D02*
X7978769Y6051968D01*
X7958053Y6043387D01*
X7940263Y6029737D01*
X7926613Y6011947D01*
X7918032Y5991231D01*
X7915105Y5969000D01*
X7918032Y5946769D01*
X7926613Y5926053D01*
X7940263Y5908263D01*
X7958053Y5894613D01*
X7978769Y5886032D01*
X8001000Y5883105D01*
X8023231Y5886032D01*
X8043947Y5894613D01*
X8061737Y5908263D01*
X8075387Y5926053D01*
X8083968Y5946769D01*
X8086895Y5969000D01*
X8083968Y5991231D01*
X8075387Y6011947D01*
X8061737Y6029737D01*
X8043947Y6043387D01*
X8023231Y6051968D01*
X8001000Y6054895D01*
D02*
G37*
G36*
X6761480Y6395271D02*
X6745127Y6392018D01*
X6731264Y6382756D01*
X6722002Y6368893D01*
X6718749Y6352540D01*
Y5946060D01*
X6685544Y5912856D01*
X6676282Y5898993D01*
X6673029Y5882640D01*
Y5878830D01*
X6676282Y5862477D01*
X6685544Y5848614D01*
X6699407Y5839352D01*
X6715760Y5836099D01*
X6732113Y5839352D01*
X6745976Y5848614D01*
X6753647Y5860096D01*
X6791695Y5898144D01*
X6791696Y5898144D01*
X6800958Y5912007D01*
X6804211Y5928360D01*
Y6352540D01*
X6800958Y6368893D01*
X6791696Y6382756D01*
X6777833Y6392018D01*
X6761480Y6395271D01*
D02*
G37*
G36*
X5880596Y5755008D02*
X5827896D01*
Y5702308D01*
X5880596D01*
Y5755008D01*
D02*
G37*
G36*
X5802496D02*
X5749796D01*
Y5702308D01*
X5802496D01*
Y5755008D01*
D02*
G37*
G36*
X5285740Y7061947D02*
X5270874Y7058989D01*
X5258271Y7050569D01*
X5249851Y7037966D01*
X5246893Y7023100D01*
X5249483Y7010080D01*
Y6431281D01*
X5249483Y6431280D01*
X5252243Y6417405D01*
X5260103Y6405643D01*
X5546663Y6119082D01*
Y6032820D01*
X5544073Y6019800D01*
X5547031Y6004934D01*
X5555451Y5992331D01*
X5562202Y5987821D01*
Y5746885D01*
X5562202Y5746884D01*
X5563779Y5738955D01*
X5568270Y5732234D01*
X5577780Y5722724D01*
X5577847Y5721574D01*
X5573261Y5709282D01*
X5570580Y5708749D01*
X5563858Y5704258D01*
X5563858Y5704257D01*
X5545447Y5685846D01*
X5542119Y5687225D01*
X5533796Y5692157D01*
X5532541Y5698468D01*
X5528050Y5705190D01*
X5417230Y5816010D01*
X5410509Y5820501D01*
X5402580Y5822078D01*
X5402579Y5822078D01*
X5280661D01*
X5280660Y5822078D01*
X5272732Y5820501D01*
X5266010Y5816010D01*
X5266010Y5816009D01*
X5159330Y5709330D01*
X5154839Y5702609D01*
X5153262Y5694680D01*
X5153262Y5694679D01*
Y5551399D01*
X5146511Y5546889D01*
X5138091Y5534286D01*
X5135133Y5519420D01*
X5138091Y5504554D01*
X5146511Y5491951D01*
X5153262Y5487441D01*
Y5194301D01*
X5153262Y5194300D01*
X5154839Y5186371D01*
X5159330Y5179650D01*
X5692730Y4646251D01*
X5692730Y4646250D01*
X5699452Y4641759D01*
X5707380Y4640182D01*
X5791199D01*
X5791200Y4640182D01*
X5799129Y4641759D01*
X5805850Y4646250D01*
X5854109Y4694510D01*
X5854110Y4694510D01*
X5858601Y4701232D01*
X5860178Y4709160D01*
X5860178Y4709161D01*
Y4770120D01*
X5858601Y4778049D01*
X5854110Y4784770D01*
X5854109Y4784770D01*
X5810930Y4827950D01*
X5810929Y4827950D01*
X5715398Y4923482D01*
Y5000298D01*
X5747393Y5032293D01*
X5749000Y5031973D01*
X5763866Y5034930D01*
X5776469Y5043351D01*
X5784889Y5055954D01*
X5787846Y5070820D01*
X5784889Y5085686D01*
X5776469Y5098289D01*
X5763866Y5106709D01*
X5749000Y5109666D01*
X5741037Y5108082D01*
X5723010Y5126110D01*
Y5145536D01*
X5752452D01*
Y5245856D01*
X5652132D01*
Y5145536D01*
X5681574D01*
Y5117529D01*
X5681574Y5117528D01*
X5683151Y5109599D01*
X5687642Y5102878D01*
X5711737Y5078783D01*
X5710153Y5070820D01*
X5713002Y5056501D01*
X5680030Y5023530D01*
X5675539Y5016809D01*
X5673962Y5008880D01*
X5673962Y5008879D01*
Y4914901D01*
X5673962Y4914900D01*
X5675539Y4906971D01*
X5680030Y4900250D01*
X5781630Y4798650D01*
X5781631Y4798650D01*
X5818742Y4761538D01*
Y4717742D01*
X5804337Y4703337D01*
X5794472Y4711432D01*
X5801689Y4722234D01*
X5804647Y4737100D01*
X5801689Y4751966D01*
X5793269Y4764569D01*
X5780666Y4772989D01*
X5765800Y4775947D01*
X5750934Y4772989D01*
X5738332Y4764569D01*
X5734945Y4764235D01*
X5488512Y5010668D01*
Y5256301D01*
X5495262Y5260811D01*
X5503683Y5273414D01*
X5506640Y5288280D01*
X5503683Y5303146D01*
X5503144Y5303953D01*
X5516289Y5317098D01*
X5516290Y5317099D01*
X5520781Y5323820D01*
X5522358Y5331749D01*
Y5418861D01*
X5529109Y5423371D01*
X5537529Y5435974D01*
X5540487Y5450840D01*
X5537529Y5465706D01*
X5529109Y5478309D01*
X5516506Y5486729D01*
X5501640Y5489687D01*
X5486774Y5486729D01*
X5474171Y5478309D01*
X5465751Y5465706D01*
X5462793Y5450840D01*
X5465751Y5435974D01*
X5474171Y5423371D01*
X5480922Y5418861D01*
Y5340330D01*
X5467699Y5327108D01*
X5452928Y5324169D01*
X5440325Y5315749D01*
X5431904Y5303146D01*
X5428947Y5288280D01*
X5431904Y5273414D01*
X5440325Y5260811D01*
X5447076Y5256301D01*
Y5002088D01*
X5447075Y5002086D01*
X5448653Y4994158D01*
X5453144Y4987436D01*
X5718130Y4722451D01*
X5718130Y4722450D01*
X5724852Y4717959D01*
X5732780Y4716382D01*
X5732781Y4716382D01*
X5733821D01*
X5738331Y4709631D01*
X5750934Y4701211D01*
X5765800Y4698253D01*
X5780666Y4701211D01*
X5791468Y4708428D01*
X5799563Y4698563D01*
X5782618Y4681618D01*
X5715962D01*
X5194698Y5202882D01*
Y5487441D01*
X5201449Y5491951D01*
X5209869Y5504554D01*
X5212827Y5519420D01*
X5209869Y5534286D01*
X5201449Y5546889D01*
X5194698Y5551399D01*
Y5686098D01*
X5289242Y5780642D01*
X5393998D01*
X5492682Y5681958D01*
Y5656479D01*
X5485931Y5651969D01*
X5477511Y5639366D01*
X5474553Y5624500D01*
X5477511Y5609634D01*
X5485931Y5597031D01*
X5498534Y5588611D01*
X5513400Y5585654D01*
X5528266Y5588611D01*
X5540869Y5597031D01*
X5549289Y5609634D01*
X5552246Y5624500D01*
X5550663Y5632463D01*
X5577336Y5659136D01*
X5590036Y5653876D01*
Y5639448D01*
X5690356D01*
Y5739768D01*
X5619336D01*
X5603638Y5755466D01*
Y5987821D01*
X5610389Y5992331D01*
X5618809Y6004934D01*
X5621767Y6019800D01*
X5619177Y6032820D01*
Y6134099D01*
X5619177Y6134100D01*
X5616417Y6147975D01*
X5608557Y6159737D01*
X5608557Y6159738D01*
X5321997Y6446298D01*
Y7010080D01*
X5324587Y7023100D01*
X5321629Y7037966D01*
X5313209Y7050569D01*
X5300606Y7058989D01*
X5285740Y7061947D01*
D02*
G37*
G36*
X6461760Y5913867D02*
X6446894Y5910909D01*
X6434291Y5902489D01*
X6425871Y5889886D01*
X6422913Y5875020D01*
X6425871Y5860154D01*
X6434291Y5847551D01*
X6441042Y5843041D01*
Y5697221D01*
X6441042Y5697220D01*
X6442619Y5689291D01*
X6447110Y5682570D01*
X6467583Y5662097D01*
X6459488Y5652233D01*
X6448686Y5659449D01*
X6433820Y5662407D01*
X6418954Y5659449D01*
X6406351Y5651029D01*
X6398839Y5639785D01*
X6396209Y5639262D01*
X6388647Y5634209D01*
X6329098Y5574660D01*
X6261740D01*
Y5545218D01*
X6217920D01*
X6209991Y5543641D01*
X6203270Y5539150D01*
X6201016Y5539079D01*
X6190538Y5542258D01*
X6189425Y5547852D01*
X6177874Y5565140D01*
X6189425Y5582428D01*
X6191039Y5590540D01*
X6087321D01*
X6088935Y5582428D01*
X6100486Y5565140D01*
X6088935Y5547852D01*
X6087321Y5539740D01*
X6139180D01*
Y5527040D01*
X6151880D01*
Y5475181D01*
X6159992Y5476795D01*
X6163141Y5478899D01*
X6174342Y5472912D01*
Y5233362D01*
X6161078Y5220098D01*
X6120752D01*
Y5245856D01*
X6020432D01*
Y5145536D01*
X6047022D01*
Y5056840D01*
X6040271Y5052329D01*
X6031851Y5039727D01*
X6028893Y5024861D01*
X6031851Y5009995D01*
X6040271Y4997392D01*
X6052874Y4988971D01*
X6067740Y4986014D01*
X6082606Y4988971D01*
X6095209Y4997392D01*
X6103629Y5009995D01*
X6106586Y5024861D01*
X6103629Y5039727D01*
X6095209Y5052329D01*
X6088458Y5056840D01*
Y5145536D01*
X6120752D01*
Y5178662D01*
X6169659D01*
X6169660Y5178662D01*
X6177589Y5180239D01*
X6184310Y5184730D01*
X6209709Y5210130D01*
X6209710Y5210130D01*
X6214201Y5216851D01*
X6215778Y5224780D01*
Y5493058D01*
X6226502Y5503782D01*
X6261740D01*
Y5474340D01*
X6362060D01*
Y5541698D01*
X6412407Y5592045D01*
X6418954Y5587671D01*
X6433820Y5584713D01*
X6448686Y5587671D01*
X6461289Y5596091D01*
X6469709Y5608694D01*
X6472667Y5623560D01*
X6469709Y5638426D01*
X6462493Y5649228D01*
X6472357Y5657323D01*
X6510857Y5618823D01*
X6509273Y5610860D01*
X6512231Y5595994D01*
X6520651Y5583391D01*
X6527402Y5578881D01*
Y5147002D01*
X6303318Y4922918D01*
X6089879D01*
X6085369Y4929669D01*
X6072766Y4938089D01*
X6057900Y4941047D01*
X6049937Y4939463D01*
X5907471Y5081929D01*
X5909307Y5084678D01*
X5910885Y5092607D01*
X5910885Y5092608D01*
Y5145536D01*
X5940326D01*
Y5245856D01*
X5840007D01*
Y5145536D01*
X5869449D01*
Y5101188D01*
X5855290Y5087030D01*
X5855290Y5087029D01*
X5776303Y5008043D01*
X5768340Y5009627D01*
X5753474Y5006669D01*
X5740871Y4998249D01*
X5732451Y4985646D01*
X5729493Y4970780D01*
X5732451Y4955914D01*
X5740871Y4943311D01*
X5753474Y4934891D01*
X5768340Y4931933D01*
X5783206Y4934891D01*
X5795809Y4943311D01*
X5804229Y4955914D01*
X5807187Y4970780D01*
X5805603Y4978743D01*
X5869977Y5043117D01*
X5887683D01*
X6020637Y4910163D01*
X6019053Y4902200D01*
X6022011Y4887334D01*
X6030431Y4874731D01*
X6043034Y4866311D01*
X6057900Y4863353D01*
X6072766Y4866311D01*
X6085369Y4874731D01*
X6089879Y4881482D01*
X6311899D01*
X6311900Y4881482D01*
X6319829Y4883059D01*
X6326550Y4887550D01*
X6562769Y5123770D01*
X6562770Y5123770D01*
X6567261Y5130492D01*
X6568838Y5138420D01*
X6568838Y5138421D01*
Y5578881D01*
X6575589Y5583391D01*
X6584009Y5595994D01*
X6586967Y5610860D01*
X6584009Y5625726D01*
X6575589Y5638329D01*
X6562986Y5646749D01*
X6548120Y5649707D01*
X6540157Y5648123D01*
X6482478Y5705802D01*
Y5843041D01*
X6489229Y5847551D01*
X6497649Y5860154D01*
X6500607Y5875020D01*
X6497649Y5889886D01*
X6489229Y5902489D01*
X6476626Y5910909D01*
X6461760Y5913867D01*
D02*
G37*
G36*
X5880596Y5676908D02*
X5827896D01*
Y5624208D01*
X5880596D01*
Y5676908D01*
D02*
G37*
G36*
X5802496D02*
X5749796D01*
Y5624208D01*
X5802496D01*
Y5676908D01*
D02*
G37*
G36*
X6151880Y5655099D02*
Y5615940D01*
X6191039D01*
X6189425Y5624052D01*
X6177636Y5641696D01*
X6159992Y5653485D01*
X6151880Y5655099D01*
D02*
G37*
G36*
X6126480D02*
X6118368Y5653485D01*
X6100724Y5641696D01*
X6088935Y5624052D01*
X6087321Y5615940D01*
X6126480D01*
Y5655099D01*
D02*
G37*
G36*
X6024880D02*
Y5615940D01*
X6064039D01*
X6062425Y5624052D01*
X6050636Y5641696D01*
X6032992Y5653485D01*
X6024880Y5655099D01*
D02*
G37*
G36*
X5999480D02*
X5991368Y5653485D01*
X5973724Y5641696D01*
X5961935Y5624052D01*
X5960321Y5615940D01*
X5999480D01*
Y5655099D01*
D02*
G37*
G36*
X6064039Y5590540D02*
X6024880D01*
Y5551381D01*
X6032992Y5552995D01*
X6050636Y5564784D01*
X6062425Y5582428D01*
X6064039Y5590540D01*
D02*
G37*
G36*
X5999480D02*
X5960321D01*
X5961935Y5582428D01*
X5973724Y5564784D01*
X5991368Y5552995D01*
X5999480Y5551381D01*
Y5590540D01*
D02*
G37*
G36*
X5876669Y5587281D02*
X5823970D01*
Y5534580D01*
X5876669D01*
Y5587281D01*
D02*
G37*
G36*
X5798570D02*
X5745870D01*
Y5534580D01*
X5798570D01*
Y5587281D01*
D02*
G37*
G36*
X5321300Y5751307D02*
X5306434Y5748349D01*
X5293831Y5739929D01*
X5285411Y5727326D01*
X5282453Y5712460D01*
X5285411Y5697594D01*
X5293831Y5684991D01*
X5294372Y5684630D01*
X5295663Y5682699D01*
X5313811Y5664551D01*
Y5637974D01*
X5313810Y5637973D01*
X5316571Y5624098D01*
X5324430Y5612335D01*
X5360492Y5576273D01*
X5358278Y5565140D01*
X5361235Y5550274D01*
X5369656Y5537671D01*
X5371250Y5536606D01*
X5374459Y5519350D01*
X5373011Y5517278D01*
X5352742D01*
X5330623Y5539397D01*
X5332207Y5547360D01*
X5329249Y5562226D01*
X5320829Y5574829D01*
X5308226Y5583249D01*
X5293360Y5586207D01*
X5278494Y5583249D01*
X5265891Y5574829D01*
X5257471Y5562226D01*
X5254513Y5547360D01*
X5257471Y5532494D01*
X5265891Y5519891D01*
X5278494Y5511471D01*
X5293360Y5508513D01*
X5301323Y5510097D01*
X5329510Y5481911D01*
X5329510Y5481910D01*
X5336232Y5477419D01*
X5344160Y5475842D01*
X5344161Y5475842D01*
X5430519D01*
X5430520Y5475842D01*
X5438449Y5477419D01*
X5445170Y5481910D01*
X5477202Y5513942D01*
X5586110D01*
Y5471721D01*
X5686430D01*
Y5572041D01*
X5586110D01*
Y5555378D01*
X5468621D01*
X5468620Y5555378D01*
X5460691Y5553801D01*
X5453970Y5549310D01*
X5452056Y5547396D01*
X5441387Y5554687D01*
X5443541Y5565516D01*
X5443541Y5565517D01*
Y5580755D01*
X5443541Y5580756D01*
X5440781Y5594631D01*
X5432922Y5606393D01*
X5386324Y5652991D01*
Y5679568D01*
X5386324Y5679569D01*
X5383564Y5693444D01*
X5375705Y5705206D01*
X5375704Y5705207D01*
X5358085Y5722827D01*
X5357189Y5727326D01*
X5348769Y5739929D01*
X5336166Y5748349D01*
X5321300Y5751307D01*
D02*
G37*
G36*
X6126480Y5514340D02*
X6087321D01*
X6088935Y5506228D01*
X6100724Y5488584D01*
X6118368Y5476795D01*
X6126480Y5475181D01*
Y5514340D01*
D02*
G37*
G36*
X5876669Y5509180D02*
X5823970D01*
Y5456481D01*
X5876669D01*
Y5509180D01*
D02*
G37*
G36*
X5798570D02*
X5745870D01*
Y5456481D01*
X5798570D01*
Y5509180D01*
D02*
G37*
G36*
X3923200Y5519506D02*
Y5413700D01*
X4029006D01*
X4026583Y5432104D01*
X4014577Y5461089D01*
X3995479Y5485979D01*
X3970589Y5505077D01*
X3941604Y5517083D01*
X3923200Y5519506D01*
D02*
G37*
G36*
X3897800D02*
X3879396Y5517083D01*
X3850411Y5505077D01*
X3825521Y5485979D01*
X3806423Y5461089D01*
X3794417Y5432104D01*
X3791994Y5413700D01*
X3897800D01*
Y5519506D01*
D02*
G37*
G36*
X6135992Y5436096D02*
X6083292D01*
Y5383396D01*
X6135992D01*
Y5436096D01*
D02*
G37*
G36*
X5955566D02*
X5902866D01*
Y5383396D01*
X5955566D01*
Y5436096D01*
D02*
G37*
G36*
X5767692D02*
X5714992D01*
Y5383396D01*
X5767692D01*
Y5436096D01*
D02*
G37*
G36*
X6057892D02*
X6005192D01*
Y5383396D01*
X6057892D01*
Y5436096D01*
D02*
G37*
G36*
X5877466D02*
X5824767D01*
Y5383396D01*
X5877466D01*
Y5436096D01*
D02*
G37*
G36*
X5689592D02*
X5636892D01*
Y5383396D01*
X5689592D01*
Y5436096D01*
D02*
G37*
G36*
X6377300Y5414900D02*
X6324600D01*
Y5362200D01*
X6377300D01*
Y5414900D01*
D02*
G37*
G36*
X6299200D02*
X6246500D01*
Y5362200D01*
X6299200D01*
Y5414900D01*
D02*
G37*
G36*
X6135992Y5357996D02*
X6083292D01*
Y5305296D01*
X6135992D01*
Y5357996D01*
D02*
G37*
G36*
X6057892D02*
X6005192D01*
Y5305296D01*
X6057892D01*
Y5357996D01*
D02*
G37*
G36*
X5955566D02*
X5902866D01*
Y5305296D01*
X5955566D01*
Y5357996D01*
D02*
G37*
G36*
X5877466D02*
X5824767D01*
Y5305296D01*
X5877466D01*
Y5357996D01*
D02*
G37*
G36*
X5767692D02*
X5714992D01*
Y5305296D01*
X5767692D01*
Y5357996D01*
D02*
G37*
G36*
X5689592D02*
X5636892D01*
Y5305296D01*
X5689592D01*
Y5357996D01*
D02*
G37*
G36*
X6377300Y5336800D02*
X6324600D01*
Y5284100D01*
X6377300D01*
Y5336800D01*
D02*
G37*
G36*
X6299200D02*
X6246500D01*
Y5284100D01*
X6299200D01*
Y5336800D01*
D02*
G37*
G36*
X3897800Y5388300D02*
X3791994D01*
X3794417Y5369896D01*
X3806423Y5340911D01*
X3825521Y5316021D01*
X3850411Y5296923D01*
X3879396Y5284917D01*
X3897800Y5282494D01*
Y5388300D01*
D02*
G37*
G36*
X4029006D02*
X3923200D01*
Y5282494D01*
X3941604Y5284917D01*
X3970589Y5296923D01*
X3995479Y5316021D01*
X4014577Y5340911D01*
X4026583Y5369896D01*
X4029006Y5388300D01*
D02*
G37*
G36*
X3700500Y5082338D02*
X3677027Y5077669D01*
X3657127Y5064373D01*
X3643831Y5044473D01*
X3639162Y5021000D01*
X3643831Y4997527D01*
X3657127Y4977627D01*
X3677027Y4964330D01*
X3700500Y4959661D01*
X3723973Y4964330D01*
X3743873Y4977627D01*
X3757170Y4997527D01*
X3761839Y5021000D01*
X3757170Y5044473D01*
X3743873Y5064373D01*
X3723973Y5077669D01*
X3700500Y5082338D01*
D02*
G37*
G36*
X4594860Y7000987D02*
X4579994Y6998029D01*
X4567391Y6989609D01*
X4558971Y6977006D01*
X4556013Y6962140D01*
X4558603Y6949120D01*
Y5476241D01*
X4558603Y5476240D01*
X4561363Y5462365D01*
X4569223Y5450603D01*
X5126437Y4893389D01*
X5133811Y4882351D01*
X5146414Y4873931D01*
X5161280Y4870973D01*
X5176146Y4873931D01*
X5188749Y4882351D01*
X5197169Y4894954D01*
X5200127Y4909820D01*
X5197169Y4924686D01*
X5188749Y4937289D01*
X5177711Y4944663D01*
X4631117Y5491258D01*
Y6949120D01*
X4633707Y6962140D01*
X4630749Y6977006D01*
X4622329Y6989609D01*
X4609726Y6998029D01*
X4594860Y7000987D01*
D02*
G37*
G36*
X8001000Y5038895D02*
X7978769Y5035968D01*
X7958053Y5027387D01*
X7940263Y5013737D01*
X7926613Y4995947D01*
X7918032Y4975231D01*
X7915105Y4953000D01*
X7918032Y4930769D01*
X7926613Y4910053D01*
X7940263Y4892263D01*
X7958053Y4878613D01*
X7978769Y4870032D01*
X8001000Y4867105D01*
X8023231Y4870032D01*
X8043947Y4878613D01*
X8061737Y4892263D01*
X8075387Y4910053D01*
X8083968Y4930769D01*
X8086895Y4953000D01*
X8083968Y4975231D01*
X8075387Y4995947D01*
X8061737Y5013737D01*
X8043947Y5027387D01*
X8023231Y5035968D01*
X8001000Y5038895D01*
D02*
G37*
G36*
X7747000D02*
X7724769Y5035968D01*
X7704053Y5027387D01*
X7686263Y5013737D01*
X7672613Y4995947D01*
X7664032Y4975231D01*
X7661105Y4953000D01*
X7664032Y4930769D01*
X7672613Y4910053D01*
X7686263Y4892263D01*
X7704053Y4878613D01*
X7724769Y4870032D01*
X7747000Y4867105D01*
X7769231Y4870032D01*
X7789947Y4878613D01*
X7807737Y4892263D01*
X7821387Y4910053D01*
X7829968Y4930769D01*
X7832895Y4953000D01*
X7829968Y4975231D01*
X7821387Y4995947D01*
X7807737Y5013737D01*
X7789947Y5027387D01*
X7769231Y5035968D01*
X7747000Y5038895D01*
D02*
G37*
G36*
X3963200Y4964506D02*
Y4858700D01*
X4069006D01*
X4066583Y4877104D01*
X4054577Y4906089D01*
X4035479Y4930979D01*
X4010589Y4950077D01*
X3981604Y4962083D01*
X3963200Y4964506D01*
D02*
G37*
G36*
X3628200D02*
Y4858700D01*
X3734006D01*
X3731583Y4877104D01*
X3719577Y4906089D01*
X3700479Y4930979D01*
X3675589Y4950077D01*
X3646604Y4962083D01*
X3628200Y4964506D01*
D02*
G37*
G36*
X3937800D02*
X3919396Y4962083D01*
X3890411Y4950077D01*
X3865521Y4930979D01*
X3846423Y4906089D01*
X3834417Y4877104D01*
X3831994Y4858700D01*
X3937800D01*
Y4964506D01*
D02*
G37*
G36*
X3602800D02*
X3584396Y4962083D01*
X3555411Y4950077D01*
X3530521Y4930979D01*
X3511423Y4906089D01*
X3499417Y4877104D01*
X3496994Y4858700D01*
X3602800D01*
Y4964506D01*
D02*
G37*
G36*
X4069006Y4833300D02*
X3963200D01*
Y4727494D01*
X3981604Y4729917D01*
X4010589Y4741923D01*
X4035479Y4761021D01*
X4054577Y4785911D01*
X4066583Y4814896D01*
X4069006Y4833300D01*
D02*
G37*
G36*
X3734006D02*
X3628200D01*
Y4727494D01*
X3646604Y4729917D01*
X3675589Y4741923D01*
X3700479Y4761021D01*
X3719577Y4785911D01*
X3731583Y4814896D01*
X3734006Y4833300D01*
D02*
G37*
G36*
X3602800D02*
X3496994D01*
X3499417Y4814896D01*
X3511423Y4785911D01*
X3530521Y4761021D01*
X3555411Y4741923D01*
X3584396Y4729917D01*
X3602800Y4727494D01*
Y4833300D01*
D02*
G37*
G36*
X3937800D02*
X3831994D01*
X3834417Y4814896D01*
X3846423Y4785911D01*
X3865521Y4761021D01*
X3890411Y4741923D01*
X3919396Y4729917D01*
X3937800Y4727494D01*
Y4833300D01*
D02*
G37*
G36*
X8013700Y4798594D02*
Y4711700D01*
X8100594D01*
X8098816Y4725210D01*
X8088699Y4749633D01*
X8072606Y4770606D01*
X8051633Y4786699D01*
X8027210Y4796816D01*
X8013700Y4798594D01*
D02*
G37*
G36*
X7759700D02*
Y4711700D01*
X7846594D01*
X7844816Y4725210D01*
X7834699Y4749633D01*
X7818606Y4770606D01*
X7797633Y4786699D01*
X7773210Y4796816D01*
X7759700Y4798594D01*
D02*
G37*
G36*
X7734300D02*
X7720790Y4796816D01*
X7696367Y4786699D01*
X7675394Y4770606D01*
X7659301Y4749633D01*
X7649184Y4725210D01*
X7647406Y4711700D01*
X7734300D01*
Y4798594D01*
D02*
G37*
G36*
X7988300D02*
X7974790Y4796816D01*
X7950367Y4786699D01*
X7929394Y4770606D01*
X7913301Y4749633D01*
X7903184Y4725210D01*
X7901406Y4711700D01*
X7988300D01*
Y4798594D01*
D02*
G37*
G36*
X8100594Y4686300D02*
X8013700D01*
Y4599406D01*
X8027210Y4601184D01*
X8051633Y4611301D01*
X8072606Y4627394D01*
X8088699Y4648367D01*
X8098816Y4672790D01*
X8100594Y4686300D01*
D02*
G37*
G36*
X7846594D02*
X7759700D01*
Y4599406D01*
X7773210Y4601184D01*
X7797633Y4611301D01*
X7818606Y4627394D01*
X7834699Y4648367D01*
X7844816Y4672790D01*
X7846594Y4686300D01*
D02*
G37*
G36*
X7734300D02*
X7647406D01*
X7649184Y4672790D01*
X7659301Y4648367D01*
X7675394Y4627394D01*
X7696367Y4611301D01*
X7720790Y4601184D01*
X7734300Y4599406D01*
Y4686300D01*
D02*
G37*
G36*
X7988300D02*
X7901406D01*
X7903184Y4672790D01*
X7913301Y4648367D01*
X7929394Y4627394D01*
X7950367Y4611301D01*
X7974790Y4601184D01*
X7988300Y4599406D01*
Y4686300D01*
D02*
G37*
G36*
X5732780Y4598459D02*
Y4559300D01*
X5771939D01*
X5770325Y4567412D01*
X5758536Y4585056D01*
X5740892Y4596845D01*
X5732780Y4598459D01*
D02*
G37*
G36*
X5707380D02*
X5699268Y4596845D01*
X5681624Y4585056D01*
X5669835Y4567412D01*
X5668221Y4559300D01*
X5707380D01*
Y4598459D01*
D02*
G37*
G36*
X5771939Y4533900D02*
X5732780D01*
Y4494741D01*
X5740892Y4496355D01*
X5758536Y4508144D01*
X5770325Y4525788D01*
X5771939Y4533900D01*
D02*
G37*
G36*
X5707380D02*
X5668221D01*
X5669835Y4525788D01*
X5681624Y4508144D01*
X5699268Y4496355D01*
X5707380Y4494741D01*
Y4533900D01*
D02*
G37*
G36*
X8001000Y4530895D02*
X7978769Y4527968D01*
X7958053Y4519387D01*
X7940263Y4505737D01*
X7926613Y4487947D01*
X7918032Y4467231D01*
X7915105Y4445000D01*
X7918032Y4422769D01*
X7926613Y4402053D01*
X7940263Y4384263D01*
X7958053Y4370613D01*
X7978769Y4362032D01*
X8001000Y4359105D01*
X8023231Y4362032D01*
X8043947Y4370613D01*
X8061737Y4384263D01*
X8075387Y4402053D01*
X8083968Y4422769D01*
X8086895Y4445000D01*
X8083968Y4467231D01*
X8075387Y4487947D01*
X8061737Y4505737D01*
X8043947Y4519387D01*
X8023231Y4527968D01*
X8001000Y4530895D01*
D02*
G37*
G36*
X7747000D02*
X7724769Y4527968D01*
X7704053Y4519387D01*
X7686263Y4505737D01*
X7672613Y4487947D01*
X7664032Y4467231D01*
X7661105Y4445000D01*
X7664032Y4422769D01*
X7672613Y4402053D01*
X7686263Y4384263D01*
X7704053Y4370613D01*
X7724769Y4362032D01*
X7747000Y4359105D01*
X7769231Y4362032D01*
X7789947Y4370613D01*
X7807737Y4384263D01*
X7821387Y4402053D01*
X7829968Y4422769D01*
X7832895Y4445000D01*
X7829968Y4467231D01*
X7821387Y4487947D01*
X7807737Y4505737D01*
X7789947Y4519387D01*
X7769231Y4527968D01*
X7747000Y4530895D01*
D02*
G37*
G36*
X5692060Y4320460D02*
X5534740D01*
Y4163140D01*
X5692060D01*
Y4320460D01*
D02*
G37*
G36*
X5867400Y4321139D02*
X5846866Y4318435D01*
X5827731Y4310509D01*
X5811299Y4297901D01*
X5798691Y4281469D01*
X5790765Y4262334D01*
X5788061Y4241800D01*
X5790765Y4221266D01*
X5798691Y4202131D01*
X5811299Y4185699D01*
X5827731Y4173091D01*
X5846866Y4165165D01*
X5867400Y4162461D01*
X5887934Y4165165D01*
X5907069Y4173091D01*
X5923501Y4185699D01*
X5936109Y4202131D01*
X5944035Y4221266D01*
X5946739Y4241800D01*
X5944035Y4262334D01*
X5936109Y4281469D01*
X5923501Y4297901D01*
X5907069Y4310509D01*
X5887934Y4318435D01*
X5867400Y4321139D01*
D02*
G37*
G36*
X8001000Y4276895D02*
X7978769Y4273968D01*
X7958053Y4265387D01*
X7940263Y4251737D01*
X7926613Y4233947D01*
X7918032Y4213231D01*
X7915105Y4191000D01*
X7918032Y4168769D01*
X7926613Y4148053D01*
X7940263Y4130263D01*
X7958053Y4116613D01*
X7978769Y4108032D01*
X8001000Y4105105D01*
X8023231Y4108032D01*
X8043947Y4116613D01*
X8061737Y4130263D01*
X8075387Y4148053D01*
X8083968Y4168769D01*
X8086895Y4191000D01*
X8083968Y4213231D01*
X8075387Y4233947D01*
X8061737Y4251737D01*
X8043947Y4265387D01*
X8023231Y4273968D01*
X8001000Y4276895D01*
D02*
G37*
G36*
X7747000D02*
X7724769Y4273968D01*
X7704053Y4265387D01*
X7686263Y4251737D01*
X7672613Y4233947D01*
X7664032Y4213231D01*
X7661105Y4191000D01*
X7664032Y4168769D01*
X7672613Y4148053D01*
X7686263Y4130263D01*
X7704053Y4116613D01*
X7724769Y4108032D01*
X7747000Y4105105D01*
X7769231Y4108032D01*
X7789947Y4116613D01*
X7807737Y4130263D01*
X7821387Y4148053D01*
X7829968Y4168769D01*
X7832895Y4191000D01*
X7829968Y4213231D01*
X7821387Y4233947D01*
X7807737Y4251737D01*
X7789947Y4265387D01*
X7769231Y4273968D01*
X7747000Y4276895D01*
D02*
G37*
G36*
X8001000Y4022895D02*
X7978769Y4019968D01*
X7958053Y4011387D01*
X7940263Y3997737D01*
X7926613Y3979947D01*
X7918032Y3959231D01*
X7915105Y3937000D01*
X7918032Y3914769D01*
X7926613Y3894053D01*
X7940263Y3876263D01*
X7958053Y3862613D01*
X7978769Y3854032D01*
X8001000Y3851105D01*
X8023231Y3854032D01*
X8043947Y3862613D01*
X8061737Y3876263D01*
X8075387Y3894053D01*
X8083968Y3914769D01*
X8086895Y3937000D01*
X8083968Y3959231D01*
X8075387Y3979947D01*
X8061737Y3997737D01*
X8043947Y4011387D01*
X8023231Y4019968D01*
X8001000Y4022895D01*
D02*
G37*
G36*
X7747000D02*
X7724769Y4019968D01*
X7704053Y4011387D01*
X7686263Y3997737D01*
X7672613Y3979947D01*
X7664032Y3959231D01*
X7661105Y3937000D01*
X7664032Y3914769D01*
X7672613Y3894053D01*
X7686263Y3876263D01*
X7704053Y3862613D01*
X7724769Y3854032D01*
X7747000Y3851105D01*
X7769231Y3854032D01*
X7789947Y3862613D01*
X7807737Y3876263D01*
X7821387Y3894053D01*
X7829968Y3914769D01*
X7832895Y3937000D01*
X7829968Y3959231D01*
X7821387Y3979947D01*
X7807737Y3997737D01*
X7789947Y4011387D01*
X7769231Y4019968D01*
X7747000Y4022895D01*
D02*
G37*
G36*
X7832160Y3768160D02*
X7661840D01*
Y3597840D01*
X7832160D01*
Y3768160D01*
D02*
G37*
G36*
X8001000Y3768895D02*
X7978769Y3765968D01*
X7958053Y3757387D01*
X7940263Y3743737D01*
X7926613Y3725947D01*
X7918032Y3705231D01*
X7915105Y3683000D01*
X7918032Y3660769D01*
X7926613Y3640053D01*
X7940263Y3622263D01*
X7958053Y3608613D01*
X7978769Y3600032D01*
X8001000Y3597105D01*
X8023231Y3600032D01*
X8043947Y3608613D01*
X8061737Y3622263D01*
X8075387Y3640053D01*
X8083968Y3660769D01*
X8086895Y3683000D01*
X8083968Y3705231D01*
X8075387Y3725947D01*
X8061737Y3743737D01*
X8043947Y3757387D01*
X8023231Y3765968D01*
X8001000Y3768895D01*
D02*
G37*
G36*
X3594861Y3754165D02*
X3562484Y3750976D01*
X3531351Y3741532D01*
X3502659Y3726196D01*
X3477510Y3705557D01*
X3456871Y3680408D01*
X3441535Y3651716D01*
X3432091Y3620583D01*
X3428902Y3588206D01*
X3432091Y3555829D01*
X3441535Y3524696D01*
X3456871Y3496004D01*
X3477510Y3470855D01*
X3502659Y3450216D01*
X3531351Y3434880D01*
X3562484Y3425436D01*
X3594861Y3422247D01*
X3627238Y3425436D01*
X3658371Y3434880D01*
X3687063Y3450216D01*
X3712212Y3470855D01*
X3732851Y3496004D01*
X3748187Y3524696D01*
X3757631Y3555829D01*
X3760820Y3588206D01*
X3757631Y3620583D01*
X3748187Y3651716D01*
X3732851Y3680408D01*
X3712212Y3705557D01*
X3687063Y3726196D01*
X3658371Y3741532D01*
X3627238Y3750976D01*
X3594861Y3754165D01*
D02*
G37*
%LPD*%
D12*
X5640196Y5689608D02*
D03*
X5815196D02*
D03*
X5811270Y5521881D02*
D03*
X5636270D02*
D03*
D18*
X6311900Y5524500D02*
D03*
Y5349500D02*
D03*
X6070592Y5195696D02*
D03*
Y5370696D02*
D03*
X5890167Y5195696D02*
D03*
Y5370696D02*
D03*
X5702292Y5195696D02*
D03*
Y5370696D02*
D03*
D22*
X5694680Y4914900D02*
Y5008880D01*
X5796280Y4813300D02*
X5796280D01*
X5694680Y4914900D02*
X5796280Y4813300D01*
X5796280D02*
X5839460Y4770120D01*
X6311900Y4902200D02*
X6548120Y5138420D01*
Y5610860D01*
X6057900Y4902200D02*
X6311900D01*
X5173980Y5194300D02*
Y5519420D01*
Y5194300D02*
X5707380Y4660900D01*
X5344160Y5496560D02*
X5430520D01*
X5610949D02*
X5636270Y5521881D01*
X5293360Y5547360D02*
X5344160Y5496560D01*
X5732780Y4737100D02*
X5765800D01*
X5467794Y5002086D02*
X5732780Y4737100D01*
X5467794Y5002086D02*
Y5288280D01*
X5791200Y4660900D02*
X5839460Y4709160D01*
X5707380Y4660900D02*
X5791200D01*
X5839460Y4709160D02*
Y4770120D01*
X6217920Y5524500D02*
X6311900D01*
X6195060Y5501640D02*
X6217920Y5524500D01*
X6195060Y5224780D02*
Y5501640D01*
X6169660Y5199380D02*
X6195060Y5224780D01*
X6074276Y5199380D02*
X6169660D01*
X6070592Y5195696D02*
X6074276Y5199380D01*
X6461760Y5697220D02*
Y5875020D01*
Y5697220D02*
X6548120Y5610860D01*
X5582920Y5746884D02*
X5640196Y5689608D01*
X5582920Y5746884D02*
Y6019800D01*
X5513400Y5624500D02*
Y5690540D01*
X5402580Y5801360D02*
X5513400Y5690540D01*
X5173980Y5694680D02*
X5280660Y5801360D01*
X5402580D01*
X5173980Y5519420D02*
Y5694680D01*
X5501640Y5331749D02*
Y5450840D01*
X5467794Y5297903D02*
X5501640Y5331749D01*
X5467794Y5288280D02*
Y5297903D01*
X5749000Y5063200D02*
Y5070820D01*
X5694680Y5008880D02*
X5749000Y5063200D01*
X6067740Y5016820D02*
Y5024861D01*
X5887720Y5072380D02*
X6057900Y4902200D01*
X5869940Y5072380D02*
X5890167Y5092607D01*
X5768340Y4970780D02*
X5869940Y5072380D01*
X5887720D01*
X5702292Y5117528D02*
Y5195696D01*
Y5117528D02*
X5749000Y5070820D01*
X6067740Y5192844D02*
X6070592Y5195696D01*
X6067740Y5024861D02*
Y5192844D01*
X5890167Y5092607D02*
Y5195696D01*
X5623491Y5534660D02*
X5636270Y5521881D01*
X5468620Y5534660D02*
X5623491D01*
X5430520Y5496560D02*
X5468620Y5534660D01*
X5578508Y5689608D02*
X5640196D01*
X5513400Y5624500D02*
X5578508Y5689608D01*
X5913120Y7005320D02*
X6078220Y6840220D01*
Y6413500D02*
Y6840220D01*
X5989320Y6372860D02*
X6037580D01*
X6078220Y6413500D01*
X5920740Y6304280D02*
X5989320Y6372860D01*
X5920740Y6223000D02*
Y6304280D01*
X6098540Y6052820D02*
Y6261428D01*
X6078220Y6281748D02*
X6098540Y6261428D01*
X6078220Y6281748D02*
Y6294120D01*
D23*
X5582920Y6019800D02*
Y6134100D01*
X5285740Y6431280D02*
Y7023100D01*
Y6431280D02*
X5582920Y6134100D01*
X4594860Y5476240D02*
X5161280Y4909820D01*
X4594860Y5476240D02*
Y6962140D01*
X5397124Y5565140D02*
X5406908D01*
X5407284Y5565516D01*
X5321300Y5708336D02*
X5350067Y5679569D01*
X5321300Y5708336D02*
Y5712460D01*
X5350067Y5637973D02*
Y5679569D01*
Y5637973D02*
X5407284Y5580756D01*
Y5565516D02*
Y5580756D01*
D24*
X6715760Y5878830D02*
Y5882640D01*
X6761480Y5928360D01*
Y6352540D01*
D25*
X6311900Y5524500D02*
X6405128Y5617728D01*
X6427988D01*
X6433820Y5623560D01*
D26*
X5867400Y4241800D02*
D03*
D27*
X5613400D02*
D03*
D28*
X6396000Y7225000D02*
D03*
X5677723Y6502325D02*
D03*
Y6756325D02*
D03*
X8001000Y3683000D02*
D03*
X7747000Y3937000D02*
D03*
Y4191000D02*
D03*
Y4445000D02*
D03*
Y4699000D02*
D03*
Y4953000D02*
D03*
X8001000Y3937000D02*
D03*
Y4191000D02*
D03*
Y4445000D02*
D03*
Y4699000D02*
D03*
Y4953000D02*
D03*
Y5969000D02*
D03*
X7747000Y6223000D02*
D03*
Y6477000D02*
D03*
Y6731000D02*
D03*
Y6985000D02*
D03*
Y7239000D02*
D03*
X8001000Y6223000D02*
D03*
Y6477000D02*
D03*
Y6731000D02*
D03*
Y6985000D02*
D03*
Y7239000D02*
D03*
D29*
X6650000Y7225000D02*
D03*
X5931723Y6502325D02*
D03*
Y6756325D02*
D03*
X7747000Y3683000D02*
D03*
Y5969000D02*
D03*
D30*
X3594861Y3588206D02*
D03*
X3600000Y7300000D02*
D03*
D31*
X3615500Y6176000D02*
D03*
Y4846000D02*
D03*
X3950500D02*
D03*
X3910500Y5401000D02*
D03*
X3950500Y6176000D02*
D03*
D32*
X3700500Y6001000D02*
D03*
Y5021000D02*
D03*
D33*
X6012180Y5603240D02*
D03*
X6139180Y5527040D02*
D03*
Y5603240D02*
D03*
X4800600Y6431280D02*
D03*
X4086860Y7327900D02*
D03*
X5720080Y4546600D02*
D03*
X5293360Y5547360D02*
D03*
X5285740Y7023100D02*
D03*
X6715760Y5878830D02*
D03*
X6433820Y5623560D02*
D03*
X6548120Y5610860D02*
D03*
X6461760Y5875020D02*
D03*
X6761480Y6352540D02*
D03*
X5582920Y6019800D02*
D03*
X5765800Y4737100D02*
D03*
X6057900Y4902200D02*
D03*
X5768340Y4970780D02*
D03*
X4594860Y6962140D02*
D03*
X5161280Y4909820D02*
D03*
X6067740Y5024861D02*
D03*
X5749000Y5070820D02*
D03*
X5397124Y5565140D02*
D03*
X5501640Y5450840D02*
D03*
X6078220Y6294120D02*
D03*
X6098540Y6052820D02*
D03*
X5920740Y6223000D02*
D03*
X5913120Y7005320D02*
D03*
X5513400Y5624500D02*
D03*
X5173980Y5519420D02*
D03*
X5321300Y5712460D02*
D03*
X5467794Y5288280D02*
D03*
%TF.MD5,66e21029b366b8ee9e76161f4d6781ab*%
M02*
