G04*
G04 #@! TF.GenerationSoftware,Altium Limited,Altium Designer,20.2.5 (213)*
G04*
G04 Layer_Physical_Order=2*
G04 Layer_Color=16711680*
%FSLAX42Y42*%
%MOMM*%
G71*
G04*
G04 #@! TF.SameCoordinates,5637869A-760B-46F6-8F80-A6367189F75C*
G04*
G04*
G04 #@! TF.FilePolarity,Positive*
G04*
G01*
G75*
%ADD11C,0.25*%
%ADD18R,0.80X0.80*%
%ADD24R,0.80X0.80*%
%ADD46C,0.51*%
%ADD47C,0.64*%
%ADD48C,0.20*%
%ADD49C,1.50*%
%ADD50R,1.50X1.50*%
%ADD51C,3.10*%
%ADD52C,1.88*%
%ADD53C,0.50*%
%ADD54C,0.56*%
G36*
X8369Y3317D02*
X8362Y3310D01*
X3319D01*
X3310Y3319D01*
X3315Y7603D01*
X3320Y7605D01*
X8369D01*
Y3317D01*
D02*
G37*
%LPC*%
G36*
X4100Y7380D02*
Y7341D01*
X4139D01*
X4137Y7349D01*
X4125Y7366D01*
X4108Y7378D01*
X4100Y7380D01*
D02*
G37*
G36*
X4074D02*
X4066Y7378D01*
X4048Y7366D01*
X4037Y7349D01*
X4035Y7341D01*
X4074D01*
Y7380D01*
D02*
G37*
G36*
X4139Y7315D02*
X4100D01*
Y7276D01*
X4108Y7278D01*
X4125Y7289D01*
X4137Y7307D01*
X4139Y7315D01*
D02*
G37*
G36*
X4074D02*
X4035D01*
X4037Y7307D01*
X4048Y7289D01*
X4066Y7278D01*
X4074Y7276D01*
Y7315D01*
D02*
G37*
G36*
X8001Y7325D02*
X7979Y7322D01*
X7958Y7313D01*
X7940Y7300D01*
X7927Y7282D01*
X7918Y7261D01*
X7915Y7239D01*
X7918Y7217D01*
X7927Y7196D01*
X7940Y7178D01*
X7958Y7165D01*
X7979Y7156D01*
X8001Y7153D01*
X8023Y7156D01*
X8044Y7165D01*
X8062Y7178D01*
X8075Y7196D01*
X8084Y7217D01*
X8087Y7239D01*
X8084Y7261D01*
X8075Y7282D01*
X8062Y7300D01*
X8044Y7313D01*
X8023Y7322D01*
X8001Y7325D01*
D02*
G37*
G36*
X7747D02*
X7725Y7322D01*
X7704Y7313D01*
X7686Y7300D01*
X7673Y7282D01*
X7664Y7261D01*
X7661Y7239D01*
X7664Y7217D01*
X7673Y7196D01*
X7686Y7178D01*
X7704Y7165D01*
X7725Y7156D01*
X7747Y7153D01*
X7769Y7156D01*
X7790Y7165D01*
X7808Y7178D01*
X7821Y7196D01*
X7830Y7217D01*
X7833Y7239D01*
X7830Y7261D01*
X7821Y7282D01*
X7808Y7300D01*
X7790Y7313D01*
X7769Y7322D01*
X7747Y7325D01*
D02*
G37*
G36*
X6735Y7310D02*
X6565D01*
Y7140D01*
X6735D01*
Y7310D01*
D02*
G37*
G36*
X6396Y7311D02*
X6374Y7308D01*
X6353Y7299D01*
X6335Y7286D01*
X6322Y7268D01*
X6313Y7247D01*
X6310Y7225D01*
X6313Y7203D01*
X6322Y7182D01*
X6335Y7164D01*
X6353Y7151D01*
X6374Y7142D01*
X6396Y7139D01*
X6418Y7142D01*
X6439Y7151D01*
X6457Y7164D01*
X6470Y7182D01*
X6479Y7203D01*
X6482Y7225D01*
X6479Y7247D01*
X6470Y7268D01*
X6457Y7286D01*
X6439Y7299D01*
X6418Y7308D01*
X6396Y7311D01*
D02*
G37*
G36*
X3600Y7466D02*
X3568Y7463D01*
X3536Y7453D01*
X3508Y7438D01*
X3483Y7417D01*
X3462Y7392D01*
X3447Y7364D01*
X3437Y7332D01*
X3434Y7300D01*
X3437Y7268D01*
X3447Y7236D01*
X3462Y7208D01*
X3483Y7183D01*
X3508Y7162D01*
X3536Y7147D01*
X3568Y7137D01*
X3600Y7134D01*
X3632Y7137D01*
X3664Y7147D01*
X3692Y7162D01*
X3717Y7183D01*
X3738Y7208D01*
X3753Y7236D01*
X3763Y7268D01*
X3766Y7300D01*
X3763Y7332D01*
X3753Y7364D01*
X3738Y7392D01*
X3717Y7417D01*
X3692Y7438D01*
X3664Y7453D01*
X3632Y7463D01*
X3600Y7466D01*
D02*
G37*
G36*
X8014Y7085D02*
Y6998D01*
X8101D01*
X8099Y7011D01*
X8089Y7036D01*
X8073Y7057D01*
X8052Y7073D01*
X8027Y7083D01*
X8014Y7085D01*
D02*
G37*
G36*
X7760D02*
Y6998D01*
X7847D01*
X7845Y7011D01*
X7835Y7036D01*
X7819Y7057D01*
X7798Y7073D01*
X7773Y7083D01*
X7760Y7085D01*
D02*
G37*
G36*
X7734D02*
X7721Y7083D01*
X7696Y7073D01*
X7675Y7057D01*
X7659Y7036D01*
X7649Y7011D01*
X7647Y6998D01*
X7734D01*
Y7085D01*
D02*
G37*
G36*
X7988D02*
X7975Y7083D01*
X7950Y7073D01*
X7929Y7057D01*
X7913Y7036D01*
X7903Y7011D01*
X7901Y6998D01*
X7988D01*
Y7085D01*
D02*
G37*
G36*
X8101Y6972D02*
X8014D01*
Y6885D01*
X8027Y6887D01*
X8052Y6897D01*
X8073Y6913D01*
X8089Y6934D01*
X8099Y6959D01*
X8101Y6972D01*
D02*
G37*
G36*
X7847D02*
X7760D01*
Y6885D01*
X7773Y6887D01*
X7798Y6897D01*
X7819Y6913D01*
X7835Y6934D01*
X7845Y6959D01*
X7847Y6972D01*
D02*
G37*
G36*
X7734D02*
X7647D01*
X7649Y6959D01*
X7659Y6934D01*
X7675Y6913D01*
X7696Y6897D01*
X7721Y6887D01*
X7734Y6885D01*
Y6972D01*
D02*
G37*
G36*
X7988D02*
X7901D01*
X7903Y6959D01*
X7913Y6934D01*
X7929Y6913D01*
X7950Y6897D01*
X7975Y6887D01*
X7988Y6885D01*
Y6972D01*
D02*
G37*
G36*
X6017Y6841D02*
X5847D01*
Y6671D01*
X6017D01*
Y6841D01*
D02*
G37*
G36*
X5678Y6842D02*
X5655Y6839D01*
X5635Y6831D01*
X5617Y6817D01*
X5603Y6799D01*
X5595Y6779D01*
X5592Y6756D01*
X5595Y6734D01*
X5603Y6713D01*
X5617Y6696D01*
X5635Y6682D01*
X5655Y6673D01*
X5678Y6670D01*
X5700Y6673D01*
X5721Y6682D01*
X5738Y6696D01*
X5752Y6713D01*
X5761Y6734D01*
X5764Y6756D01*
X5761Y6779D01*
X5752Y6799D01*
X5738Y6817D01*
X5721Y6831D01*
X5700Y6839D01*
X5678Y6842D01*
D02*
G37*
G36*
X8001Y6817D02*
X7979Y6814D01*
X7958Y6805D01*
X7940Y6792D01*
X7927Y6774D01*
X7918Y6753D01*
X7915Y6731D01*
X7918Y6709D01*
X7927Y6688D01*
X7940Y6670D01*
X7958Y6657D01*
X7979Y6648D01*
X8001Y6645D01*
X8023Y6648D01*
X8044Y6657D01*
X8062Y6670D01*
X8075Y6688D01*
X8084Y6709D01*
X8087Y6731D01*
X8084Y6753D01*
X8075Y6774D01*
X8062Y6792D01*
X8044Y6805D01*
X8023Y6814D01*
X8001Y6817D01*
D02*
G37*
G36*
X7747D02*
X7725Y6814D01*
X7704Y6805D01*
X7686Y6792D01*
X7673Y6774D01*
X7664Y6753D01*
X7661Y6731D01*
X7664Y6709D01*
X7673Y6688D01*
X7686Y6670D01*
X7704Y6657D01*
X7725Y6648D01*
X7747Y6645D01*
X7769Y6648D01*
X7790Y6657D01*
X7808Y6670D01*
X7821Y6688D01*
X7830Y6709D01*
X7833Y6731D01*
X7830Y6753D01*
X7821Y6774D01*
X7808Y6792D01*
X7790Y6805D01*
X7769Y6814D01*
X7747Y6817D01*
D02*
G37*
G36*
X4813Y6483D02*
Y6444D01*
X4852D01*
X4851Y6452D01*
X4839Y6470D01*
X4821Y6482D01*
X4813Y6483D01*
D02*
G37*
G36*
X4788D02*
X4780Y6482D01*
X4762Y6470D01*
X4750Y6452D01*
X4749Y6444D01*
X4788D01*
Y6483D01*
D02*
G37*
G36*
X6017Y6587D02*
X5847D01*
Y6417D01*
X6017D01*
Y6587D01*
D02*
G37*
G36*
X5678Y6588D02*
X5655Y6585D01*
X5635Y6577D01*
X5617Y6563D01*
X5603Y6545D01*
X5595Y6525D01*
X5592Y6502D01*
X5595Y6480D01*
X5603Y6459D01*
X5617Y6442D01*
X5635Y6428D01*
X5655Y6419D01*
X5678Y6416D01*
X5700Y6419D01*
X5721Y6428D01*
X5738Y6442D01*
X5752Y6459D01*
X5761Y6480D01*
X5764Y6502D01*
X5761Y6525D01*
X5752Y6545D01*
X5738Y6563D01*
X5721Y6577D01*
X5700Y6585D01*
X5678Y6588D01*
D02*
G37*
G36*
X5913Y7044D02*
X5898Y7041D01*
X5886Y7033D01*
X5877Y7020D01*
X5874Y7005D01*
X5877Y6990D01*
X5886Y6978D01*
X5898Y6969D01*
X5913Y6966D01*
X5921Y6968D01*
X6058Y6832D01*
Y6422D01*
X6029Y6394D01*
X5989D01*
X5989Y6394D01*
X5981Y6392D01*
X5975Y6388D01*
X5975Y6388D01*
X5906Y6319D01*
X5902Y6312D01*
X5900Y6304D01*
X5900Y6304D01*
Y6255D01*
X5893Y6250D01*
X5885Y6238D01*
X5882Y6223D01*
X5885Y6208D01*
X5893Y6196D01*
X5906Y6187D01*
X5921Y6184D01*
X5936Y6187D01*
X5948Y6196D01*
X5957Y6208D01*
X5960Y6223D01*
X5957Y6238D01*
X5948Y6250D01*
X5941Y6255D01*
Y6296D01*
X5998Y6352D01*
X6038D01*
X6038Y6352D01*
X6046Y6354D01*
X6052Y6358D01*
X6093Y6399D01*
X6093Y6399D01*
X6097Y6406D01*
X6099Y6414D01*
Y6840D01*
X6099Y6840D01*
X6097Y6848D01*
X6093Y6855D01*
X6093Y6855D01*
X5950Y6997D01*
X5952Y7005D01*
X5949Y7020D01*
X5941Y7033D01*
X5928Y7041D01*
X5913Y7044D01*
D02*
G37*
G36*
X8001Y6563D02*
X7979Y6560D01*
X7958Y6551D01*
X7940Y6538D01*
X7927Y6520D01*
X7918Y6499D01*
X7915Y6477D01*
X7918Y6455D01*
X7927Y6434D01*
X7940Y6416D01*
X7958Y6403D01*
X7979Y6394D01*
X8001Y6391D01*
X8023Y6394D01*
X8044Y6403D01*
X8062Y6416D01*
X8075Y6434D01*
X8084Y6455D01*
X8087Y6477D01*
X8084Y6499D01*
X8075Y6520D01*
X8062Y6538D01*
X8044Y6551D01*
X8023Y6560D01*
X8001Y6563D01*
D02*
G37*
G36*
X7747D02*
X7725Y6560D01*
X7704Y6551D01*
X7686Y6538D01*
X7673Y6520D01*
X7664Y6499D01*
X7661Y6477D01*
X7664Y6455D01*
X7673Y6434D01*
X7686Y6416D01*
X7704Y6403D01*
X7725Y6394D01*
X7747Y6391D01*
X7769Y6394D01*
X7790Y6403D01*
X7808Y6416D01*
X7821Y6434D01*
X7830Y6455D01*
X7833Y6477D01*
X7830Y6499D01*
X7821Y6520D01*
X7808Y6538D01*
X7790Y6551D01*
X7769Y6560D01*
X7747Y6563D01*
D02*
G37*
G36*
X4852Y6419D02*
X4813D01*
Y6379D01*
X4821Y6381D01*
X4839Y6393D01*
X4851Y6410D01*
X4852Y6419D01*
D02*
G37*
G36*
X4788D02*
X4749D01*
X4750Y6410D01*
X4762Y6393D01*
X4780Y6381D01*
X4788Y6379D01*
Y6419D01*
D02*
G37*
G36*
X3963Y6295D02*
Y6189D01*
X4069D01*
X4067Y6207D01*
X4055Y6236D01*
X4035Y6261D01*
X4011Y6280D01*
X3982Y6292D01*
X3963Y6295D01*
D02*
G37*
G36*
X3628D02*
Y6189D01*
X3734D01*
X3732Y6207D01*
X3720Y6236D01*
X3700Y6261D01*
X3676Y6280D01*
X3647Y6292D01*
X3628Y6295D01*
D02*
G37*
G36*
X3938D02*
X3919Y6292D01*
X3890Y6280D01*
X3866Y6261D01*
X3846Y6236D01*
X3834Y6207D01*
X3832Y6189D01*
X3938D01*
Y6295D01*
D02*
G37*
G36*
X3603D02*
X3584Y6292D01*
X3555Y6280D01*
X3531Y6261D01*
X3511Y6236D01*
X3499Y6207D01*
X3497Y6189D01*
X3603D01*
Y6295D01*
D02*
G37*
G36*
X8001Y6309D02*
X7979Y6306D01*
X7958Y6297D01*
X7940Y6284D01*
X7927Y6266D01*
X7918Y6245D01*
X7915Y6223D01*
X7918Y6201D01*
X7927Y6180D01*
X7940Y6162D01*
X7958Y6149D01*
X7979Y6140D01*
X8001Y6137D01*
X8023Y6140D01*
X8044Y6149D01*
X8062Y6162D01*
X8075Y6180D01*
X8084Y6201D01*
X8087Y6223D01*
X8084Y6245D01*
X8075Y6266D01*
X8062Y6284D01*
X8044Y6297D01*
X8023Y6306D01*
X8001Y6309D01*
D02*
G37*
G36*
X7747D02*
X7725Y6306D01*
X7704Y6297D01*
X7686Y6284D01*
X7673Y6266D01*
X7664Y6245D01*
X7661Y6223D01*
X7664Y6201D01*
X7673Y6180D01*
X7686Y6162D01*
X7704Y6149D01*
X7725Y6140D01*
X7747Y6137D01*
X7769Y6140D01*
X7790Y6149D01*
X7808Y6162D01*
X7821Y6180D01*
X7830Y6201D01*
X7833Y6223D01*
X7830Y6245D01*
X7821Y6266D01*
X7808Y6284D01*
X7790Y6297D01*
X7769Y6306D01*
X7747Y6309D01*
D02*
G37*
G36*
X4069Y6163D02*
X3963D01*
Y6057D01*
X3982Y6060D01*
X4011Y6072D01*
X4035Y6091D01*
X4055Y6116D01*
X4067Y6145D01*
X4069Y6163D01*
D02*
G37*
G36*
X3734D02*
X3628D01*
Y6057D01*
X3647Y6060D01*
X3676Y6072D01*
X3700Y6091D01*
X3720Y6116D01*
X3732Y6145D01*
X3734Y6163D01*
D02*
G37*
G36*
X3603D02*
X3497D01*
X3499Y6145D01*
X3511Y6116D01*
X3531Y6091D01*
X3555Y6072D01*
X3584Y6060D01*
X3603Y6057D01*
Y6163D01*
D02*
G37*
G36*
X3938D02*
X3832D01*
X3834Y6145D01*
X3846Y6116D01*
X3866Y6091D01*
X3890Y6072D01*
X3919Y6060D01*
X3938Y6057D01*
Y6163D01*
D02*
G37*
G36*
X6078Y6333D02*
X6063Y6330D01*
X6051Y6322D01*
X6042Y6309D01*
X6039Y6294D01*
X6042Y6279D01*
X6051Y6267D01*
X6063Y6258D01*
X6075Y6256D01*
X6078Y6253D01*
Y6085D01*
X6071Y6080D01*
X6063Y6068D01*
X6060Y6053D01*
X6063Y6038D01*
X6071Y6025D01*
X6084Y6017D01*
X6099Y6014D01*
X6113Y6017D01*
X6126Y6025D01*
X6134Y6038D01*
X6137Y6053D01*
X6134Y6068D01*
X6126Y6080D01*
X6119Y6085D01*
Y6261D01*
X6119Y6261D01*
X6118Y6269D01*
X6113Y6276D01*
X6112Y6277D01*
X6114Y6279D01*
X6117Y6294D01*
X6114Y6309D01*
X6106Y6322D01*
X6093Y6330D01*
X6078Y6333D01*
D02*
G37*
G36*
X3701Y6062D02*
X3677Y6058D01*
X3657Y6044D01*
X3644Y6024D01*
X3639Y6001D01*
X3644Y5978D01*
X3657Y5958D01*
X3677Y5944D01*
X3701Y5940D01*
X3724Y5944D01*
X3744Y5958D01*
X3757Y5978D01*
X3762Y6001D01*
X3757Y6024D01*
X3744Y6044D01*
X3724Y6058D01*
X3701Y6062D01*
D02*
G37*
G36*
X7832Y6054D02*
X7662D01*
Y5884D01*
X7832D01*
Y6054D01*
D02*
G37*
G36*
X8001Y6055D02*
X7979Y6052D01*
X7958Y6043D01*
X7940Y6030D01*
X7927Y6012D01*
X7918Y5991D01*
X7915Y5969D01*
X7918Y5947D01*
X7927Y5926D01*
X7940Y5908D01*
X7958Y5895D01*
X7979Y5886D01*
X8001Y5883D01*
X8023Y5886D01*
X8044Y5895D01*
X8062Y5908D01*
X8075Y5926D01*
X8084Y5947D01*
X8087Y5969D01*
X8084Y5991D01*
X8075Y6012D01*
X8062Y6030D01*
X8044Y6043D01*
X8023Y6052D01*
X8001Y6055D01*
D02*
G37*
G36*
X6761Y6395D02*
X6745Y6392D01*
X6731Y6383D01*
X6722Y6369D01*
X6719Y6353D01*
Y5946D01*
X6686Y5913D01*
X6676Y5899D01*
X6673Y5883D01*
Y5879D01*
X6676Y5862D01*
X6686Y5849D01*
X6699Y5839D01*
X6716Y5836D01*
X6732Y5839D01*
X6746Y5849D01*
X6754Y5860D01*
X6792Y5898D01*
X6792Y5898D01*
X6801Y5912D01*
X6804Y5928D01*
Y6353D01*
X6801Y6369D01*
X6792Y6383D01*
X6778Y6392D01*
X6761Y6395D01*
D02*
G37*
G36*
X5881Y5755D02*
X5828D01*
Y5702D01*
X5881D01*
Y5755D01*
D02*
G37*
G36*
X5802D02*
X5750D01*
Y5702D01*
X5802D01*
Y5755D01*
D02*
G37*
G36*
X5286Y7062D02*
X5271Y7059D01*
X5258Y7051D01*
X5250Y7038D01*
X5247Y7023D01*
X5249Y7010D01*
Y6431D01*
X5249Y6431D01*
X5252Y6417D01*
X5260Y6406D01*
X5547Y6119D01*
Y6033D01*
X5544Y6020D01*
X5547Y6005D01*
X5555Y5992D01*
X5562Y5988D01*
Y5747D01*
X5562Y5747D01*
X5564Y5739D01*
X5568Y5732D01*
X5578Y5723D01*
X5578Y5722D01*
X5573Y5709D01*
X5571Y5709D01*
X5564Y5704D01*
X5564Y5704D01*
X5545Y5686D01*
X5542Y5687D01*
X5534Y5692D01*
X5533Y5698D01*
X5528Y5705D01*
X5417Y5816D01*
X5411Y5821D01*
X5403Y5822D01*
X5403Y5822D01*
X5281D01*
X5281Y5822D01*
X5273Y5821D01*
X5266Y5816D01*
X5266Y5816D01*
X5159Y5709D01*
X5155Y5703D01*
X5153Y5695D01*
X5153Y5695D01*
Y5551D01*
X5147Y5547D01*
X5138Y5534D01*
X5135Y5519D01*
X5138Y5505D01*
X5147Y5492D01*
X5153Y5487D01*
Y5194D01*
X5153Y5194D01*
X5155Y5186D01*
X5159Y5180D01*
X5693Y4646D01*
X5693Y4646D01*
X5699Y4642D01*
X5707Y4640D01*
X5791D01*
X5791Y4640D01*
X5799Y4642D01*
X5806Y4646D01*
X5854Y4695D01*
X5854Y4695D01*
X5859Y4701D01*
X5860Y4709D01*
X5860Y4709D01*
Y4770D01*
X5859Y4778D01*
X5854Y4785D01*
X5854Y4785D01*
X5811Y4828D01*
X5811Y4828D01*
X5715Y4923D01*
Y5000D01*
X5747Y5032D01*
X5749Y5032D01*
X5764Y5035D01*
X5776Y5043D01*
X5785Y5056D01*
X5788Y5071D01*
X5785Y5086D01*
X5776Y5098D01*
X5764Y5107D01*
X5749Y5110D01*
X5741Y5108D01*
X5723Y5126D01*
Y5146D01*
X5752D01*
Y5246D01*
X5652D01*
Y5146D01*
X5682D01*
Y5118D01*
X5682Y5118D01*
X5683Y5110D01*
X5688Y5103D01*
X5712Y5079D01*
X5710Y5071D01*
X5713Y5057D01*
X5680Y5024D01*
X5676Y5017D01*
X5674Y5009D01*
X5674Y5009D01*
Y4915D01*
X5674Y4915D01*
X5676Y4907D01*
X5680Y4900D01*
X5782Y4799D01*
X5782Y4799D01*
X5819Y4762D01*
Y4718D01*
X5804Y4703D01*
X5794Y4711D01*
X5802Y4722D01*
X5805Y4737D01*
X5802Y4752D01*
X5793Y4765D01*
X5781Y4773D01*
X5766Y4776D01*
X5751Y4773D01*
X5738Y4765D01*
X5735Y4764D01*
X5489Y5011D01*
Y5256D01*
X5495Y5261D01*
X5504Y5273D01*
X5507Y5288D01*
X5504Y5303D01*
X5503Y5304D01*
X5516Y5317D01*
X5516Y5317D01*
X5521Y5324D01*
X5522Y5332D01*
Y5419D01*
X5529Y5423D01*
X5538Y5436D01*
X5540Y5451D01*
X5538Y5466D01*
X5529Y5478D01*
X5517Y5487D01*
X5502Y5490D01*
X5487Y5487D01*
X5474Y5478D01*
X5466Y5466D01*
X5463Y5451D01*
X5466Y5436D01*
X5474Y5423D01*
X5481Y5419D01*
Y5340D01*
X5468Y5327D01*
X5453Y5324D01*
X5440Y5316D01*
X5432Y5303D01*
X5429Y5288D01*
X5432Y5273D01*
X5440Y5261D01*
X5447Y5256D01*
Y5002D01*
X5447Y5002D01*
X5449Y4994D01*
X5453Y4987D01*
X5718Y4722D01*
X5718Y4722D01*
X5725Y4718D01*
X5733Y4716D01*
X5733Y4716D01*
X5734D01*
X5738Y4710D01*
X5751Y4701D01*
X5766Y4698D01*
X5781Y4701D01*
X5791Y4708D01*
X5800Y4699D01*
X5783Y4682D01*
X5716D01*
X5195Y5203D01*
Y5487D01*
X5201Y5492D01*
X5210Y5505D01*
X5213Y5519D01*
X5210Y5534D01*
X5201Y5547D01*
X5195Y5551D01*
Y5686D01*
X5289Y5781D01*
X5394D01*
X5493Y5682D01*
Y5656D01*
X5486Y5652D01*
X5478Y5639D01*
X5475Y5624D01*
X5478Y5610D01*
X5486Y5597D01*
X5499Y5589D01*
X5513Y5586D01*
X5528Y5589D01*
X5541Y5597D01*
X5549Y5610D01*
X5552Y5624D01*
X5551Y5632D01*
X5577Y5659D01*
X5590Y5654D01*
Y5639D01*
X5690D01*
Y5740D01*
X5619D01*
X5604Y5755D01*
Y5988D01*
X5610Y5992D01*
X5619Y6005D01*
X5622Y6020D01*
X5619Y6033D01*
Y6134D01*
X5619Y6134D01*
X5616Y6148D01*
X5609Y6160D01*
X5609Y6160D01*
X5322Y6446D01*
Y7010D01*
X5325Y7023D01*
X5322Y7038D01*
X5313Y7051D01*
X5301Y7059D01*
X5286Y7062D01*
D02*
G37*
G36*
X6462Y5914D02*
X6447Y5911D01*
X6434Y5902D01*
X6426Y5890D01*
X6423Y5875D01*
X6426Y5860D01*
X6434Y5848D01*
X6441Y5843D01*
Y5697D01*
X6441Y5697D01*
X6443Y5689D01*
X6447Y5683D01*
X6468Y5662D01*
X6459Y5652D01*
X6449Y5659D01*
X6434Y5662D01*
X6419Y5659D01*
X6406Y5651D01*
X6399Y5640D01*
X6396Y5639D01*
X6389Y5634D01*
X6329Y5575D01*
X6262D01*
Y5545D01*
X6218D01*
X6210Y5544D01*
X6203Y5539D01*
X6201Y5539D01*
X6191Y5542D01*
X6189Y5548D01*
X6178Y5565D01*
X6189Y5582D01*
X6191Y5591D01*
X6087D01*
X6089Y5582D01*
X6100Y5565D01*
X6089Y5548D01*
X6087Y5540D01*
X6139D01*
Y5527D01*
X6152D01*
Y5475D01*
X6160Y5477D01*
X6163Y5479D01*
X6174Y5473D01*
Y5233D01*
X6161Y5220D01*
X6121D01*
Y5246D01*
X6020D01*
Y5146D01*
X6047D01*
Y5057D01*
X6040Y5052D01*
X6032Y5040D01*
X6029Y5025D01*
X6032Y5010D01*
X6040Y4997D01*
X6053Y4989D01*
X6068Y4986D01*
X6083Y4989D01*
X6095Y4997D01*
X6104Y5010D01*
X6107Y5025D01*
X6104Y5040D01*
X6095Y5052D01*
X6088Y5057D01*
Y5146D01*
X6121D01*
Y5179D01*
X6170D01*
X6170Y5179D01*
X6178Y5180D01*
X6184Y5185D01*
X6210Y5210D01*
X6210Y5210D01*
X6214Y5217D01*
X6216Y5225D01*
Y5493D01*
X6227Y5504D01*
X6262D01*
Y5474D01*
X6362D01*
Y5542D01*
X6412Y5592D01*
X6419Y5588D01*
X6434Y5585D01*
X6449Y5588D01*
X6461Y5596D01*
X6470Y5609D01*
X6473Y5624D01*
X6470Y5638D01*
X6462Y5649D01*
X6472Y5657D01*
X6511Y5619D01*
X6509Y5611D01*
X6512Y5596D01*
X6521Y5583D01*
X6527Y5579D01*
Y5147D01*
X6303Y4923D01*
X6090D01*
X6085Y4930D01*
X6073Y4938D01*
X6058Y4941D01*
X6050Y4939D01*
X5907Y5082D01*
X5909Y5085D01*
X5911Y5093D01*
X5911Y5093D01*
Y5146D01*
X5940D01*
Y5246D01*
X5840D01*
Y5146D01*
X5869D01*
Y5101D01*
X5855Y5087D01*
X5855Y5087D01*
X5776Y5008D01*
X5768Y5010D01*
X5753Y5007D01*
X5741Y4998D01*
X5732Y4986D01*
X5729Y4971D01*
X5732Y4956D01*
X5741Y4943D01*
X5753Y4935D01*
X5768Y4932D01*
X5783Y4935D01*
X5796Y4943D01*
X5804Y4956D01*
X5807Y4971D01*
X5806Y4979D01*
X5870Y5043D01*
X5888D01*
X6021Y4910D01*
X6019Y4902D01*
X6022Y4887D01*
X6030Y4875D01*
X6043Y4866D01*
X6058Y4863D01*
X6073Y4866D01*
X6085Y4875D01*
X6090Y4881D01*
X6312D01*
X6312Y4881D01*
X6320Y4883D01*
X6327Y4888D01*
X6563Y5124D01*
X6563Y5124D01*
X6567Y5130D01*
X6569Y5138D01*
X6569Y5138D01*
Y5579D01*
X6576Y5583D01*
X6584Y5596D01*
X6587Y5611D01*
X6584Y5626D01*
X6576Y5638D01*
X6563Y5647D01*
X6548Y5650D01*
X6540Y5648D01*
X6482Y5706D01*
Y5843D01*
X6489Y5848D01*
X6498Y5860D01*
X6501Y5875D01*
X6498Y5890D01*
X6489Y5902D01*
X6477Y5911D01*
X6462Y5914D01*
D02*
G37*
G36*
X5881Y5677D02*
X5828D01*
Y5624D01*
X5881D01*
Y5677D01*
D02*
G37*
G36*
X5802D02*
X5750D01*
Y5624D01*
X5802D01*
Y5677D01*
D02*
G37*
G36*
X6152Y5655D02*
Y5616D01*
X6191D01*
X6189Y5624D01*
X6178Y5642D01*
X6160Y5653D01*
X6152Y5655D01*
D02*
G37*
G36*
X6126D02*
X6118Y5653D01*
X6101Y5642D01*
X6089Y5624D01*
X6087Y5616D01*
X6126D01*
Y5655D01*
D02*
G37*
G36*
X6025D02*
Y5616D01*
X6064D01*
X6062Y5624D01*
X6051Y5642D01*
X6033Y5653D01*
X6025Y5655D01*
D02*
G37*
G36*
X5999D02*
X5991Y5653D01*
X5974Y5642D01*
X5962Y5624D01*
X5960Y5616D01*
X5999D01*
Y5655D01*
D02*
G37*
G36*
X6064Y5591D02*
X6025D01*
Y5551D01*
X6033Y5553D01*
X6051Y5565D01*
X6062Y5582D01*
X6064Y5591D01*
D02*
G37*
G36*
X5999D02*
X5960D01*
X5962Y5582D01*
X5974Y5565D01*
X5991Y5553D01*
X5999Y5551D01*
Y5591D01*
D02*
G37*
G36*
X5877Y5587D02*
X5824D01*
Y5535D01*
X5877D01*
Y5587D01*
D02*
G37*
G36*
X5799D02*
X5746D01*
Y5535D01*
X5799D01*
Y5587D01*
D02*
G37*
G36*
X5321Y5751D02*
X5306Y5748D01*
X5294Y5740D01*
X5285Y5727D01*
X5282Y5712D01*
X5285Y5698D01*
X5294Y5685D01*
X5294Y5685D01*
X5296Y5683D01*
X5314Y5665D01*
Y5638D01*
X5314Y5638D01*
X5317Y5624D01*
X5324Y5612D01*
X5360Y5576D01*
X5358Y5565D01*
X5361Y5550D01*
X5370Y5538D01*
X5371Y5537D01*
X5374Y5519D01*
X5373Y5517D01*
X5353D01*
X5331Y5539D01*
X5332Y5547D01*
X5329Y5562D01*
X5321Y5575D01*
X5308Y5583D01*
X5293Y5586D01*
X5278Y5583D01*
X5266Y5575D01*
X5257Y5562D01*
X5255Y5547D01*
X5257Y5532D01*
X5266Y5520D01*
X5278Y5511D01*
X5293Y5509D01*
X5301Y5510D01*
X5330Y5482D01*
X5330Y5482D01*
X5336Y5477D01*
X5344Y5476D01*
X5344Y5476D01*
X5431D01*
X5431Y5476D01*
X5438Y5477D01*
X5445Y5482D01*
X5477Y5514D01*
X5586D01*
Y5472D01*
X5686D01*
Y5572D01*
X5586D01*
Y5555D01*
X5469D01*
X5469Y5555D01*
X5461Y5554D01*
X5454Y5549D01*
X5452Y5547D01*
X5441Y5555D01*
X5444Y5566D01*
X5444Y5566D01*
Y5581D01*
X5444Y5581D01*
X5441Y5595D01*
X5433Y5606D01*
X5386Y5653D01*
Y5680D01*
X5386Y5680D01*
X5384Y5693D01*
X5376Y5705D01*
X5376Y5705D01*
X5358Y5723D01*
X5357Y5727D01*
X5349Y5740D01*
X5336Y5748D01*
X5321Y5751D01*
D02*
G37*
G36*
X6126Y5514D02*
X6087D01*
X6089Y5506D01*
X6101Y5489D01*
X6118Y5477D01*
X6126Y5475D01*
Y5514D01*
D02*
G37*
G36*
X5877Y5509D02*
X5824D01*
Y5456D01*
X5877D01*
Y5509D01*
D02*
G37*
G36*
X5799D02*
X5746D01*
Y5456D01*
X5799D01*
Y5509D01*
D02*
G37*
G36*
X3923Y5520D02*
Y5414D01*
X4029D01*
X4027Y5432D01*
X4015Y5461D01*
X3995Y5486D01*
X3971Y5505D01*
X3942Y5517D01*
X3923Y5520D01*
D02*
G37*
G36*
X3898D02*
X3879Y5517D01*
X3850Y5505D01*
X3826Y5486D01*
X3806Y5461D01*
X3794Y5432D01*
X3792Y5414D01*
X3898D01*
Y5520D01*
D02*
G37*
G36*
X6136Y5436D02*
X6083D01*
Y5383D01*
X6136D01*
Y5436D01*
D02*
G37*
G36*
X5956D02*
X5903D01*
Y5383D01*
X5956D01*
Y5436D01*
D02*
G37*
G36*
X5768D02*
X5715D01*
Y5383D01*
X5768D01*
Y5436D01*
D02*
G37*
G36*
X6058D02*
X6005D01*
Y5383D01*
X6058D01*
Y5436D01*
D02*
G37*
G36*
X5877D02*
X5825D01*
Y5383D01*
X5877D01*
Y5436D01*
D02*
G37*
G36*
X5690D02*
X5637D01*
Y5383D01*
X5690D01*
Y5436D01*
D02*
G37*
G36*
X6377Y5415D02*
X6325D01*
Y5362D01*
X6377D01*
Y5415D01*
D02*
G37*
G36*
X6299D02*
X6247D01*
Y5362D01*
X6299D01*
Y5415D01*
D02*
G37*
G36*
X6136Y5358D02*
X6083D01*
Y5305D01*
X6136D01*
Y5358D01*
D02*
G37*
G36*
X6058D02*
X6005D01*
Y5305D01*
X6058D01*
Y5358D01*
D02*
G37*
G36*
X5956D02*
X5903D01*
Y5305D01*
X5956D01*
Y5358D01*
D02*
G37*
G36*
X5877D02*
X5825D01*
Y5305D01*
X5877D01*
Y5358D01*
D02*
G37*
G36*
X5768D02*
X5715D01*
Y5305D01*
X5768D01*
Y5358D01*
D02*
G37*
G36*
X5690D02*
X5637D01*
Y5305D01*
X5690D01*
Y5358D01*
D02*
G37*
G36*
X6377Y5337D02*
X6325D01*
Y5284D01*
X6377D01*
Y5337D01*
D02*
G37*
G36*
X6299D02*
X6247D01*
Y5284D01*
X6299D01*
Y5337D01*
D02*
G37*
G36*
X3898Y5388D02*
X3792D01*
X3794Y5370D01*
X3806Y5341D01*
X3826Y5316D01*
X3850Y5297D01*
X3879Y5285D01*
X3898Y5282D01*
Y5388D01*
D02*
G37*
G36*
X4029D02*
X3923D01*
Y5282D01*
X3942Y5285D01*
X3971Y5297D01*
X3995Y5316D01*
X4015Y5341D01*
X4027Y5370D01*
X4029Y5388D01*
D02*
G37*
G36*
X3701Y5082D02*
X3677Y5078D01*
X3657Y5064D01*
X3644Y5044D01*
X3639Y5021D01*
X3644Y4998D01*
X3657Y4978D01*
X3677Y4964D01*
X3701Y4960D01*
X3724Y4964D01*
X3744Y4978D01*
X3757Y4998D01*
X3762Y5021D01*
X3757Y5044D01*
X3744Y5064D01*
X3724Y5078D01*
X3701Y5082D01*
D02*
G37*
G36*
X4595Y7001D02*
X4580Y6998D01*
X4567Y6990D01*
X4559Y6977D01*
X4556Y6962D01*
X4559Y6949D01*
Y5476D01*
X4559Y5476D01*
X4561Y5462D01*
X4569Y5451D01*
X5126Y4893D01*
X5134Y4882D01*
X5146Y4874D01*
X5161Y4871D01*
X5176Y4874D01*
X5189Y4882D01*
X5197Y4895D01*
X5200Y4910D01*
X5197Y4925D01*
X5189Y4937D01*
X5178Y4945D01*
X4631Y5491D01*
Y6949D01*
X4634Y6962D01*
X4631Y6977D01*
X4622Y6990D01*
X4610Y6998D01*
X4595Y7001D01*
D02*
G37*
G36*
X8001Y5039D02*
X7979Y5036D01*
X7958Y5027D01*
X7940Y5014D01*
X7927Y4996D01*
X7918Y4975D01*
X7915Y4953D01*
X7918Y4931D01*
X7927Y4910D01*
X7940Y4892D01*
X7958Y4879D01*
X7979Y4870D01*
X8001Y4867D01*
X8023Y4870D01*
X8044Y4879D01*
X8062Y4892D01*
X8075Y4910D01*
X8084Y4931D01*
X8087Y4953D01*
X8084Y4975D01*
X8075Y4996D01*
X8062Y5014D01*
X8044Y5027D01*
X8023Y5036D01*
X8001Y5039D01*
D02*
G37*
G36*
X7747D02*
X7725Y5036D01*
X7704Y5027D01*
X7686Y5014D01*
X7673Y4996D01*
X7664Y4975D01*
X7661Y4953D01*
X7664Y4931D01*
X7673Y4910D01*
X7686Y4892D01*
X7704Y4879D01*
X7725Y4870D01*
X7747Y4867D01*
X7769Y4870D01*
X7790Y4879D01*
X7808Y4892D01*
X7821Y4910D01*
X7830Y4931D01*
X7833Y4953D01*
X7830Y4975D01*
X7821Y4996D01*
X7808Y5014D01*
X7790Y5027D01*
X7769Y5036D01*
X7747Y5039D01*
D02*
G37*
G36*
X3963Y4965D02*
Y4859D01*
X4069D01*
X4067Y4877D01*
X4055Y4906D01*
X4035Y4931D01*
X4011Y4950D01*
X3982Y4962D01*
X3963Y4965D01*
D02*
G37*
G36*
X3628D02*
Y4859D01*
X3734D01*
X3732Y4877D01*
X3720Y4906D01*
X3700Y4931D01*
X3676Y4950D01*
X3647Y4962D01*
X3628Y4965D01*
D02*
G37*
G36*
X3938D02*
X3919Y4962D01*
X3890Y4950D01*
X3866Y4931D01*
X3846Y4906D01*
X3834Y4877D01*
X3832Y4859D01*
X3938D01*
Y4965D01*
D02*
G37*
G36*
X3603D02*
X3584Y4962D01*
X3555Y4950D01*
X3531Y4931D01*
X3511Y4906D01*
X3499Y4877D01*
X3497Y4859D01*
X3603D01*
Y4965D01*
D02*
G37*
G36*
X4069Y4833D02*
X3963D01*
Y4727D01*
X3982Y4730D01*
X4011Y4742D01*
X4035Y4761D01*
X4055Y4786D01*
X4067Y4815D01*
X4069Y4833D01*
D02*
G37*
G36*
X3734D02*
X3628D01*
Y4727D01*
X3647Y4730D01*
X3676Y4742D01*
X3700Y4761D01*
X3720Y4786D01*
X3732Y4815D01*
X3734Y4833D01*
D02*
G37*
G36*
X3603D02*
X3497D01*
X3499Y4815D01*
X3511Y4786D01*
X3531Y4761D01*
X3555Y4742D01*
X3584Y4730D01*
X3603Y4727D01*
Y4833D01*
D02*
G37*
G36*
X3938D02*
X3832D01*
X3834Y4815D01*
X3846Y4786D01*
X3866Y4761D01*
X3890Y4742D01*
X3919Y4730D01*
X3938Y4727D01*
Y4833D01*
D02*
G37*
G36*
X8014Y4799D02*
Y4712D01*
X8101D01*
X8099Y4725D01*
X8089Y4750D01*
X8073Y4771D01*
X8052Y4787D01*
X8027Y4797D01*
X8014Y4799D01*
D02*
G37*
G36*
X7760D02*
Y4712D01*
X7847D01*
X7845Y4725D01*
X7835Y4750D01*
X7819Y4771D01*
X7798Y4787D01*
X7773Y4797D01*
X7760Y4799D01*
D02*
G37*
G36*
X7734D02*
X7721Y4797D01*
X7696Y4787D01*
X7675Y4771D01*
X7659Y4750D01*
X7649Y4725D01*
X7647Y4712D01*
X7734D01*
Y4799D01*
D02*
G37*
G36*
X7988D02*
X7975Y4797D01*
X7950Y4787D01*
X7929Y4771D01*
X7913Y4750D01*
X7903Y4725D01*
X7901Y4712D01*
X7988D01*
Y4799D01*
D02*
G37*
G36*
X8101Y4686D02*
X8014D01*
Y4599D01*
X8027Y4601D01*
X8052Y4611D01*
X8073Y4627D01*
X8089Y4648D01*
X8099Y4673D01*
X8101Y4686D01*
D02*
G37*
G36*
X7847D02*
X7760D01*
Y4599D01*
X7773Y4601D01*
X7798Y4611D01*
X7819Y4627D01*
X7835Y4648D01*
X7845Y4673D01*
X7847Y4686D01*
D02*
G37*
G36*
X7734D02*
X7647D01*
X7649Y4673D01*
X7659Y4648D01*
X7675Y4627D01*
X7696Y4611D01*
X7721Y4601D01*
X7734Y4599D01*
Y4686D01*
D02*
G37*
G36*
X7988D02*
X7901D01*
X7903Y4673D01*
X7913Y4648D01*
X7929Y4627D01*
X7950Y4611D01*
X7975Y4601D01*
X7988Y4599D01*
Y4686D01*
D02*
G37*
G36*
X5733Y4598D02*
Y4559D01*
X5772D01*
X5770Y4567D01*
X5759Y4585D01*
X5741Y4597D01*
X5733Y4598D01*
D02*
G37*
G36*
X5707D02*
X5699Y4597D01*
X5682Y4585D01*
X5670Y4567D01*
X5668Y4559D01*
X5707D01*
Y4598D01*
D02*
G37*
G36*
X5772Y4534D02*
X5733D01*
Y4495D01*
X5741Y4496D01*
X5759Y4508D01*
X5770Y4526D01*
X5772Y4534D01*
D02*
G37*
G36*
X5707D02*
X5668D01*
X5670Y4526D01*
X5682Y4508D01*
X5699Y4496D01*
X5707Y4495D01*
Y4534D01*
D02*
G37*
G36*
X8001Y4531D02*
X7979Y4528D01*
X7958Y4519D01*
X7940Y4506D01*
X7927Y4488D01*
X7918Y4467D01*
X7915Y4445D01*
X7918Y4423D01*
X7927Y4402D01*
X7940Y4384D01*
X7958Y4371D01*
X7979Y4362D01*
X8001Y4359D01*
X8023Y4362D01*
X8044Y4371D01*
X8062Y4384D01*
X8075Y4402D01*
X8084Y4423D01*
X8087Y4445D01*
X8084Y4467D01*
X8075Y4488D01*
X8062Y4506D01*
X8044Y4519D01*
X8023Y4528D01*
X8001Y4531D01*
D02*
G37*
G36*
X7747D02*
X7725Y4528D01*
X7704Y4519D01*
X7686Y4506D01*
X7673Y4488D01*
X7664Y4467D01*
X7661Y4445D01*
X7664Y4423D01*
X7673Y4402D01*
X7686Y4384D01*
X7704Y4371D01*
X7725Y4362D01*
X7747Y4359D01*
X7769Y4362D01*
X7790Y4371D01*
X7808Y4384D01*
X7821Y4402D01*
X7830Y4423D01*
X7833Y4445D01*
X7830Y4467D01*
X7821Y4488D01*
X7808Y4506D01*
X7790Y4519D01*
X7769Y4528D01*
X7747Y4531D01*
D02*
G37*
G36*
X8001Y4277D02*
X7979Y4274D01*
X7958Y4265D01*
X7940Y4252D01*
X7927Y4234D01*
X7918Y4213D01*
X7915Y4191D01*
X7918Y4169D01*
X7927Y4148D01*
X7940Y4130D01*
X7958Y4117D01*
X7979Y4108D01*
X8001Y4105D01*
X8023Y4108D01*
X8044Y4117D01*
X8062Y4130D01*
X8075Y4148D01*
X8084Y4169D01*
X8087Y4191D01*
X8084Y4213D01*
X8075Y4234D01*
X8062Y4252D01*
X8044Y4265D01*
X8023Y4274D01*
X8001Y4277D01*
D02*
G37*
G36*
X7747D02*
X7725Y4274D01*
X7704Y4265D01*
X7686Y4252D01*
X7673Y4234D01*
X7664Y4213D01*
X7661Y4191D01*
X7664Y4169D01*
X7673Y4148D01*
X7686Y4130D01*
X7704Y4117D01*
X7725Y4108D01*
X7747Y4105D01*
X7769Y4108D01*
X7790Y4117D01*
X7808Y4130D01*
X7821Y4148D01*
X7830Y4169D01*
X7833Y4191D01*
X7830Y4213D01*
X7821Y4234D01*
X7808Y4252D01*
X7790Y4265D01*
X7769Y4274D01*
X7747Y4277D01*
D02*
G37*
G36*
X8001Y4023D02*
X7979Y4020D01*
X7958Y4011D01*
X7940Y3998D01*
X7927Y3980D01*
X7918Y3959D01*
X7915Y3937D01*
X7918Y3915D01*
X7927Y3894D01*
X7940Y3876D01*
X7958Y3863D01*
X7979Y3854D01*
X8001Y3851D01*
X8023Y3854D01*
X8044Y3863D01*
X8062Y3876D01*
X8075Y3894D01*
X8084Y3915D01*
X8087Y3937D01*
X8084Y3959D01*
X8075Y3980D01*
X8062Y3998D01*
X8044Y4011D01*
X8023Y4020D01*
X8001Y4023D01*
D02*
G37*
G36*
X7747D02*
X7725Y4020D01*
X7704Y4011D01*
X7686Y3998D01*
X7673Y3980D01*
X7664Y3959D01*
X7661Y3937D01*
X7664Y3915D01*
X7673Y3894D01*
X7686Y3876D01*
X7704Y3863D01*
X7725Y3854D01*
X7747Y3851D01*
X7769Y3854D01*
X7790Y3863D01*
X7808Y3876D01*
X7821Y3894D01*
X7830Y3915D01*
X7833Y3937D01*
X7830Y3959D01*
X7821Y3980D01*
X7808Y3998D01*
X7790Y4011D01*
X7769Y4020D01*
X7747Y4023D01*
D02*
G37*
G36*
X7832Y3768D02*
X7662D01*
Y3598D01*
X7832D01*
Y3768D01*
D02*
G37*
G36*
X8001Y3769D02*
X7979Y3766D01*
X7958Y3757D01*
X7940Y3744D01*
X7927Y3726D01*
X7918Y3705D01*
X7915Y3683D01*
X7918Y3661D01*
X7927Y3640D01*
X7940Y3622D01*
X7958Y3609D01*
X7979Y3600D01*
X8001Y3597D01*
X8023Y3600D01*
X8044Y3609D01*
X8062Y3622D01*
X8075Y3640D01*
X8084Y3661D01*
X8087Y3683D01*
X8084Y3705D01*
X8075Y3726D01*
X8062Y3744D01*
X8044Y3757D01*
X8023Y3766D01*
X8001Y3769D01*
D02*
G37*
G36*
X3595Y3754D02*
X3562Y3751D01*
X3531Y3742D01*
X3503Y3726D01*
X3478Y3706D01*
X3457Y3680D01*
X3442Y3652D01*
X3432Y3621D01*
X3429Y3588D01*
X3432Y3556D01*
X3442Y3525D01*
X3457Y3496D01*
X3478Y3471D01*
X3503Y3450D01*
X3531Y3435D01*
X3562Y3425D01*
X3595Y3422D01*
X3627Y3425D01*
X3658Y3435D01*
X3687Y3450D01*
X3712Y3471D01*
X3733Y3496D01*
X3748Y3525D01*
X3758Y3556D01*
X3761Y3588D01*
X3758Y3621D01*
X3748Y3652D01*
X3733Y3680D01*
X3712Y3706D01*
X3687Y3726D01*
X3658Y3742D01*
X3627Y3751D01*
X3595Y3754D01*
D02*
G37*
%LPD*%
D11*
X6312Y5524D02*
X6405Y5618D01*
X6428D01*
X6434Y5624D01*
X3302Y3302D02*
Y7620D01*
X8382D01*
Y3302D02*
Y7620D01*
X3302Y3302D02*
X8382D01*
D18*
X5640Y5690D02*
D03*
X5815D02*
D03*
X5811Y5522D02*
D03*
X5636D02*
D03*
D24*
X6312Y5524D02*
D03*
Y5349D02*
D03*
X6071Y5196D02*
D03*
Y5371D02*
D03*
X5890Y5196D02*
D03*
Y5371D02*
D03*
X5702Y5196D02*
D03*
Y5371D02*
D03*
D46*
X5583Y6020D02*
Y6134D01*
X5286Y6431D02*
Y7023D01*
Y6431D02*
X5583Y6134D01*
X4595Y5476D02*
X5161Y4910D01*
X4595Y5476D02*
Y6962D01*
X5397Y5565D02*
X5407D01*
X5407Y5566D01*
X5321Y5708D02*
X5350Y5680D01*
X5321Y5708D02*
Y5712D01*
X5350Y5638D02*
Y5680D01*
Y5638D02*
X5407Y5581D01*
Y5566D02*
Y5581D01*
D47*
X6716Y5879D02*
Y5883D01*
X6761Y5928D01*
Y6353D01*
D48*
X5695Y4915D02*
Y5009D01*
X5796Y4813D02*
X5796D01*
X5695Y4915D02*
X5796Y4813D01*
X5796D02*
X5839Y4770D01*
X6312Y4902D02*
X6548Y5138D01*
Y5611D01*
X6058Y4902D02*
X6312D01*
X5174Y5194D02*
Y5519D01*
Y5194D02*
X5707Y4661D01*
X5344Y5497D02*
X5431D01*
X5611D02*
X5636Y5522D01*
X5293Y5547D02*
X5344Y5497D01*
X5733Y4737D02*
X5766D01*
X5468Y5002D02*
X5733Y4737D01*
X5468Y5002D02*
Y5288D01*
X5791Y4661D02*
X5839Y4709D01*
X5707Y4661D02*
X5791D01*
X5839Y4709D02*
Y4770D01*
X6218Y5524D02*
X6312D01*
X6195Y5502D02*
X6218Y5524D01*
X6195Y5225D02*
Y5502D01*
X6170Y5199D02*
X6195Y5225D01*
X6074Y5199D02*
X6170D01*
X6071Y5196D02*
X6074Y5199D01*
X6462Y5697D02*
Y5875D01*
Y5697D02*
X6548Y5611D01*
X5583Y5747D02*
X5640Y5690D01*
X5583Y5747D02*
Y6020D01*
X5513Y5624D02*
Y5691D01*
X5403Y5801D02*
X5513Y5691D01*
X5174Y5695D02*
X5281Y5801D01*
X5403D01*
X5174Y5519D02*
Y5695D01*
X5502Y5332D02*
Y5451D01*
X5468Y5298D02*
X5502Y5332D01*
X5468Y5288D02*
Y5298D01*
X5749Y5063D02*
Y5071D01*
X5695Y5009D02*
X5749Y5063D01*
X6068Y5017D02*
Y5025D01*
X5888Y5072D02*
X6058Y4902D01*
X5870Y5072D02*
X5890Y5093D01*
X5768Y4971D02*
X5870Y5072D01*
X5888D01*
X5702Y5118D02*
Y5196D01*
Y5118D02*
X5749Y5071D01*
X6068Y5193D02*
X6071Y5196D01*
X6068Y5025D02*
Y5193D01*
X5890Y5093D02*
Y5196D01*
X5623Y5535D02*
X5636Y5522D01*
X5469Y5535D02*
X5623D01*
X5431Y5497D02*
X5469Y5535D01*
X5579Y5690D02*
X5640D01*
X5513Y5624D02*
X5579Y5690D01*
X5913Y7005D02*
X6078Y6840D01*
Y6414D02*
Y6840D01*
X5989Y6373D02*
X6038D01*
X6078Y6414D01*
X5921Y6304D02*
X5989Y6373D01*
X5921Y6223D02*
Y6304D01*
X6099Y6053D02*
Y6261D01*
X6078Y6282D02*
X6099Y6261D01*
X6078Y6282D02*
Y6294D01*
D49*
X6396Y7225D02*
D03*
X5678Y6502D02*
D03*
Y6756D02*
D03*
X8001Y3683D02*
D03*
X7747Y3937D02*
D03*
Y4191D02*
D03*
Y4445D02*
D03*
Y4699D02*
D03*
Y4953D02*
D03*
X8001Y3937D02*
D03*
Y4191D02*
D03*
Y4445D02*
D03*
Y4699D02*
D03*
Y4953D02*
D03*
Y5969D02*
D03*
X7747Y6223D02*
D03*
Y6477D02*
D03*
Y6731D02*
D03*
Y6985D02*
D03*
Y7239D02*
D03*
X8001Y6223D02*
D03*
Y6477D02*
D03*
Y6731D02*
D03*
Y6985D02*
D03*
Y7239D02*
D03*
D50*
X6650Y7225D02*
D03*
X5932Y6502D02*
D03*
Y6756D02*
D03*
X7747Y3683D02*
D03*
Y5969D02*
D03*
D51*
X3595Y3588D02*
D03*
X3600Y7300D02*
D03*
D52*
X3615Y6176D02*
D03*
Y4846D02*
D03*
X3951D02*
D03*
X3910Y5401D02*
D03*
X3951Y6176D02*
D03*
D53*
X3701Y6001D02*
D03*
Y5021D02*
D03*
D54*
X6012Y5603D02*
D03*
X6139Y5527D02*
D03*
Y5603D02*
D03*
X4801Y6431D02*
D03*
X4087Y7328D02*
D03*
X5720Y4547D02*
D03*
X5293Y5547D02*
D03*
X5286Y7023D02*
D03*
X6716Y5879D02*
D03*
X6434Y5624D02*
D03*
X6548Y5611D02*
D03*
X6462Y5875D02*
D03*
X6761Y6353D02*
D03*
X5583Y6020D02*
D03*
X5766Y4737D02*
D03*
X6058Y4902D02*
D03*
X5768Y4971D02*
D03*
X4595Y6962D02*
D03*
X5161Y4910D02*
D03*
X6068Y5025D02*
D03*
X5749Y5071D02*
D03*
X5397Y5565D02*
D03*
X5502Y5451D02*
D03*
X6078Y6294D02*
D03*
X6099Y6053D02*
D03*
X5921Y6223D02*
D03*
X5913Y7005D02*
D03*
X5513Y5624D02*
D03*
X5174Y5519D02*
D03*
X5321Y5712D02*
D03*
X5468Y5288D02*
D03*
M02*
