G04*
G04 #@! TF.GenerationSoftware,Altium Limited,Altium Designer,20.2.5 (213)*
G04*
G04 Layer_Physical_Order=1*
G04 Layer_Color=255*
%FSLAX42Y42*%
%MOMM*%
G71*
G04*
G04 #@! TF.SameCoordinates,5637869A-760B-46F6-8F80-A6367189F75C*
G04*
G04*
G04 #@! TF.FilePolarity,Positive*
G04*
G01*
G75*
%ADD11C,0.25*%
%ADD16R,1.35X0.40*%
%ADD17R,0.98X2.18*%
%ADD18R,0.80X0.80*%
%ADD19R,4.85X4.05*%
%ADD20R,0.85X0.20*%
%ADD21R,0.20X0.85*%
%ADD22R,1.50X1.00*%
G04:AMPARAMS|DCode=23|XSize=1mm|YSize=1.5mm|CornerRadius=0.25mm|HoleSize=0mm|Usage=FLASHONLY|Rotation=90.000|XOffset=0mm|YOffset=0mm|HoleType=Round|Shape=RoundedRectangle|*
%AMROUNDEDRECTD23*
21,1,1.00,1.00,0,0,90.0*
21,1,0.50,1.50,0,0,90.0*
1,1,0.50,0.50,0.25*
1,1,0.50,0.50,-0.25*
1,1,0.50,-0.50,-0.25*
1,1,0.50,-0.50,0.25*
%
%ADD23ROUNDEDRECTD23*%
%ADD24R,0.80X0.80*%
%ADD25R,0.85X0.60*%
%ADD26R,1.80X1.20*%
%ADD27R,0.50X0.60*%
%ADD46C,0.51*%
%ADD47C,0.64*%
%ADD48C,0.20*%
%ADD49C,1.50*%
%ADD50R,1.50X1.50*%
%ADD51C,3.10*%
%ADD52C,1.88*%
%ADD53C,0.50*%
%ADD54C,0.56*%
D11*
X5466Y5723D02*
X5536D01*
X5334Y5855D02*
X5466Y5723D01*
X4930Y5855D02*
X5334D01*
X4791Y5963D02*
X4821D01*
X4930Y5855D01*
X3302Y3302D02*
Y7620D01*
X8382D01*
Y3302D02*
Y7620D01*
X3302Y3302D02*
X8382D01*
D16*
X3874Y5908D02*
D03*
Y5844D02*
D03*
Y5778D02*
D03*
Y5713D02*
D03*
Y5649D02*
D03*
Y5238D02*
D03*
Y5174D02*
D03*
Y5108D02*
D03*
Y5044D02*
D03*
Y4978D02*
D03*
D17*
X3576Y5067D02*
D03*
D18*
X6387Y6337D02*
D03*
X6212D02*
D03*
X6387Y6528D02*
D03*
X6212D02*
D03*
X6385Y6718D02*
D03*
X6210D02*
D03*
X6387Y6909D02*
D03*
X6212D02*
D03*
X5917Y7341D02*
D03*
X5742D02*
D03*
X5917Y7150D02*
D03*
X5742D02*
D03*
X4978Y6639D02*
D03*
X4803D02*
D03*
X4977Y6820D02*
D03*
X4802D02*
D03*
D19*
X5969Y5524D02*
D03*
D20*
X6314Y5785D02*
D03*
Y5744D02*
D03*
Y5704D02*
D03*
Y5665D02*
D03*
Y5624D02*
D03*
Y5585D02*
D03*
Y5544D02*
D03*
Y5504D02*
D03*
Y5465D02*
D03*
Y5424D02*
D03*
Y5385D02*
D03*
Y5344D02*
D03*
Y5304D02*
D03*
Y5265D02*
D03*
X5624D02*
D03*
Y5304D02*
D03*
Y5344D02*
D03*
Y5385D02*
D03*
Y5424D02*
D03*
Y5465D02*
D03*
Y5504D02*
D03*
Y5544D02*
D03*
Y5585D02*
D03*
Y5624D02*
D03*
Y5665D02*
D03*
Y5704D02*
D03*
Y5744D02*
D03*
Y5785D02*
D03*
D21*
X6229Y5179D02*
D03*
X6189D02*
D03*
X6149D02*
D03*
X6109D02*
D03*
X6069D02*
D03*
X6029D02*
D03*
X5989D02*
D03*
X5949D02*
D03*
X5909D02*
D03*
X5869D02*
D03*
X5829D02*
D03*
X5789D02*
D03*
X5749D02*
D03*
X5709D02*
D03*
Y5869D02*
D03*
X5749D02*
D03*
X5789D02*
D03*
X5829D02*
D03*
X5869D02*
D03*
X5909D02*
D03*
X5949D02*
D03*
X5989D02*
D03*
X6029D02*
D03*
X6069D02*
D03*
X6109D02*
D03*
X6149D02*
D03*
X6189D02*
D03*
X6229D02*
D03*
D22*
X5461Y7341D02*
D03*
X4305Y7328D02*
D03*
D23*
X5461Y7020D02*
D03*
X4305Y7007D02*
D03*
D24*
X5182Y7139D02*
D03*
Y7314D02*
D03*
X4293Y6350D02*
D03*
Y6525D02*
D03*
X4559Y7153D02*
D03*
Y7328D02*
D03*
X5397Y6033D02*
D03*
Y6208D02*
D03*
X4572Y6021D02*
D03*
Y6196D02*
D03*
X4293Y5931D02*
D03*
Y6106D02*
D03*
X5334Y4700D02*
D03*
Y4875D02*
D03*
X5537Y4874D02*
D03*
Y4699D02*
D03*
D25*
X4997Y7226D02*
D03*
X4782Y7131D02*
D03*
Y7321D02*
D03*
D26*
X5191Y5963D02*
D03*
X4791D02*
D03*
Y6203D02*
D03*
X5191D02*
D03*
D27*
X4456Y5316D02*
D03*
X4561D02*
D03*
X4456Y5436D02*
D03*
X4561D02*
D03*
D46*
X7750Y4950D02*
X8200D01*
X7747Y4953D02*
X7750Y4950D01*
X8275Y5025D02*
Y7150D01*
X8200Y4950D02*
X8275Y5025D01*
X8001Y7239D02*
X8186D01*
X8275Y7150D01*
X7747Y7239D02*
X8001D01*
X6650Y7225D02*
X6657Y7232D01*
X7740D01*
X7747Y7239D01*
X5286Y7020D02*
X5461D01*
X5537Y4608D02*
X5596Y4549D01*
X5715D01*
X5537Y4608D02*
Y4699D01*
X4092Y7328D02*
X4305D01*
X4087Y7333D02*
X4092Y7328D01*
X5221Y7020D02*
X5286D01*
X4802Y6214D02*
Y6820D01*
X4791Y6203D02*
X4802Y6214D01*
X4788Y6200D02*
X4791Y6203D01*
X4100Y6180D02*
X4163Y6116D01*
X3619Y6180D02*
X4100D01*
X3576Y5085D02*
Y5365D01*
X3606Y5395D02*
X3892D01*
X4163Y6116D02*
X4282D01*
X4293Y6106D01*
X3606Y5395D02*
X3615Y5404D01*
X3576Y5365D02*
X3606Y5395D01*
X3615Y6175D02*
X3615Y6176D01*
X3615Y5404D02*
Y6175D01*
X3874Y5649D02*
X3887D01*
X3892Y5643D01*
Y5419D02*
Y5643D01*
Y5419D02*
X3910Y5401D01*
X3615Y6176D02*
X3619Y6180D01*
X3615Y4846D02*
X3951D01*
X3576Y5067D02*
X3596Y5047D01*
Y4865D02*
Y5047D01*
Y4865D02*
X3615Y4846D01*
X3600Y5108D02*
X3874D01*
X3576Y5085D02*
X3600Y5108D01*
X3576Y5067D02*
Y5085D01*
X5159Y4910D02*
X5193Y4875D01*
X5334D01*
X4517Y7034D02*
X4545Y7062D01*
X4490Y7007D02*
X4517Y7034D01*
X4577Y6975D02*
X4577D01*
X4585Y6967D01*
X4517Y7034D02*
X4577Y6975D01*
X5073Y5357D02*
X5433D01*
X5060Y5344D02*
X5073Y5357D01*
X4585Y5344D02*
X5060D01*
X5049Y5423D02*
X5440D01*
X5033Y5407D02*
X5049Y5423D01*
X4585Y5407D02*
X5033D01*
X5279Y5639D02*
X5355D01*
X5400Y5685D01*
X5917Y7012D02*
X5918Y7010D01*
X5917Y7012D02*
Y7150D01*
X4572Y6021D02*
X4703D01*
X4761Y5963D01*
X4791D01*
X5191D02*
X5328D01*
X5397Y6033D01*
X5161Y5963D02*
X5191D01*
X5039Y6086D02*
X5161Y5963D01*
X4939Y6086D02*
X5039D01*
X4821Y6203D02*
X4939Y6086D01*
X5191Y6203D02*
X5193Y6205D01*
X5395D01*
X5397Y6208D01*
X4572Y6196D02*
X4576Y6200D01*
X4788D01*
X5433Y6502D02*
X5678D01*
X5296Y6639D02*
X5433Y6502D01*
X4978Y6639D02*
X5296D01*
X5675Y6759D02*
X5678Y6756D01*
X5456Y6759D02*
X5675D01*
X4977Y6820D02*
X5395D01*
X5456Y6759D01*
X4895Y7341D02*
X5461D01*
X4782Y7321D02*
X4875D01*
X4895Y7341D01*
X5742Y7341D02*
X5742Y7341D01*
X5461Y7341D02*
X5742D01*
X5461Y7341D02*
X5461Y7341D01*
X5917Y7341D02*
X5917Y7341D01*
X5917Y7150D02*
Y7341D01*
X5917Y7150D02*
X5917Y7150D01*
X5742Y7050D02*
Y7150D01*
X5712Y7020D02*
X5742Y7050D01*
X5461Y7020D02*
X5712D01*
X5178Y7135D02*
X5182Y7139D01*
Y7059D02*
X5221Y7020D01*
X5182Y7139D02*
X5182Y7139D01*
X5182Y7059D02*
Y7139D01*
X4782Y7131D02*
X4786Y7135D01*
X5178D01*
X4559Y7153D02*
X4633Y7226D01*
X4997D01*
X4545Y7138D02*
X4559Y7153D01*
X4545Y7062D02*
Y7138D01*
X4305Y7007D02*
X4490D01*
X4559Y7328D02*
X4763D01*
X4305D02*
X4559D01*
X4763D02*
X4769Y7321D01*
X4782D01*
X4293Y6525D02*
X4299Y6531D01*
Y7001D01*
X4305Y7007D01*
X4293Y6350D02*
X4307Y6335D01*
X4383D01*
X4425Y5987D02*
Y6294D01*
X4383Y6335D02*
X4425Y6294D01*
X4383Y5946D02*
X4425Y5987D01*
X4293Y5931D02*
X4307Y5946D01*
X4383D01*
X4282Y5941D02*
X4293Y5931D01*
X4196Y5941D02*
X4282D01*
X3874Y5908D02*
X4164D01*
X4196Y5941D01*
X4083Y5728D02*
X5191D01*
X5217Y5791D02*
X5303Y5706D01*
X4110Y5791D02*
X5217D01*
X5191Y5728D02*
X5279Y5639D01*
X3874Y5843D02*
X4058D01*
X3874Y5844D02*
X3874Y5843D01*
X4058D02*
X4110Y5791D01*
X3874Y5779D02*
X4032D01*
X3874Y5778D02*
X3874Y5779D01*
X4032D02*
X4083Y5728D01*
X5374Y5190D02*
X5468D01*
X5348Y5126D02*
X5468D01*
X4946Y5213D02*
X5351D01*
X5374Y5190D01*
X4776Y5043D02*
X4946Y5213D01*
X3874Y5043D02*
X4776D01*
X3874Y5044D02*
X3874Y5043D01*
X5325Y5149D02*
X5348Y5126D01*
X4802Y4979D02*
X4973Y5149D01*
X5325D01*
X3874Y4979D02*
X4802D01*
X3874Y4978D02*
X3874Y4979D01*
X4561Y5431D02*
Y5436D01*
Y5431D02*
X4585Y5407D01*
X4561Y5320D02*
X4585Y5344D01*
X4561Y5316D02*
Y5320D01*
X4242Y5410D02*
X4458D01*
X4268Y5347D02*
X4458D01*
X4096Y5174D02*
X4268Y5347D01*
X4069Y5238D02*
X4242Y5410D01*
X3874Y5174D02*
X4096D01*
X3874Y5174D02*
X3874Y5174D01*
X3874Y5238D02*
X4069D01*
X3874Y5238D02*
X3874Y5238D01*
D47*
X6387Y6718D02*
Y6909D01*
Y6337D02*
X6739D01*
X6279Y7239D02*
X6393D01*
X6387Y6909D02*
Y7233D01*
Y6528D02*
Y6718D01*
Y6337D02*
Y6528D01*
Y7233D02*
X6393Y7239D01*
X5712Y7020D02*
X5812Y6919D01*
X5959D01*
X6279Y7239D01*
D48*
X6709Y5872D02*
X6716Y5879D01*
X6685Y5872D02*
X6709D01*
X6453Y5640D02*
X6685Y5872D01*
X6549Y5304D02*
X6718Y5474D01*
X6716Y5879D02*
X6718Y5876D01*
Y5474D02*
Y5876D01*
X6314Y5304D02*
X6549D01*
X6815Y4567D02*
X7165D01*
Y4677D01*
X7236D01*
Y4567D02*
Y4677D01*
Y4567D02*
X7308D01*
Y4694D01*
X7379D01*
Y4475D02*
Y4694D01*
Y4475D02*
X7450D01*
Y4567D01*
X7460D01*
X6558D02*
X6815D01*
X7460D02*
X7879D01*
X6914Y4445D02*
X6962D01*
Y4493D01*
X7033D01*
Y4445D02*
Y4493D01*
Y4445D02*
X7104D01*
Y4536D01*
X7175D01*
Y4343D02*
Y4536D01*
Y4343D02*
X7247D01*
Y4536D01*
X7318D01*
Y4343D02*
Y4536D01*
Y4343D02*
X7389D01*
Y4445D01*
X7399D01*
X6634D02*
X6914D01*
X7399D02*
X7747D01*
X6868Y4313D02*
X6909D01*
Y4324D01*
X6980D01*
Y4221D02*
Y4324D01*
Y4221D02*
X7051D01*
Y4415D01*
X7122D01*
Y4285D02*
Y4415D01*
Y4285D02*
X7193D01*
Y4313D01*
X7203D01*
X6718D02*
X6868D01*
X7203D02*
X7879D01*
X7008Y4191D02*
X7175D01*
Y4254D01*
X7247D01*
Y4100D02*
Y4254D01*
Y4100D02*
X7318D01*
Y4282D01*
X7389D01*
Y4100D02*
Y4282D01*
Y4100D02*
X7460D01*
Y4191D01*
X7470D01*
X6794D02*
X7008D01*
X7470D02*
X7747D01*
X7193Y4069D02*
X7396D01*
X7193D02*
Y4159D01*
X7122D02*
X7193D01*
X7122Y4069D02*
Y4159D01*
X7112Y4069D02*
X7122D01*
X7396D02*
X7889D01*
X6800D02*
X7112D01*
X7498Y3942D02*
X7592D01*
X7498Y3938D02*
Y3942D01*
X7427Y3938D02*
X7498D01*
X7427D02*
Y3942D01*
X7346D02*
X7427D01*
X7592D02*
X7742D01*
X7343D02*
X7346D01*
X7148D02*
X7191D01*
Y4039D01*
X7262D01*
Y3838D02*
Y4039D01*
Y3838D02*
X7333D01*
Y3942D01*
X7343D01*
X6878D02*
X7148D01*
X7122Y3683D02*
X7247D01*
Y3582D02*
Y3683D01*
Y3582D02*
X7318D01*
Y3683D01*
X7328D01*
X7023D02*
X7122D01*
X7328D02*
X7747D01*
X7327Y5549D02*
X7346Y5568D01*
X7271Y5606D02*
X7327Y5549D01*
X7221Y5556D02*
X7271Y5606D01*
X7221Y5556D02*
X7367Y5409D01*
X7317Y5359D02*
X7367Y5409D01*
X7137Y5539D02*
X7317Y5359D01*
X7087Y5488D02*
X7137Y5539D01*
X7087Y5488D02*
X7266Y5309D01*
X7216Y5258D02*
X7266Y5309D01*
X7036Y5438D02*
X7216Y5258D01*
X6986Y5388D02*
X7036Y5438D01*
X6986Y5388D02*
X7076Y5298D01*
X7069Y5291D02*
X7076Y5298D01*
X7346Y5568D02*
X7747Y5969D01*
X7043Y5265D02*
X7069Y5291D01*
X6314Y5265D02*
X7043D01*
X5293Y5537D02*
Y5547D01*
X6314Y5624D02*
X6434D01*
X6229Y5869D02*
X6451D01*
X6452Y5870D01*
X6484Y5544D02*
X6540Y5601D01*
X6314Y5544D02*
X6484D01*
X5989Y5504D02*
X6314D01*
X5969Y5524D02*
X5989Y5504D01*
X6029Y5585D02*
X6314D01*
X5969Y5524D02*
X6029Y5585D01*
X5624Y5785D02*
Y5961D01*
X5580Y6005D02*
X5624Y5961D01*
X5766Y4737D02*
X5767Y4738D01*
Y4970D01*
X5768Y4971D01*
X5502Y5448D02*
X5507D01*
X6012Y4948D02*
X6058Y4902D01*
X6012Y4948D02*
Y5067D01*
X5768Y4971D02*
X5773D01*
X7869Y6863D02*
X8001Y6731D01*
X6822Y6203D02*
X7483Y6863D01*
X7869D01*
X6071Y6203D02*
X6822D01*
X7435Y6731D02*
X7747D01*
X6876Y6172D02*
X7435Y6731D01*
X6086Y6172D02*
X6876D01*
X7996Y6477D02*
X8001D01*
X7861Y6612D02*
X7996Y6477D01*
X6949Y6142D02*
X7419Y6612D01*
X7861D01*
X6106Y6142D02*
X6949D01*
X7732Y6462D02*
X7747Y6477D01*
X7386Y6462D02*
X7732D01*
X6241Y6111D02*
X7036D01*
X7386Y6462D01*
X7874Y6350D02*
X8001Y6223D01*
X7493Y6350D02*
X7874D01*
X7224Y6081D02*
X7493Y6350D01*
X6253Y6081D02*
X7224D01*
X7328Y6050D02*
X7498Y6220D01*
X7744D01*
X6266Y6050D02*
X7328D01*
X7744Y6220D02*
X7747Y6223D01*
X7869Y6101D02*
X8001Y5969D01*
X7574Y6101D02*
X7869D01*
X8001Y5969D02*
X8001D01*
X7493Y6020D02*
X7574Y6101D01*
X6279Y6020D02*
X7493D01*
X7879Y4567D02*
X8001Y4445D01*
X6189Y4890D02*
X6634Y4445D01*
X7879Y4313D02*
X8001Y4191D01*
X6149Y4882D02*
X6718Y4313D01*
X6271Y4549D02*
X6271D01*
X6025Y4844D02*
X6800Y4069D01*
X5942Y4825D02*
X6960Y3807D01*
X5979Y4884D02*
X6020Y4844D01*
X5869Y4837D02*
X7023Y3683D01*
X6271Y4549D02*
X6878Y3942D01*
X6020Y4844D02*
X6025D01*
X5869Y4837D02*
Y5179D01*
X6960Y3807D02*
X7877D01*
X6119Y4867D02*
X6794Y4191D01*
X6229Y4896D02*
X6558Y4567D01*
X6229Y4896D02*
Y5179D01*
X7889Y4069D02*
X8001Y3957D01*
Y3937D02*
Y3957D01*
X6119Y4867D02*
Y5067D01*
X6189Y4890D02*
Y5179D01*
X7742Y3942D02*
X7747Y3937D01*
X5977Y4844D02*
X6271Y4549D01*
X5949Y4871D02*
X5977Y4844D01*
X5979Y4884D02*
Y5103D01*
X5909Y4858D02*
Y5179D01*
Y4858D02*
X5942Y4825D01*
X5989Y5112D02*
Y5179D01*
X5979Y5103D02*
X5989Y5112D01*
X5949Y4871D02*
Y5179D01*
X7877Y3807D02*
X8001Y3683D01*
X6149Y4882D02*
Y5179D01*
X6109Y5077D02*
Y5179D01*
Y5077D02*
X6119Y5067D01*
X6029Y5084D02*
Y5179D01*
X6012Y5067D02*
X6029Y5084D01*
X6068Y5025D02*
Y5037D01*
X6069Y5038D01*
Y5179D01*
X5819Y5017D02*
Y5093D01*
X5773Y4971D02*
X5819Y5017D01*
X5789Y5179D02*
X5789Y5179D01*
Y5123D02*
Y5179D01*
Y5123D02*
X5819Y5093D01*
X5829Y5179D02*
Y5385D01*
X5969Y5524D01*
X5438Y5352D02*
X5520D01*
X5433Y5357D02*
X5438Y5352D01*
X5451Y5474D02*
X5479Y5502D01*
X5220Y5474D02*
X5451D01*
X5479Y5502D02*
X5575D01*
X5438Y5504D02*
X5466Y5532D01*
X5326Y5504D02*
X5438D01*
X5466Y5532D02*
X5563D01*
X5293Y5537D02*
X5326Y5504D01*
X5552Y5565D02*
X5572Y5584D01*
X5397Y5565D02*
X5552D01*
X5572Y5584D02*
X5624D01*
X5507Y5448D02*
X5522Y5464D01*
X5445Y5428D02*
X5486Y5387D01*
X5546Y5424D02*
X5624D01*
X5486Y5387D02*
X5509D01*
X5553Y5385D02*
X5624D01*
X5520Y5352D02*
X5553Y5385D01*
X5509Y5387D02*
X5546Y5424D01*
X5560Y5344D02*
X5624D01*
X5468Y5288D02*
X5478Y5298D01*
X5513D01*
X5560Y5344D01*
X5174Y5519D02*
X5220Y5474D01*
X5528Y5465D02*
X5624D01*
X5575Y5502D02*
X5578Y5504D01*
X5527Y5464D02*
X5528Y5465D01*
X5563Y5532D02*
X5575Y5544D01*
X5522Y5464D02*
X5527D01*
X5749Y5071D02*
Y5179D01*
X5334Y4700D02*
X5406Y4773D01*
X5436D02*
X5537Y4874D01*
X5406Y4773D02*
X5436D01*
X5537Y4874D02*
Y4938D01*
X5709Y5110D02*
Y5179D01*
X5537Y4938D02*
X5709Y5110D01*
X6091Y6292D02*
Y6297D01*
X6132Y6337D02*
X6212D01*
X6091Y6297D02*
X6132Y6337D01*
X6091Y6050D02*
X6093D01*
X6029Y5869D02*
Y5988D01*
X6091Y6050D01*
X6189Y5930D02*
X6279Y6020D01*
X6189Y5869D02*
X6189Y5870D01*
Y5930D01*
X6149Y5869D02*
Y5933D01*
X6266Y6050D01*
X6109Y5936D02*
X6253Y6081D01*
X6109Y5869D02*
Y5936D01*
X6069Y5939D02*
X6241Y6111D01*
X6069Y5869D02*
Y5939D01*
X5989Y6025D02*
X6106Y6142D01*
X5989Y5869D02*
Y6025D01*
X5949Y6035D02*
X6086Y6172D01*
X5949Y5869D02*
Y6035D01*
X5909Y5869D02*
Y6041D01*
X6071Y6203D01*
X5911Y6218D02*
Y6220D01*
X5869Y5869D02*
Y6176D01*
X5911Y6218D01*
X5977Y6378D02*
X6033D01*
X6099Y6444D02*
Y6472D01*
X6033Y6378D02*
X6099Y6444D01*
X5829Y5869D02*
Y6230D01*
X5977Y6378D01*
X6209Y6530D02*
X6212Y6528D01*
X6099Y6472D02*
X6157Y6530D01*
X6209D01*
X5932Y6502D02*
X6148Y6718D01*
X6210D01*
X5932Y6756D02*
X6084Y6909D01*
X6212D01*
X5789Y5869D02*
Y6645D01*
X5678Y6756D02*
X5789Y6645D01*
X5749Y5869D02*
Y6424D01*
X5678Y6496D02*
X5749Y6424D01*
X5678Y6496D02*
Y6502D01*
X5491Y5822D02*
Y6191D01*
X5569Y5745D02*
X5624D01*
X5491Y5822D02*
X5569Y5745D01*
X5624D02*
X5624Y5744D01*
X5397Y6208D02*
X5402Y6203D01*
X5480D01*
X5491Y6191D01*
X5536Y5723D02*
X5547D01*
X5565Y5705D02*
X5624D01*
X5547Y5723D02*
X5565Y5705D01*
X5624D02*
X5624Y5704D01*
X5537Y5690D02*
X5562Y5665D01*
X5624D01*
X5405Y5690D02*
X5537D01*
X5513Y5624D02*
X5624D01*
X5512Y5626D02*
X5513Y5624D01*
X5624Y5504D02*
X5624Y5504D01*
X5578Y5504D02*
X5624D01*
Y5544D02*
X5624Y5544D01*
X5575Y5544D02*
X5624D01*
Y5584D02*
X5624Y5585D01*
X5400Y5685D02*
X5405Y5690D01*
X5583Y5304D02*
X5624D01*
X5473Y5195D02*
X5583Y5304D01*
X5597Y5265D02*
X5624D01*
X5596Y5264D02*
X5597Y5265D01*
X5596Y5237D02*
Y5264D01*
X5482Y5122D02*
X5596Y5237D01*
D49*
X6396Y7225D02*
D03*
X5678Y6502D02*
D03*
Y6756D02*
D03*
X8001Y3683D02*
D03*
X7747Y3937D02*
D03*
Y4191D02*
D03*
Y4445D02*
D03*
Y4699D02*
D03*
Y4953D02*
D03*
X8001Y3937D02*
D03*
Y4191D02*
D03*
Y4445D02*
D03*
Y4699D02*
D03*
Y4953D02*
D03*
Y5969D02*
D03*
X7747Y6223D02*
D03*
Y6477D02*
D03*
Y6731D02*
D03*
Y6985D02*
D03*
Y7239D02*
D03*
X8001Y6223D02*
D03*
Y6477D02*
D03*
Y6731D02*
D03*
Y6985D02*
D03*
Y7239D02*
D03*
D50*
X6650Y7225D02*
D03*
X5932Y6502D02*
D03*
Y6756D02*
D03*
X7747Y3683D02*
D03*
Y5969D02*
D03*
D51*
X3595Y3588D02*
D03*
X3600Y7300D02*
D03*
D52*
X3615Y6176D02*
D03*
Y4846D02*
D03*
X3951D02*
D03*
X3910Y5401D02*
D03*
X3951Y6176D02*
D03*
D53*
X3701Y6001D02*
D03*
Y5021D02*
D03*
D54*
X6012Y5603D02*
D03*
X6139Y5527D02*
D03*
Y5603D02*
D03*
X4801Y6431D02*
D03*
X4087Y7328D02*
D03*
X5720Y4547D02*
D03*
X5293Y5547D02*
D03*
X5286Y7023D02*
D03*
X6716Y5879D02*
D03*
X6434Y5624D02*
D03*
X6548Y5611D02*
D03*
X6462Y5875D02*
D03*
X6761Y6353D02*
D03*
X5583Y6020D02*
D03*
X5766Y4737D02*
D03*
X6058Y4902D02*
D03*
X5768Y4971D02*
D03*
X4595Y6962D02*
D03*
X5161Y4910D02*
D03*
X6068Y5025D02*
D03*
X5749Y5071D02*
D03*
X5397Y5565D02*
D03*
X5502Y5451D02*
D03*
X6078Y6294D02*
D03*
X6099Y6053D02*
D03*
X5921Y6223D02*
D03*
X5913Y7005D02*
D03*
X5513Y5624D02*
D03*
X5174Y5519D02*
D03*
X5321Y5712D02*
D03*
X5468Y5288D02*
D03*
M02*
