M48
;Layer_Color=9474304
;FILE_FORMAT=4:2
METRIC,LZ
;TYPE=PLATED
T1F00S00C0.36
T2F00S00C0.90
T3F00S00C1.25
;TYPE=NON_PLATED
T4F00S00C1.00
T5F00S00C3.10
%
T01
X005161Y00491
X005174Y005519
X005293Y005547
X005397Y005565
X005513Y005624
X005502Y005451
X005468Y005288
X005749Y005071
X005768Y004971
X005766Y004737
X00572Y004547
X006058Y004902
X006068Y005025
X006139Y005527
Y005603
X006012
X006434Y005624
X006548Y005611
X006462Y005875
X006716Y005879
X006761Y006353
X006078Y006294
X005921Y006223
X006099Y006053
X005583Y00602
X005321Y005712
X004801Y006431
X004595Y006962
X005286Y007023
X005913Y007005
X004087Y007328
T02
X007747Y003683
Y003937
X008001
Y003683
Y004191
Y004445
Y004699
Y004953
Y005969
Y006223
Y006477
Y006731
Y006985
Y007239
X007747
Y006985
Y006731
Y006477
Y006223
Y005969
Y004953
Y004699
Y004445
Y004191
X005932Y006502
X005678
Y006756
X005932
X006396Y007225
X00665
T03
X003615Y004846
X003951
X00391Y005401
X003951Y006176
X003615
T04
X003701Y005021
Y006001
T05
X003595Y003588
X0036Y0073
M30
