G04*
G04 #@! TF.GenerationSoftware,Altium Limited,Altium Designer,20.2.5 (213)*
G04*
G04 Layer_Color=8388736*
%FSLAX42Y42*%
%MOMM*%
G71*
G04*
G04 #@! TF.SameCoordinates,5637869A-760B-46F6-8F80-A6367189F75C*
G04*
G04*
G04 #@! TF.FilePolarity,Negative*
G04*
G01*
G75*
%ADD11C,0.25*%
%ADD28R,1.55X0.60*%
%ADD29R,1.18X2.38*%
%ADD30R,1.00X1.00*%
%ADD31R,5.05X4.25*%
%ADD32R,1.05X0.40*%
%ADD33R,0.40X1.05*%
%ADD34R,1.70X1.20*%
G04:AMPARAMS|DCode=35|XSize=1.2mm|YSize=1.7mm|CornerRadius=0.35mm|HoleSize=0mm|Usage=FLASHONLY|Rotation=90.000|XOffset=0mm|YOffset=0mm|HoleType=Round|Shape=RoundedRectangle|*
%AMROUNDEDRECTD35*
21,1,1.20,1.00,0,0,90.0*
21,1,0.50,1.70,0,0,90.0*
1,1,0.70,0.50,0.25*
1,1,0.70,0.50,-0.25*
1,1,0.70,-0.50,-0.25*
1,1,0.70,-0.50,0.25*
%
%ADD35ROUNDEDRECTD35*%
%ADD36R,1.00X1.00*%
%ADD37R,1.05X0.80*%
%ADD38R,2.00X1.40*%
%ADD39R,0.70X0.80*%
%ADD40C,1.70*%
%ADD41R,1.70X1.70*%
%ADD42C,3.30*%
%ADD43C,2.08*%
%ADD44C,0.70*%
%ADD45C,0.76*%
D11*
X3302Y3302D02*
Y7620D01*
X8382D01*
Y3302D02*
Y7620D01*
X3302Y3302D02*
X8382D01*
D28*
X3874Y5908D02*
D03*
Y5844D02*
D03*
Y5778D02*
D03*
Y5713D02*
D03*
Y5649D02*
D03*
Y5238D02*
D03*
Y5174D02*
D03*
Y5108D02*
D03*
Y5044D02*
D03*
Y4978D02*
D03*
D29*
X3576Y5067D02*
D03*
D30*
X6387Y6337D02*
D03*
X6212D02*
D03*
X6387Y6528D02*
D03*
X6212D02*
D03*
X6385Y6718D02*
D03*
X6210D02*
D03*
X6387Y6909D02*
D03*
X6212D02*
D03*
X5917Y7341D02*
D03*
X5742D02*
D03*
X5917Y7150D02*
D03*
X5742D02*
D03*
X4978Y6639D02*
D03*
X4803D02*
D03*
X4977Y6820D02*
D03*
X4802D02*
D03*
D31*
X5969Y5524D02*
D03*
D32*
X6314Y5785D02*
D03*
Y5744D02*
D03*
Y5704D02*
D03*
Y5665D02*
D03*
Y5624D02*
D03*
Y5585D02*
D03*
Y5544D02*
D03*
Y5504D02*
D03*
Y5465D02*
D03*
Y5424D02*
D03*
Y5385D02*
D03*
Y5344D02*
D03*
Y5304D02*
D03*
Y5265D02*
D03*
X5624D02*
D03*
Y5304D02*
D03*
Y5344D02*
D03*
Y5385D02*
D03*
Y5424D02*
D03*
Y5465D02*
D03*
Y5504D02*
D03*
Y5544D02*
D03*
Y5585D02*
D03*
Y5624D02*
D03*
Y5665D02*
D03*
Y5704D02*
D03*
Y5744D02*
D03*
Y5785D02*
D03*
D33*
X6229Y5179D02*
D03*
X6189D02*
D03*
X6149D02*
D03*
X6109D02*
D03*
X6069D02*
D03*
X6029D02*
D03*
X5989D02*
D03*
X5949D02*
D03*
X5909D02*
D03*
X5869D02*
D03*
X5829D02*
D03*
X5789D02*
D03*
X5749D02*
D03*
X5709D02*
D03*
Y5869D02*
D03*
X5749D02*
D03*
X5789D02*
D03*
X5829D02*
D03*
X5869D02*
D03*
X5909D02*
D03*
X5949D02*
D03*
X5989D02*
D03*
X6029D02*
D03*
X6069D02*
D03*
X6109D02*
D03*
X6149D02*
D03*
X6189D02*
D03*
X6229D02*
D03*
D34*
X5461Y7341D02*
D03*
X4305Y7328D02*
D03*
D35*
X5461Y7020D02*
D03*
X4305Y7007D02*
D03*
D36*
X5182Y7139D02*
D03*
Y7314D02*
D03*
X4293Y6350D02*
D03*
Y6525D02*
D03*
X4559Y7153D02*
D03*
Y7328D02*
D03*
X5397Y6033D02*
D03*
Y6208D02*
D03*
X4572Y6021D02*
D03*
Y6196D02*
D03*
X4293Y5931D02*
D03*
Y6106D02*
D03*
X5334Y4700D02*
D03*
Y4875D02*
D03*
X5537Y4874D02*
D03*
Y4699D02*
D03*
D37*
X4997Y7226D02*
D03*
X4782Y7131D02*
D03*
Y7321D02*
D03*
D38*
X5191Y5963D02*
D03*
X4791D02*
D03*
Y6203D02*
D03*
X5191D02*
D03*
D39*
X4456Y5316D02*
D03*
X4561D02*
D03*
X4456Y5436D02*
D03*
X4561D02*
D03*
D40*
X6396Y7225D02*
D03*
X5678Y6502D02*
D03*
Y6756D02*
D03*
X8001Y3683D02*
D03*
X7747Y3937D02*
D03*
Y4191D02*
D03*
Y4445D02*
D03*
Y4699D02*
D03*
Y4953D02*
D03*
X8001Y3937D02*
D03*
Y4191D02*
D03*
Y4445D02*
D03*
Y4699D02*
D03*
Y4953D02*
D03*
Y5969D02*
D03*
X7747Y6223D02*
D03*
Y6477D02*
D03*
Y6731D02*
D03*
Y6985D02*
D03*
Y7239D02*
D03*
X8001Y6223D02*
D03*
Y6477D02*
D03*
Y6731D02*
D03*
Y6985D02*
D03*
Y7239D02*
D03*
D41*
X6650Y7225D02*
D03*
X5932Y6502D02*
D03*
Y6756D02*
D03*
X7747Y3683D02*
D03*
Y5969D02*
D03*
D42*
X3595Y3588D02*
D03*
X3600Y7300D02*
D03*
D43*
X3615Y6176D02*
D03*
Y4846D02*
D03*
X3951D02*
D03*
X3910Y5401D02*
D03*
X3951Y6176D02*
D03*
D44*
X3701Y6001D02*
D03*
Y5021D02*
D03*
D45*
X6012Y5603D02*
D03*
X6139Y5527D02*
D03*
Y5603D02*
D03*
X4801Y6431D02*
D03*
X4087Y7328D02*
D03*
X5720Y4547D02*
D03*
X5293Y5547D02*
D03*
X5286Y7023D02*
D03*
X6716Y5879D02*
D03*
X6434Y5624D02*
D03*
X6548Y5611D02*
D03*
X6462Y5875D02*
D03*
X6761Y6353D02*
D03*
X5583Y6020D02*
D03*
X5766Y4737D02*
D03*
X6058Y4902D02*
D03*
X5768Y4971D02*
D03*
X4595Y6962D02*
D03*
X5161Y4910D02*
D03*
X6068Y5025D02*
D03*
X5749Y5071D02*
D03*
X5397Y5565D02*
D03*
X5502Y5451D02*
D03*
X6078Y6294D02*
D03*
X6099Y6053D02*
D03*
X5921Y6223D02*
D03*
X5913Y7005D02*
D03*
X5513Y5624D02*
D03*
X5174Y5519D02*
D03*
X5321Y5712D02*
D03*
X5468Y5288D02*
D03*
M02*
