G04*
G04 #@! TF.GenerationSoftware,Altium Limited,Altium Designer,20.2.5 (213)*
G04*
G04 Layer_Color=8421504*
%FSLAX42Y42*%
%MOMM*%
G71*
G04*
G04 #@! TF.SameCoordinates,99264967-5F5F-486C-9E42-840607406226*
G04*
G04*
G04 #@! TF.FilePolarity,Positive*
G04*
G01*
G75*
%ADD11C,0.25*%
%ADD16R,1.35X0.40*%
%ADD17R,0.98X2.18*%
%ADD18R,0.80X0.80*%
%ADD19R,4.85X4.05*%
%ADD20R,0.85X0.20*%
%ADD21R,0.20X0.85*%
%ADD22R,1.50X1.00*%
G04:AMPARAMS|DCode=23|XSize=1mm|YSize=1.5mm|CornerRadius=0.25mm|HoleSize=0mm|Usage=FLASHONLY|Rotation=90.000|XOffset=0mm|YOffset=0mm|HoleType=Round|Shape=RoundedRectangle|*
%AMROUNDEDRECTD23*
21,1,1.00,1.00,0,0,90.0*
21,1,0.50,1.50,0,0,90.0*
1,1,0.50,0.50,0.25*
1,1,0.50,0.50,-0.25*
1,1,0.50,-0.50,-0.25*
1,1,0.50,-0.50,0.25*
%
%ADD23ROUNDEDRECTD23*%
%ADD24R,0.80X0.80*%
%ADD25R,0.85X0.60*%
%ADD26R,1.80X1.20*%
%ADD27R,0.50X0.60*%
D11*
X3302Y3302D02*
Y7620D01*
X8382D01*
Y3302D02*
Y7620D01*
X3302Y3302D02*
X8382D01*
D16*
X3874Y5908D02*
D03*
Y5844D02*
D03*
Y5778D02*
D03*
Y5713D02*
D03*
Y5649D02*
D03*
Y5238D02*
D03*
Y5174D02*
D03*
Y5108D02*
D03*
Y5044D02*
D03*
Y4978D02*
D03*
D17*
X3576Y5067D02*
D03*
D18*
X6387Y6337D02*
D03*
X6212D02*
D03*
X6387Y6528D02*
D03*
X6212D02*
D03*
X6385Y6718D02*
D03*
X6210D02*
D03*
X6387Y6909D02*
D03*
X6212D02*
D03*
X5917Y7341D02*
D03*
X5742D02*
D03*
X5917Y7150D02*
D03*
X5742D02*
D03*
X4978Y6639D02*
D03*
X4803D02*
D03*
X4977Y6820D02*
D03*
X4802D02*
D03*
D19*
X5969Y5524D02*
D03*
D20*
X6314Y5785D02*
D03*
Y5744D02*
D03*
Y5704D02*
D03*
Y5665D02*
D03*
Y5624D02*
D03*
Y5585D02*
D03*
Y5544D02*
D03*
Y5504D02*
D03*
Y5465D02*
D03*
Y5424D02*
D03*
Y5385D02*
D03*
Y5344D02*
D03*
Y5304D02*
D03*
Y5265D02*
D03*
X5624D02*
D03*
Y5304D02*
D03*
Y5344D02*
D03*
Y5385D02*
D03*
Y5424D02*
D03*
Y5465D02*
D03*
Y5504D02*
D03*
Y5544D02*
D03*
Y5585D02*
D03*
Y5624D02*
D03*
Y5665D02*
D03*
Y5704D02*
D03*
Y5744D02*
D03*
Y5785D02*
D03*
D21*
X6229Y5179D02*
D03*
X6189D02*
D03*
X6149D02*
D03*
X6109D02*
D03*
X6069D02*
D03*
X6029D02*
D03*
X5989D02*
D03*
X5949D02*
D03*
X5909D02*
D03*
X5869D02*
D03*
X5829D02*
D03*
X5789D02*
D03*
X5749D02*
D03*
X5709D02*
D03*
Y5869D02*
D03*
X5749D02*
D03*
X5789D02*
D03*
X5829D02*
D03*
X5869D02*
D03*
X5909D02*
D03*
X5949D02*
D03*
X5989D02*
D03*
X6029D02*
D03*
X6069D02*
D03*
X6109D02*
D03*
X6149D02*
D03*
X6189D02*
D03*
X6229D02*
D03*
D22*
X5461Y7341D02*
D03*
X4305Y7328D02*
D03*
D23*
X5461Y7020D02*
D03*
X4305Y7007D02*
D03*
D24*
X5182Y7139D02*
D03*
Y7314D02*
D03*
X4293Y6350D02*
D03*
Y6525D02*
D03*
X4559Y7153D02*
D03*
Y7328D02*
D03*
X5397Y6033D02*
D03*
Y6208D02*
D03*
X4572Y6021D02*
D03*
Y6196D02*
D03*
X4293Y5931D02*
D03*
Y6106D02*
D03*
X5334Y4700D02*
D03*
Y4875D02*
D03*
X5537Y4874D02*
D03*
Y4699D02*
D03*
D25*
X4997Y7226D02*
D03*
X4782Y7131D02*
D03*
Y7321D02*
D03*
D26*
X5191Y5963D02*
D03*
X4791D02*
D03*
Y6203D02*
D03*
X5191D02*
D03*
D27*
X4456Y5316D02*
D03*
X4561D02*
D03*
X4456Y5436D02*
D03*
X4561D02*
D03*
M02*
