M48
;Layer_Color=9474304
;FILE_FORMAT=4:4
METRIC,LZ
;TYPE=PLATED
T1F00S00C0.3556
T2F00S00C0.9000
T3F00S00C1.0200
T4F00S00C1.2500
;TYPE=NON_PLATED
T5F00S00C1.0000
T6F00S00C3.1000
%
T01
X00516128Y00490982
X00517398Y00551942
X00529336Y00554736
X00539712Y00556514
X0055134Y0056245
X00550164Y00545084
X00546779Y00528828
X005749Y00507082
X00576834Y00497078
X0057658Y0047371
X00572008Y0045466
X0060579Y0049022
X00606774Y00502486
X00613918Y00552704
Y00560324
X00601218
X00643382Y00562356
X00654812Y00561086
X00646176Y00587502
X00671576Y00587883
X00676148Y00635254
X00607822Y00629412
X00592074Y006223
X00609854Y00605282
X00558292Y0060198
X0053213Y00571246
X0048006Y00643128
X00459486Y00696214
X00528574Y0070231
X00591312Y00700532
X00408686Y0073279
T02
X007747Y003683
Y003937
X008001
Y003683
Y004191
Y004445
Y004699
Y004953
Y005969
Y006223
Y006477
Y006731
Y006985
Y007239
X007747
Y006985
Y006731
Y006477
Y006223
Y005969
Y004953
Y004699
Y004445
Y004191
X00593172Y00650232
Y00675632
X00567772
Y00650232
X006396Y007225
X00665
T03
X0056134Y0042418
X0058674
T04
X0036155Y004846
X0039505
X0039105Y005401
X0039505Y006176
X0036155
T05
X0037005Y005021
Y006001
T06
X00359486Y00358821
X0036Y0073
M30
