G04*
G04 #@! TF.GenerationSoftware,Altium Limited,Altium Designer,20.2.5 (213)*
G04*
G04 Layer_Color=8388736*
%FSLAX42Y42*%
%MOMM*%
G71*
G04*
G04 #@! TF.SameCoordinates,314019C8-8427-4676-9664-B8FEBD72C539*
G04*
G04*
G04 #@! TF.FilePolarity,Negative*
G04*
G01*
G75*
%ADD13C,0.25*%
%ADD55R,1.00X1.00*%
%ADD56R,1.20X1.47*%
%ADD57O,1.20X1.47*%
%ADD58R,1.00X1.00*%
%ADD59R,0.80X0.80*%
G04:AMPARAMS|DCode=60|XSize=0.8mm|YSize=0.8mm|CornerRadius=0.25mm|HoleSize=0mm|Usage=FLASHONLY|Rotation=270.000|XOffset=0mm|YOffset=0mm|HoleType=Round|Shape=RoundedRectangle|*
%AMROUNDEDRECTD60*
21,1,0.80,0.30,0,0,270.0*
21,1,0.30,0.80,0,0,270.0*
1,1,0.50,-0.15,-0.15*
1,1,0.50,-0.15,0.15*
1,1,0.50,0.15,0.15*
1,1,0.50,0.15,-0.15*
%
%ADD60ROUNDEDRECTD60*%
%ADD61R,0.50X1.68*%
%ADD62R,1.68X0.50*%
%ADD63R,0.40X1.05*%
%ADD64R,1.05X0.40*%
%ADD65R,5.05X4.25*%
%ADD66R,1.60X0.80*%
%ADD67R,1.73X0.85*%
%ADD68R,1.18X2.38*%
%ADD69R,1.55X0.60*%
%ADD70R,1.30X0.65*%
%ADD71R,5.10X1.80*%
%ADD72R,2.55X0.90*%
%ADD73R,1.30X1.60*%
%ADD74R,1.05X0.80*%
%ADD75R,0.80X1.05*%
%ADD76R,2.00X1.40*%
G04:AMPARAMS|DCode=77|XSize=1.9mm|YSize=1.7mm|CornerRadius=0.48mm|HoleSize=0mm|Usage=FLASHONLY|Rotation=90.000|XOffset=0mm|YOffset=0mm|HoleType=Round|Shape=RoundedRectangle|*
%AMROUNDEDRECTD77*
21,1,1.90,0.75,0,0,90.0*
21,1,0.95,1.70,0,0,90.0*
1,1,0.95,0.38,0.48*
1,1,0.95,0.38,-0.48*
1,1,0.95,-0.38,-0.48*
1,1,0.95,-0.38,0.48*
%
%ADD77ROUNDEDRECTD77*%
%ADD78R,1.70X1.90*%
%ADD79R,1.45X1.10*%
%ADD80R,1.50X3.20*%
%ADD81C,1.20*%
%ADD82R,0.64X1.72*%
%ADD83P,4.89X4X90.0*%
G04:AMPARAMS|DCode=84|XSize=1.02mm|YSize=0.51mm|CornerRadius=0mm|HoleSize=0mm|Usage=FLASHONLY|Rotation=135.000|XOffset=0mm|YOffset=0mm|HoleType=Round|Shape=Rectangle|*
%AMROTATEDRECTD84*
4,1,4,0.54,-0.18,0.18,-0.54,-0.54,0.18,-0.18,0.54,0.54,-0.18,0.0*
%
%ADD84ROTATEDRECTD84*%

G04:AMPARAMS|DCode=85|XSize=1.02mm|YSize=0.51mm|CornerRadius=0mm|HoleSize=0mm|Usage=FLASHONLY|Rotation=45.000|XOffset=0mm|YOffset=0mm|HoleType=Round|Shape=Rectangle|*
%AMROTATEDRECTD85*
4,1,4,-0.18,-0.54,-0.54,-0.18,0.18,0.54,0.54,0.18,-0.18,-0.54,0.0*
%
%ADD85ROTATEDRECTD85*%

%ADD86R,1.10X0.75*%
%ADD87R,0.80X1.60*%
%ADD88R,0.80X2.00*%
%ADD89R,1.60X0.65*%
%ADD90C,0.70*%
%ADD91C,2.08*%
%ADD92C,2.63*%
%ADD93C,3.05*%
%ADD94C,1.70*%
%ADD95R,1.70X1.70*%
%ADD96R,1.70X1.70*%
%ADD97C,3.40*%
%ADD98C,0.91*%
G36*
X3562Y4654D02*
X3563Y4654D01*
X3564Y4654D01*
X3566Y4653D01*
X3567Y4652D01*
X3568Y4651D01*
X3633Y4586D01*
X3634Y4585D01*
X3634Y4584D01*
X3635Y4583D01*
X3635Y4582D01*
X3636Y4581D01*
X3636Y4579D01*
Y4389D01*
X3636Y4388D01*
X3635Y4387D01*
X3635Y4385D01*
X3634Y4384D01*
X3634Y4383D01*
X3633Y4382D01*
X3568Y4317D01*
X3567Y4316D01*
X3566Y4315D01*
X3564Y4315D01*
X3563Y4314D01*
X3562Y4314D01*
X3561Y4314D01*
X3501D01*
X3499Y4314D01*
X3498Y4314D01*
X3497Y4315D01*
X3496Y4315D01*
X3494Y4316D01*
X3493Y4317D01*
X3428Y4382D01*
X3428Y4383D01*
X3427Y4384D01*
X3426Y4385D01*
X3426Y4387D01*
X3426Y4388D01*
X3425Y4389D01*
Y4579D01*
X3426Y4581D01*
X3426Y4582D01*
X3426Y4583D01*
X3427Y4584D01*
X3428Y4585D01*
X3428Y4586D01*
X3493Y4651D01*
X3494Y4652D01*
X3496Y4653D01*
X3497Y4654D01*
X3498Y4654D01*
X3499Y4654D01*
X3501Y4654D01*
X3561D01*
X3562Y4654D01*
D02*
G37*
D13*
X10799Y10444D02*
G03*
X10483Y10801I-316J38D01*
G01*
X10480Y2597D02*
G03*
X10801Y2921I-3J324D01*
G01*
X2597Y2921D02*
G03*
X2921Y2600I324J3D01*
G01*
X2962Y10799D02*
G03*
X2600Y10478I-39J-321D01*
G01*
X2962Y10799D02*
X2962Y10799D01*
X2598Y2921D02*
X2600Y10478D01*
X2921Y2600D02*
X10480Y2597D01*
X2911Y10800D02*
X10483Y10801D01*
X10800Y10444D02*
X10801Y2921D01*
D55*
X7536Y4696D02*
D03*
X7361D02*
D03*
X7547Y4282D02*
D03*
X7372D02*
D03*
X6364Y5728D02*
D03*
X6539D02*
D03*
X6389Y8509D02*
D03*
X6564D02*
D03*
X9629Y7315D02*
D03*
X9804D02*
D03*
X9629Y7493D02*
D03*
X9804D02*
D03*
X5639Y4013D02*
D03*
X5464D02*
D03*
X5639Y9360D02*
D03*
X5464D02*
D03*
X9569Y5621D02*
D03*
X9394D02*
D03*
X4380Y8304D02*
D03*
X4205D02*
D03*
X4205Y8940D02*
D03*
X4380D02*
D03*
X10501Y9906D02*
D03*
X10326D02*
D03*
X9692Y8700D02*
D03*
X9867D02*
D03*
X9692Y8534D02*
D03*
X9867D02*
D03*
X6364Y5550D02*
D03*
X6539D02*
D03*
X6390Y8700D02*
D03*
X6565D02*
D03*
X8129Y6388D02*
D03*
X8304D02*
D03*
X9704Y9004D02*
D03*
X9879D02*
D03*
X3976Y4318D02*
D03*
X4151D02*
D03*
X3976Y4496D02*
D03*
X4151D02*
D03*
X3656Y5029D02*
D03*
X3481D02*
D03*
X4381Y7925D02*
D03*
X4206D02*
D03*
X3224Y5347D02*
D03*
X3049D02*
D03*
X4381Y7747D02*
D03*
X4206D02*
D03*
X9879Y9169D02*
D03*
X9704D02*
D03*
X9879Y9334D02*
D03*
X9704D02*
D03*
X9755Y5620D02*
D03*
X9930D02*
D03*
X8950Y5847D02*
D03*
X9125D02*
D03*
X8947Y6032D02*
D03*
X9122D02*
D03*
X7220Y5481D02*
D03*
X7395D02*
D03*
X7944Y5476D02*
D03*
X7769D02*
D03*
X3533Y6655D02*
D03*
X3708D02*
D03*
X3224Y5880D02*
D03*
X3049D02*
D03*
X3224Y5525D02*
D03*
X3049D02*
D03*
X3515Y7785D02*
D03*
X3340D02*
D03*
X3875Y4851D02*
D03*
X4050D02*
D03*
X3875Y5029D02*
D03*
X4050D02*
D03*
X4508Y5906D02*
D03*
X4683D02*
D03*
X4511Y5550D02*
D03*
X4686D02*
D03*
X2910Y9220D02*
D03*
X3085D02*
D03*
X3224Y6058D02*
D03*
X3049D02*
D03*
X3049Y5702D02*
D03*
X3224D02*
D03*
X3977Y4140D02*
D03*
X4152D02*
D03*
X4205Y8103D02*
D03*
X4380D02*
D03*
X4151Y4674D02*
D03*
X3976D02*
D03*
X4511Y5728D02*
D03*
X4686D02*
D03*
X3708Y6312D02*
D03*
X3533D02*
D03*
X3708Y6109D02*
D03*
X3533D02*
D03*
X3152Y7252D02*
D03*
X3327D02*
D03*
X3151Y7430D02*
D03*
X3326D02*
D03*
X3518Y7620D02*
D03*
X3343D02*
D03*
D56*
X7330Y4491D02*
D03*
D57*
X7534D02*
D03*
D58*
X8826Y6350D02*
D03*
Y6525D02*
D03*
X9716Y6326D02*
D03*
Y6501D02*
D03*
X7798Y5691D02*
D03*
Y5866D02*
D03*
X9589Y4167D02*
D03*
Y4342D02*
D03*
X9408Y4167D02*
D03*
Y4342D02*
D03*
X5842Y4230D02*
D03*
Y4405D02*
D03*
Y8942D02*
D03*
Y9117D02*
D03*
X7798Y6123D02*
D03*
Y6298D02*
D03*
X4534Y5183D02*
D03*
Y5358D02*
D03*
X9901Y5828D02*
D03*
Y6003D02*
D03*
X3162Y6440D02*
D03*
Y6615D02*
D03*
X2985Y6440D02*
D03*
Y6615D02*
D03*
X3543Y7427D02*
D03*
Y7252D02*
D03*
X3734Y7737D02*
D03*
Y7912D02*
D03*
X3531Y9003D02*
D03*
Y8828D02*
D03*
X3366Y9384D02*
D03*
Y9209D02*
D03*
X3531Y9663D02*
D03*
Y9488D02*
D03*
X3912Y7734D02*
D03*
Y7909D02*
D03*
X3696Y8828D02*
D03*
Y9003D02*
D03*
D59*
X7861Y8137D02*
D03*
X3531Y8661D02*
D03*
D60*
X7861Y8382D02*
D03*
X3531Y8416D02*
D03*
D61*
X5602Y8186D02*
D03*
X5652D02*
D03*
X5702D02*
D03*
X5752D02*
D03*
X5802D02*
D03*
X5852D02*
D03*
X5902D02*
D03*
X5952D02*
D03*
X6002D02*
D03*
X6052D02*
D03*
X6102D02*
D03*
X6152D02*
D03*
X6202D02*
D03*
X6252D02*
D03*
X6302D02*
D03*
X6352D02*
D03*
X6402D02*
D03*
X6452D02*
D03*
X6502D02*
D03*
X6552D02*
D03*
X6602D02*
D03*
X6652D02*
D03*
X6702D02*
D03*
X6752D02*
D03*
X6802D02*
D03*
X6852D02*
D03*
X6902D02*
D03*
X6952D02*
D03*
X7002D02*
D03*
X7052D02*
D03*
X7102D02*
D03*
X7152D02*
D03*
X7202D02*
D03*
X7252D02*
D03*
X7302D02*
D03*
X7352D02*
D03*
Y6038D02*
D03*
X7302D02*
D03*
X7252D02*
D03*
X7202D02*
D03*
X7152D02*
D03*
X7102D02*
D03*
X7052D02*
D03*
X7002D02*
D03*
X6952D02*
D03*
X6902D02*
D03*
X6852D02*
D03*
X6802D02*
D03*
X6752D02*
D03*
X6702D02*
D03*
X6652D02*
D03*
X6602D02*
D03*
X6552D02*
D03*
X6502D02*
D03*
X6452D02*
D03*
X6402D02*
D03*
X6352D02*
D03*
X6302D02*
D03*
X6252D02*
D03*
X6202D02*
D03*
X6152D02*
D03*
X6102D02*
D03*
X6052D02*
D03*
X6002D02*
D03*
X5952D02*
D03*
X5902D02*
D03*
X5852D02*
D03*
X5802D02*
D03*
X5752D02*
D03*
X5702D02*
D03*
X5652D02*
D03*
X5602D02*
D03*
X9038Y5377D02*
D03*
X8988D02*
D03*
X8938D02*
D03*
X8888D02*
D03*
X8838D02*
D03*
X8788D02*
D03*
X8738D02*
D03*
X8688D02*
D03*
X8638D02*
D03*
X8588D02*
D03*
X8538D02*
D03*
X8488D02*
D03*
Y4529D02*
D03*
X8538D02*
D03*
X8588D02*
D03*
X8638D02*
D03*
X8688D02*
D03*
X8738D02*
D03*
X8788D02*
D03*
X8838D02*
D03*
X8888D02*
D03*
X8938D02*
D03*
X8988D02*
D03*
X9038D02*
D03*
D62*
X7551Y7987D02*
D03*
Y7937D02*
D03*
Y7887D02*
D03*
Y7837D02*
D03*
Y7787D02*
D03*
Y7737D02*
D03*
Y7687D02*
D03*
Y7637D02*
D03*
Y7587D02*
D03*
Y7537D02*
D03*
Y7487D02*
D03*
Y7437D02*
D03*
Y7387D02*
D03*
Y7337D02*
D03*
Y7287D02*
D03*
Y7237D02*
D03*
Y7187D02*
D03*
Y7137D02*
D03*
Y7087D02*
D03*
Y7037D02*
D03*
Y6987D02*
D03*
Y6937D02*
D03*
Y6887D02*
D03*
Y6837D02*
D03*
Y6787D02*
D03*
Y6737D02*
D03*
Y6687D02*
D03*
Y6637D02*
D03*
Y6587D02*
D03*
Y6537D02*
D03*
Y6487D02*
D03*
Y6437D02*
D03*
Y6387D02*
D03*
Y6337D02*
D03*
Y6287D02*
D03*
Y6237D02*
D03*
X5403D02*
D03*
Y6287D02*
D03*
Y6337D02*
D03*
Y6387D02*
D03*
Y6437D02*
D03*
Y6487D02*
D03*
Y6537D02*
D03*
Y6587D02*
D03*
Y6637D02*
D03*
Y6687D02*
D03*
Y6737D02*
D03*
Y6787D02*
D03*
Y6837D02*
D03*
Y6887D02*
D03*
Y6937D02*
D03*
Y6987D02*
D03*
Y7037D02*
D03*
Y7087D02*
D03*
Y7137D02*
D03*
Y7187D02*
D03*
Y7237D02*
D03*
Y7287D02*
D03*
Y7337D02*
D03*
Y7387D02*
D03*
Y7437D02*
D03*
Y7487D02*
D03*
Y7537D02*
D03*
Y7587D02*
D03*
Y7637D02*
D03*
Y7687D02*
D03*
Y7737D02*
D03*
Y7787D02*
D03*
Y7837D02*
D03*
Y7887D02*
D03*
Y7937D02*
D03*
Y7987D02*
D03*
X8339Y5228D02*
D03*
Y5178D02*
D03*
Y5128D02*
D03*
Y5078D02*
D03*
Y5028D02*
D03*
Y4978D02*
D03*
Y4928D02*
D03*
Y4878D02*
D03*
Y4828D02*
D03*
Y4778D02*
D03*
Y4728D02*
D03*
Y4678D02*
D03*
X9187D02*
D03*
Y4728D02*
D03*
Y4778D02*
D03*
Y4828D02*
D03*
Y4878D02*
D03*
Y4928D02*
D03*
Y4978D02*
D03*
Y5028D02*
D03*
Y5078D02*
D03*
Y5128D02*
D03*
Y5178D02*
D03*
Y5228D02*
D03*
D63*
X8757Y6957D02*
D03*
X8797D02*
D03*
X8837D02*
D03*
X8877D02*
D03*
X8917D02*
D03*
X8957D02*
D03*
X8997D02*
D03*
X9037D02*
D03*
X9077D02*
D03*
X9117D02*
D03*
X9157D02*
D03*
X9197D02*
D03*
X9237D02*
D03*
X9277D02*
D03*
Y7647D02*
D03*
X9237D02*
D03*
X9197D02*
D03*
X9157D02*
D03*
X9117D02*
D03*
X9077D02*
D03*
X9037D02*
D03*
X8997D02*
D03*
X8957D02*
D03*
X8917D02*
D03*
X8877D02*
D03*
X8837D02*
D03*
X8797D02*
D03*
X8757D02*
D03*
D64*
X9362Y7043D02*
D03*
Y7082D02*
D03*
Y7122D02*
D03*
Y7162D02*
D03*
Y7203D02*
D03*
Y7243D02*
D03*
Y7282D02*
D03*
Y7322D02*
D03*
Y7362D02*
D03*
Y7403D02*
D03*
Y7443D02*
D03*
Y7482D02*
D03*
Y7522D02*
D03*
Y7562D02*
D03*
X8672D02*
D03*
Y7522D02*
D03*
Y7482D02*
D03*
Y7443D02*
D03*
Y7403D02*
D03*
Y7362D02*
D03*
Y7322D02*
D03*
Y7282D02*
D03*
Y7243D02*
D03*
Y7203D02*
D03*
Y7162D02*
D03*
Y7122D02*
D03*
Y7082D02*
D03*
Y7043D02*
D03*
D65*
X9017Y7303D02*
D03*
D66*
X9650Y5810D02*
D03*
Y5906D02*
D03*
Y6001D02*
D03*
X9400D02*
D03*
Y5906D02*
D03*
Y5810D02*
D03*
D67*
X7222Y5271D02*
D03*
Y5144D02*
D03*
Y5017D02*
D03*
Y4890D02*
D03*
X7764D02*
D03*
Y5017D02*
D03*
Y5144D02*
D03*
Y5271D02*
D03*
D68*
X10532Y7493D02*
D03*
D69*
X10235Y7581D02*
D03*
Y7516D02*
D03*
Y7451D02*
D03*
Y7386D02*
D03*
Y7321D02*
D03*
Y6911D02*
D03*
Y6846D02*
D03*
Y6781D02*
D03*
Y6716D02*
D03*
Y6651D02*
D03*
D70*
X10096Y4629D02*
D03*
Y4694D02*
D03*
Y4760D02*
D03*
Y4824D02*
D03*
Y4890D02*
D03*
D71*
X2901Y4160D02*
D03*
Y5010D02*
D03*
D72*
X2743Y4585D02*
D03*
D73*
X10431Y9421D02*
D03*
X10271D02*
D03*
X10431Y9121D02*
D03*
X10271D02*
D03*
D74*
X5404Y4318D02*
D03*
X5644Y4407D02*
D03*
Y4229D02*
D03*
X3397Y3683D02*
D03*
X3157Y3588D02*
D03*
Y3778D02*
D03*
D75*
X5550Y8922D02*
D03*
X5461Y9162D02*
D03*
X5639D02*
D03*
X4203Y8509D02*
D03*
X4381D02*
D03*
X4292Y8749D02*
D03*
D76*
X9071Y6533D02*
D03*
X9471D02*
D03*
Y6294D02*
D03*
X9071D02*
D03*
D77*
X8031Y5867D02*
D03*
Y6121D02*
D03*
X8251D02*
D03*
D78*
Y5867D02*
D03*
D79*
X2959Y6833D02*
D03*
Y7013D02*
D03*
X3188Y6833D02*
D03*
Y7013D02*
D03*
D80*
X3217Y8484D02*
D03*
X2896D02*
D03*
D81*
X4547Y5017D02*
D03*
X4216Y6045D02*
D03*
X3759Y8496D02*
D03*
X5207Y9258D02*
D03*
X4737Y8179D02*
D03*
D82*
X3636Y5847D02*
D03*
X3700D02*
D03*
X3764D02*
D03*
X3828D02*
D03*
X3892D02*
D03*
X3956D02*
D03*
X4020D02*
D03*
X4084D02*
D03*
X4148D02*
D03*
X4212D02*
D03*
Y5304D02*
D03*
X4148D02*
D03*
X4084D02*
D03*
X4020D02*
D03*
X3956D02*
D03*
X3892D02*
D03*
X3828D02*
D03*
X3764D02*
D03*
X3700D02*
D03*
X3636D02*
D03*
D83*
X4051Y7099D02*
D03*
D84*
X3759Y7144D02*
D03*
X3794Y7180D02*
D03*
X3829Y7214D02*
D03*
X3865Y7250D02*
D03*
X3900Y7286D02*
D03*
X3936Y7322D02*
D03*
X3970Y7356D02*
D03*
X4006Y7392D02*
D03*
X4344Y7054D02*
D03*
X4308Y7018D02*
D03*
X4274Y6984D02*
D03*
X4238Y6948D02*
D03*
X4202Y6913D02*
D03*
X4166Y6877D02*
D03*
X4132Y6842D02*
D03*
X4096Y6807D02*
D03*
D85*
Y7392D02*
D03*
X4132Y7356D02*
D03*
X4166Y7322D02*
D03*
X4202Y7286D02*
D03*
X4238Y7250D02*
D03*
X4274Y7214D02*
D03*
X4308Y7180D02*
D03*
X4344Y7144D02*
D03*
X4006Y6807D02*
D03*
X3970Y6842D02*
D03*
X3936Y6877D02*
D03*
X3900Y6913D02*
D03*
X3865Y6948D02*
D03*
X3829Y6984D02*
D03*
X3794Y7018D02*
D03*
X3759Y7054D02*
D03*
D86*
X2908Y8814D02*
D03*
X3177D02*
D03*
Y8908D02*
D03*
X2908Y9002D02*
D03*
X3177D02*
D03*
D87*
X3681Y4214D02*
D03*
X3381D02*
D03*
D88*
X3531Y4234D02*
D03*
D89*
X4428Y6138D02*
D03*
Y6203D02*
D03*
Y6268D02*
D03*
Y6333D02*
D03*
X4868D02*
D03*
Y6268D02*
D03*
Y6203D02*
D03*
Y6138D02*
D03*
D90*
X10407Y7539D02*
D03*
Y6558D02*
D03*
D91*
X10157Y6383D02*
D03*
X10197Y7158D02*
D03*
X10157Y7714D02*
D03*
X10493D02*
D03*
Y6383D02*
D03*
D92*
X10149Y4265D02*
D03*
Y5254D02*
D03*
D93*
X10549Y4265D02*
D03*
Y5254D02*
D03*
D94*
X10224Y8700D02*
D03*
Y8440D02*
D03*
X7747Y3683D02*
D03*
X8001D02*
D03*
X5080Y3556D02*
D03*
X4826Y3810D02*
D03*
X4572D02*
D03*
X4318D02*
D03*
X4064D02*
D03*
X3810D02*
D03*
X4826Y3556D02*
D03*
X4572D02*
D03*
X4318D02*
D03*
X4064D02*
D03*
X3810D02*
D03*
X6096D02*
D03*
X6350D02*
D03*
X6604D02*
D03*
X6858D02*
D03*
X7112D02*
D03*
X6096Y3810D02*
D03*
X6350D02*
D03*
X6604D02*
D03*
X6858D02*
D03*
X7112D02*
D03*
X7366Y3556D02*
D03*
X8382D02*
D03*
X8636D02*
D03*
X8890D02*
D03*
X9144D02*
D03*
X9398D02*
D03*
X8382Y3810D02*
D03*
X8636D02*
D03*
X8890D02*
D03*
X9144D02*
D03*
X9398D02*
D03*
X9652Y3556D02*
D03*
X5080Y9843D02*
D03*
X4826D02*
D03*
X4572D02*
D03*
X4318D02*
D03*
X4064D02*
D03*
X5080Y9589D02*
D03*
X4826D02*
D03*
X4572D02*
D03*
X4318D02*
D03*
X4064D02*
D03*
X3810Y9843D02*
D03*
X7366D02*
D03*
X7112D02*
D03*
X6858D02*
D03*
X6604D02*
D03*
X6350D02*
D03*
X7366Y9589D02*
D03*
X7112D02*
D03*
X6858D02*
D03*
X6604D02*
D03*
X6350D02*
D03*
X6096Y9843D02*
D03*
X9652D02*
D03*
X9398D02*
D03*
X9144D02*
D03*
X8890D02*
D03*
X8636D02*
D03*
X9652Y9589D02*
D03*
X9398D02*
D03*
X9144D02*
D03*
X8890D02*
D03*
X8636D02*
D03*
X8382Y9843D02*
D03*
X3277Y9919D02*
D03*
D95*
X10478Y8700D02*
D03*
Y8440D02*
D03*
X5080Y3810D02*
D03*
X7366D02*
D03*
X9652D02*
D03*
X3810Y9589D02*
D03*
X6096D02*
D03*
X8382D02*
D03*
D96*
X7747Y3937D02*
D03*
X8001D02*
D03*
X3277Y9665D02*
D03*
D97*
X10478Y2921D02*
D03*
Y10478D02*
D03*
X2921D02*
D03*
Y2921D02*
D03*
D98*
X7968Y4818D02*
D03*
X7790Y6002D02*
D03*
X7650Y6000D02*
D03*
X8103Y4917D02*
D03*
X8100Y5065D02*
D03*
X7973Y4564D02*
D03*
X7920Y4409D02*
D03*
X8039Y4732D02*
D03*
X7938Y4178D02*
D03*
X9619Y7846D02*
D03*
X9665Y4826D02*
D03*
X9555Y4843D02*
D03*
X5194Y5690D02*
D03*
X5512Y5956D02*
D03*
X7379Y7747D02*
D03*
X8704Y5805D02*
D03*
X9855Y7861D02*
D03*
X5220Y7366D02*
D03*
X9881Y4115D02*
D03*
X5639Y9512D02*
D03*
X3099Y3937D02*
D03*
X9474Y8839D02*
D03*
X9258Y7760D02*
D03*
X8785Y8093D02*
D03*
X6350Y6337D02*
D03*
X4508Y8852D02*
D03*
X5194Y8915D02*
D03*
X3696Y9131D02*
D03*
X3277Y5029D02*
D03*
X5753Y6909D02*
D03*
X6388Y8865D02*
D03*
X5321Y9258D02*
D03*
X7252Y7849D02*
D03*
X7163Y7341D02*
D03*
X7252Y8014D02*
D03*
X5994D02*
D03*
X6250D02*
D03*
X5842Y4051D02*
D03*
X5321Y3975D02*
D03*
X8611Y5715D02*
D03*
X8598Y5575D02*
D03*
X8497Y5944D02*
D03*
X8458Y6388D02*
D03*
X9169Y5397D02*
D03*
X7988Y6363D02*
D03*
X7362Y7286D02*
D03*
X7175Y6223D02*
D03*
X7358Y6790D02*
D03*
X6597Y6218D02*
D03*
X8509Y4775D02*
D03*
X9322Y5258D02*
D03*
X9449Y4959D02*
D03*
X7529Y5395D02*
D03*
X7219Y5657D02*
D03*
X7940Y5347D02*
D03*
X6924Y5817D02*
D03*
X6840Y5852D02*
D03*
X7419Y4935D02*
D03*
X7216Y5799D02*
D03*
X7764Y4762D02*
D03*
X6364Y5399D02*
D03*
X8682Y5202D02*
D03*
X9726Y4618D02*
D03*
X8799Y5204D02*
D03*
X8865Y5532D02*
D03*
X8941Y5210D02*
D03*
X9401Y5050D02*
D03*
X9398Y5146D02*
D03*
X9698Y6132D02*
D03*
X9246Y5878D02*
D03*
X9248Y6015D02*
D03*
X9860Y6650D02*
D03*
X9139Y6739D02*
D03*
X8909Y6757D02*
D03*
X9384Y6968D02*
D03*
X9525Y7163D02*
D03*
X9373Y6870D02*
D03*
X9319Y6787D02*
D03*
X9225D02*
D03*
X9512Y7252D02*
D03*
X9563Y7036D02*
D03*
X9512Y7341D02*
D03*
X8966Y4699D02*
D03*
X9373Y4877D02*
D03*
X9500Y7506D02*
D03*
X8636Y6947D02*
D03*
X9169Y7188D02*
D03*
X8865D02*
D03*
X9017Y7303D02*
D03*
X8865Y7417D02*
D03*
X9169D02*
D03*
X8407Y7087D02*
D03*
X7709Y7023D02*
D03*
X8318Y7328D02*
D03*
X7785Y7175D02*
D03*
X8306Y7544D02*
D03*
X8413Y7654D02*
D03*
X8433Y7518D02*
D03*
X7861D02*
D03*
X7734D02*
D03*
X7709Y7239D02*
D03*
X8552Y7544D02*
D03*
X7366Y7582D02*
D03*
Y7137D02*
D03*
Y6947D02*
D03*
X8471Y7303D02*
D03*
X8534Y7226D02*
D03*
X8915Y7836D02*
D03*
X6655Y8014D02*
D03*
X5182Y7760D02*
D03*
X6049Y6219D02*
D03*
X5753Y6210D02*
D03*
X5588Y6540D02*
D03*
X5575Y6680D02*
D03*
Y7734D02*
D03*
X5042Y8115D02*
D03*
X3569Y6782D02*
D03*
X4928Y6007D02*
D03*
X2870Y5969D02*
D03*
X4178Y5575D02*
D03*
X5232Y6045D02*
D03*
X3404Y5982D02*
D03*
X3454Y6464D02*
D03*
X5017Y7087D02*
D03*
X5156Y7074D02*
D03*
X4343Y6845D02*
D03*
X4051Y7747D02*
D03*
X4254Y7455D02*
D03*
X4191Y7099D02*
D03*
X4051Y6960D02*
D03*
Y7239D02*
D03*
X3912Y7099D02*
D03*
X3797Y6807D02*
D03*
X3721Y7429D02*
D03*
X3670Y7188D02*
D03*
X3848Y5550D02*
D03*
X3645Y6998D02*
D03*
X4039Y8280D02*
D03*
M02*
