G04*
G04 #@! TF.GenerationSoftware,Altium Limited,Altium Designer,20.2.5 (213)*
G04*
G04 Layer_Color=32896*
%FSLAX42Y42*%
%MOMM*%
G71*
G04*
G04 #@! TF.SameCoordinates,314019C8-8427-4676-9664-B8FEBD72C539*
G04*
G04*
G04 #@! TF.FilePolarity,Positive*
G04*
G01*
G75*
%ADD13C,0.25*%
%ADD14C,0.10*%
%ADD15C,0.12*%
%ADD16C,0.15*%
%ADD19C,0.16*%
%ADD121C,0.18*%
D13*
X8255Y10033D02*
Y10732D01*
X9766Y10046D02*
Y10732D01*
X8255D02*
X9766D01*
X8255Y10033D02*
X9754D01*
X9766Y10046D01*
X8509Y10033D02*
Y10732D01*
X8763Y10033D02*
Y10732D01*
X9017Y10033D02*
Y10732D01*
X9258Y10033D02*
Y10732D01*
X9512Y10033D02*
Y10732D01*
X8255Y10395D02*
X9252D01*
X5969Y10033D02*
Y10732D01*
X7480Y10046D02*
Y10732D01*
X5969D02*
X7480D01*
X5969Y10033D02*
X7468D01*
X7480Y10046D01*
X6223Y10033D02*
Y10732D01*
X6477Y10033D02*
Y10732D01*
X6731Y10033D02*
Y10732D01*
X6972Y10033D02*
Y10732D01*
X7226Y10033D02*
Y10732D01*
X5969Y10395D02*
X6966D01*
X3670D02*
X4667D01*
X4928Y10033D02*
Y10732D01*
X4674Y10033D02*
Y10732D01*
X4432Y10033D02*
Y10732D01*
X4178Y10033D02*
Y10732D01*
X3924Y10033D02*
Y10732D01*
X5169Y10033D02*
X5182Y10046D01*
X3670Y10033D02*
X5169D01*
X3670Y10732D02*
X5182D01*
Y10046D02*
Y10732D01*
X3670Y10033D02*
Y10732D01*
X8268Y2680D02*
Y3378D01*
X9779Y2692D02*
Y3378D01*
X8268D02*
X9779D01*
X8268Y2680D02*
X9766D01*
X9779Y2692D01*
X8522Y2680D02*
Y3378D01*
X8776Y2680D02*
Y3378D01*
X9030Y2680D02*
Y3378D01*
X9271Y2680D02*
Y3378D01*
X9525Y2680D02*
Y3378D01*
X8776Y3029D02*
X9773D01*
X5969Y2667D02*
Y3365D01*
X7480Y2680D02*
Y3365D01*
X5969D02*
X7480D01*
X5969Y2667D02*
X7468D01*
X7480Y2680D01*
X6223Y2667D02*
Y3365D01*
X6477Y2667D02*
Y3365D01*
X6731Y2667D02*
Y3365D01*
X6972Y2667D02*
Y3365D01*
X7226Y2667D02*
Y3365D01*
X6477Y3016D02*
X7474D01*
X4191D02*
X5188D01*
X4940Y2667D02*
Y3365D01*
X4686Y2667D02*
Y3365D01*
X4445Y2667D02*
Y3365D01*
X4191Y2667D02*
Y3365D01*
X3937Y2667D02*
Y3365D01*
X5182Y2667D02*
X5194Y2680D01*
X3683Y2667D02*
X5182D01*
X3683Y3365D02*
X5194D01*
Y2680D02*
Y3365D01*
X3683Y2667D02*
Y3365D01*
X10450Y5856D02*
Y6054D01*
X8688Y4378D02*
X8886D01*
X9041Y5132D02*
X9239D01*
X8373Y5184D02*
X8571D01*
X10799Y10444D02*
G03*
X10483Y10801I-316J38D01*
G01*
X10480Y2597D02*
G03*
X10801Y2921I-3J324D01*
G01*
X2597Y2921D02*
G03*
X2921Y2600I324J3D01*
G01*
X2962Y10799D02*
G03*
X2600Y10478I-39J-321D01*
G01*
X2962Y10799D02*
X2962Y10799D01*
X2598Y2921D02*
X2600Y10478D01*
X2921Y2600D02*
X10480Y2597D01*
X2911Y10800D02*
X10483Y10801D01*
X10800Y10444D02*
X10801Y2921D01*
D14*
X7013Y6877D02*
Y7017D01*
Y6877D02*
X7313D01*
X7013Y7017D02*
X7313D01*
Y6877D02*
Y7017D01*
X7013Y7512D02*
Y7652D01*
Y7512D02*
X7313D01*
X7013Y7652D02*
X7313D01*
Y7512D02*
Y7652D01*
X5988Y6106D02*
X6128D01*
X5988Y5806D02*
Y6106D01*
X6128Y5806D02*
Y6106D01*
X5988Y5806D02*
X6128D01*
X6534Y6094D02*
X6674D01*
X6534Y5794D02*
Y6094D01*
X6674Y5794D02*
Y6094D01*
X6534Y5794D02*
X6674D01*
X6178Y7935D02*
X6318D01*
X6178Y7635D02*
Y7935D01*
X6318Y7635D02*
Y7935D01*
X6178Y7635D02*
X6318D01*
X6585Y7935D02*
X6725D01*
X6585Y7635D02*
Y7935D01*
X6725Y7635D02*
Y7935D01*
X6585Y7635D02*
X6725D01*
X8476Y7950D02*
X8616D01*
X8476Y7650D02*
Y7950D01*
X8616Y7650D02*
Y7950D01*
X8476Y7650D02*
X8616D01*
X8452Y6708D02*
X8592D01*
X8592D02*
Y7008D01*
X8452Y6708D02*
Y7008D01*
X8592D01*
X9860Y6839D02*
Y6979D01*
X9560Y6979D02*
X9860D01*
X9560Y6839D02*
X9860D01*
X9560D02*
Y6979D01*
X9176Y8112D02*
X9316D01*
X9176Y7812D02*
Y8112D01*
X9316Y7812D02*
Y8112D01*
X9176Y7812D02*
X9316D01*
X9016Y6684D02*
X9156D01*
X9016Y6384D02*
Y6684D01*
X9156Y6384D02*
Y6684D01*
X9016Y6384D02*
X9156D01*
X5641Y6648D02*
Y6788D01*
Y6648D02*
X5941D01*
X5641Y6788D02*
X5941D01*
Y6648D02*
Y6788D01*
X5683Y6106D02*
X5823D01*
X5683Y5806D02*
Y6106D01*
X5823Y5806D02*
Y6106D01*
X5683Y5806D02*
X5823D01*
X7013Y7067D02*
Y7207D01*
Y7067D02*
X7313D01*
X7013Y7207D02*
X7313D01*
Y7067D02*
Y7207D01*
X7182Y8430D02*
X7322D01*
X7182Y8130D02*
Y8430D01*
X7322Y8130D02*
Y8430D01*
X7182Y8130D02*
X7322D01*
X9990Y6082D02*
Y6222D01*
Y6082D02*
X10290D01*
X9990Y6222D02*
X10290D01*
Y6082D02*
Y6222D01*
X5641Y7664D02*
Y7804D01*
Y7664D02*
X5941D01*
X5641Y7804D02*
X5941D01*
Y7664D02*
Y7804D01*
X5641Y6471D02*
Y6611D01*
Y6471D02*
X5941D01*
X5641Y6611D02*
X5941D01*
Y6471D02*
Y6611D01*
X8871Y8213D02*
X9011D01*
X8871Y7913D02*
Y8213D01*
X9011Y7913D02*
Y8213D01*
X8871Y7913D02*
X9011D01*
X9772Y4295D02*
X9912D01*
X9912D02*
Y4595D01*
X9772Y4295D02*
Y4595D01*
X9912D01*
X8414Y5710D02*
X8544D01*
Y5410D02*
Y5710D01*
X8414Y5410D02*
X8544D01*
X8414D02*
Y5710D01*
X9384Y6693D02*
X9514D01*
Y6393D02*
Y6693D01*
X9384Y6393D02*
X9514D01*
X9384D02*
Y6693D01*
X9206Y6690D02*
X9336D01*
Y6390D02*
Y6690D01*
X9206Y6390D02*
X9336D01*
X9206D02*
Y6690D01*
X8833Y6684D02*
X8963D01*
Y6384D02*
Y6684D01*
X8833Y6384D02*
X8963D01*
X8833D02*
Y6684D01*
X9865Y7225D02*
Y7355D01*
X9565Y7225D02*
X9865D01*
X9565D02*
Y7355D01*
X9865D01*
X8711Y4849D02*
X8841D01*
X8711D02*
Y5149D01*
X8841D01*
Y4849D02*
Y5149D01*
X4261Y6492D02*
X4401D01*
Y6792D01*
X4261Y6492D02*
Y6792D01*
X4261D02*
X4401D01*
X4426Y6492D02*
X4566D01*
Y6792D01*
X4426Y6492D02*
Y6792D01*
X4426D02*
X4566D01*
X4578Y6398D02*
X4718D01*
X4578Y6098D02*
Y6398D01*
X4718Y6098D02*
Y6398D01*
X4578Y6098D02*
X4718D01*
X10729Y5683D02*
Y5823D01*
X10429D02*
X10729D01*
X10429Y5683D02*
X10729D01*
X10429Y5683D02*
Y5823D01*
X8500Y4524D02*
X8640D01*
X8500Y4224D02*
Y4524D01*
X8640Y4224D02*
Y4524D01*
X8500Y4224D02*
X8640D01*
X8871Y5149D02*
X9011D01*
X8871Y4849D02*
Y5149D01*
X9011Y4849D02*
Y5149D01*
X8871Y4849D02*
X9011D01*
X8185Y5230D02*
X8325D01*
X8185Y4930D02*
Y5230D01*
X8325Y4930D02*
Y5230D01*
X8185Y4930D02*
X8325D01*
X8676Y5587D02*
Y5717D01*
X8976D01*
Y5587D02*
Y5717D01*
X8676Y5587D02*
X8976D01*
D15*
X9772Y6284D02*
X9772Y6069D01*
X9772Y6284D02*
X9793D01*
X9912Y6067D02*
Y6284D01*
X9893Y6067D02*
X9912D01*
X9775Y6147D02*
X9912D01*
X9772Y6137D02*
X9910D01*
X9772Y6067D02*
X9793D01*
X9893Y6284D02*
X9912D01*
Y4917D02*
X9912Y4701D01*
X9893D02*
X9912D01*
X9772D02*
Y4919D01*
X9793D01*
X9772Y4839D02*
X9910D01*
X9775Y4849D02*
X9912D01*
X9893Y4919D02*
X9912D01*
X9772Y4701D02*
X9793D01*
D16*
X10345Y5856D02*
X10353Y5849D01*
X10348Y6054D02*
X10355Y6061D01*
X10683D01*
X10690Y6054D01*
X10353Y5849D02*
X10680D01*
X10688Y5856D01*
X8681Y4148D02*
X8688Y4140D01*
X8681Y4148D02*
Y4475D01*
X8886Y4138D02*
X8893Y4145D01*
Y4473D01*
X8886Y4480D02*
X8893Y4473D01*
X8681Y4475D02*
X8688Y4483D01*
X9034Y4902D02*
X9041Y4894D01*
X9034Y4902D02*
Y5229D01*
X9239Y4892D02*
X9247Y4899D01*
Y5227D01*
X9239Y5234D02*
X9247Y5227D01*
X9034Y5229D02*
X9041Y5237D01*
X8365Y4954D02*
X8373Y4946D01*
X8365Y4954D02*
Y5281D01*
X8571Y4944D02*
X8578Y4951D01*
Y5279D01*
X8570Y5286D02*
X8578Y5279D01*
X8365Y5281D02*
X8373Y5289D01*
D19*
X4847Y6182D02*
X4863Y6165D01*
Y6132D01*
X4847Y6115D01*
X4780D01*
X4763Y6132D01*
Y6165D01*
X4780Y6182D01*
X4863Y6282D02*
X4847Y6248D01*
X4813Y6215D01*
X4780D01*
X4763Y6232D01*
Y6265D01*
X4780Y6282D01*
X4797D01*
X4813Y6265D01*
Y6215D01*
X4863Y6315D02*
Y6381D01*
X4847D01*
X4780Y6315D01*
X4763D01*
X4694Y6576D02*
X4711Y6559D01*
Y6526D01*
X4694Y6509D01*
X4628D01*
X4611Y6526D01*
Y6559D01*
X4628Y6576D01*
X4711Y6675D02*
Y6609D01*
X4661D01*
X4678Y6642D01*
Y6659D01*
X4661Y6675D01*
X4628D01*
X4611Y6659D01*
Y6625D01*
X4628Y6609D01*
X4711Y6775D02*
Y6709D01*
X4661D01*
X4678Y6742D01*
Y6759D01*
X4661Y6775D01*
X4628D01*
X4611Y6759D01*
Y6725D01*
X4628Y6709D01*
X4199Y6576D02*
X4215Y6559D01*
Y6526D01*
X4199Y6509D01*
X4132D01*
X4116Y6526D01*
Y6559D01*
X4132Y6576D01*
X4215Y6675D02*
Y6609D01*
X4166D01*
X4182Y6642D01*
Y6659D01*
X4166Y6675D01*
X4132D01*
X4116Y6659D01*
Y6625D01*
X4132Y6609D01*
X4199Y6709D02*
X4215Y6725D01*
Y6759D01*
X4199Y6775D01*
X4182D01*
X4166Y6759D01*
Y6742D01*
Y6759D01*
X4149Y6775D01*
X4132D01*
X4116Y6759D01*
Y6725D01*
X4132Y6709D01*
X8875Y4700D02*
Y4800D01*
X8825D01*
X8809Y4783D01*
Y4750D01*
X8825Y4733D01*
X8875D01*
X8842D02*
X8809Y4700D01*
X8775D02*
X8742D01*
X8759D01*
Y4800D01*
X8775Y4783D01*
X8626Y4700D02*
X8692D01*
X8626Y4766D01*
Y4783D01*
X8642Y4800D01*
X8675D01*
X8692Y4783D01*
X9849Y7405D02*
Y7505D01*
X9800D01*
X9783Y7488D01*
Y7455D01*
X9800Y7438D01*
X9849D01*
X9816D02*
X9783Y7405D01*
X9750Y7422D02*
X9733Y7405D01*
X9700D01*
X9683Y7422D01*
Y7488D01*
X9700Y7505D01*
X9733D01*
X9750Y7488D01*
Y7472D01*
X9733Y7455D01*
X9683D01*
X8853Y6165D02*
X8953D01*
Y6215D01*
X8936Y6232D01*
X8903D01*
X8886Y6215D01*
Y6165D01*
Y6199D02*
X8853Y6232D01*
Y6315D02*
X8953D01*
X8903Y6265D01*
Y6332D01*
X9221Y6169D02*
X9321D01*
Y6219D01*
X9304Y6235D01*
X9271D01*
X9254Y6219D01*
Y6169D01*
Y6202D02*
X9221Y6235D01*
X9304Y6269D02*
X9321Y6285D01*
Y6319D01*
X9304Y6335D01*
X9288D01*
X9271Y6319D01*
Y6302D01*
Y6319D01*
X9254Y6335D01*
X9238D01*
X9221Y6319D01*
Y6285D01*
X9238Y6269D01*
X9399Y6178D02*
X9499D01*
Y6228D01*
X9482Y6244D01*
X9449D01*
X9432Y6228D01*
Y6178D01*
Y6211D02*
X9399Y6244D01*
Y6344D02*
Y6278D01*
X9465Y6344D01*
X9482D01*
X9499Y6328D01*
Y6294D01*
X9482Y6278D01*
X8368Y5492D02*
X8269D01*
Y5559D01*
Y5658D02*
Y5592D01*
X8335Y5658D01*
X8352D01*
X8368Y5642D01*
Y5609D01*
X8352Y5592D01*
X8880Y5866D02*
Y5767D01*
X8814D01*
X8781D02*
X8747D01*
X8764D01*
Y5866D01*
X8781Y5850D01*
X10057Y4768D02*
X9958D01*
Y4818D01*
X9974Y4835D01*
X10041D01*
X10057Y4818D01*
Y4768D01*
X10041Y4868D02*
X10057Y4885D01*
Y4918D01*
X10041Y4935D01*
X10024D01*
X10008Y4918D01*
Y4901D01*
Y4918D01*
X9991Y4935D01*
X9974D01*
X9958Y4918D01*
Y4885D01*
X9974Y4868D01*
X9926Y6476D02*
Y6376D01*
X9876D01*
X9859Y6393D01*
Y6459D01*
X9876Y6476D01*
X9926D01*
X9759Y6376D02*
X9826D01*
X9759Y6443D01*
Y6459D01*
X9776Y6476D01*
X9809D01*
X9826Y6459D01*
X8263Y4671D02*
X8279Y4654D01*
Y4621D01*
X8263Y4604D01*
X8196D01*
X8180Y4621D01*
Y4654D01*
X8196Y4671D01*
X8180Y4754D02*
X8279D01*
X8230Y4704D01*
Y4770D01*
X8180Y4870D02*
Y4804D01*
X8246Y4870D01*
X8263D01*
X8279Y4854D01*
Y4820D01*
X8263Y4804D01*
X8428Y4675D02*
X8445Y4658D01*
Y4625D01*
X8428Y4608D01*
X8361D01*
X8345Y4625D01*
Y4658D01*
X8361Y4675D01*
X8345Y4758D02*
X8445D01*
X8395Y4708D01*
Y4774D01*
X8345Y4808D02*
Y4841D01*
Y4824D01*
X8445D01*
X8428Y4808D01*
X8995Y5393D02*
X9011Y5409D01*
X9045D01*
X9061Y5393D01*
Y5326D01*
X9045Y5310D01*
X9011D01*
X8995Y5326D01*
X8961Y5393D02*
X8945Y5409D01*
X8911D01*
X8895Y5393D01*
Y5376D01*
X8911Y5359D01*
X8928D01*
X8911D01*
X8895Y5343D01*
Y5326D01*
X8911Y5310D01*
X8945D01*
X8961Y5326D01*
X8795Y5409D02*
X8862D01*
Y5359D01*
X8828Y5376D01*
X8812D01*
X8795Y5359D01*
Y5326D01*
X8812Y5310D01*
X8845D01*
X8862Y5326D01*
X9177Y4594D02*
X9194Y4578D01*
Y4544D01*
X9177Y4528D01*
X9111D01*
X9094Y4544D01*
Y4578D01*
X9111Y4594D01*
X9177Y4628D02*
X9194Y4644D01*
Y4678D01*
X9177Y4694D01*
X9161D01*
X9144Y4678D01*
Y4661D01*
Y4678D01*
X9127Y4694D01*
X9111D01*
X9094Y4678D01*
Y4644D01*
X9111Y4628D01*
X9094Y4777D02*
X9194D01*
X9144Y4727D01*
Y4794D01*
X8428Y4302D02*
X8445Y4286D01*
Y4252D01*
X8428Y4236D01*
X8361D01*
X8345Y4252D01*
Y4286D01*
X8361Y4302D01*
X8428Y4336D02*
X8445Y4352D01*
Y4385D01*
X8428Y4402D01*
X8411D01*
X8395Y4385D01*
Y4369D01*
Y4385D01*
X8378Y4402D01*
X8361D01*
X8345Y4385D01*
Y4352D01*
X8361Y4336D01*
X8428Y4435D02*
X8445Y4452D01*
Y4485D01*
X8428Y4502D01*
X8411D01*
X8395Y4485D01*
Y4469D01*
Y4485D01*
X8378Y4502D01*
X8361D01*
X8345Y4485D01*
Y4452D01*
X8361Y4435D01*
X9038Y4251D02*
X9054Y4235D01*
Y4202D01*
X9038Y4185D01*
X8971D01*
X8954Y4202D01*
Y4235D01*
X8971Y4251D01*
X9038Y4285D02*
X9054Y4301D01*
Y4335D01*
X9038Y4351D01*
X9021D01*
X9004Y4335D01*
Y4318D01*
Y4335D01*
X8988Y4351D01*
X8971D01*
X8954Y4335D01*
Y4301D01*
X8971Y4285D01*
X8954Y4451D02*
Y4385D01*
X9021Y4451D01*
X9038D01*
X9054Y4434D01*
Y4401D01*
X9038Y4385D01*
X10299Y5786D02*
X10315Y5803D01*
X10349D01*
X10365Y5786D01*
Y5720D01*
X10349Y5703D01*
X10315D01*
X10299Y5720D01*
X10266Y5786D02*
X10249Y5803D01*
X10216D01*
X10199Y5786D01*
Y5770D01*
X10216Y5753D01*
X10232D01*
X10216D01*
X10199Y5736D01*
Y5720D01*
X10216Y5703D01*
X10249D01*
X10266Y5720D01*
X10166Y5703D02*
X10132D01*
X10149D01*
Y5803D01*
X10166Y5786D01*
X10201Y5964D02*
X10218Y5981D01*
X10251D01*
X10268Y5964D01*
Y5898D01*
X10251Y5881D01*
X10218D01*
X10201Y5898D01*
X10168Y5964D02*
X10151Y5981D01*
X10118D01*
X10101Y5964D01*
Y5948D01*
X10118Y5931D01*
X10135D01*
X10118D01*
X10101Y5914D01*
Y5898D01*
X10118Y5881D01*
X10151D01*
X10168Y5898D01*
X10068Y5964D02*
X10051Y5981D01*
X10018D01*
X10002Y5964D01*
Y5898D01*
X10018Y5881D01*
X10051D01*
X10068Y5898D01*
Y5964D01*
X10041Y4467D02*
X10057Y4451D01*
Y4417D01*
X10041Y4401D01*
X9974D01*
X9958Y4417D01*
Y4451D01*
X9974Y4467D01*
X9958Y4567D02*
Y4501D01*
X10024Y4567D01*
X10041D01*
X10057Y4551D01*
Y4517D01*
X10041Y4501D01*
X9974Y4600D02*
X9958Y4617D01*
Y4650D01*
X9974Y4667D01*
X10041D01*
X10057Y4650D01*
Y4617D01*
X10041Y4600D01*
X10024D01*
X10008Y4617D01*
Y4667D01*
X8974Y8328D02*
X8991Y8312D01*
Y8278D01*
X8974Y8262D01*
X8908D01*
X8891Y8278D01*
Y8312D01*
X8908Y8328D01*
X8891Y8428D02*
Y8361D01*
X8957Y8428D01*
X8974D01*
X8991Y8411D01*
Y8378D01*
X8974Y8361D01*
Y8461D02*
X8991Y8478D01*
Y8511D01*
X8974Y8528D01*
X8957D01*
X8941Y8511D01*
Y8494D01*
Y8511D01*
X8924Y8528D01*
X8908D01*
X8891Y8511D01*
Y8478D01*
X8908Y8461D01*
X6171Y6574D02*
X6188Y6590D01*
X6221D01*
X6238Y6574D01*
Y6507D01*
X6221Y6491D01*
X6188D01*
X6171Y6507D01*
X6072Y6491D02*
X6138D01*
X6072Y6557D01*
Y6574D01*
X6088Y6590D01*
X6121D01*
X6138Y6574D01*
X6038Y6491D02*
X6005D01*
X6022D01*
Y6590D01*
X6038Y6574D01*
X5858Y7602D02*
X5874Y7619D01*
X5908D01*
X5924Y7602D01*
Y7536D01*
X5908Y7519D01*
X5874D01*
X5858Y7536D01*
X5758Y7519D02*
X5824D01*
X5758Y7586D01*
Y7602D01*
X5775Y7619D01*
X5808D01*
X5824Y7602D01*
X5725D02*
X5708Y7619D01*
X5675D01*
X5658Y7602D01*
Y7536D01*
X5675Y7519D01*
X5708D01*
X5725Y7536D01*
Y7602D01*
X10523Y6205D02*
X10540Y6222D01*
X10573D01*
X10590Y6205D01*
Y6139D01*
X10573Y6122D01*
X10540D01*
X10523Y6139D01*
X10490Y6122D02*
X10456D01*
X10473D01*
Y6222D01*
X10490Y6205D01*
X10407Y6222D02*
X10340D01*
Y6205D01*
X10407Y6139D01*
Y6122D01*
X7463Y8235D02*
X7479Y8218D01*
Y8185D01*
X7463Y8168D01*
X7396D01*
X7380Y8185D01*
Y8218D01*
X7396Y8235D01*
X7380Y8268D02*
Y8301D01*
Y8285D01*
X7479D01*
X7463Y8268D01*
X7479Y8418D02*
Y8351D01*
X7429D01*
X7446Y8385D01*
Y8401D01*
X7429Y8418D01*
X7396D01*
X7380Y8401D01*
Y8368D01*
X7396Y8351D01*
X6892Y7171D02*
X6909Y7187D01*
X6942D01*
X6959Y7171D01*
Y7104D01*
X6942Y7087D01*
X6909D01*
X6892Y7104D01*
X6859Y7087D02*
X6826D01*
X6842D01*
Y7187D01*
X6859Y7171D01*
X6726Y7087D02*
Y7187D01*
X6776Y7137D01*
X6709D01*
X5786Y5568D02*
X5803Y5551D01*
Y5518D01*
X5786Y5501D01*
X5720D01*
X5703Y5518D01*
Y5551D01*
X5720Y5568D01*
X5703Y5601D02*
Y5634D01*
Y5618D01*
X5803D01*
X5786Y5601D01*
Y5684D02*
X5803Y5701D01*
Y5734D01*
X5786Y5751D01*
X5770D01*
X5753Y5734D01*
Y5718D01*
Y5734D01*
X5736Y5751D01*
X5720D01*
X5703Y5734D01*
Y5701D01*
X5720Y5684D01*
X6192Y6752D02*
X6209Y6768D01*
X6242D01*
X6259Y6752D01*
Y6685D01*
X6242Y6668D01*
X6209D01*
X6192Y6685D01*
X6159Y6668D02*
X6126D01*
X6142D01*
Y6768D01*
X6159Y6752D01*
X6009Y6668D02*
X6076D01*
X6009Y6735D01*
Y6752D01*
X6026Y6768D01*
X6059D01*
X6076Y6752D01*
X9114Y6194D02*
X9130Y6177D01*
Y6144D01*
X9114Y6128D01*
X9047D01*
X9031Y6144D01*
Y6177D01*
X9047Y6194D01*
X9031Y6227D02*
Y6261D01*
Y6244D01*
X9130D01*
X9114Y6227D01*
X9031Y6311D02*
Y6344D01*
Y6327D01*
X9130D01*
X9114Y6311D01*
X9279Y8235D02*
X9295Y8218D01*
Y8185D01*
X9279Y8168D01*
X9212D01*
X9196Y8185D01*
Y8218D01*
X9212Y8235D01*
X9196Y8268D02*
Y8301D01*
Y8285D01*
X9295D01*
X9279Y8268D01*
Y8351D02*
X9295Y8368D01*
Y8401D01*
X9279Y8418D01*
X9212D01*
X9196Y8401D01*
Y8368D01*
X9212Y8351D01*
X9279D01*
X9783Y7107D02*
X9800Y7124D01*
X9833D01*
X9849Y7107D01*
Y7041D01*
X9833Y7024D01*
X9800D01*
X9783Y7041D01*
X9750D02*
X9733Y7024D01*
X9700D01*
X9683Y7041D01*
Y7107D01*
X9700Y7124D01*
X9733D01*
X9750Y7107D01*
Y7091D01*
X9733Y7074D01*
X9683D01*
X8390Y6829D02*
X8406Y6812D01*
Y6779D01*
X8390Y6762D01*
X8323D01*
X8307Y6779D01*
Y6812D01*
X8323Y6829D01*
X8390Y6862D02*
X8406Y6879D01*
Y6912D01*
X8390Y6928D01*
X8373D01*
X8357Y6912D01*
X8340Y6928D01*
X8323D01*
X8307Y6912D01*
Y6879D01*
X8323Y6862D01*
X8340D01*
X8357Y6879D01*
X8373Y6862D01*
X8390D01*
X8357Y6879D02*
Y6912D01*
X8538Y8085D02*
X8555Y8102D01*
X8588D01*
X8605Y8085D01*
Y8019D01*
X8588Y8002D01*
X8555D01*
X8538Y8019D01*
X8505Y8102D02*
X8439D01*
Y8085D01*
X8505Y8019D01*
Y8002D01*
X6671Y7577D02*
X6688Y7594D01*
X6721D01*
X6738Y7577D01*
Y7511D01*
X6721Y7494D01*
X6688D01*
X6671Y7511D01*
X6572Y7594D02*
X6605Y7577D01*
X6638Y7544D01*
Y7511D01*
X6622Y7494D01*
X6588D01*
X6572Y7511D01*
Y7527D01*
X6588Y7544D01*
X6638D01*
X6265Y7564D02*
X6282Y7581D01*
X6315D01*
X6332Y7564D01*
Y7498D01*
X6315Y7481D01*
X6282D01*
X6265Y7498D01*
X6165Y7581D02*
X6232D01*
Y7531D01*
X6199Y7548D01*
X6182D01*
X6165Y7531D01*
Y7498D01*
X6182Y7481D01*
X6215D01*
X6232Y7498D01*
X6640Y5636D02*
X6656Y5619D01*
Y5586D01*
X6640Y5570D01*
X6573D01*
X6557Y5586D01*
Y5619D01*
X6573Y5636D01*
X6557Y5719D02*
X6656D01*
X6607Y5669D01*
Y5736D01*
X6104Y5660D02*
X6120Y5644D01*
Y5610D01*
X6104Y5594D01*
X6037D01*
X6021Y5610D01*
Y5644D01*
X6037Y5660D01*
X6104Y5694D02*
X6120Y5710D01*
Y5743D01*
X6104Y5760D01*
X6087D01*
X6071Y5743D01*
Y5727D01*
Y5743D01*
X6054Y5760D01*
X6037D01*
X6021Y5743D01*
Y5710D01*
X6037Y5694D01*
X7181Y7780D02*
X7197Y7797D01*
X7231D01*
X7247Y7780D01*
Y7714D01*
X7231Y7697D01*
X7197D01*
X7181Y7714D01*
X7081Y7697D02*
X7148D01*
X7081Y7764D01*
Y7780D01*
X7098Y7797D01*
X7131D01*
X7148Y7780D01*
X6896Y6993D02*
X6913Y7009D01*
X6946D01*
X6963Y6993D01*
Y6926D01*
X6946Y6910D01*
X6913D01*
X6896Y6926D01*
X6863Y6910D02*
X6830D01*
X6846D01*
Y7009D01*
X6863Y6993D01*
D121*
X9086Y10257D02*
X9192D01*
X9139Y10203D01*
Y10274D01*
X8933Y10190D02*
X8951Y10208D01*
Y10244D01*
X8933Y10262D01*
X8915D01*
X8898Y10244D01*
Y10226D01*
Y10244D01*
X8880Y10262D01*
X8862D01*
X8844Y10244D01*
Y10208D01*
X8862Y10190D01*
X8590Y10249D02*
Y10178D01*
X8661Y10249D01*
X8679D01*
X8697Y10231D01*
Y10196D01*
X8679Y10178D01*
X8324Y10190D02*
Y10226D01*
Y10208D01*
X8430D01*
X8412Y10190D01*
X8430Y10546D02*
Y10617D01*
X8412D01*
X8341Y10546D01*
X8324D01*
X8679Y10533D02*
X8697Y10551D01*
Y10587D01*
X8679Y10604D01*
X8661D01*
X8644Y10587D01*
X8626Y10604D01*
X8608D01*
X8590Y10587D01*
Y10551D01*
X8608Y10533D01*
X8626D01*
X8644Y10551D01*
X8661Y10533D01*
X8679D01*
X8644Y10551D02*
Y10587D01*
X8862Y10533D02*
X8844Y10551D01*
Y10587D01*
X8862Y10604D01*
X8933D01*
X8951Y10587D01*
Y10551D01*
X8933Y10533D01*
X8915D01*
X8898Y10551D01*
Y10604D01*
X9086Y10495D02*
Y10531D01*
Y10513D01*
X9192D01*
X9174Y10495D01*
Y10584D02*
X9192Y10602D01*
Y10637D01*
X9174Y10655D01*
X9103D01*
X9086Y10637D01*
Y10602D01*
X9103Y10584D01*
X9174D01*
X9428Y10325D02*
X9446Y10307D01*
Y10272D01*
X9428Y10254D01*
X9357D01*
X9340Y10272D01*
Y10307D01*
X9357Y10325D01*
X9393D01*
Y10290D01*
X9340Y10361D02*
X9446D01*
X9340Y10432D01*
X9446D01*
Y10467D02*
X9340D01*
Y10521D01*
X9357Y10538D01*
X9428D01*
X9446Y10521D01*
Y10467D01*
X9634Y10140D02*
Y10211D01*
X9670Y10175D02*
X9599D01*
X9670Y10246D02*
X9688Y10264D01*
Y10300D01*
X9670Y10317D01*
X9652D01*
X9634Y10300D01*
Y10282D01*
Y10300D01*
X9616Y10317D01*
X9599D01*
X9581Y10300D01*
Y10264D01*
X9599Y10246D01*
X9581Y10353D02*
X9599D01*
Y10371D01*
X9581D01*
Y10353D01*
X9670Y10442D02*
X9688Y10460D01*
Y10495D01*
X9670Y10513D01*
X9652D01*
X9634Y10495D01*
Y10477D01*
Y10495D01*
X9616Y10513D01*
X9599D01*
X9581Y10495D01*
Y10460D01*
X9599Y10442D01*
X9688Y10548D02*
X9616D01*
X9581Y10584D01*
X9616Y10620D01*
X9688D01*
X6800Y10257D02*
X6906D01*
X6853Y10203D01*
Y10274D01*
X6647Y10190D02*
X6665Y10208D01*
Y10244D01*
X6647Y10262D01*
X6629D01*
X6612Y10244D01*
Y10226D01*
Y10244D01*
X6594Y10262D01*
X6576D01*
X6558Y10244D01*
Y10208D01*
X6576Y10190D01*
X6304Y10249D02*
Y10178D01*
X6375Y10249D01*
X6393D01*
X6411Y10231D01*
Y10196D01*
X6393Y10178D01*
X6038Y10190D02*
Y10226D01*
Y10208D01*
X6144D01*
X6126Y10190D01*
X6144Y10546D02*
Y10617D01*
X6126D01*
X6055Y10546D01*
X6038D01*
X6393Y10533D02*
X6411Y10551D01*
Y10587D01*
X6393Y10604D01*
X6375D01*
X6358Y10587D01*
X6340Y10604D01*
X6322D01*
X6304Y10587D01*
Y10551D01*
X6322Y10533D01*
X6340D01*
X6358Y10551D01*
X6375Y10533D01*
X6393D01*
X6358Y10551D02*
Y10587D01*
X6576Y10533D02*
X6558Y10551D01*
Y10587D01*
X6576Y10604D01*
X6647D01*
X6665Y10587D01*
Y10551D01*
X6647Y10533D01*
X6629D01*
X6612Y10551D01*
Y10604D01*
X6800Y10495D02*
Y10531D01*
Y10513D01*
X6906D01*
X6888Y10495D01*
Y10584D02*
X6906Y10602D01*
Y10637D01*
X6888Y10655D01*
X6817D01*
X6800Y10637D01*
Y10602D01*
X6817Y10584D01*
X6888D01*
X7142Y10325D02*
X7160Y10307D01*
Y10272D01*
X7142Y10254D01*
X7071D01*
X7054Y10272D01*
Y10307D01*
X7071Y10325D01*
X7107D01*
Y10290D01*
X7054Y10361D02*
X7160D01*
X7054Y10432D01*
X7160D01*
Y10467D02*
X7054D01*
Y10521D01*
X7071Y10538D01*
X7142D01*
X7160Y10521D01*
Y10467D01*
X7348Y10140D02*
Y10211D01*
X7384Y10175D02*
X7313D01*
X7384Y10246D02*
X7402Y10264D01*
Y10300D01*
X7384Y10317D01*
X7366D01*
X7348Y10300D01*
Y10282D01*
Y10300D01*
X7330Y10317D01*
X7313D01*
X7295Y10300D01*
Y10264D01*
X7313Y10246D01*
X7295Y10353D02*
X7313D01*
Y10371D01*
X7295D01*
Y10353D01*
X7384Y10442D02*
X7402Y10460D01*
Y10495D01*
X7384Y10513D01*
X7366D01*
X7348Y10495D01*
Y10477D01*
Y10495D01*
X7330Y10513D01*
X7313D01*
X7295Y10495D01*
Y10460D01*
X7313Y10442D01*
X7402Y10548D02*
X7330D01*
X7295Y10584D01*
X7330Y10620D01*
X7402D01*
X5050Y10140D02*
Y10211D01*
X5085Y10175D02*
X5014D01*
X5085Y10246D02*
X5103Y10264D01*
Y10300D01*
X5085Y10317D01*
X5067D01*
X5050Y10300D01*
Y10282D01*
Y10300D01*
X5032Y10317D01*
X5014D01*
X4996Y10300D01*
Y10264D01*
X5014Y10246D01*
X4996Y10353D02*
X5014D01*
Y10371D01*
X4996D01*
Y10353D01*
X5085Y10442D02*
X5103Y10460D01*
Y10495D01*
X5085Y10513D01*
X5067D01*
X5050Y10495D01*
Y10477D01*
Y10495D01*
X5032Y10513D01*
X5014D01*
X4996Y10495D01*
Y10460D01*
X5014Y10442D01*
X5103Y10548D02*
X5032D01*
X4996Y10584D01*
X5032Y10620D01*
X5103D01*
X4844Y10325D02*
X4862Y10307D01*
Y10272D01*
X4844Y10254D01*
X4773D01*
X4755Y10272D01*
Y10307D01*
X4773Y10325D01*
X4808D01*
Y10290D01*
X4755Y10361D02*
X4862D01*
X4755Y10432D01*
X4862D01*
Y10467D02*
X4755D01*
Y10521D01*
X4773Y10538D01*
X4844D01*
X4862Y10521D01*
Y10467D01*
X4501Y10495D02*
Y10531D01*
Y10513D01*
X4608D01*
X4590Y10495D01*
Y10584D02*
X4608Y10602D01*
Y10637D01*
X4590Y10655D01*
X4519D01*
X4501Y10637D01*
Y10602D01*
X4519Y10584D01*
X4590D01*
X4277Y10533D02*
X4260Y10551D01*
Y10587D01*
X4277Y10604D01*
X4348D01*
X4366Y10587D01*
Y10551D01*
X4348Y10533D01*
X4331D01*
X4313Y10551D01*
Y10604D01*
X4094Y10533D02*
X4112Y10551D01*
Y10587D01*
X4094Y10604D01*
X4077D01*
X4059Y10587D01*
X4041Y10604D01*
X4023D01*
X4006Y10587D01*
Y10551D01*
X4023Y10533D01*
X4041D01*
X4059Y10551D01*
X4077Y10533D01*
X4094D01*
X4059Y10551D02*
Y10587D01*
X3846Y10546D02*
Y10617D01*
X3828D01*
X3757Y10546D01*
X3739D01*
Y10190D02*
Y10226D01*
Y10208D01*
X3846D01*
X3828Y10190D01*
X4006Y10249D02*
Y10178D01*
X4077Y10249D01*
X4094D01*
X4112Y10231D01*
Y10196D01*
X4094Y10178D01*
X4348Y10190D02*
X4366Y10208D01*
Y10244D01*
X4348Y10262D01*
X4331D01*
X4313Y10244D01*
Y10226D01*
Y10244D01*
X4295Y10262D01*
X4277D01*
X4260Y10244D01*
Y10208D01*
X4277Y10190D01*
X4501Y10257D02*
X4608D01*
X4554Y10203D01*
Y10274D01*
X8402Y2774D02*
Y2845D01*
X8438Y2809D02*
X8367D01*
X8438Y2880D02*
X8456Y2898D01*
Y2934D01*
X8438Y2951D01*
X8420D01*
X8402Y2934D01*
Y2916D01*
Y2934D01*
X8385Y2951D01*
X8367D01*
X8349Y2934D01*
Y2898D01*
X8367Y2880D01*
X8349Y2987D02*
X8367D01*
Y3005D01*
X8349D01*
Y2987D01*
X8438Y3076D02*
X8456Y3094D01*
Y3129D01*
X8438Y3147D01*
X8420D01*
X8402Y3129D01*
Y3111D01*
Y3129D01*
X8385Y3147D01*
X8367D01*
X8349Y3129D01*
Y3094D01*
X8367Y3076D01*
X8456Y3182D02*
X8385D01*
X8349Y3218D01*
X8385Y3254D01*
X8456D01*
X8692Y2959D02*
X8710Y2941D01*
Y2906D01*
X8692Y2888D01*
X8621D01*
X8603Y2906D01*
Y2941D01*
X8621Y2959D01*
X8656D01*
Y2924D01*
X8603Y2995D02*
X8710D01*
X8603Y3066D01*
X8710D01*
Y3101D02*
X8603D01*
Y3155D01*
X8621Y3172D01*
X8692D01*
X8710Y3155D01*
Y3101D01*
X8844Y2786D02*
Y2822D01*
Y2804D01*
X8951D01*
X8933Y2786D01*
Y2875D02*
X8951Y2893D01*
Y2929D01*
X8933Y2946D01*
X8862D01*
X8844Y2929D01*
Y2893D01*
X8862Y2875D01*
X8933D01*
X9103Y2824D02*
X9086Y2842D01*
Y2878D01*
X9103Y2896D01*
X9174D01*
X9192Y2878D01*
Y2842D01*
X9174Y2824D01*
X9157D01*
X9139Y2842D01*
Y2896D01*
X9441Y2824D02*
X9459Y2842D01*
Y2878D01*
X9441Y2896D01*
X9423D01*
X9406Y2878D01*
X9388Y2896D01*
X9370D01*
X9352Y2878D01*
Y2842D01*
X9370Y2824D01*
X9388D01*
X9406Y2842D01*
X9423Y2824D01*
X9441D01*
X9406Y2842D02*
Y2878D01*
X9713Y2824D02*
Y2896D01*
X9695D01*
X9624Y2824D01*
X9606D01*
Y3180D02*
Y3216D01*
Y3198D01*
X9713D01*
X9695Y3180D01*
X9352Y3226D02*
Y3155D01*
X9423Y3226D01*
X9441D01*
X9459Y3208D01*
Y3172D01*
X9441Y3155D01*
X9187D02*
X9205Y3172D01*
Y3208D01*
X9187Y3226D01*
X9169D01*
X9152Y3208D01*
Y3190D01*
Y3208D01*
X9134Y3226D01*
X9116D01*
X9098Y3208D01*
Y3172D01*
X9116Y3155D01*
X8844Y3208D02*
X8951D01*
X8898Y3155D01*
Y3226D01*
X6104Y2761D02*
Y2832D01*
X6139Y2797D02*
X6068D01*
X6139Y2868D02*
X6157Y2885D01*
Y2921D01*
X6139Y2939D01*
X6121D01*
X6104Y2921D01*
Y2903D01*
Y2921D01*
X6086Y2939D01*
X6068D01*
X6050Y2921D01*
Y2885D01*
X6068Y2868D01*
X6050Y2974D02*
X6068D01*
Y2992D01*
X6050D01*
Y2974D01*
X6139Y3063D02*
X6157Y3081D01*
Y3116D01*
X6139Y3134D01*
X6121D01*
X6104Y3116D01*
Y3099D01*
Y3116D01*
X6086Y3134D01*
X6068D01*
X6050Y3116D01*
Y3081D01*
X6068Y3063D01*
X6157Y3170D02*
X6086D01*
X6050Y3205D01*
X6086Y3241D01*
X6157D01*
X6393Y2946D02*
X6411Y2929D01*
Y2893D01*
X6393Y2875D01*
X6322D01*
X6304Y2893D01*
Y2929D01*
X6322Y2946D01*
X6358D01*
Y2911D01*
X6304Y2982D02*
X6411D01*
X6304Y3053D01*
X6411D01*
Y3089D02*
X6304D01*
Y3142D01*
X6322Y3160D01*
X6393D01*
X6411Y3142D01*
Y3089D01*
X6546Y2774D02*
Y2809D01*
Y2791D01*
X6652D01*
X6634Y2774D01*
Y2863D02*
X6652Y2880D01*
Y2916D01*
X6634Y2934D01*
X6563D01*
X6546Y2916D01*
Y2880D01*
X6563Y2863D01*
X6634D01*
X6805Y2812D02*
X6787Y2830D01*
Y2865D01*
X6805Y2883D01*
X6876D01*
X6894Y2865D01*
Y2830D01*
X6876Y2812D01*
X6858D01*
X6840Y2830D01*
Y2883D01*
X7142Y2812D02*
X7160Y2830D01*
Y2865D01*
X7142Y2883D01*
X7125D01*
X7107Y2865D01*
X7089Y2883D01*
X7071D01*
X7054Y2865D01*
Y2830D01*
X7071Y2812D01*
X7089D01*
X7107Y2830D01*
X7125Y2812D01*
X7142D01*
X7107Y2830D02*
Y2865D01*
X7414Y2812D02*
Y2883D01*
X7396D01*
X7325Y2812D01*
X7308D01*
Y3167D02*
Y3203D01*
Y3185D01*
X7414D01*
X7396Y3167D01*
X7054Y3213D02*
Y3142D01*
X7125Y3213D01*
X7142D01*
X7160Y3195D01*
Y3160D01*
X7142Y3142D01*
X6888D02*
X6906Y3160D01*
Y3195D01*
X6888Y3213D01*
X6871D01*
X6853Y3195D01*
Y3178D01*
Y3195D01*
X6835Y3213D01*
X6817D01*
X6800Y3195D01*
Y3160D01*
X6817Y3142D01*
X6546Y3195D02*
X6652D01*
X6599Y3142D01*
Y3213D01*
X4260Y3195D02*
X4366D01*
X4313Y3142D01*
Y3213D01*
X4602Y3142D02*
X4620Y3160D01*
Y3195D01*
X4602Y3213D01*
X4585D01*
X4567Y3195D01*
Y3178D01*
Y3195D01*
X4549Y3213D01*
X4531D01*
X4514Y3195D01*
Y3160D01*
X4531Y3142D01*
X4768Y3213D02*
Y3142D01*
X4839Y3213D01*
X4856D01*
X4874Y3195D01*
Y3160D01*
X4856Y3142D01*
X5022Y3167D02*
Y3203D01*
Y3185D01*
X5128D01*
X5110Y3167D01*
X5128Y2812D02*
Y2883D01*
X5110D01*
X5039Y2812D01*
X5022D01*
X4856D02*
X4874Y2830D01*
Y2865D01*
X4856Y2883D01*
X4839D01*
X4821Y2865D01*
X4803Y2883D01*
X4785D01*
X4768Y2865D01*
Y2830D01*
X4785Y2812D01*
X4803D01*
X4821Y2830D01*
X4839Y2812D01*
X4856D01*
X4821Y2830D02*
Y2865D01*
X4519Y2812D02*
X4501Y2830D01*
Y2865D01*
X4519Y2883D01*
X4590D01*
X4608Y2865D01*
Y2830D01*
X4590Y2812D01*
X4572D01*
X4554Y2830D01*
Y2883D01*
X4260Y2774D02*
Y2809D01*
Y2791D01*
X4366D01*
X4348Y2774D01*
Y2863D02*
X4366Y2880D01*
Y2916D01*
X4348Y2934D01*
X4277D01*
X4260Y2916D01*
Y2880D01*
X4277Y2863D01*
X4348D01*
X4107Y2946D02*
X4125Y2929D01*
Y2893D01*
X4107Y2875D01*
X4036D01*
X4018Y2893D01*
Y2929D01*
X4036Y2946D01*
X4072D01*
Y2911D01*
X4018Y2982D02*
X4125D01*
X4018Y3053D01*
X4125D01*
Y3089D02*
X4018D01*
Y3142D01*
X4036Y3160D01*
X4107D01*
X4125Y3142D01*
Y3089D01*
X3818Y2761D02*
Y2832D01*
X3853Y2797D02*
X3782D01*
X3853Y2868D02*
X3871Y2885D01*
Y2921D01*
X3853Y2939D01*
X3835D01*
X3818Y2921D01*
Y2903D01*
Y2921D01*
X3800Y2939D01*
X3782D01*
X3764Y2921D01*
Y2885D01*
X3782Y2868D01*
X3764Y2974D02*
X3782D01*
Y2992D01*
X3764D01*
Y2974D01*
X3853Y3063D02*
X3871Y3081D01*
Y3116D01*
X3853Y3134D01*
X3835D01*
X3818Y3116D01*
Y3099D01*
Y3116D01*
X3800Y3134D01*
X3782D01*
X3764Y3116D01*
Y3081D01*
X3782Y3063D01*
X3871Y3170D02*
X3800D01*
X3764Y3205D01*
X3800Y3241D01*
X3871D01*
M02*
