G04*
G04 #@! TF.GenerationSoftware,Altium Limited,Altium Designer,20.2.5 (213)*
G04*
G04 Layer_Physical_Order=1*
G04 Layer_Color=255*
%FSLAX42Y42*%
%MOMM*%
G71*
G04*
G04 #@! TF.SameCoordinates,314019C8-8427-4676-9664-B8FEBD72C539*
G04*
G04*
G04 #@! TF.FilePolarity,Positive*
G04*
G01*
G75*
%ADD13C,0.25*%
%ADD20R,0.80X0.80*%
%ADD21R,1.00X1.27*%
%ADD22O,1.00X1.27*%
%ADD23R,0.80X0.80*%
%ADD24R,0.60X0.60*%
G04:AMPARAMS|DCode=25|XSize=0.6mm|YSize=0.6mm|CornerRadius=0.15mm|HoleSize=0mm|Usage=FLASHONLY|Rotation=270.000|XOffset=0mm|YOffset=0mm|HoleType=Round|Shape=RoundedRectangle|*
%AMROUNDEDRECTD25*
21,1,0.60,0.30,0,0,270.0*
21,1,0.30,0.60,0,0,270.0*
1,1,0.30,-0.15,-0.15*
1,1,0.30,-0.15,0.15*
1,1,0.30,0.15,0.15*
1,1,0.30,0.15,-0.15*
%
%ADD25ROUNDEDRECTD25*%
%ADD26R,0.30X1.48*%
%ADD27R,1.48X0.30*%
%ADD28R,0.20X0.85*%
%ADD29R,0.85X0.20*%
%ADD30R,4.85X4.05*%
%ADD31R,1.40X0.60*%
%ADD32R,1.53X0.65*%
%ADD33R,0.98X2.18*%
%ADD34R,1.35X0.40*%
%ADD35R,1.10X0.45*%
%ADD36R,4.90X1.60*%
%ADD37R,2.35X0.70*%
%ADD38R,1.10X1.40*%
%ADD39R,0.85X0.60*%
%ADD40R,0.60X0.85*%
%ADD41R,1.80X1.20*%
G04:AMPARAMS|DCode=42|XSize=1.7mm|YSize=1.5mm|CornerRadius=0.38mm|HoleSize=0mm|Usage=FLASHONLY|Rotation=90.000|XOffset=0mm|YOffset=0mm|HoleType=Round|Shape=RoundedRectangle|*
%AMROUNDEDRECTD42*
21,1,1.70,0.75,0,0,90.0*
21,1,0.95,1.50,0,0,90.0*
1,1,0.75,0.38,0.48*
1,1,0.75,0.38,-0.48*
1,1,0.75,-0.38,-0.48*
1,1,0.75,-0.38,0.48*
%
%ADD42ROUNDEDRECTD42*%
%ADD43R,1.50X1.70*%
%ADD44R,1.25X0.90*%
%ADD45R,1.30X3.00*%
%ADD46C,1.00*%
%ADD47R,0.44X1.52*%
%ADD48P,4.60X4X90.0*%
G04:AMPARAMS|DCode=49|XSize=0.81mm|YSize=0.3mm|CornerRadius=0mm|HoleSize=0mm|Usage=FLASHONLY|Rotation=135.000|XOffset=0mm|YOffset=0mm|HoleType=Round|Shape=Rectangle|*
%AMROTATEDRECTD49*
4,1,4,0.40,-0.18,0.18,-0.40,-0.40,0.18,-0.18,0.40,0.40,-0.18,0.0*
%
%ADD49ROTATEDRECTD49*%

G04:AMPARAMS|DCode=50|XSize=0.81mm|YSize=0.3mm|CornerRadius=0mm|HoleSize=0mm|Usage=FLASHONLY|Rotation=45.000|XOffset=0mm|YOffset=0mm|HoleType=Round|Shape=Rectangle|*
%AMROTATEDRECTD50*
4,1,4,-0.18,-0.40,-0.40,-0.18,0.18,0.40,0.40,0.18,-0.18,-0.40,0.0*
%
%ADD50ROTATEDRECTD50*%

%ADD51R,0.90X0.55*%
%ADD52R,0.60X1.40*%
%ADD53R,0.60X1.80*%
%ADD54R,1.40X0.45*%
%ADD99C,0.20*%
%ADD100C,0.30*%
%ADD101C,0.64*%
%ADD102C,0.51*%
%ADD103C,0.38*%
%ADD104C,0.50*%
%ADD105C,1.88*%
%ADD106C,2.42*%
%ADD107C,2.85*%
%ADD108C,1.50*%
%ADD109R,1.50X1.50*%
%ADD110R,1.50X1.50*%
%ADD111C,3.20*%
%ADD112C,0.71*%
G36*
X3501Y4324D02*
X3436Y4389D01*
Y4579D01*
X3501Y4644D01*
X3561D01*
X3626Y4579D01*
Y4389D01*
X3561Y4324D01*
X3501D01*
D02*
G37*
D13*
X5099Y7435D02*
G03*
X5099Y7400I18J-18D01*
G01*
X5108Y7355D02*
G03*
X5108Y7391I-18J18D01*
G01*
X5072Y7355D02*
G03*
X5108Y7355I18J18D01*
G01*
X5022Y7404D02*
G03*
X4986Y7404I-18J-18D01*
G01*
X4986Y7404D02*
G03*
X4986Y7368I18J-18D01*
G01*
X5036Y7283D02*
G03*
X5036Y7319I-18J18D01*
G01*
X5000Y7283D02*
G03*
X5036Y7283I18J18D01*
G01*
X4950Y7332D02*
G03*
X4914Y7332I-18J-18D01*
G01*
D02*
G03*
X4914Y7296I18J-18D01*
G01*
X4964Y7211D02*
G03*
X4964Y7247I-18J18D01*
G01*
X4928Y7211D02*
G03*
X4964Y7211I18J18D01*
G01*
X4878Y7261D02*
G03*
X4842Y7261I-18J-18D01*
G01*
X4842Y7261D02*
G03*
X4842Y7225I18J-18D01*
G01*
X4847Y7184D02*
G03*
X4847Y7220I-18J18D01*
G01*
X4981Y7557D02*
G03*
X5017Y7557I18J18D01*
G01*
X4981D02*
G03*
X4945Y7557I-18J-18D01*
G01*
X4945Y7557D02*
G03*
X4945Y7521I18J-18D01*
G01*
X4981Y7449D02*
G03*
X4981Y7485I-18J18D01*
G01*
X4945Y7449D02*
G03*
X4981Y7449I18J18D01*
G01*
X4909Y7485D02*
G03*
X4873Y7485I-18J-18D01*
G01*
X4873Y7485D02*
G03*
X4873Y7449I18J-18D01*
G01*
X4909Y7377D02*
G03*
X4909Y7413I-18J18D01*
G01*
X4873Y7377D02*
G03*
X4909Y7377I18J18D01*
G01*
X4837Y7413D02*
G03*
X4802Y7413I-18J-18D01*
G01*
D02*
G03*
X4802Y7377I18J-18D01*
G01*
X4837Y7306D02*
G03*
X4837Y7342I-18J18D01*
G01*
X4802Y7306D02*
G03*
X4837Y7306I18J18D01*
G01*
X4766Y7342D02*
G03*
X4730Y7342I-18J-18D01*
G01*
X4730Y7342D02*
G03*
X4730Y7306I18J-18D01*
G01*
X4730Y7270D02*
G03*
X4730Y7306I-18J18D01*
G01*
X4832Y7576D02*
G03*
X4832Y7540I18J-18D01*
G01*
X4832Y7504D02*
G03*
X4832Y7540I-18J18D01*
G01*
X4797Y7504D02*
G03*
X4832Y7504I18J18D01*
G01*
X4761Y7540D02*
G03*
X4725Y7540I-18J-18D01*
G01*
X4725Y7540D02*
G03*
X4725Y7504I18J-18D01*
G01*
X4761Y7432D02*
G03*
X4761Y7468I-18J18D01*
G01*
X4725Y7432D02*
G03*
X4761Y7432I18J18D01*
G01*
X4689Y7468D02*
G03*
X4653Y7468I-18J-18D01*
G01*
D02*
G03*
X4653Y7432I18J-18D01*
G01*
X4689Y7360D02*
G03*
X4689Y7396I-18J18D01*
G01*
X4653Y7360D02*
G03*
X4689Y7360I18J18D01*
G01*
X4617Y7396D02*
G03*
X4581Y7396I-18J-18D01*
G01*
X4581Y7396D02*
G03*
X4581Y7360I18J-18D01*
G01*
X4581Y7324D02*
G03*
X4581Y7360I-18J18D01*
G01*
X4882Y7826D02*
G03*
X4918Y7826I18J18D01*
G01*
X4882D02*
G03*
X4846Y7826I-18J-18D01*
G01*
X4846Y7826D02*
G03*
X4846Y7790I18J-18D01*
G01*
X4882Y7718D02*
G03*
X4882Y7754I-18J18D01*
G01*
X4846Y7718D02*
G03*
X4882Y7718I18J18D01*
G01*
X4810Y7754D02*
G03*
X4774Y7754I-18J-18D01*
G01*
D02*
G03*
X4774Y7718I18J-18D01*
G01*
X4810Y7646D02*
G03*
X4810Y7682I-18J18D01*
G01*
X4774Y7646D02*
G03*
X4810Y7646I18J18D01*
G01*
X4738Y7682D02*
G03*
X4702Y7682I-18J-18D01*
G01*
X4702Y7682D02*
G03*
X4702Y7646I18J-18D01*
G01*
X4702Y7610D02*
G03*
X4702Y7646I-18J18D01*
G01*
X4553Y7671D02*
G03*
X4589Y7671I18J18D01*
G01*
X4553Y7671D02*
G03*
X4517Y7671I-18J-18D01*
G01*
X4517Y7671D02*
G03*
X4517Y7635I18J-18D01*
G01*
X4539Y7577D02*
G03*
X4539Y7613I-18J18D01*
G01*
X4503Y7577D02*
G03*
X4539Y7577I18J18D01*
G01*
X4481Y7599D02*
G03*
X4446Y7599I-18J-18D01*
G01*
D02*
G03*
X4446Y7563I18J-18D01*
G01*
X4481Y7491D02*
G03*
X4481Y7527I-18J18D01*
G01*
X4446Y7491D02*
G03*
X4481Y7491I18J18D01*
G01*
X4410Y7527D02*
G03*
X4374Y7527I-18J-18D01*
G01*
X4374Y7527D02*
G03*
X4374Y7491I18J-18D01*
G01*
X4374Y7455D02*
G03*
X4374Y7491I-18J18D01*
G01*
X7897Y4531D02*
X8153Y4275D01*
Y3785D02*
Y4275D01*
X8076Y3707D02*
X8153Y3785D01*
X8059Y3707D02*
X8076D01*
X7897Y4531D02*
Y4686D01*
X7722D02*
X7897D01*
X8052Y3683D02*
Y3700D01*
X7968Y4818D02*
Y4920D01*
X8052Y5004D02*
X8128D01*
X7968Y4920D02*
X8052Y5004D01*
X7988Y4998D02*
Y5095D01*
X7897Y4907D02*
X7988Y4998D01*
X7897Y4686D02*
Y4907D01*
X8128Y5004D02*
X8152Y5028D01*
X7943Y5024D02*
Y5133D01*
X7808Y4890D02*
X7943Y5024D01*
X7988Y5095D02*
X8021Y5128D01*
X7988Y5179D02*
X8338D01*
X7943Y5133D02*
X7988Y5179D01*
X8338D02*
X8339Y5178D01*
X7874Y5024D02*
X7902Y5052D01*
Y5309D02*
X7940Y5347D01*
X7902Y5052D02*
Y5309D01*
X7764Y4890D02*
X7808D01*
X7944Y5347D02*
Y5476D01*
X7772Y5024D02*
X7874D01*
X7944Y5347D02*
X8100D01*
X8219Y5228D01*
X8339D01*
X7214Y5279D02*
Y5705D01*
X8021Y5128D02*
X8339D01*
X7764Y5017D02*
X7772Y5024D01*
X6248Y7912D02*
Y8014D01*
X7534Y4874D02*
Y4963D01*
Y4874D02*
X7722Y4686D01*
X7564Y3866D02*
Y3904D01*
X6975Y4493D02*
Y5715D01*
Y4493D02*
X7564Y3904D01*
X7508Y3787D02*
Y3884D01*
X6924Y4468D02*
Y5723D01*
Y4468D02*
X7508Y3884D01*
X6833Y4369D02*
Y5740D01*
X7304Y3872D02*
X7366Y3810D01*
X7304Y3872D02*
Y3898D01*
X6833Y4369D02*
X7304Y3898D01*
X7239Y3683D02*
Y3861D01*
X6778Y4321D02*
Y5731D01*
Y4321D02*
X7239Y3861D01*
X6706Y4280D02*
Y5740D01*
X7089Y3833D02*
X7112Y3810D01*
X7089Y3833D02*
Y3896D01*
X6706Y4280D02*
X7089Y3896D01*
X6985Y3708D02*
Y3899D01*
X6655Y4229D02*
Y5740D01*
Y4229D02*
X6985Y3899D01*
X6248Y4483D02*
Y5817D01*
X6835Y3833D02*
X6858Y3810D01*
X6835Y3833D02*
Y3896D01*
X6248Y4483D02*
X6835Y3896D01*
X6731Y3683D02*
Y3899D01*
X6202Y4428D02*
Y6038D01*
Y4428D02*
X6731Y3899D01*
X6152Y4389D02*
X6604Y3937D01*
Y3810D02*
Y3937D01*
X6152Y4389D02*
Y6038D01*
X6477Y3683D02*
Y3975D01*
X6102Y4350D02*
Y5390D01*
Y4350D02*
X6477Y3975D01*
X9512Y4801D02*
X9555Y4843D01*
X4648Y4966D02*
X5602Y5919D01*
X4699Y4953D02*
X5652Y5906D01*
X4750Y4242D02*
Y4940D01*
X4699Y4381D02*
Y4953D01*
X5602Y5919D02*
Y6038D01*
X4750Y4940D02*
X5702Y5892D01*
Y6038D01*
X5652Y5906D02*
Y6038D01*
X4953Y4851D02*
X5902Y5800D01*
X4813Y4191D02*
Y4839D01*
X5220Y3696D02*
Y4953D01*
X5952Y5774D02*
Y6038D01*
X5802Y5827D02*
Y6038D01*
X4890Y4851D02*
X5852Y5814D01*
X5220Y4953D02*
X6002Y5735D01*
X5080Y4902D02*
X5952Y5774D01*
X4953Y3670D02*
Y4851D01*
X6002Y5735D02*
Y6038D01*
X5902Y5800D02*
Y6038D01*
X4813Y4839D02*
X5802Y5827D01*
X4890Y4140D02*
Y4851D01*
X5080Y3810D02*
Y4902D01*
X5852Y5814D02*
Y6038D01*
X4648Y4420D02*
Y4966D01*
X7478Y7735D02*
X7549D01*
X7477Y7734D02*
X7478Y7735D01*
X7404Y7734D02*
X7477D01*
X7549Y7735D02*
X7551Y7737D01*
X8712Y5690D02*
Y5804D01*
X8598Y5575D02*
X8712Y5690D01*
X8616Y5847D02*
X8796Y6027D01*
X8942D01*
X8616Y5720D02*
Y5847D01*
X8488Y5596D02*
X8609Y5717D01*
X8611Y5715D02*
X8616Y5720D01*
X8942Y6027D02*
X8947Y6032D01*
X9751Y7755D02*
X9856Y7860D01*
X9446Y7755D02*
X9751D01*
X9324Y4801D02*
X9512D01*
X7592Y8025D02*
X7695Y8128D01*
X7853D01*
X7551Y7987D02*
X7590D01*
X7592Y7989D01*
Y8025D01*
X7853Y8128D02*
X7861Y8137D01*
X5575Y7734D02*
Y7798D01*
X5639Y7861D02*
X6198D01*
X5575Y7798D02*
X5639Y7861D01*
X6198D02*
X6248Y7912D01*
X5588Y6540D02*
X5677Y6629D01*
X5585Y6537D02*
X5588Y6540D01*
X5677Y6629D02*
Y6807D01*
X5575Y6909D02*
X5677Y6807D01*
X5575Y6909D02*
Y7734D01*
X8591Y4678D02*
X8844D01*
X8339D02*
X8591D01*
X8488Y5152D02*
X8591Y5048D01*
Y4678D02*
Y5048D01*
X8488Y5152D02*
Y5377D01*
Y5596D01*
X8586Y5563D02*
X8598Y5575D01*
X8586Y5517D02*
Y5563D01*
X8420Y5944D02*
X8497D01*
X8407Y5956D02*
X8420Y5944D01*
X7175Y6210D02*
X7202Y6184D01*
Y6038D02*
Y6184D01*
X7564Y3866D02*
X7620Y3810D01*
X7239Y3683D02*
X7366Y3556D01*
X6706Y5804D02*
Y5918D01*
Y5804D02*
X6778Y5731D01*
X6552Y5894D02*
Y6038D01*
Y5894D02*
X6706Y5740D01*
Y5918D02*
X6750Y5962D01*
Y6036D02*
X6752Y6038D01*
X6750Y5962D02*
Y6036D01*
X6756Y5817D02*
X6833Y5740D01*
X6756Y5817D02*
Y5893D01*
X6802Y5938D01*
Y6038D01*
X7112Y3556D02*
Y3581D01*
X6985Y3708D02*
X7112Y3581D01*
X6502Y5893D02*
X6655Y5740D01*
X6502Y5893D02*
Y6038D01*
X6477Y3683D02*
X6604Y3556D01*
X6731Y3683D02*
X6858Y3556D01*
X9187Y4828D02*
X9189Y4826D01*
X9299D01*
X9324Y4801D01*
X8951Y4696D02*
X9055Y4801D01*
X8938Y4683D02*
X8951Y4696D01*
X8948Y4699D02*
X8951Y4696D01*
X8865Y4699D02*
X8948D01*
X8844Y4678D02*
X8865Y4699D01*
X8052Y3700D02*
X8059Y3707D01*
X6924Y5723D02*
X7102Y5901D01*
X6975Y5715D02*
X7152Y5892D01*
X7122Y4890D02*
X7222D01*
X7021Y4991D02*
Y5690D01*
Y4991D02*
X7122Y4890D01*
X7021Y5690D02*
X7202Y5871D01*
X7353Y5144D02*
X7534Y4963D01*
X7764Y4762D02*
Y4890D01*
X7222Y5144D02*
X7353D01*
X7925Y3810D02*
X8052Y3937D01*
X7620Y3810D02*
X7925D01*
X7508Y3787D02*
X7612Y3683D01*
X7737D01*
X7102Y5901D02*
Y6038D01*
X7152Y5892D02*
Y6038D01*
X7202Y5871D02*
Y6038D01*
X7214Y5279D02*
X7222Y5271D01*
X7221Y5801D02*
X7252Y5832D01*
Y6038D01*
X7214Y5705D02*
X7302Y5793D01*
Y6038D01*
X8152Y5028D02*
X8339D01*
X8677Y5210D02*
X8688Y5221D01*
Y5377D01*
X8586Y5517D02*
X8618D01*
X8553D02*
X8586D01*
X8588Y5377D02*
Y5514D01*
X8586Y5517D02*
X8588Y5514D01*
X8638Y5377D02*
Y5497D01*
X8618Y5517D02*
X8638Y5497D01*
X8538Y5377D02*
Y5502D01*
X8553Y5517D01*
X9977Y4694D02*
X10096D01*
X9886Y4785D02*
X9977Y4694D01*
X9886Y4785D02*
Y4864D01*
X9921Y4803D02*
X9965Y4760D01*
X9921Y4803D02*
Y4885D01*
X9228Y5578D02*
X9921Y4885D01*
X9965Y4760D02*
X10096D01*
X9215Y5535D02*
X9886Y4864D01*
X9017Y5578D02*
X9228D01*
X8938Y5657D02*
X9017Y5578D01*
X8802Y5657D02*
X8938D01*
X8738Y5593D02*
X8802Y5657D01*
X8821Y5611D02*
X8916D01*
X8788Y5577D02*
X8821Y5611D01*
X8916D02*
X8993Y5535D01*
X8738Y5377D02*
Y5593D01*
X8788Y5377D02*
Y5577D01*
X8993Y5535D02*
X9215D01*
X8799Y5210D02*
X8838Y5249D01*
Y5377D01*
X8938Y4529D02*
Y4683D01*
X9339Y7647D02*
X9446Y7755D01*
X9277Y7647D02*
X9339D01*
X5403Y7737D02*
X5405Y7736D01*
X5574D01*
X5575Y7734D01*
X4890Y7633D02*
X4944Y7687D01*
X5403D01*
X5232Y6045D02*
Y6261D01*
X5309Y6337D01*
X5403D01*
X5403Y6337D01*
X4868Y6333D02*
X5114D01*
X5271Y6490D02*
X5397D01*
X5114Y6333D02*
X5271Y6490D01*
X5400Y6487D02*
X5403D01*
X5397Y6490D02*
X5400Y6487D01*
X5131Y7468D02*
X5137Y7474D01*
X5099Y7435D02*
X5131Y7468D01*
X5099Y7400D02*
X5099Y7400D01*
X5108Y7391D01*
X5108Y7391D02*
X5108Y7391D01*
X5072Y7355D02*
X5072Y7355D01*
X5022Y7404D02*
X5072Y7355D01*
X5022Y7404D02*
X5022Y7404D01*
X4986D02*
X4986Y7404D01*
X4986Y7368D02*
X4986Y7368D01*
X5036Y7319D01*
X5036Y7319D02*
X5036Y7319D01*
Y7283D02*
X5036Y7283D01*
X5000Y7283D02*
X5000Y7283D01*
X4950Y7332D02*
X5000Y7283D01*
X4950Y7332D02*
X4950Y7332D01*
X4914Y7296D02*
X4914Y7296D01*
X4964Y7247D01*
X4964Y7247D02*
X4964Y7247D01*
Y7211D02*
X4964Y7211D01*
X4928Y7211D02*
X4928Y7211D01*
X4878Y7261D02*
X4928Y7211D01*
X4878Y7261D02*
X4878Y7261D01*
X4842D02*
X4842Y7261D01*
X4842Y7225D02*
X4842Y7225D01*
X4847Y7220D01*
X4838Y7175D02*
X4847Y7184D01*
X5137Y7474D02*
X5150Y7487D01*
X5276D01*
X4420Y7162D02*
X4737D01*
X4825D01*
X4362D02*
X4420D01*
X4825D02*
X4838Y7175D01*
X4392Y7261D02*
X4721D01*
X4312Y7180D02*
X4392Y7261D01*
X5276Y7487D02*
X5403D01*
X5017Y7557D02*
X5047Y7587D01*
X4945Y7557D02*
X4945Y7557D01*
X4945Y7521D02*
X4945Y7521D01*
X4981Y7485D01*
X4981Y7485D02*
X4981Y7485D01*
X4945Y7449D02*
X4945Y7449D01*
X4909Y7485D02*
X4945Y7449D01*
X4909Y7485D02*
X4909Y7485D01*
X4873D02*
X4873Y7485D01*
X4873Y7449D02*
X4873Y7449D01*
X4909Y7413D01*
X4909Y7413D02*
X4909Y7413D01*
Y7377D02*
X4909Y7377D01*
X4873Y7377D02*
X4873Y7377D01*
X4837Y7413D02*
X4873Y7377D01*
X4837Y7413D02*
X4837Y7413D01*
X4802Y7377D02*
X4802Y7377D01*
X4837Y7342D01*
X4837Y7342D02*
X4837Y7342D01*
Y7306D02*
X4837Y7306D01*
X4802Y7306D02*
X4802Y7306D01*
X4766Y7342D02*
X4802Y7306D01*
X4766Y7342D02*
X4766Y7342D01*
X4730D02*
X4730Y7342D01*
X4730Y7306D02*
X4730Y7306D01*
X4721Y7261D02*
X4730Y7270D01*
X5047Y7587D02*
X5403D01*
X4832Y7576D02*
X4890Y7633D01*
X4832Y7540D02*
X4832Y7540D01*
X4832Y7540D01*
X4832Y7540D02*
X4832Y7540D01*
X4797Y7504D02*
X4797Y7504D01*
X4761Y7540D02*
X4797Y7504D01*
X4761Y7540D02*
X4761Y7540D01*
X4725D02*
X4725Y7540D01*
X4725Y7504D02*
X4725Y7504D01*
X4761Y7468D01*
X4761Y7468D02*
X4761Y7468D01*
Y7432D02*
X4761Y7432D01*
X4725Y7432D02*
X4725Y7432D01*
X4689Y7468D02*
X4725Y7432D01*
X4689Y7468D02*
X4689Y7468D01*
X4653Y7432D02*
X4653Y7432D01*
X4689Y7396D01*
X4689Y7396D02*
X4689Y7396D01*
Y7360D02*
X4689Y7360D01*
X4653Y7360D02*
X4653Y7360D01*
X4617Y7396D02*
X4653Y7360D01*
X4617Y7396D02*
X4617Y7396D01*
X4581D02*
X4581Y7396D01*
X4581Y7360D02*
X4581Y7360D01*
X4572Y7315D02*
X4581Y7324D01*
X4379Y7315D02*
X4572D01*
X4358Y7366D02*
X4420D01*
X4655Y7601D02*
X4693D01*
X4420Y7366D02*
X4655Y7601D01*
X4929Y7837D02*
X4977D01*
X4918Y7826D02*
X4929Y7837D01*
X4846Y7826D02*
X4846Y7826D01*
X4846Y7790D02*
X4846Y7790D01*
X4882Y7754D01*
X4882Y7754D02*
X4882Y7754D01*
Y7718D02*
X4882Y7718D01*
X4846Y7718D02*
X4846Y7718D01*
X4810Y7754D02*
X4846Y7718D01*
X4810Y7754D02*
X4810Y7754D01*
X4774Y7718D02*
X4774Y7718D01*
X4810Y7682D01*
X4810Y7682D02*
X4810Y7682D01*
Y7646D02*
X4810Y7646D01*
X4774Y7646D02*
X4774Y7646D01*
X4738Y7682D02*
X4774Y7646D01*
X4738Y7682D02*
X4738Y7682D01*
X4702D02*
X4702Y7682D01*
X4702Y7646D02*
X4702Y7646D01*
X4693Y7601D02*
X4702Y7610D01*
X4977Y7837D02*
X5403D01*
X4589Y7671D02*
X4631Y7713D01*
X4553Y7671D02*
X4553Y7671D01*
X4553Y7671D02*
X4553Y7671D01*
X4553D02*
X4553Y7671D01*
X4517D02*
X4517Y7671D01*
X4517Y7635D02*
X4517Y7635D01*
X4539Y7613D01*
X4539Y7577D02*
X4539Y7577D01*
X4481Y7599D02*
X4503Y7577D01*
X4481Y7599D02*
X4481Y7599D01*
X4446Y7563D02*
X4446Y7563D01*
X4481Y7527D01*
X4481Y7527D02*
X4481Y7527D01*
Y7491D02*
X4481Y7491D01*
X4446Y7491D02*
X4446Y7491D01*
X4410Y7527D02*
X4446Y7491D01*
X4410Y7527D02*
X4410Y7527D01*
X4374D02*
X4374Y7527D01*
X4374Y7491D02*
X4374Y7491D01*
X4374Y7491D01*
X4365Y7446D02*
X4374Y7455D01*
X4631Y7713D02*
X4670Y7751D01*
X4855Y7937D01*
X5067D01*
X4205Y7286D02*
X4365Y7446D01*
X4238Y7250D02*
X4242D01*
X4358Y7366D01*
X5067Y7937D02*
X5129D01*
X5403D01*
X4331Y7658D02*
X4445D01*
X4774Y7987D02*
X5403D01*
X4445Y7658D02*
X4774Y7987D01*
X4178Y7506D02*
X4331Y7658D01*
X4238Y6948D02*
X4316Y6871D01*
X4318D01*
X4254Y7410D02*
Y7455D01*
X3772Y6845D02*
X3797Y6820D01*
X3772Y6928D02*
X3829Y6984D01*
X3772Y6845D02*
Y6928D01*
X3721Y7394D02*
X3865Y7250D01*
X3721Y7394D02*
Y7417D01*
X3755Y7144D02*
X3759D01*
X3711Y7188D02*
X3755Y7144D01*
X3683Y7188D02*
X3711D01*
X3518Y7620D02*
X3531Y7607D01*
X3594D01*
X3619Y7582D01*
X3708D01*
X3797Y7493D01*
Y7389D02*
X3900Y7286D01*
X3797Y7389D02*
Y7493D01*
X3543Y7427D02*
X3546Y7429D01*
X3613D01*
X3829Y7214D01*
X3515Y7785D02*
X3528Y7772D01*
X3581D01*
X3619Y7734D01*
Y7658D02*
Y7734D01*
Y7658D02*
X3645Y7633D01*
X3747D01*
X3848Y7410D02*
Y7531D01*
X3747Y7633D02*
X3848Y7531D01*
Y7410D02*
X3936Y7322D01*
X3329Y7427D02*
X3543D01*
X3326Y7430D02*
X3329Y7427D01*
X3327Y7252D02*
X3543D01*
X3723D02*
X3794Y7180D01*
X3543Y7252D02*
X3723D01*
X4166Y7322D02*
X4254Y7410D01*
X4132Y7356D02*
Y7358D01*
X4178Y7404D02*
Y7506D01*
X4132Y7358D02*
X4178Y7404D01*
X4308Y7180D02*
X4312D01*
X4344Y7144D02*
X4362Y7162D01*
X4202Y7286D02*
X4205D01*
X4278Y7214D02*
X4379Y7315D01*
X5403Y7137D02*
X5403Y7137D01*
X4274Y7214D02*
X4278D01*
X9704Y9335D02*
X9704Y9334D01*
X9309Y9335D02*
X9704D01*
X9055Y9081D02*
X9309Y9335D01*
X7963Y9030D02*
X9157D01*
X9296Y9169D02*
X9704D01*
X9157Y9030D02*
X9296Y9169D01*
X9704D02*
X9704Y9169D01*
X9679Y9004D02*
X9691Y8992D01*
X9220Y9004D02*
X9679D01*
X7988Y8979D02*
X9195D01*
X9220Y9004D01*
X7302Y8293D02*
X7988Y8979D01*
X7302Y8186D02*
Y8293D01*
X9691Y8992D02*
X9704Y9004D01*
X7204Y8271D02*
X7963Y9030D01*
X7204Y8188D02*
Y8271D01*
X8839Y9144D02*
X9144Y9449D01*
X7102Y8296D02*
X7950Y9144D01*
X7052Y8309D02*
X7950Y9207D01*
X7002Y8323D02*
X7938Y9258D01*
X6952Y8336D02*
X7925Y9309D01*
X8750Y9258D02*
X8890Y9398D01*
X7950Y9081D02*
X9055D01*
X8814Y9207D02*
X9017Y9411D01*
X7938Y9258D02*
X8750D01*
X7950Y9207D02*
X8814D01*
X7950Y9144D02*
X8839D01*
X8611Y9309D02*
X8763Y9461D01*
X7154Y8285D02*
X7950Y9081D01*
X7925Y9309D02*
X8611D01*
X7202Y8186D02*
X7204Y8188D01*
X6852Y8363D02*
X7899Y9411D01*
X8509Y9360D02*
X8623Y9474D01*
X7912Y9360D02*
X8509D01*
X7899Y9411D02*
X8458D01*
X6902Y8350D02*
X7912Y9360D01*
X8458Y9411D02*
X8509Y9461D01*
X7152Y8186D02*
X7154Y8188D01*
Y8285D01*
X6731Y8446D02*
Y9157D01*
X6985Y9411D01*
X6604Y8319D02*
X6731Y8446D01*
X6552Y8330D02*
X6680Y8458D01*
Y9220D02*
X6858Y9398D01*
X6680Y8458D02*
Y9220D01*
X7102Y8186D02*
Y8296D01*
X6902Y8186D02*
Y8350D01*
X7052Y8186D02*
Y8309D01*
X6802Y8186D02*
Y8377D01*
X8204Y9843D02*
X8382D01*
X6802Y8377D02*
X8001Y9576D01*
X6752Y8390D02*
X8204Y9843D01*
X6952Y8186D02*
Y8336D01*
X7002Y8186D02*
Y8323D01*
X8001Y9576D02*
X8369D01*
X6852Y8186D02*
Y8363D01*
X9144Y9449D02*
Y9589D01*
X9017Y9411D02*
Y9728D01*
X9131Y9843D02*
X9144D01*
X9017Y9728D02*
X9131Y9843D01*
X8890Y9398D02*
Y9589D01*
Y9817D02*
Y9843D01*
X8763Y9690D02*
X8890Y9817D01*
X8763Y9461D02*
Y9690D01*
X8623Y9576D02*
X8636Y9589D01*
X8623Y9474D02*
Y9576D01*
X8509Y9461D02*
Y9715D01*
X8636Y9843D01*
X8369Y9576D02*
X8382Y9589D01*
X6752Y8186D02*
Y8390D01*
X6604Y8188D02*
Y8319D01*
X6552Y8186D02*
Y8330D01*
X6602Y8186D02*
X6604Y8188D01*
X6352Y5920D02*
Y6038D01*
X6248Y5817D02*
X6352Y5920D01*
X6102Y5390D02*
Y6038D01*
X6102Y5390D02*
X6102Y5390D01*
X6363Y5729D02*
X6364Y5728D01*
X6363Y5729D02*
Y5817D01*
X6402Y5856D02*
Y6038D01*
X6363Y5817D02*
X6402Y5856D01*
X6452Y6038D02*
X6452Y6038D01*
X6452Y5880D02*
Y6038D01*
X6539Y5728D02*
Y5793D01*
X6452Y5880D02*
X6539Y5793D01*
Y5550D02*
X6539Y5550D01*
X6539Y5550D02*
Y5728D01*
X6858Y9843D02*
X6985Y9715D01*
Y9411D02*
Y9715D01*
X6858Y9398D02*
Y9589D01*
X6248Y8395D02*
X6352Y8291D01*
X6248Y9055D02*
X6604Y9411D01*
X6248Y8395D02*
Y9055D01*
X6198Y8382D02*
X6300Y8280D01*
X6198Y9144D02*
X6477Y9423D01*
X6198Y8382D02*
Y9144D01*
X6604Y9843D02*
X6617D01*
X6731Y9728D01*
X6299Y9017D02*
X6731Y9449D01*
Y9728D01*
X6299Y8420D02*
Y9017D01*
X6604Y9411D02*
Y9589D01*
X6402Y8186D02*
Y8317D01*
X6299Y8420D02*
X6402Y8317D01*
X6352Y8186D02*
Y8291D01*
X6300Y8188D02*
Y8280D01*
X6350Y9843D02*
X6477Y9715D01*
Y9423D02*
Y9715D01*
X6300Y8188D02*
X6302Y8186D01*
X6350Y9411D02*
Y9589D01*
X6152Y9213D02*
X6350Y9411D01*
X6152Y8186D02*
Y9213D01*
X6096Y9830D02*
Y9843D01*
Y9830D02*
X6223Y9703D01*
Y9360D02*
Y9703D01*
X6102Y8186D02*
Y9239D01*
X6223Y9360D01*
X6096Y9449D02*
Y9589D01*
X6052Y9405D02*
X6096Y9449D01*
X6052Y8186D02*
Y9405D01*
X6564Y8509D02*
Y8699D01*
X6565Y8700D01*
X6564Y8509D02*
X6566Y8508D01*
Y8407D02*
Y8508D01*
X6502Y8186D02*
Y8343D01*
X6566Y8407D01*
X6388Y8508D02*
X6389Y8509D01*
X6388Y8420D02*
Y8508D01*
X6452Y8186D02*
Y8356D01*
X6388Y8420D02*
X6452Y8356D01*
X4877Y8572D02*
X5613D01*
X4788Y8661D02*
X4877Y8572D01*
X5613D02*
X5852Y8334D01*
X5639Y8623D02*
X5902Y8360D01*
X4839Y8687D02*
X4902Y8623D01*
X5639D01*
X5664Y8674D02*
X5952Y8386D01*
X4890Y8738D02*
X4953Y8674D01*
X5664D01*
X4991Y8725D02*
X5715D01*
X4940Y8776D02*
X4991Y8725D01*
X5715D02*
X6002Y8438D01*
X4635Y8598D02*
X4813Y8420D01*
X5563D02*
X5652Y8331D01*
X4813Y8420D02*
X5563D01*
X4585Y8572D02*
X4788Y8369D01*
X5537D02*
X5602Y8304D01*
X4788Y8369D02*
X5537D01*
X4585Y8572D02*
Y8954D01*
X4635Y8598D02*
Y8992D01*
X4826Y8471D02*
X5575D01*
X4686Y8611D02*
Y9004D01*
Y8611D02*
X4826Y8471D01*
X4737Y8623D02*
Y9030D01*
X4839Y8522D02*
X5588D01*
X4737Y8623D02*
X4839Y8522D01*
X4788Y8661D02*
Y9042D01*
X6002Y8186D02*
Y8438D01*
X5902Y8186D02*
Y8360D01*
X5852Y8186D02*
Y8334D01*
X5702Y8186D02*
Y8344D01*
X5575Y8471D02*
X5702Y8344D01*
X5588Y8522D02*
X5752Y8358D01*
Y8186D02*
Y8358D01*
X5952Y8186D02*
Y8386D01*
X4699Y9347D02*
X4940Y9106D01*
Y8776D02*
Y9106D01*
X4699Y9347D02*
Y9715D01*
X4572Y9843D02*
X4699Y9715D01*
X4572Y9398D02*
Y9589D01*
Y9398D02*
X4890Y9081D01*
Y8738D02*
Y9081D01*
X4445Y9449D02*
X4839Y9055D01*
Y8687D02*
Y9055D01*
X4445Y9449D02*
Y9690D01*
X4318Y9817D02*
Y9843D01*
Y9817D02*
X4445Y9690D01*
X4318Y9589D02*
X4331Y9576D01*
Y9436D02*
Y9576D01*
X4394Y9373D02*
X4458D01*
X4331Y9436D02*
X4394Y9373D01*
X4458D02*
X4788Y9042D01*
X3937Y9347D02*
Y9715D01*
X4102Y9182D02*
X4445D01*
X3937Y9347D02*
X4102Y9182D01*
X4191Y9233D02*
X4458D01*
X4064Y9360D02*
Y9589D01*
Y9360D02*
X4191Y9233D01*
Y9398D02*
Y9728D01*
X4305Y9284D02*
X4483D01*
X4191Y9398D02*
X4305Y9284D01*
X4458Y9233D02*
X4686Y9004D01*
X4445Y9182D02*
X4635Y8992D01*
X4483Y9284D02*
X4737Y9030D01*
X4064Y9843D02*
X4077D01*
X4191Y9728D01*
X3810Y9843D02*
X3937Y9715D01*
X3810Y9385D02*
Y9589D01*
X4056Y9139D02*
X4399D01*
X3810Y9385D02*
X4056Y9139D01*
X4399D02*
X4585Y8954D01*
X5652Y8186D02*
Y8331D01*
X5602Y8186D02*
Y8304D01*
X4445Y4128D02*
X4699Y4381D01*
X4572Y4064D02*
X4750Y4242D01*
X4686Y4064D02*
X4813Y4191D01*
X4826Y4077D02*
X4890Y4140D01*
X5080Y3556D02*
X5220Y3696D01*
X4826Y3556D02*
X4839D01*
X4953Y3670D01*
X4826Y3810D02*
Y4077D01*
X4686Y3683D02*
Y4064D01*
X4585Y3556D02*
X4688Y3660D01*
Y3681D01*
X4686Y3683D02*
X4688Y3681D01*
X4572Y3556D02*
X4585D01*
X4572Y3810D02*
Y4064D01*
X4318Y3556D02*
X4445Y3683D01*
Y4128D01*
X4318Y4089D02*
X4648Y4420D01*
X4318Y3861D02*
Y4089D01*
X10799Y10444D02*
G03*
X10483Y10801I-316J38D01*
G01*
X10480Y2597D02*
G03*
X10801Y2921I-3J324D01*
G01*
X2597Y2921D02*
G03*
X2921Y2600I324J3D01*
G01*
X2962Y10799D02*
G03*
X2600Y10478I-39J-321D01*
G01*
X2962Y10799D02*
X2962Y10799D01*
X2598Y2921D02*
X2600Y10478D01*
X2921Y2600D02*
X10480Y2597D01*
X2911Y10800D02*
X10483Y10801D01*
X10800Y10444D02*
X10801Y2921D01*
D20*
X7536Y4696D02*
D03*
X7361D02*
D03*
X7547Y4282D02*
D03*
X7372D02*
D03*
X6364Y5728D02*
D03*
X6539D02*
D03*
X6389Y8509D02*
D03*
X6564D02*
D03*
X9629Y7315D02*
D03*
X9804D02*
D03*
X9629Y7493D02*
D03*
X9804D02*
D03*
X5639Y4013D02*
D03*
X5464D02*
D03*
X5639Y9360D02*
D03*
X5464D02*
D03*
X9569Y5621D02*
D03*
X9394D02*
D03*
X4380Y8304D02*
D03*
X4205D02*
D03*
X4205Y8940D02*
D03*
X4380D02*
D03*
X10501Y9906D02*
D03*
X10326D02*
D03*
X9692Y8700D02*
D03*
X9867D02*
D03*
X9692Y8534D02*
D03*
X9867D02*
D03*
X6364Y5550D02*
D03*
X6539D02*
D03*
X6390Y8700D02*
D03*
X6565D02*
D03*
X8129Y6388D02*
D03*
X8304D02*
D03*
X9704Y9004D02*
D03*
X9879D02*
D03*
X3976Y4318D02*
D03*
X4151D02*
D03*
X3976Y4496D02*
D03*
X4151D02*
D03*
X3656Y5029D02*
D03*
X3481D02*
D03*
X4381Y7925D02*
D03*
X4206D02*
D03*
X3224Y5347D02*
D03*
X3049D02*
D03*
X4381Y7747D02*
D03*
X4206D02*
D03*
X9879Y9169D02*
D03*
X9704D02*
D03*
X9879Y9334D02*
D03*
X9704D02*
D03*
X9755Y5620D02*
D03*
X9930D02*
D03*
X8950Y5847D02*
D03*
X9125D02*
D03*
X8947Y6032D02*
D03*
X9122D02*
D03*
X7220Y5481D02*
D03*
X7395D02*
D03*
X7944Y5476D02*
D03*
X7769D02*
D03*
X3533Y6655D02*
D03*
X3708D02*
D03*
X3224Y5880D02*
D03*
X3049D02*
D03*
X3224Y5525D02*
D03*
X3049D02*
D03*
X3515Y7785D02*
D03*
X3340D02*
D03*
X3875Y4851D02*
D03*
X4050D02*
D03*
X3875Y5029D02*
D03*
X4050D02*
D03*
X4508Y5906D02*
D03*
X4683D02*
D03*
X4511Y5550D02*
D03*
X4686D02*
D03*
X2910Y9220D02*
D03*
X3085D02*
D03*
X3224Y6058D02*
D03*
X3049D02*
D03*
X3049Y5702D02*
D03*
X3224D02*
D03*
X3977Y4140D02*
D03*
X4152D02*
D03*
X4205Y8103D02*
D03*
X4380D02*
D03*
X4151Y4674D02*
D03*
X3976D02*
D03*
X4511Y5728D02*
D03*
X4686D02*
D03*
X3708Y6312D02*
D03*
X3533D02*
D03*
X3708Y6109D02*
D03*
X3533D02*
D03*
X3152Y7252D02*
D03*
X3327D02*
D03*
X3151Y7430D02*
D03*
X3326D02*
D03*
X3518Y7620D02*
D03*
X3343D02*
D03*
D21*
X7330Y4491D02*
D03*
D22*
X7534D02*
D03*
D23*
X8826Y6350D02*
D03*
Y6525D02*
D03*
X9716Y6326D02*
D03*
Y6501D02*
D03*
X7798Y5691D02*
D03*
Y5866D02*
D03*
X9589Y4167D02*
D03*
Y4342D02*
D03*
X9408Y4167D02*
D03*
Y4342D02*
D03*
X5842Y4230D02*
D03*
Y4405D02*
D03*
Y8942D02*
D03*
Y9117D02*
D03*
X7798Y6123D02*
D03*
Y6298D02*
D03*
X4534Y5183D02*
D03*
Y5358D02*
D03*
X9901Y5828D02*
D03*
Y6003D02*
D03*
X3162Y6440D02*
D03*
Y6615D02*
D03*
X2985Y6440D02*
D03*
Y6615D02*
D03*
X3543Y7427D02*
D03*
Y7252D02*
D03*
X3734Y7737D02*
D03*
Y7912D02*
D03*
X3531Y9003D02*
D03*
Y8828D02*
D03*
X3366Y9384D02*
D03*
Y9209D02*
D03*
X3531Y9663D02*
D03*
Y9488D02*
D03*
X3912Y7734D02*
D03*
Y7909D02*
D03*
X3696Y8828D02*
D03*
Y9003D02*
D03*
D24*
X7861Y8137D02*
D03*
X3531Y8661D02*
D03*
D25*
X7861Y8382D02*
D03*
X3531Y8416D02*
D03*
D26*
X5602Y8186D02*
D03*
X5652D02*
D03*
X5702D02*
D03*
X5752D02*
D03*
X5802D02*
D03*
X5852D02*
D03*
X5902D02*
D03*
X5952D02*
D03*
X6002D02*
D03*
X6052D02*
D03*
X6102D02*
D03*
X6152D02*
D03*
X6202D02*
D03*
X6252D02*
D03*
X6302D02*
D03*
X6352D02*
D03*
X6402D02*
D03*
X6452D02*
D03*
X6502D02*
D03*
X6552D02*
D03*
X6602D02*
D03*
X6652D02*
D03*
X6702D02*
D03*
X6752D02*
D03*
X6802D02*
D03*
X6852D02*
D03*
X6902D02*
D03*
X6952D02*
D03*
X7002D02*
D03*
X7052D02*
D03*
X7102D02*
D03*
X7152D02*
D03*
X7202D02*
D03*
X7252D02*
D03*
X7302D02*
D03*
X7352D02*
D03*
Y6038D02*
D03*
X7302D02*
D03*
X7252D02*
D03*
X7202D02*
D03*
X7152D02*
D03*
X7102D02*
D03*
X7052D02*
D03*
X7002D02*
D03*
X6952D02*
D03*
X6902D02*
D03*
X6852D02*
D03*
X6802D02*
D03*
X6752D02*
D03*
X6702D02*
D03*
X6652D02*
D03*
X6602D02*
D03*
X6552D02*
D03*
X6502D02*
D03*
X6452D02*
D03*
X6402D02*
D03*
X6352D02*
D03*
X6302D02*
D03*
X6252D02*
D03*
X6202D02*
D03*
X6152D02*
D03*
X6102D02*
D03*
X6052D02*
D03*
X6002D02*
D03*
X5952D02*
D03*
X5902D02*
D03*
X5852D02*
D03*
X5802D02*
D03*
X5752D02*
D03*
X5702D02*
D03*
X5652D02*
D03*
X5602D02*
D03*
X9038Y5377D02*
D03*
X8988D02*
D03*
X8938D02*
D03*
X8888D02*
D03*
X8838D02*
D03*
X8788D02*
D03*
X8738D02*
D03*
X8688D02*
D03*
X8638D02*
D03*
X8588D02*
D03*
X8538D02*
D03*
X8488D02*
D03*
Y4529D02*
D03*
X8538D02*
D03*
X8588D02*
D03*
X8638D02*
D03*
X8688D02*
D03*
X8738D02*
D03*
X8788D02*
D03*
X8838D02*
D03*
X8888D02*
D03*
X8938D02*
D03*
X8988D02*
D03*
X9038D02*
D03*
D27*
X7551Y7987D02*
D03*
Y7937D02*
D03*
Y7887D02*
D03*
Y7837D02*
D03*
Y7787D02*
D03*
Y7737D02*
D03*
Y7687D02*
D03*
Y7637D02*
D03*
Y7587D02*
D03*
Y7537D02*
D03*
Y7487D02*
D03*
Y7437D02*
D03*
Y7387D02*
D03*
Y7337D02*
D03*
Y7287D02*
D03*
Y7237D02*
D03*
Y7187D02*
D03*
Y7137D02*
D03*
Y7087D02*
D03*
Y7037D02*
D03*
Y6987D02*
D03*
Y6937D02*
D03*
Y6887D02*
D03*
Y6837D02*
D03*
Y6787D02*
D03*
Y6737D02*
D03*
Y6687D02*
D03*
Y6637D02*
D03*
Y6587D02*
D03*
Y6537D02*
D03*
Y6487D02*
D03*
Y6437D02*
D03*
Y6387D02*
D03*
Y6337D02*
D03*
Y6287D02*
D03*
Y6237D02*
D03*
X5403D02*
D03*
Y6287D02*
D03*
Y6337D02*
D03*
Y6387D02*
D03*
Y6437D02*
D03*
Y6487D02*
D03*
Y6537D02*
D03*
Y6587D02*
D03*
Y6637D02*
D03*
Y6687D02*
D03*
Y6737D02*
D03*
Y6787D02*
D03*
Y6837D02*
D03*
Y6887D02*
D03*
Y6937D02*
D03*
Y6987D02*
D03*
Y7037D02*
D03*
Y7087D02*
D03*
Y7137D02*
D03*
Y7187D02*
D03*
Y7237D02*
D03*
Y7287D02*
D03*
Y7337D02*
D03*
Y7387D02*
D03*
Y7437D02*
D03*
Y7487D02*
D03*
Y7537D02*
D03*
Y7587D02*
D03*
Y7637D02*
D03*
Y7687D02*
D03*
Y7737D02*
D03*
Y7787D02*
D03*
Y7837D02*
D03*
Y7887D02*
D03*
Y7937D02*
D03*
Y7987D02*
D03*
X8339Y5228D02*
D03*
Y5178D02*
D03*
Y5128D02*
D03*
Y5078D02*
D03*
Y5028D02*
D03*
Y4978D02*
D03*
Y4928D02*
D03*
Y4878D02*
D03*
Y4828D02*
D03*
Y4778D02*
D03*
Y4728D02*
D03*
Y4678D02*
D03*
X9187D02*
D03*
Y4728D02*
D03*
Y4778D02*
D03*
Y4828D02*
D03*
Y4878D02*
D03*
Y4928D02*
D03*
Y4978D02*
D03*
Y5028D02*
D03*
Y5078D02*
D03*
Y5128D02*
D03*
Y5178D02*
D03*
Y5228D02*
D03*
D28*
X8757Y6957D02*
D03*
X8797D02*
D03*
X8837D02*
D03*
X8877D02*
D03*
X8917D02*
D03*
X8957D02*
D03*
X8997D02*
D03*
X9037D02*
D03*
X9077D02*
D03*
X9117D02*
D03*
X9157D02*
D03*
X9197D02*
D03*
X9237D02*
D03*
X9277D02*
D03*
Y7647D02*
D03*
X9237D02*
D03*
X9197D02*
D03*
X9157D02*
D03*
X9117D02*
D03*
X9077D02*
D03*
X9037D02*
D03*
X8997D02*
D03*
X8957D02*
D03*
X8917D02*
D03*
X8877D02*
D03*
X8837D02*
D03*
X8797D02*
D03*
X8757D02*
D03*
D29*
X9362Y7043D02*
D03*
Y7082D02*
D03*
Y7122D02*
D03*
Y7162D02*
D03*
Y7203D02*
D03*
Y7243D02*
D03*
Y7282D02*
D03*
Y7322D02*
D03*
Y7362D02*
D03*
Y7403D02*
D03*
Y7443D02*
D03*
Y7482D02*
D03*
Y7522D02*
D03*
Y7562D02*
D03*
X8672D02*
D03*
Y7522D02*
D03*
Y7482D02*
D03*
Y7443D02*
D03*
Y7403D02*
D03*
Y7362D02*
D03*
Y7322D02*
D03*
Y7282D02*
D03*
Y7243D02*
D03*
Y7203D02*
D03*
Y7162D02*
D03*
Y7122D02*
D03*
Y7082D02*
D03*
Y7043D02*
D03*
D30*
X9017Y7303D02*
D03*
D31*
X9650Y5810D02*
D03*
Y5906D02*
D03*
Y6001D02*
D03*
X9400D02*
D03*
Y5906D02*
D03*
Y5810D02*
D03*
D32*
X7222Y5271D02*
D03*
Y5144D02*
D03*
Y5017D02*
D03*
Y4890D02*
D03*
X7764D02*
D03*
Y5017D02*
D03*
Y5144D02*
D03*
Y5271D02*
D03*
D33*
X10532Y7493D02*
D03*
D34*
X10235Y7581D02*
D03*
Y7516D02*
D03*
Y7451D02*
D03*
Y7386D02*
D03*
Y7321D02*
D03*
Y6911D02*
D03*
Y6846D02*
D03*
Y6781D02*
D03*
Y6716D02*
D03*
Y6651D02*
D03*
D35*
X10096Y4629D02*
D03*
Y4694D02*
D03*
Y4760D02*
D03*
Y4824D02*
D03*
Y4890D02*
D03*
D36*
X2901Y4160D02*
D03*
Y5010D02*
D03*
D37*
X2743Y4585D02*
D03*
D38*
X10431Y9421D02*
D03*
X10271D02*
D03*
X10431Y9121D02*
D03*
X10271D02*
D03*
D39*
X5404Y4318D02*
D03*
X5644Y4407D02*
D03*
Y4229D02*
D03*
X3397Y3683D02*
D03*
X3157Y3588D02*
D03*
Y3778D02*
D03*
D40*
X5550Y8922D02*
D03*
X5461Y9162D02*
D03*
X5639D02*
D03*
X4203Y8509D02*
D03*
X4381D02*
D03*
X4292Y8749D02*
D03*
D41*
X9071Y6533D02*
D03*
X9471D02*
D03*
Y6294D02*
D03*
X9071D02*
D03*
D42*
X8031Y5867D02*
D03*
Y6121D02*
D03*
X8251D02*
D03*
D43*
Y5867D02*
D03*
D44*
X2959Y6833D02*
D03*
Y7013D02*
D03*
X3188Y6833D02*
D03*
Y7013D02*
D03*
D45*
X3217Y8484D02*
D03*
X2896D02*
D03*
D46*
X4547Y5017D02*
D03*
X4216Y6045D02*
D03*
X3759Y8496D02*
D03*
X5207Y9258D02*
D03*
X4737Y8179D02*
D03*
D47*
X3636Y5847D02*
D03*
X3700D02*
D03*
X3764D02*
D03*
X3828D02*
D03*
X3892D02*
D03*
X3956D02*
D03*
X4020D02*
D03*
X4084D02*
D03*
X4148D02*
D03*
X4212D02*
D03*
Y5304D02*
D03*
X4148D02*
D03*
X4084D02*
D03*
X4020D02*
D03*
X3956D02*
D03*
X3892D02*
D03*
X3828D02*
D03*
X3764D02*
D03*
X3700D02*
D03*
X3636D02*
D03*
D48*
X4051Y7099D02*
D03*
D49*
X3759Y7144D02*
D03*
X3794Y7180D02*
D03*
X3829Y7214D02*
D03*
X3865Y7250D02*
D03*
X3900Y7286D02*
D03*
X3936Y7322D02*
D03*
X3970Y7356D02*
D03*
X4006Y7392D02*
D03*
X4344Y7054D02*
D03*
X4308Y7018D02*
D03*
X4274Y6984D02*
D03*
X4238Y6948D02*
D03*
X4202Y6913D02*
D03*
X4166Y6877D02*
D03*
X4132Y6842D02*
D03*
X4096Y6807D02*
D03*
D50*
Y7392D02*
D03*
X4132Y7356D02*
D03*
X4166Y7322D02*
D03*
X4202Y7286D02*
D03*
X4238Y7250D02*
D03*
X4274Y7214D02*
D03*
X4308Y7180D02*
D03*
X4344Y7144D02*
D03*
X4006Y6807D02*
D03*
X3970Y6842D02*
D03*
X3936Y6877D02*
D03*
X3900Y6913D02*
D03*
X3865Y6948D02*
D03*
X3829Y6984D02*
D03*
X3794Y7018D02*
D03*
X3759Y7054D02*
D03*
D51*
X2908Y8814D02*
D03*
X3177D02*
D03*
Y8908D02*
D03*
X2908Y9002D02*
D03*
X3177D02*
D03*
D52*
X3681Y4214D02*
D03*
X3381D02*
D03*
D53*
X3531Y4234D02*
D03*
D54*
X4428Y6138D02*
D03*
Y6203D02*
D03*
Y6268D02*
D03*
Y6333D02*
D03*
X4868D02*
D03*
Y6268D02*
D03*
Y6203D02*
D03*
Y6138D02*
D03*
D99*
X8125Y6610D02*
G03*
X8148Y6587I23J0D01*
G01*
X8125Y6610D02*
G03*
X8079Y6610I-23J0D01*
G01*
X8033Y6590D02*
G03*
X8079Y6590I23J0D01*
G01*
X8033Y6632D02*
G03*
X7988Y6632I-23J0D01*
G01*
X7965Y6587D02*
G03*
X7988Y6610I0J23D01*
G01*
X8325Y6560D02*
G03*
X8348Y6537I23J0D01*
G01*
X8325Y6593D02*
G03*
X8280Y6593I-23J0D01*
G01*
X8257Y6537D02*
G03*
X8280Y6560I0J23D01*
G01*
X8524Y6510D02*
G03*
X8547Y6487I23J0D01*
G01*
X8524Y6511D02*
G03*
X8479Y6511I-23J0D01*
G01*
X8456Y6487D02*
G03*
X8479Y6510I0J23D01*
G01*
X8464Y6913D02*
G03*
X8487Y6890I23J0D01*
G01*
X8464Y6956D02*
G03*
X8419Y6956I-23J0D01*
G01*
X8373Y6911D02*
G03*
X8419Y6911I23J0D01*
G01*
X8373Y6956D02*
G03*
X8327Y6956I-23J0D01*
G01*
X8281Y6911D02*
G03*
X8327Y6911I23J0D01*
G01*
X8281Y6956D02*
G03*
X8236Y6956I-23J0D01*
G01*
X8190Y6911D02*
G03*
X8236Y6911I23J0D01*
G01*
X8190Y6929D02*
G03*
X8144Y6929I-23J0D01*
G01*
X8121Y6890D02*
G03*
X8144Y6913I0J23D01*
G01*
X7737Y6860D02*
G03*
X7760Y6837I23J0D01*
G01*
X7737Y6884D02*
G03*
X7691Y6884I-23J0D01*
G01*
X7668Y6837D02*
G03*
X7691Y6860I0J23D01*
G01*
X8151Y7010D02*
G03*
X8128Y6988I0J-23D01*
G01*
X8082Y6988D02*
G03*
X8128Y6988I23J0D01*
G01*
X8082Y7070D02*
G03*
X8036Y7070I-23J0D01*
G01*
X7991Y6944D02*
G03*
X8036Y6944I23J0D01*
G01*
X7991Y7076D02*
G03*
X7945Y7076I-23J0D01*
G01*
X7899Y6951D02*
G03*
X7945Y6951I23J0D01*
G01*
X7899Y7033D02*
G03*
X7853Y7033I-23J0D01*
G01*
X7831Y7010D02*
G03*
X7853Y7033I0J23D01*
G01*
X8424Y7181D02*
G03*
X8447Y7158I23J0D01*
G01*
X8424Y7210D02*
G03*
X8378Y7210I-23J0D01*
G01*
X8332Y7176D02*
G03*
X8378Y7176I23J0D01*
G01*
X8332Y7224D02*
G03*
X8287Y7224I-23J0D01*
G01*
X8241Y7176D02*
G03*
X8287Y7176I23J0D01*
G01*
X8241Y7224D02*
G03*
X8195Y7224I-23J0D01*
G01*
X8150Y7176D02*
G03*
X8195Y7176I23J0D01*
G01*
X8150Y7195D02*
G03*
X8104Y7195I-23J0D01*
G01*
X8058Y7176D02*
G03*
X8104Y7176I23J0D01*
G01*
X8058Y7195D02*
G03*
X8012Y7195I-23J0D01*
G01*
X7967Y7176D02*
G03*
X8012Y7176I23J0D01*
G01*
X7967Y7224D02*
G03*
X7921Y7224I-23J0D01*
G01*
X7910Y7122D02*
G03*
X7921Y7150I-28J28D01*
G01*
X8169Y7337D02*
G03*
X8146Y7314I0J-23D01*
G01*
X8100Y7271D02*
G03*
X8146Y7271I23J0D01*
G01*
X8100Y7343D02*
G03*
X8054Y7343I-23J0D01*
G01*
X8009Y7271D02*
G03*
X8054Y7271I23J0D01*
G01*
X8009Y7343D02*
G03*
X7963Y7343I-23J0D01*
G01*
X7917Y7301D02*
G03*
X7963Y7301I23J0D01*
G01*
X7917Y7389D02*
G03*
X7871Y7389I-23J0D01*
G01*
X7826Y7271D02*
G03*
X7871Y7271I23J0D01*
G01*
X7826Y7314D02*
G03*
X7803Y7337I-23J0D01*
G01*
X8265Y7465D02*
G03*
X8288Y7442I23J0D01*
G01*
X8265Y7477D02*
G03*
X8219Y7477I-23J0D01*
G01*
X8174Y7419D02*
G03*
X8219Y7419I23J0D01*
G01*
X8174Y7508D02*
G03*
X8128Y7508I-23J0D01*
G01*
X8082Y7419D02*
G03*
X8128Y7419I23J0D01*
G01*
X8082Y7508D02*
G03*
X8037Y7508I-23J0D01*
G01*
X7991Y7419D02*
G03*
X8037Y7419I23J0D01*
G01*
X7991Y7508D02*
G03*
X7945Y7508I-23J0D01*
G01*
X7922Y7442D02*
G03*
X7945Y7465I0J23D01*
G01*
X8344Y7704D02*
G03*
X8377Y7704I16J16D01*
G01*
X8325Y7723D02*
G03*
X8293Y7723I-16J-16D01*
G01*
X8293Y7723D02*
G03*
X8293Y7691I16J-16D01*
G01*
X8329Y7622D02*
G03*
X8329Y7655I-16J16D01*
G01*
X8296Y7622D02*
G03*
X8329Y7622I16J16D01*
G01*
X8264Y7654D02*
G03*
X8232Y7654I-16J-16D01*
G01*
X8232Y7654D02*
G03*
X8232Y7622I16J-16D01*
G01*
X8217Y7582D02*
G03*
X8233Y7621I0J23D01*
G01*
X8720Y7747D02*
G03*
X8697Y7724I0J-23D01*
G01*
X8651Y7706D02*
G03*
X8697Y7706I23J0D01*
G01*
X8651Y7724D02*
G03*
X8606Y7724I-23J0D01*
G01*
X8560Y7706D02*
G03*
X8606Y7706I23J0D01*
G01*
X8560Y7724D02*
G03*
X8514Y7724I-23J0D01*
G01*
X8468Y7706D02*
G03*
X8514Y7706I23J0D01*
G01*
X8468Y7724D02*
G03*
X8446Y7747I-23J0D01*
G01*
X8200Y7743D02*
G03*
X8200Y7711I16J-16D01*
G01*
X8207Y7672D02*
G03*
X8207Y7705I-16J16D01*
G01*
X8174Y7672D02*
G03*
X8207Y7672I16J16D01*
G01*
X8168Y7679D02*
G03*
X8136Y7679I-16J-16D01*
G01*
X8706Y7823D02*
G03*
X8683Y7800I0J-23D01*
G01*
X8637Y7800D02*
G03*
X8683Y7800I23J0D01*
G01*
X8637Y7821D02*
G03*
X8592Y7821I-23J0D01*
G01*
X8546Y7800D02*
G03*
X8592Y7800I23J0D01*
G01*
X8546Y7821D02*
G03*
X8500Y7821I-23J0D01*
G01*
X8455Y7800D02*
G03*
X8500Y7800I23J0D01*
G01*
X8455Y7821D02*
G03*
X8409Y7821I-23J0D01*
G01*
X8363Y7798D02*
G03*
X8409Y7798I23J0D01*
G01*
X8363Y7800D02*
G03*
X8340Y7823I-23J0D01*
G01*
X7983Y7710D02*
G03*
X8006Y7687I23J0D01*
G01*
X7983Y7728D02*
G03*
X7938Y7728I-23J0D01*
G01*
X7915Y7687D02*
G03*
X7938Y7710I0J23D01*
G01*
X8196Y7847D02*
G03*
X8228Y7847I16J16D01*
G01*
X8183Y7860D02*
G03*
X8151Y7860I-16J-16D01*
G01*
X8151Y7860D02*
G03*
X8151Y7827I16J-16D01*
G01*
X8180Y7766D02*
G03*
X8180Y7798I-16J16D01*
G01*
X8148Y7766D02*
G03*
X8180Y7766I16J16D01*
G01*
X8119Y7795D02*
G03*
X8086Y7795I-16J-16D01*
G01*
X8086Y7795D02*
G03*
X8086Y7763I16J-16D01*
G01*
X8099Y7718D02*
G03*
X8099Y7750I-16J16D01*
G01*
X7922Y7787D02*
G03*
X7899Y7764I0J-23D01*
G01*
X7854Y7761D02*
G03*
X7899Y7761I23J0D01*
G01*
X7854Y7784D02*
G03*
X7808Y7784I-23J0D01*
G01*
X7762Y7746D02*
G03*
X7808Y7746I23J0D01*
G01*
X7762Y7764D02*
G03*
X7739Y7787I-23J0D01*
G01*
X7826Y7860D02*
G03*
X7849Y7837I23J0D01*
G01*
X7826Y7878D02*
G03*
X7780Y7878I-23J0D01*
G01*
X7757Y7837D02*
G03*
X7780Y7860I0J23D01*
G01*
X7958Y7988D02*
G03*
X7935Y7965I0J-23D01*
G01*
X7889Y7963D02*
G03*
X7935Y7963I23J0D01*
G01*
X7889Y7965D02*
G03*
X7866Y7988I-23J0D01*
G01*
X4788Y7061D02*
G03*
X4765Y7038I0J-23D01*
G01*
X4719Y7021D02*
G03*
X4765Y7021I23J0D01*
G01*
X4719Y7102D02*
G03*
X4674Y7102I-23J0D01*
G01*
X4628Y7021D02*
G03*
X4674Y7021I23J0D01*
G01*
X4628Y7102D02*
G03*
X4582Y7102I-23J0D01*
G01*
X4536Y7021D02*
G03*
X4582Y7021I23J0D01*
G01*
X4536Y7102D02*
G03*
X4491Y7102I-23J0D01*
G01*
X4468Y7061D02*
G03*
X4491Y7084I0J23D01*
G01*
X9553Y7912D02*
X9619Y7846D01*
X9157Y7912D02*
X9553D01*
X9117Y6774D02*
X9139Y6752D01*
X9117Y6774D02*
Y6957D01*
X9139Y6751D02*
Y6752D01*
X8672Y7203D02*
X8672Y7202D01*
X8723D01*
X8738Y7188D01*
Y7087D02*
Y7188D01*
Y7087D02*
X8782Y7043D01*
X9308D01*
X9237Y7578D02*
Y7647D01*
Y7578D02*
X9296Y7518D01*
Y7310D02*
Y7518D01*
X9017Y7303D02*
X9157Y7443D01*
X8672Y7322D02*
X8997D01*
X8785Y8093D02*
X8975D01*
X9157Y7760D02*
Y7912D01*
X8975Y8093D02*
X9157Y7912D01*
Y7760D02*
X9197Y7719D01*
Y7647D02*
Y7719D01*
X8148Y6587D02*
X8187D01*
X8125Y6610D02*
Y6610D01*
X8079Y6590D02*
Y6610D01*
X8033Y6590D02*
Y6632D01*
X7988Y6610D02*
Y6632D01*
X7955Y6587D02*
X7965D01*
X7943D02*
X7955D01*
X8348Y6537D02*
X8412D01*
X8325Y6560D02*
Y6593D01*
X8280Y6560D02*
Y6593D01*
X8247Y6537D02*
X8257D01*
X8412D02*
X8429D01*
X8230D02*
X8247D01*
X8547Y6487D02*
X8593D01*
X8524Y6510D02*
Y6511D01*
X8479Y6510D02*
Y6511D01*
X8446Y6487D02*
X8456D01*
X8593D02*
X8621D01*
X7551D02*
X8446D01*
X8957Y6806D02*
Y6957D01*
X8909Y6757D02*
X8957Y6806D01*
X8293Y6693D02*
X8946D01*
X8997Y6744D01*
Y6957D01*
X9037Y6731D02*
Y6957D01*
X8961Y6655D02*
X9037Y6731D01*
X9077Y6725D02*
Y6957D01*
X8977Y6624D02*
X9077Y6725D01*
X8014Y6731D02*
X8799D01*
X8917Y6849D02*
Y6957D01*
X8799Y6731D02*
X8917Y6849D01*
X8547Y6655D02*
X8961D01*
X8758Y6624D02*
X8977D01*
X9157Y6850D02*
X9225Y6782D01*
X9457Y6796D02*
Y7049D01*
X9271Y6609D02*
X9457Y6796D01*
X9362Y7122D02*
X9362Y7122D01*
X9420Y7243D02*
X9490Y7173D01*
X9362Y7243D02*
X9420D01*
X9490Y7173D02*
X9515D01*
X9607Y7107D02*
X9943Y6771D01*
X9491Y7107D02*
X9607D01*
X9943Y6771D02*
X10225D01*
X9515Y7173D02*
X9525Y7163D01*
X9435Y7162D02*
X9491Y7107D01*
X9362Y7162D02*
X9435D01*
X10225Y6771D02*
X10235Y6781D01*
X9424Y7082D02*
X9457Y7049D01*
X9427Y7122D02*
X9492Y7057D01*
X9362Y7082D02*
X9424D01*
X9362Y7122D02*
X9427D01*
X9492Y6554D02*
Y7057D01*
X9471Y6533D02*
X9492Y6554D01*
X9375Y6980D02*
Y7042D01*
X9362Y7043D02*
X9375D01*
X9375Y7042D01*
X9345Y6883D02*
X9357Y6871D01*
X9253Y6883D02*
X9345D01*
X9237Y6899D02*
X9253Y6883D01*
X9237Y6899D02*
Y6957D01*
X9237Y6957D02*
X9237Y6957D01*
X9253Y6850D02*
X9314Y6789D01*
X9223Y6850D02*
X9253D01*
X9197Y6876D02*
X9223Y6850D01*
X9197Y6876D02*
Y6957D01*
X9157Y6850D02*
Y6957D01*
X9271Y6375D02*
Y6609D01*
X9071Y6294D02*
X9189D01*
X9271Y6375D01*
X9362Y7082D02*
X9362Y7082D01*
X9482Y7282D02*
X9512Y7252D01*
X9362Y7282D02*
X9482D01*
X9563Y7036D02*
X9568Y7041D01*
X9609D02*
X9924Y6726D01*
X9568Y7041D02*
X9609D01*
X9490Y7362D02*
X9512Y7341D01*
X9362Y7362D02*
X9490D01*
X9924Y6726D02*
X10225D01*
X9296Y7186D02*
X9313Y7202D01*
X9308Y7043D02*
X9362D01*
X9296Y7055D02*
Y7186D01*
Y7055D02*
X9308Y7043D01*
X9296Y7186D02*
Y7310D01*
X9308Y7322D01*
X9362D01*
Y7202D02*
X9362Y7203D01*
X9313Y7202D02*
X9362D01*
Y7043D02*
X9362Y7043D01*
X9362Y7322D02*
X9362Y7322D01*
X9055Y4801D02*
Y5116D01*
X9067Y5128D02*
X9187D01*
X9055Y5116D02*
X9067Y5128D01*
X9055Y4801D02*
X9078Y4778D01*
X9187D01*
X9363Y7563D02*
X9407Y7607D01*
X9436D01*
X9362Y7522D02*
X9362Y7523D01*
X9416D01*
X9542Y7645D02*
X9567Y7670D01*
X9856Y7624D02*
X9954Y7526D01*
X10225D01*
X9586Y7624D02*
X9856D01*
X10225Y7526D02*
X10235Y7516D01*
X9561Y7599D02*
X9586Y7624D01*
X10225Y7571D02*
X10235Y7581D01*
X9973Y7571D02*
X10225D01*
X9567Y7670D02*
X9874D01*
X9973Y7571D01*
X9436Y7607D02*
X9473Y7645D01*
X9542D01*
X9416Y7523D02*
X9492Y7599D01*
X9561D01*
X9476Y7482D02*
X9500Y7506D01*
X9362Y7482D02*
X9476D01*
X9889Y7332D02*
X9900Y7321D01*
X9804Y7315D02*
X9821Y7332D01*
X9889D01*
X9900Y7321D02*
X10235D01*
X9911Y7386D02*
X10235D01*
X9804Y7493D02*
X9911Y7386D01*
X9600Y7345D02*
X9629Y7315D01*
X9600Y7345D02*
Y7377D01*
X9574Y7403D02*
X9600Y7377D01*
X9362Y7403D02*
X9574D01*
X9579Y7443D02*
X9629Y7493D01*
X9362Y7443D02*
X9579D01*
X10225Y6726D02*
X10235Y6716D01*
X8487Y6890D02*
X8558D01*
X8464Y6913D02*
Y6956D01*
X8419Y6911D02*
Y6956D01*
X8373Y6911D02*
Y6956D01*
X8327Y6911D02*
Y6956D01*
X8281Y6911D02*
Y6956D01*
X8236Y6911D02*
Y6956D01*
X8190Y6911D02*
Y6929D01*
X8144Y6913D02*
Y6929D01*
X8021Y6890D02*
X8121D01*
X8020D02*
X8021D01*
X7893D02*
X8020D01*
X8560Y6892D02*
Y7023D01*
X8558Y6890D02*
X8560Y6892D01*
X8636Y6947D02*
X8746D01*
X8757Y6957D01*
X8560Y7023D02*
X8579Y7043D01*
X8672D01*
X9237Y7738D02*
X9258Y7760D01*
X9237Y7647D02*
Y7738D01*
X9157Y7443D02*
Y7647D01*
X7551Y6587D02*
X7943D01*
X8187D02*
X8293Y6693D01*
X7551Y6537D02*
X8230D01*
X8429D02*
X8547Y6655D01*
X8621Y6487D02*
X8758Y6624D01*
X7760Y6837D02*
X7811D01*
X7737Y6860D02*
Y6884D01*
X7691Y6860D02*
Y6884D01*
X7658Y6837D02*
X7668D01*
X7811D02*
X7840D01*
X7551D02*
X7658D01*
X7840D02*
X7893Y6890D01*
X8151Y7010D02*
X8204D01*
X8128Y6988D02*
Y6988D01*
X8082Y6988D02*
Y7070D01*
X8036Y6944D02*
Y7070D01*
X7991Y6944D02*
Y7076D01*
X7945Y6951D02*
Y7076D01*
X7899Y6951D02*
Y7033D01*
X7853Y7033D02*
Y7033D01*
X7820Y7010D02*
X7831D01*
X8204D02*
X8420D01*
X8492Y7082D01*
X8672D01*
X8418Y7122D02*
X8672D01*
X8407Y7112D02*
X8418Y7122D01*
X7747Y6937D02*
X7820Y7010D01*
X8484Y7158D02*
X8488Y7162D01*
X8672D01*
X7673Y6987D02*
X7709Y7023D01*
X8447Y7158D02*
X8484D01*
X8424Y7181D02*
Y7210D01*
X8378Y7176D02*
Y7210D01*
X8332Y7176D02*
Y7224D01*
X8287Y7176D02*
Y7224D01*
X8241Y7176D02*
Y7224D01*
X8195Y7176D02*
Y7224D01*
X8150Y7176D02*
Y7195D01*
X8104Y7176D02*
Y7195D01*
X8058Y7176D02*
Y7195D01*
X8012Y7176D02*
Y7195D01*
X7967Y7176D02*
Y7224D01*
X7921Y7150D02*
Y7224D01*
X7899Y7112D02*
X7910Y7122D01*
X7874Y7087D02*
X7899Y7112D01*
X7551Y7137D02*
X7747D01*
X7785Y7175D01*
X8353Y7362D02*
X8672D01*
X8318Y7328D02*
X8353Y7362D01*
X8169Y7337D02*
X8210D01*
X8146Y7271D02*
Y7314D01*
X8100Y7271D02*
Y7343D01*
X8054Y7271D02*
Y7343D01*
X8009Y7271D02*
Y7343D01*
X7963Y7301D02*
Y7343D01*
X7917Y7301D02*
Y7389D01*
X7871Y7271D02*
Y7389D01*
X7826Y7271D02*
Y7314D01*
X7747Y7337D02*
X7803D01*
X8210D02*
X8213D01*
X7551D02*
X7747D01*
X8213D02*
X8279Y7403D01*
X8672D01*
X8293Y7443D02*
X8331D01*
X8293Y7442D02*
X8293Y7443D01*
X8288Y7442D02*
X8293D01*
X8265Y7465D02*
Y7477D01*
X8219Y7419D02*
Y7477D01*
X8174Y7419D02*
Y7508D01*
X8128Y7419D02*
Y7508D01*
X8082Y7419D02*
Y7508D01*
X8037Y7419D02*
Y7508D01*
X7991Y7419D02*
Y7508D01*
X7945Y7465D02*
Y7508D01*
X7912Y7442D02*
X7922D01*
X8331Y7443D02*
X8672D01*
X7823Y7442D02*
X7912D01*
X8306Y7544D02*
X8318D01*
X8349Y7574D01*
X8640Y7562D02*
X8672D01*
X8757Y7647D02*
Y7653D01*
X8757Y7653D02*
X8757Y7653D01*
X8413Y7653D02*
X8757D01*
X8413Y7654D02*
X8413Y7653D01*
X8469Y7482D02*
X8672D01*
X8433Y7518D02*
X8469Y7482D01*
X8349Y7574D02*
X8425D01*
X8458Y7607D01*
X8660D01*
X7754Y7437D02*
X7836Y7518D01*
X7551Y7487D02*
X7703D01*
X7722Y7506D01*
X7551Y7537D02*
X7651D01*
X7696Y7582D02*
X8193D01*
X7651Y7537D02*
X7696Y7582D01*
X7551Y7237D02*
X7675D01*
X7676Y7236D01*
X8573Y7522D02*
X8672D01*
X8552Y7544D02*
X8573Y7522D01*
X8672Y7562D02*
Y7595D01*
X8660Y7607D02*
X8672Y7595D01*
X8471Y7303D02*
X8484Y7315D01*
X8572D01*
X8534Y7226D02*
X8558Y7203D01*
X8605Y7282D02*
X8672D01*
X8572Y7315D02*
X8605Y7282D01*
X8558Y7203D02*
X8672D01*
Y7243D02*
X8957D01*
X9017Y7303D01*
X8997Y7322D02*
X9017Y7303D01*
X8377Y7704D02*
X8401Y7728D01*
X8325Y7723D02*
X8344Y7704D01*
X8293Y7723D02*
X8293Y7723D01*
X8293Y7691D02*
X8329Y7655D01*
X8329Y7655D02*
X8329Y7655D01*
X8296Y7622D02*
X8296Y7622D01*
X8264Y7654D02*
X8296Y7622D01*
X8264Y7654D02*
X8264Y7654D01*
X8232D02*
X8232Y7654D01*
X8232Y7622D02*
X8232Y7622D01*
X8233Y7621D01*
X8193Y7582D02*
X8217D01*
X8720Y7747D02*
X8785D01*
X8697Y7706D02*
Y7724D01*
X8651Y7706D02*
Y7724D01*
X8606Y7706D02*
Y7724D01*
X8560Y7706D02*
Y7724D01*
X8514Y7706D02*
Y7724D01*
X8468Y7706D02*
Y7724D01*
X8420Y7747D02*
X8446D01*
X8401Y7728D02*
X8420Y7747D01*
X8200Y7743D02*
X8261Y7804D01*
X8200Y7711D02*
X8200Y7711D01*
X8207Y7705D01*
X8207Y7672D02*
X8207Y7672D01*
X8168Y7679D02*
X8174Y7672D01*
X8096Y7639D02*
X8136Y7679D01*
X8261Y7804D02*
X8280Y7823D01*
X8094Y7637D02*
X8096Y7639D01*
X8706Y7823D02*
X8750D01*
X8683Y7800D02*
Y7800D01*
X8637Y7800D02*
Y7821D01*
X8592Y7800D02*
Y7821D01*
X8546Y7800D02*
Y7821D01*
X8500Y7800D02*
Y7821D01*
X8455Y7800D02*
Y7821D01*
X8409Y7798D02*
Y7821D01*
X8363Y7798D02*
Y7800D01*
X8284Y7823D02*
X8340D01*
X8750D02*
X8776D01*
X8280D02*
X8284D01*
X8797Y7647D02*
Y7735D01*
X8785Y7747D02*
X8797Y7735D01*
X8917Y7647D02*
X8917Y7647D01*
X8917Y7583D02*
Y7647D01*
X8903Y7569D02*
X8917Y7583D01*
X8776Y7569D02*
X8903D01*
X8672Y7522D02*
X8672Y7523D01*
X8729D01*
X8776Y7569D01*
X8068Y7950D02*
X8954D01*
X9037Y7867D01*
Y7647D02*
Y7867D01*
X8966Y7988D02*
X9077Y7878D01*
X8979Y8026D02*
X9117Y7888D01*
X8039Y7988D02*
X8966D01*
X9077Y7647D02*
Y7878D01*
X7772Y8026D02*
X8979D01*
X9117Y7647D02*
Y7888D01*
X8021Y7787D02*
X8146Y7912D01*
X8931D02*
X8997Y7846D01*
X8146Y7912D02*
X8931D01*
X8915Y7823D02*
X8957Y7782D01*
X8915Y7823D02*
Y7836D01*
X8877Y7647D02*
Y7773D01*
X8255Y7874D02*
X8776D01*
X8877Y7773D01*
X8997Y7647D02*
Y7846D01*
X8957Y7647D02*
Y7782D01*
X8006Y7687D02*
X8048D01*
X7983Y7710D02*
Y7728D01*
X7938Y7710D02*
Y7728D01*
X7904Y7687D02*
X7915D01*
X8048D02*
X8068D01*
X7551D02*
X7904D01*
X8068D02*
X8092Y7711D01*
X8228Y7847D02*
X8255Y7874D01*
X8196Y7847D02*
X8196Y7847D01*
X8183Y7860D02*
X8196Y7847D01*
X8183Y7860D02*
X8183Y7860D01*
X8151D02*
X8151Y7860D01*
X8151Y7827D02*
X8151Y7827D01*
X8180Y7798D01*
X8180Y7798D02*
X8180Y7798D01*
Y7766D02*
X8180Y7766D01*
X8148Y7766D02*
X8148Y7766D01*
X8119Y7795D02*
X8148Y7766D01*
X8119Y7795D02*
X8119Y7795D01*
X8086D02*
X8086Y7795D01*
X8086Y7763D02*
X8086Y7763D01*
X8099Y7750D01*
X8092Y7711D02*
X8099Y7718D01*
X7955Y7837D02*
X8068Y7950D01*
X8021Y7787D02*
X8021D01*
X7922D02*
X8021D01*
X7899Y7761D02*
Y7764D01*
X7854Y7761D02*
Y7784D01*
X7808Y7746D02*
Y7784D01*
X7762Y7746D02*
Y7764D01*
X7683Y7787D02*
X7739D01*
X7551D02*
X7683D01*
X7849Y7837D02*
X7955D01*
X7826Y7860D02*
Y7878D01*
X7780Y7860D02*
Y7878D01*
X7747Y7837D02*
X7757D01*
X7551D02*
X7747D01*
X7958Y7988D02*
X8039D01*
X7935Y7963D02*
Y7965D01*
X7889Y7963D02*
Y7965D01*
X7811Y7988D02*
X7866D01*
X7709Y7887D02*
X7811Y7988D01*
X7551Y7887D02*
X7709D01*
X7551Y7937D02*
X7683D01*
X7772Y8026D01*
X5090Y7287D02*
X5403D01*
X4864Y7061D02*
X5090Y7287D01*
X4788Y7061D02*
X4840D01*
X4765Y7021D02*
Y7038D01*
X4719Y7021D02*
Y7102D01*
X4674Y7021D02*
Y7102D01*
X4628Y7021D02*
Y7102D01*
X4582Y7021D02*
Y7102D01*
X4536Y7021D02*
Y7102D01*
X4491Y7084D02*
Y7102D01*
X4458Y7061D02*
X4468D01*
X4840D02*
X4864D01*
X4344Y7054D02*
X4349D01*
X4432Y7087D02*
X4458Y7061D01*
X4381Y7087D02*
X4432D01*
X4349Y7054D02*
X4381Y7087D01*
X7551Y6937D02*
X7747D01*
X7551Y6637D02*
X7920D01*
X8014Y6731D01*
X7551Y6687D02*
X7906D01*
X7988Y6769D01*
X7551Y6737D02*
X7893D01*
X7976Y6820D01*
X7551Y6787D02*
X7867D01*
X7938Y6858D01*
X7988Y6769D02*
X8788D01*
X8877Y6858D02*
Y6957D01*
X8788Y6769D02*
X8877Y6858D01*
X7976Y6820D02*
X8788D01*
X8837Y6868D02*
Y6957D01*
X8788Y6820D02*
X8837Y6868D01*
X8776Y6858D02*
X8797Y6879D01*
X7938Y6858D02*
X8776D01*
X8797Y6879D02*
Y6957D01*
X8837Y7647D02*
Y7762D01*
X8776Y7823D02*
X8837Y7762D01*
X7551Y7637D02*
X8094D01*
X7768Y7387D02*
X7823Y7442D01*
X7551Y7437D02*
X7754D01*
X7551Y7387D02*
X7768D01*
X7551Y6987D02*
X7673D01*
X7551Y7087D02*
X7551Y7087D01*
X7874D01*
D100*
X5108Y6887D02*
G03*
X5077Y6857I0J-30D01*
G01*
X5022Y6851D02*
G03*
X5077Y6851I28J0D01*
G01*
X5022Y6923D02*
G03*
X4966Y6923I-28J0D01*
G01*
X4910Y6851D02*
G03*
X4966Y6851I28J0D01*
G01*
X4910Y6923D02*
G03*
X4854Y6923I-28J0D01*
G01*
X4798Y6873D02*
G03*
X4854Y6873I28J0D01*
G01*
X4798Y6923D02*
G03*
X4742Y6923I-28J0D01*
G01*
X4686Y6901D02*
G03*
X4742Y6901I28J0D01*
G01*
X4686Y6923D02*
G03*
X4630Y6923I-28J0D01*
G01*
X4600Y6887D02*
G03*
X4630Y6917I0J30D01*
G01*
X4770Y6800D02*
G03*
X4801Y6769I30J0D01*
G01*
X4770Y6805D02*
G03*
X4714Y6805I-28J0D01*
G01*
X4658Y6734D02*
G03*
X4714Y6734I28J0D01*
G01*
X4658Y6805D02*
G03*
X4602Y6805I-28J0D01*
G01*
X4547Y6734D02*
G03*
X4602Y6734I28J0D01*
G01*
X4547Y6805D02*
G03*
X4491Y6805I-28J0D01*
G01*
X4460Y6769D02*
G03*
X4491Y6800I0J30D01*
G01*
X5062Y6655D02*
G03*
X5032Y6624I0J-30D01*
G01*
X4976Y6624D02*
G03*
X5032Y6624I28J0D01*
G01*
X4976Y6679D02*
G03*
X4920Y6679I-28J0D01*
G01*
X4864Y6619D02*
G03*
X4920Y6619I28J0D01*
G01*
X4864Y6690D02*
G03*
X4808Y6690I-28J0D01*
G01*
X4778Y6655D02*
G03*
X4808Y6685I0J30D01*
G01*
X7551Y4279D02*
Y4425D01*
X6838Y5852D02*
X6868Y5883D01*
X7551Y4279D02*
X7652Y4178D01*
X7547Y4282D02*
X7551Y4279D01*
X7689Y6076D02*
X7762Y6002D01*
X7783D01*
X7689Y6076D02*
Y6261D01*
X7551Y6287D02*
X7663D01*
X7689Y6261D01*
X7551Y6092D02*
Y6237D01*
Y6092D02*
X7640Y6002D01*
X8113Y4900D02*
X8191Y4978D01*
X8100Y5065D02*
X8111D01*
X8124Y5078D02*
X8339D01*
X8111Y5065D02*
X8124Y5078D01*
X8153Y4745D02*
Y4804D01*
X7973Y4564D02*
X8153Y4745D01*
X7907Y4409D02*
X7920D01*
X7620Y4696D02*
X7907Y4409D01*
X7536Y4696D02*
X7620D01*
X8191Y4978D02*
X8339D01*
X8221Y4928D02*
X8339D01*
X8039Y4746D02*
X8221Y4928D01*
X8039Y4732D02*
Y4746D01*
X8153Y4804D02*
X8228Y4878D01*
X8339D01*
X8194Y4435D02*
Y4770D01*
Y4435D02*
X8760Y3868D01*
X8194Y4770D02*
X8252Y4828D01*
X7372Y4282D02*
X7422D01*
X7440Y4300D01*
X7372Y4282D02*
X7372Y4282D01*
X7534Y5278D02*
Y5479D01*
X7368Y5867D02*
X8031D01*
X7419Y4924D02*
Y4933D01*
X6642Y8014D02*
X6655Y8026D01*
X6252Y8014D02*
Y8186D01*
X5585Y6537D02*
X5588Y6533D01*
X7336Y5017D02*
X7419Y4933D01*
X7547Y4486D02*
X7551Y4491D01*
X7652Y4178D02*
X7938D01*
X7547Y4429D02*
X7551Y4425D01*
X7547Y4429D02*
Y4486D01*
X7440Y4696D02*
Y4904D01*
Y4300D02*
Y4696D01*
X7361Y4696D02*
X7440D01*
X7440Y4696D01*
X7419Y4924D02*
X7440Y4904D01*
X7222Y4539D02*
Y4890D01*
Y4539D02*
X7240Y4521D01*
X7356D01*
X7419Y4933D02*
Y4935D01*
X9665Y4826D02*
Y4965D01*
X9372Y5258D02*
X9665Y4965D01*
X9322Y5258D02*
X9372D01*
X4928Y6007D02*
X5004Y5931D01*
X5309D01*
X5588Y6210D01*
X7298Y7768D02*
X7366Y7836D01*
Y7925D01*
X7298Y7650D02*
Y7768D01*
X7366Y7582D02*
Y7582D01*
X7298Y7650D02*
X7366Y7582D01*
X6744Y7925D02*
X7366D01*
X8949Y5848D02*
Y6031D01*
X5241Y7387D02*
X5403D01*
X5232Y7379D02*
X5241Y7387D01*
X5232Y7355D02*
Y7379D01*
X5250Y7337D02*
X5403D01*
X5232Y7355D02*
X5250Y7337D01*
X10117Y5223D02*
X10149Y5254D01*
X10117Y5088D02*
Y5223D01*
X10096Y5067D02*
X10117Y5088D01*
X10096Y4890D02*
Y5067D01*
X8949Y5753D02*
Y5846D01*
Y5753D02*
X9081Y5621D01*
X8947Y6032D02*
X8949Y6031D01*
Y5848D02*
X8950Y5847D01*
X8949Y5846D02*
X8950Y5847D01*
X9841Y4167D02*
X9881Y4128D01*
X9589Y4167D02*
X9841D01*
X7163Y6223D02*
X7175Y6210D01*
X8491Y4778D02*
X8504Y4766D01*
X5994Y8014D02*
X6121D01*
X5820D02*
X5994D01*
X3834Y5566D02*
X3956Y5443D01*
X3014Y5029D02*
X3481D01*
X9520Y5667D02*
Y6172D01*
X8407Y5766D02*
Y5956D01*
X9471Y6294D02*
X9473D01*
X9520Y6172D02*
Y6249D01*
X8636Y6160D02*
Y6414D01*
Y6083D02*
Y6160D01*
X9507D01*
X9520Y6172D01*
X8747Y6525D02*
X8826D01*
X8636Y6414D02*
X8747Y6525D01*
X8497Y5944D02*
X8636Y6083D01*
X6363Y5397D02*
X6364Y5399D01*
Y5550D01*
X5880Y6337D02*
X6350D01*
X5753Y6210D02*
X5880Y6337D01*
X7252Y8001D02*
Y8186D01*
X7252Y7631D02*
Y7849D01*
X7366Y7925D02*
Y8014D01*
X6655D02*
X6744Y7925D01*
X7163Y7542D02*
X7252Y7631D01*
X7163Y7341D02*
Y7542D01*
X7366Y8014D02*
X7734Y8382D01*
X7861D01*
X7252Y8001D02*
X7252Y8001D01*
X6202Y8094D02*
Y8186D01*
X6121Y8014D02*
X6202Y8094D01*
X5802Y8032D02*
Y8186D01*
Y8032D02*
X5820Y8014D01*
X7252Y6947D02*
Y7468D01*
Y6490D02*
Y6947D01*
X7366D02*
X7366Y6947D01*
X7252Y6947D02*
X7366D01*
X7252Y7468D02*
X7366Y7582D01*
X7551Y7587D02*
X7551Y7587D01*
X7371Y7587D02*
X7551D01*
X7366Y7582D02*
X7371Y7587D01*
X8407Y5956D02*
Y6083D01*
X8251Y6121D02*
X8369D01*
X8407Y6083D01*
X8333Y5691D02*
X8407Y5766D01*
X7798Y5691D02*
X8333D01*
X7352Y5852D02*
Y6038D01*
Y5665D02*
Y5852D01*
X7368Y5867D01*
X9038Y5397D02*
X9157D01*
X9038Y5377D02*
Y5397D01*
X9038Y5397D01*
X7981Y6355D02*
X7988Y6363D01*
X7942Y6355D02*
X7981D01*
X7885Y6298D02*
X7942Y6355D01*
X7798Y6298D02*
X7885D01*
X7363Y7287D02*
X7551D01*
X7362Y7286D02*
X7363Y7287D01*
X6731Y6223D02*
X7163D01*
X6702Y6194D02*
X6731Y6223D01*
X6702Y6038D02*
Y6194D01*
X7352Y6038D02*
Y6389D01*
X7252Y6490D02*
X7352Y6389D01*
X7358Y6799D02*
X7446Y6887D01*
X7358Y6790D02*
Y6799D01*
X7446Y6887D02*
X7551D01*
X7395Y5481D02*
Y5622D01*
X7352Y5665D02*
X7395Y5622D01*
X6050Y6219D02*
X6052Y6216D01*
X6049Y6219D02*
X6050Y6219D01*
X6583D01*
X6602Y6038D02*
Y6199D01*
X5588Y6210D02*
Y6533D01*
X6602Y6038D02*
X6602Y6038D01*
X9362Y4877D02*
X9373D01*
X9343Y4896D02*
X9362Y4877D01*
X9328Y4896D02*
X9343D01*
X9310Y4878D02*
X9328Y4896D01*
X9187Y4928D02*
X9321D01*
X9328Y4921D01*
X9187Y4878D02*
X9310D01*
X9328Y4896D02*
Y4921D01*
X9419Y4978D02*
X9438Y4959D01*
X9187Y4978D02*
X9419D01*
X9315Y5178D02*
X9329Y5192D01*
X9318Y5228D02*
X9329Y5217D01*
X9187Y5228D02*
X9318D01*
X9187Y5178D02*
X9315D01*
X9329Y5192D02*
Y5217D01*
X8504Y4740D02*
Y4766D01*
X8339Y4728D02*
X8491D01*
X8339Y4778D02*
X8491D01*
Y4728D02*
X8504Y4740D01*
X9343Y4117D02*
Y4117D01*
X8898Y4242D02*
X9218D01*
X9343Y4117D01*
Y4117D02*
X9441Y4018D01*
X9589D01*
X9032Y4394D02*
X9038Y4400D01*
X9032Y4394D02*
X9181D01*
X9031Y4393D02*
X9032Y4394D01*
X9181D02*
X9408Y4167D01*
X9652Y3810D02*
Y3955D01*
X9589Y4018D02*
X9652Y3955D01*
X8788Y4351D02*
X8898Y4242D01*
X8788Y4351D02*
Y4529D01*
X9520Y3688D02*
X9652Y3556D01*
X9520Y3688D02*
Y3858D01*
X9185Y4194D02*
X9520Y3858D01*
X8877Y4194D02*
X9185D01*
X9408Y4167D02*
X9589D01*
X8738Y4333D02*
X8877Y4194D01*
X8738Y4333D02*
Y4529D01*
X9038Y4400D02*
Y4529D01*
X9375Y3833D02*
Y3881D01*
X8852Y4140D02*
X9116D01*
X9375Y3881D01*
X9274Y3680D02*
Y3874D01*
X8834Y4087D02*
X9060D01*
X9274Y3874D01*
X9375Y3833D02*
X9398Y3810D01*
X8688Y4304D02*
X8852Y4140D01*
X8688Y4304D02*
Y4529D01*
X9274Y3680D02*
X9398Y3556D01*
X8923Y4031D02*
X9144Y3810D01*
X8816Y4031D02*
X8923D01*
X8538Y4228D02*
X8796Y3970D01*
X8915D02*
X9022Y3863D01*
X8796Y3970D02*
X8915D01*
X9022Y3678D02*
X9144Y3556D01*
X8638Y4283D02*
X8834Y4087D01*
X9022Y3678D02*
Y3863D01*
X8638Y4283D02*
Y4529D01*
X8588Y4259D02*
X8816Y4031D01*
X8588Y4259D02*
Y4529D01*
X8661Y4039D02*
X8661D01*
X8890Y3810D02*
Y3810D01*
X8661Y4039D02*
X8890Y3810D01*
X8488Y4212D02*
X8661Y4039D01*
X8760Y3686D02*
X8890Y3556D01*
X8760Y3686D02*
Y3868D01*
X8538Y4228D02*
Y4529D01*
X8488Y4212D02*
Y4529D01*
X8339Y4828D02*
X8339Y4828D01*
X8252Y4828D02*
X8339D01*
X8988Y4411D02*
Y4529D01*
Y4411D02*
X9006Y4393D01*
X9031D01*
X6868Y5883D02*
X6937D01*
X7002Y5948D01*
Y6038D02*
X7002Y6038D01*
X7002Y5948D02*
Y6038D01*
X6932Y5827D02*
X6952D01*
X7052Y5927D01*
Y6038D01*
X7222Y5017D02*
X7336D01*
X7554Y5144D02*
X7764D01*
X7534Y5164D02*
Y5278D01*
Y5164D02*
X7554Y5144D01*
X7541Y5271D02*
X7764D01*
X7534Y5278D02*
X7541Y5271D01*
X7534Y5479D02*
X7766D01*
X7398D02*
X7534D01*
X7395Y5481D02*
X7398Y5479D01*
X7766D02*
X7769Y5476D01*
X9394Y5528D02*
Y5621D01*
X9423Y5499D02*
X9728D01*
X9394Y5528D02*
X9423Y5499D01*
X8875Y5519D02*
X8888Y5506D01*
Y5377D02*
Y5506D01*
X8938Y5233D02*
Y5377D01*
X9218Y5847D02*
X9276Y5906D01*
X9191Y6010D02*
X9391D01*
X9317Y5078D02*
X9380Y5141D01*
X9187Y5078D02*
X9317D01*
X9359Y5028D02*
X9375Y5044D01*
X9187Y5028D02*
X9359D01*
X9650Y6081D02*
X9685Y6116D01*
X9650Y6001D02*
Y6081D01*
X9125Y5847D02*
X9218D01*
X9408Y4342D02*
Y4585D01*
X9315Y4678D02*
X9408Y4585D01*
X9187Y4678D02*
X9315D01*
X9589Y4342D02*
Y4549D01*
X9410Y4728D02*
X9589Y4549D01*
X9187Y4728D02*
X9410D01*
X9930Y5620D02*
Y5694D01*
X9901Y5723D02*
X9930Y5694D01*
X9901Y5723D02*
Y5828D01*
X9755Y5526D02*
Y5620D01*
X9728Y5499D02*
X9755Y5526D01*
X9394Y5621D02*
Y5805D01*
X9400Y5810D01*
X9081Y5621D02*
X9394D01*
X9545Y5906D02*
X9650D01*
X9473Y6294D02*
X9623D01*
X9517Y6249D02*
X9520D01*
X9524Y5667D02*
X9569Y5621D01*
X9520Y5667D02*
X9524D01*
X9520Y6249D02*
X9525D01*
X9473Y6294D02*
X9517Y6249D01*
X9168Y6032D02*
X9191Y6010D01*
X9391D02*
X9400Y6001D01*
X9276Y5906D02*
X9400D01*
X9650Y5810D02*
X9659Y5819D01*
X9892D01*
X9901Y5828D01*
X9650Y6001D02*
X9651Y6002D01*
X9900D01*
X9901Y6003D01*
X9471Y6533D02*
X9683D01*
X9716Y6501D01*
X9691Y6301D02*
X9716Y6326D01*
X9631Y6301D02*
X9691D01*
X9623Y6294D02*
X9631Y6301D01*
X8826Y6350D02*
X8883Y6294D01*
X9071D01*
X8826Y6525D02*
X9062D01*
X9071Y6533D01*
X10498Y7526D02*
X10532Y7493D01*
X10498Y7526D02*
Y7708D01*
X10493Y7714D02*
X10498Y7708D01*
X10235Y7451D02*
X10498D01*
X10532Y7485D01*
Y7493D01*
X10202Y6911D02*
X10235D01*
X10197Y6916D02*
X10202Y6911D01*
X10197Y6916D02*
Y7158D01*
X7427Y7187D02*
X7551D01*
X7377Y7137D02*
X7427Y7187D01*
X7366Y7137D02*
X7377D01*
X7551Y7037D02*
X7551Y7037D01*
X7456Y7037D02*
X7551D01*
X7366Y6947D02*
X7456Y7037D01*
X6252Y8014D02*
X6642D01*
X6652Y8029D02*
Y8186D01*
Y8029D02*
X6655Y8026D01*
X5403Y6537D02*
X5585D01*
X6052Y6038D02*
Y6216D01*
X6052Y6038D02*
X6052Y6038D01*
X5753Y6039D02*
Y6210D01*
X5752Y6038D02*
X5753Y6039D01*
X5403Y6687D02*
X5568D01*
X5575Y6680D01*
X5403Y6687D02*
X5403Y6687D01*
X5209Y7787D02*
X5403D01*
X5182Y7760D02*
X5209Y7787D01*
X4280Y6274D02*
Y6299D01*
Y6248D02*
Y6274D01*
X3531Y6652D02*
X3533Y6655D01*
X3531Y6579D02*
Y6652D01*
X3556Y6553D02*
X3874D01*
X3531Y6579D02*
X3556Y6553D01*
X4153Y6274D02*
X4280D01*
X3874Y6553D02*
X4153Y6274D01*
X4020Y5847D02*
Y6292D01*
X3454Y6464D02*
X3848D01*
X4020Y6292D01*
X4868Y6203D02*
X5118D01*
X5403Y6387D02*
X5403Y6387D01*
X5302Y6387D02*
X5403D01*
X5118Y6203D02*
X5302Y6387D01*
X4868Y6268D02*
X5118D01*
X5287Y6437D02*
X5403D01*
X5118Y6268D02*
X5287Y6437D01*
X4084Y5644D02*
Y5847D01*
Y5644D02*
X4153Y5575D01*
X4868Y6054D02*
Y6138D01*
Y6054D02*
X4902Y6020D01*
X4864Y6134D02*
X4868Y6138D01*
X4661Y6134D02*
X4864D01*
X4428Y6268D02*
X4435Y6261D01*
X4534D01*
X4661Y6134D01*
X4318Y6337D02*
X4424D01*
X4280Y6299D02*
X4318Y6337D01*
X4424D02*
X4428Y6333D01*
X4421Y6210D02*
X4428Y6203D01*
X4318Y6210D02*
X4421D01*
X4280Y6248D02*
X4318Y6210D01*
X3404Y5982D02*
X3696D01*
X3226D02*
X3404D01*
X3834Y5664D02*
Y5841D01*
Y5566D02*
Y5664D01*
X3658D02*
X3834D01*
X3636Y5685D02*
Y5847D01*
Y5685D02*
X3658Y5664D01*
X4140Y5461D02*
X4369D01*
X3828Y5847D02*
X3834Y5841D01*
X4051Y7099D02*
Y7275D01*
X4534Y5183D02*
X4637D01*
X4826Y5372D01*
Y5994D01*
X4458Y6045D02*
X4775D01*
X4826Y5994D01*
X4428Y6075D02*
Y6138D01*
Y6075D02*
X4458Y6045D01*
X5144Y6769D02*
X5211Y6837D01*
X4877Y6769D02*
X5144D01*
X5211Y6837D02*
X5403D01*
X5108Y6887D02*
X5182D01*
X5077Y6851D02*
Y6857D01*
X5022Y6851D02*
Y6923D01*
X4966Y6851D02*
Y6923D01*
X4910Y6851D02*
Y6923D01*
X4854Y6873D02*
Y6923D01*
X4798Y6873D02*
Y6923D01*
X4742Y6901D02*
Y6923D01*
X4686Y6901D02*
Y6923D01*
X4630Y6917D02*
Y6923D01*
X4585Y6887D02*
X4600D01*
X5182D02*
X5403D01*
X4505D02*
X4585D01*
X4407Y6985D02*
X4505Y6887D01*
X4326Y7001D02*
X4342Y6985D01*
X4407D01*
X4801Y6769D02*
X4877D01*
X4770Y6800D02*
Y6805D01*
X4714Y6734D02*
Y6805D01*
X4658Y6734D02*
Y6805D01*
X4602Y6734D02*
Y6805D01*
X4547Y6734D02*
Y6805D01*
X4491Y6800D02*
Y6805D01*
X4445Y6769D02*
X4460D01*
X4420Y6794D02*
X4445Y6769D01*
X4362Y6934D02*
X4420Y6877D01*
Y6794D02*
Y6877D01*
X5062Y6655D02*
X5112D01*
X5032Y6624D02*
Y6624D01*
X4976Y6624D02*
Y6679D01*
X4920Y6619D02*
Y6679D01*
X4864Y6619D02*
Y6690D01*
X4808Y6685D02*
Y6690D01*
X4762Y6655D02*
X4778D01*
X4305D02*
X4762D01*
X4283Y6678D02*
Y6832D01*
Y6678D02*
X4305Y6655D01*
X4248Y6610D02*
X4318Y6540D01*
X4223Y6610D02*
X4248D01*
X4128Y6576D02*
Y6655D01*
X4171Y6558D02*
X4223Y6610D01*
X4145Y6558D02*
X4171D01*
X4128Y6576D02*
X4145Y6558D01*
X4318Y6540D02*
X5080D01*
X4128Y6655D02*
X4229Y6756D01*
X4064Y6553D02*
X4128Y6490D01*
X5080Y6540D02*
X5276Y6737D01*
X4001Y6540D02*
X4102Y6439D01*
X4001Y6540D02*
Y6711D01*
X4102Y6439D02*
X5144D01*
X4001Y6711D02*
X4096Y6807D01*
X4064Y6655D02*
X4179Y6770D01*
X4064Y6553D02*
Y6655D01*
X5105Y6490D02*
X5253Y6637D01*
X4128Y6490D02*
X5105D01*
X5144Y6439D02*
X5292Y6587D01*
X5116Y6987D02*
X5403D01*
X5017Y7087D02*
X5116Y6987D01*
X4229Y6756D02*
Y6814D01*
X4166Y6877D02*
X4229Y6814D01*
X4202Y6913D02*
X4283Y6832D01*
X5276Y6737D02*
X5403D01*
X5244Y6787D02*
X5403D01*
X5112Y6655D02*
X5244Y6787D01*
X4166Y6877D02*
Y6877D01*
X5156Y7074D02*
X5194Y7036D01*
X5403Y7037D02*
X5403Y7037D01*
X5335Y7037D02*
X5403D01*
X5334Y7036D02*
X5335Y7037D01*
X5194Y7036D02*
X5334D01*
X4274Y6984D02*
X4324Y6934D01*
X4362D01*
X4308Y7018D02*
X4326Y7001D01*
X5253Y6637D02*
X5403D01*
X5292Y6587D02*
X5403D01*
X4132Y6842D02*
X4179Y6795D01*
Y6770D02*
Y6795D01*
X4132Y6842D02*
Y6842D01*
X4064Y7442D02*
X4105Y7401D01*
X4051Y7747D02*
X4206D01*
X3882Y7304D02*
X3900Y7286D01*
X3900D01*
X3970Y7356D02*
Y7356D01*
Y7356D02*
X4051Y7275D01*
X3910Y7736D02*
X3912Y7734D01*
X3735Y7736D02*
X3910D01*
X3734Y7737D02*
X3735Y7736D01*
X3912Y7487D02*
X4006Y7392D01*
X3912Y7487D02*
Y7734D01*
X4064Y7506D02*
X4204Y7645D01*
Y7744D02*
X4206Y7747D01*
X4204Y7645D02*
Y7744D01*
Y7750D02*
X4206Y7747D01*
X4205Y7926D02*
X4206Y7925D01*
X4205Y7926D02*
Y8103D01*
X4204Y7922D02*
X4206Y7925D01*
X4204Y7750D02*
Y7922D01*
X4064Y7442D02*
Y7506D01*
X4096Y7392D02*
X4105Y7401D01*
Y7401D01*
X4547Y5017D02*
Y5029D01*
X4540Y5036D02*
X4547Y5029D01*
X4540Y5036D02*
Y5177D01*
X4534Y5183D02*
X4540Y5177D01*
X3974Y5461D02*
X4140D01*
X3956Y5443D02*
X3974Y5461D01*
X3956Y5304D02*
Y5443D01*
X4140Y5461D02*
X4153Y5448D01*
X4520Y5372D02*
X4534Y5358D01*
X4458Y5372D02*
X4520D01*
X4369Y5461D02*
X4458Y5372D01*
X4212Y5847D02*
X4217Y5842D01*
X4305D01*
X4369Y5906D01*
X4508D01*
X4214Y6043D02*
X4216Y6045D01*
X4214Y5849D02*
Y6043D01*
X4212Y5847D02*
X4214Y5849D01*
X4148Y5720D02*
X4216Y5651D01*
X4491D01*
X4511Y5550D02*
Y5728D01*
X4491Y5707D02*
X4511Y5728D01*
X4148Y5720D02*
Y5847D01*
X4212Y5304D02*
X4272D01*
X4393Y5183D02*
X4534D01*
X4272Y5304D02*
X4393Y5183D01*
X4148Y5304D02*
X4153Y5308D01*
Y5448D01*
X3875Y4691D02*
X3893Y4674D01*
X3976D01*
X3875Y4691D02*
Y4851D01*
X3656Y4713D02*
Y5029D01*
X3874Y4496D02*
X3976D01*
X3656Y4713D02*
X3874Y4496D01*
X3976Y4318D02*
Y4496D01*
X4151Y4674D02*
X4151Y4674D01*
Y4496D02*
Y4674D01*
Y4496D02*
X4151Y4496D01*
X4050Y4851D02*
X4140Y4942D01*
X4084Y5174D02*
X4140Y5118D01*
Y4942D02*
Y5118D01*
X3828Y4897D02*
X3829D01*
X3785Y4940D02*
Y5118D01*
Y4940D02*
X3828Y4897D01*
X4084Y5174D02*
Y5304D01*
X3829Y4897D02*
X3875Y4851D01*
X3828Y5162D02*
Y5304D01*
X3785Y5118D02*
X3828Y5162D01*
X4050Y5029D02*
Y5120D01*
X4020Y5149D02*
X4050Y5120D01*
X4020Y5149D02*
Y5304D01*
X3875Y5029D02*
Y5132D01*
X3892Y5150D02*
Y5304D01*
X3875Y5132D02*
X3892Y5150D01*
X3656Y5029D02*
X3670Y5043D01*
Y5131D01*
X3700Y5161D02*
Y5304D01*
X3670Y5131D02*
X3700Y5161D01*
X3302Y5347D02*
X3345Y5304D01*
X3224Y5347D02*
X3302D01*
X3345Y5304D02*
X3636D01*
X3764D02*
Y5469D01*
X3708Y5525D02*
X3764Y5469D01*
X3224Y5525D02*
X3708D01*
X3224Y5702D02*
X3224Y5702D01*
X3224Y5525D02*
Y5702D01*
X3224Y5525D02*
X3224Y5525D01*
X3696Y5982D02*
X3746D01*
X3700Y5847D02*
Y5977D01*
X3696Y5982D02*
X3700Y5977D01*
X3224Y6058D02*
X3224Y6058D01*
Y5880D02*
Y6058D01*
Y5880D02*
X3224Y5880D01*
X3764Y5847D02*
Y5964D01*
X3746Y5982D02*
X3764Y5964D01*
X3708Y6312D02*
X3861D01*
X3956Y6216D01*
Y5847D02*
Y6216D01*
X3708Y6109D02*
X3835D01*
X3892Y5847D02*
Y6052D01*
X3835Y6109D02*
X3892Y6052D01*
X3315Y6210D02*
X3416Y6109D01*
X3111Y6210D02*
X3315D01*
X2985Y6337D02*
X3111Y6210D01*
X2985Y6337D02*
Y6440D01*
X3162Y6440D02*
X3162Y6440D01*
X3162Y6363D02*
Y6440D01*
X3213Y6312D02*
X3533D01*
X3162Y6363D02*
X3213Y6312D01*
X3416Y6109D02*
X3533D01*
X3188Y6731D02*
Y6833D01*
X3162Y6615D02*
Y6706D01*
X3188Y6731D01*
X2985Y6615D02*
Y6693D01*
X2959Y6718D02*
X2985Y6693D01*
X2959Y6718D02*
Y6833D01*
X3023Y7430D02*
X3151D01*
X2959Y7366D02*
X3023Y7430D01*
X2959Y7013D02*
Y7366D01*
X3188Y7013D02*
X3200Y7025D01*
Y7112D01*
X3152Y7160D02*
Y7252D01*
Y7160D02*
X3200Y7112D01*
X3645Y6998D02*
X3702D01*
X3759Y7054D01*
X3708Y6932D02*
X3794Y7018D01*
X3708Y6655D02*
Y6932D01*
X3794Y7018D02*
Y7018D01*
D101*
X6096Y3810D02*
Y4216D01*
X5842Y4405D02*
X5850Y4397D01*
X5915D01*
X6096Y4216D01*
Y3556D02*
Y3810D01*
X5194Y5690D02*
X5460Y5955D01*
X5510D01*
X5512Y5956D01*
X6096Y3226D02*
X8280D01*
X3912D02*
X6096D01*
Y3556D01*
X8382D02*
Y3810D01*
Y3327D02*
Y3556D01*
X3810D02*
Y3810D01*
Y3327D02*
Y3556D01*
Y3327D02*
X3912Y3226D01*
X8280D02*
X8382Y3327D01*
D102*
X4205Y8304D02*
Y8940D01*
X3696Y9003D02*
Y9258D01*
X3116Y9385D02*
X3569D01*
X3086Y9119D02*
Y9356D01*
X3343Y7620D02*
Y7882D01*
X4683Y5388D02*
Y5906D01*
X3099Y3937D02*
X3157Y3879D01*
X3061Y3975D02*
X3099Y3937D01*
X5639Y9360D02*
Y9512D01*
X5404Y3999D02*
Y4318D01*
X3524Y9658D02*
X3531Y9651D01*
X2903Y8491D02*
Y9213D01*
X9474Y8826D02*
X9601Y8700D01*
X9692D01*
X9867Y8534D02*
X10109D01*
X10203Y8440D02*
X10224D01*
X10109Y8534D02*
X10203Y8440D01*
X4380Y8839D02*
Y8940D01*
Y8787D02*
Y8839D01*
X4483D02*
X4496Y8852D01*
X4380Y8839D02*
X4483D01*
X5194Y8915D02*
X5201Y8922D01*
X5550D01*
X6998Y7341D02*
X7163D01*
X6566Y6909D02*
X6998Y7341D01*
X5753Y6909D02*
X6566D01*
X6389Y8700D02*
X6390Y8700D01*
X6389Y8700D02*
Y8864D01*
X6388Y8865D02*
X6389Y8864D01*
X5210Y9261D02*
X5462D01*
X5842Y4051D02*
X5842Y4051D01*
Y4230D01*
X5404Y3999D02*
X5449D01*
X5350D02*
X5404D01*
X5449D02*
X5464Y4013D01*
X5327Y3975D02*
X5350Y3999D01*
X5321Y3975D02*
X5327D01*
X8445Y6388D02*
X8446Y6388D01*
X8304Y6388D02*
X8445D01*
X8031Y6289D02*
X8129Y6388D01*
X8031Y6121D02*
Y6289D01*
X8030Y6122D02*
X8031Y6121D01*
X7798Y6122D02*
X8030D01*
X7798Y6123D02*
X7798Y6122D01*
X4039Y8280D02*
X4063Y8304D01*
X3912Y8153D02*
X4039Y8280D01*
X9728Y4620D02*
X9737Y4629D01*
X10096D01*
X9860Y6651D02*
X10235D01*
X7366Y9843D02*
Y10109D01*
Y9589D02*
Y9843D01*
X5207Y9261D02*
X5210D01*
X5462D02*
Y9358D01*
Y9164D02*
Y9261D01*
X5207Y9258D02*
X5210Y9261D01*
X4991Y8064D02*
X5042Y8115D01*
X4597Y7925D02*
X4737Y8064D01*
X4991D01*
X4381Y7925D02*
X4597D01*
X4674Y8115D02*
X4737Y8179D01*
X4393Y8115D02*
X4674D01*
X4380Y8103D02*
X4393Y8115D01*
X4380D02*
Y8304D01*
X4381Y7747D02*
Y7925D01*
X4063Y8304D02*
X4205D01*
X3912Y7909D02*
Y8153D01*
X3734Y7912D02*
X3909D01*
X3373D02*
X3734D01*
X3909D02*
X3912Y7909D01*
X3343Y7882D02*
X3373Y7912D01*
X3533Y6655D02*
Y6759D01*
X3556Y6782D01*
X2756Y6058D02*
Y7938D01*
Y5740D02*
Y6058D01*
X2946Y5880D02*
X3049D01*
X2883Y5944D02*
X2946Y5880D01*
X3049Y5347D02*
Y5525D01*
Y5064D02*
Y5347D01*
X3014Y5029D02*
X3049Y5064D01*
X2995Y5010D02*
X3014Y5029D01*
X2901Y5010D02*
X2995D01*
X2756Y7938D02*
X2946Y8128D01*
X3759Y8369D02*
Y8496D01*
X3518Y8128D02*
X3759Y8369D01*
X2946Y8128D02*
X3518D01*
X4534Y5358D02*
X4654D01*
X4683Y5388D01*
X3157Y3778D02*
Y3879D01*
Y3588D02*
Y3778D01*
X2901Y4160D02*
X3006D01*
X3061Y4105D01*
Y3975D02*
Y4105D01*
X4151Y4140D02*
X4152Y4140D01*
X4151Y4140D02*
Y4318D01*
X4151Y4318D02*
X4151Y4318D01*
X3397Y3683D02*
X3409D01*
X3414Y3688D01*
Y3700D01*
X3681Y3967D01*
Y4214D01*
X3683Y4077D02*
X3810D01*
X3874Y4140D02*
X3977D01*
X3810Y4077D02*
X3874Y4140D01*
X3378Y4217D02*
X3381Y4214D01*
X3378Y4217D02*
Y4331D01*
X2743Y4585D02*
X3124D01*
X3378Y4331D01*
X3049Y6058D02*
X3049Y6058D01*
X2756Y6058D02*
X3049D01*
X2794Y5702D02*
X3049D01*
X2756Y5740D02*
X2794Y5702D01*
X3696Y8828D02*
X3697Y8826D01*
X3696Y8828D02*
Y8828D01*
Y8573D02*
Y8828D01*
Y8573D02*
X3759Y8510D01*
Y8496D02*
Y8510D01*
X3257Y8416D02*
X3531D01*
X3217Y8456D02*
X3257Y8416D01*
X3217Y8456D02*
Y8484D01*
X3177Y8609D02*
Y8814D01*
Y8609D02*
X3217Y8569D01*
Y8484D02*
Y8569D01*
X3697Y8826D02*
X3793D01*
X3823Y8856D02*
Y9284D01*
X3793Y8826D02*
X3823Y8856D01*
X3618Y9488D02*
X3823Y9284D01*
X3531Y9488D02*
X3618D01*
X3531Y9663D02*
X3545Y9649D01*
X3569Y9385D02*
X3696Y9258D01*
X3086Y9356D02*
X3116Y9385D01*
X3048Y8954D02*
Y9081D01*
X3086Y9119D01*
X3048Y8954D02*
X3092Y8910D01*
X3175D02*
X3177Y8908D01*
X3092Y8910D02*
X3175D01*
X3277Y9665D02*
X3284Y9658D01*
X3524D01*
X3531Y8828D02*
X3531Y8828D01*
X3531Y8661D02*
Y8828D01*
X3531Y8661D02*
X3531Y8661D01*
X3531Y8828D02*
X3696D01*
X3531Y8828D02*
X3531Y8828D01*
X3354Y9002D02*
X3530D01*
X3178D02*
X3354D01*
X3366Y9014D02*
Y9222D01*
X3354Y9002D02*
X3366Y9014D01*
X3177Y9002D02*
X3178Y9002D01*
X3530D02*
X3531Y9003D01*
X3111Y9665D02*
X3277D01*
X2910Y9463D02*
X3111Y9665D01*
X2910Y9220D02*
Y9463D01*
X2896Y8484D02*
X2903Y8491D01*
Y9213D02*
X2910Y9220D01*
X7366Y10109D02*
X9550D01*
X5156D02*
X7366D01*
X9652Y9843D02*
Y10008D01*
X9550Y10109D02*
X9652Y10008D01*
X5080Y9843D02*
Y10033D01*
X5156Y10109D01*
X5080Y9589D02*
Y9843D01*
X9692Y8534D02*
Y8700D01*
X9867Y8534D02*
X9867Y8534D01*
X9867Y8700D02*
X9867Y8700D01*
X10223D01*
X10224Y8700D01*
X10312Y9892D02*
X10326Y9906D01*
X10312Y9754D02*
Y9892D01*
X10376Y9690D02*
X10465D01*
X10312Y9754D02*
X10376Y9690D01*
X10431Y9121D02*
X10524D01*
X10554Y9151D01*
Y9601D01*
X10465Y9690D02*
X10554Y9601D01*
X9879Y9334D02*
X9881Y9336D01*
Y9487D01*
X9969Y9576D02*
X10363D01*
X9881Y9487D02*
X9969Y9576D01*
X10401Y9451D02*
X10431Y9421D01*
X10401Y9451D02*
Y9538D01*
X10363Y9576D02*
X10401Y9538D01*
X10268Y9423D02*
X10271Y9421D01*
X10058Y9373D02*
X10109Y9423D01*
X10268D01*
X10058Y9258D02*
Y9373D01*
X9969Y9169D02*
X10058Y9258D01*
X9879Y9169D02*
X9969D01*
X10112Y9121D02*
X10271D01*
X9995Y9004D02*
X10112Y9121D01*
X9879Y9004D02*
X9995D01*
X10326Y9906D02*
X10326Y9906D01*
X10109Y9906D02*
X10326D01*
X9652Y9843D02*
X10046D01*
X10109Y9906D01*
X9652Y9589D02*
Y9843D01*
X10501Y9906D02*
X10514Y9893D01*
X10579D01*
X10668Y8890D02*
Y9804D01*
X10579Y9893D02*
X10668Y9804D01*
X10478Y8700D02*
X10668Y8890D01*
X10478Y8440D02*
Y8700D01*
X5550Y8922D02*
X5822D01*
X5842Y8942D01*
X5639Y9162D02*
X5797D01*
X5842Y9117D01*
X5639Y9360D02*
X5639Y9360D01*
Y9162D02*
Y9360D01*
Y9162D02*
X5639Y9162D01*
X5462Y9358D02*
X5464Y9360D01*
X5461Y9162D02*
X5462Y9164D01*
X5644Y4407D02*
X5645Y4406D01*
X5841D01*
X5842Y4405D01*
X5644Y4229D02*
X5645Y4230D01*
X5642Y4226D02*
X5644Y4229D01*
X5841Y4230D02*
X5842Y4230D01*
X5645Y4230D02*
X5841D01*
X5642Y4016D02*
Y4226D01*
X5639Y4013D02*
X5642Y4016D01*
X4292Y8749D02*
X4294Y8750D01*
X4343D01*
X4380Y8787D01*
X4381Y8508D02*
X4381Y8509D01*
X4381Y8305D02*
Y8508D01*
X4380Y8304D02*
X4381Y8305D01*
X4205Y8304D02*
X4205Y8304D01*
Y8940D02*
X4205Y8940D01*
D103*
X2901Y4160D02*
X2901Y4160D01*
D104*
X10407Y7539D02*
D03*
Y6558D02*
D03*
D105*
X10157Y6383D02*
D03*
X10197Y7158D02*
D03*
X10157Y7714D02*
D03*
X10493D02*
D03*
Y6383D02*
D03*
D106*
X10149Y4265D02*
D03*
Y5254D02*
D03*
D107*
X10549Y4265D02*
D03*
Y5254D02*
D03*
D108*
X10224Y8700D02*
D03*
Y8440D02*
D03*
X7747Y3683D02*
D03*
X8001D02*
D03*
X5080Y3556D02*
D03*
X4826Y3810D02*
D03*
X4572D02*
D03*
X4318D02*
D03*
X4064D02*
D03*
X3810D02*
D03*
X4826Y3556D02*
D03*
X4572D02*
D03*
X4318D02*
D03*
X4064D02*
D03*
X3810D02*
D03*
X6096D02*
D03*
X6350D02*
D03*
X6604D02*
D03*
X6858D02*
D03*
X7112D02*
D03*
X6096Y3810D02*
D03*
X6350D02*
D03*
X6604D02*
D03*
X6858D02*
D03*
X7112D02*
D03*
X7366Y3556D02*
D03*
X8382D02*
D03*
X8636D02*
D03*
X8890D02*
D03*
X9144D02*
D03*
X9398D02*
D03*
X8382Y3810D02*
D03*
X8636D02*
D03*
X8890D02*
D03*
X9144D02*
D03*
X9398D02*
D03*
X9652Y3556D02*
D03*
X5080Y9843D02*
D03*
X4826D02*
D03*
X4572D02*
D03*
X4318D02*
D03*
X4064D02*
D03*
X5080Y9589D02*
D03*
X4826D02*
D03*
X4572D02*
D03*
X4318D02*
D03*
X4064D02*
D03*
X3810Y9843D02*
D03*
X7366D02*
D03*
X7112D02*
D03*
X6858D02*
D03*
X6604D02*
D03*
X6350D02*
D03*
X7366Y9589D02*
D03*
X7112D02*
D03*
X6858D02*
D03*
X6604D02*
D03*
X6350D02*
D03*
X6096Y9843D02*
D03*
X9652D02*
D03*
X9398D02*
D03*
X9144D02*
D03*
X8890D02*
D03*
X8636D02*
D03*
X9652Y9589D02*
D03*
X9398D02*
D03*
X9144D02*
D03*
X8890D02*
D03*
X8636D02*
D03*
X8382Y9843D02*
D03*
X3277Y9919D02*
D03*
D109*
X10478Y8700D02*
D03*
Y8440D02*
D03*
X5080Y3810D02*
D03*
X7366D02*
D03*
X9652D02*
D03*
X3810Y9589D02*
D03*
X6096D02*
D03*
X8382D02*
D03*
D110*
X7747Y3937D02*
D03*
X8001D02*
D03*
X3277Y9665D02*
D03*
D111*
X10478Y2921D02*
D03*
Y10478D02*
D03*
X2921D02*
D03*
Y2921D02*
D03*
D112*
X7968Y4818D02*
D03*
X7790Y6002D02*
D03*
X7650Y6000D02*
D03*
X8103Y4917D02*
D03*
X8100Y5065D02*
D03*
X7973Y4564D02*
D03*
X7920Y4409D02*
D03*
X8039Y4732D02*
D03*
X7938Y4178D02*
D03*
X9619Y7846D02*
D03*
X9665Y4826D02*
D03*
X9555Y4843D02*
D03*
X5194Y5690D02*
D03*
X5512Y5956D02*
D03*
X7379Y7747D02*
D03*
X8704Y5805D02*
D03*
X9855Y7861D02*
D03*
X5220Y7366D02*
D03*
X9881Y4115D02*
D03*
X5639Y9512D02*
D03*
X3099Y3937D02*
D03*
X9474Y8839D02*
D03*
X9258Y7760D02*
D03*
X8785Y8093D02*
D03*
X6350Y6337D02*
D03*
X4508Y8852D02*
D03*
X5194Y8915D02*
D03*
X3696Y9131D02*
D03*
X3277Y5029D02*
D03*
X5753Y6909D02*
D03*
X6388Y8865D02*
D03*
X5321Y9258D02*
D03*
X7252Y7849D02*
D03*
X7163Y7341D02*
D03*
X7252Y8014D02*
D03*
X5994D02*
D03*
X6250D02*
D03*
X5842Y4051D02*
D03*
X5321Y3975D02*
D03*
X8611Y5715D02*
D03*
X8598Y5575D02*
D03*
X8497Y5944D02*
D03*
X8458Y6388D02*
D03*
X9169Y5397D02*
D03*
X7988Y6363D02*
D03*
X7362Y7286D02*
D03*
X7175Y6223D02*
D03*
X7358Y6790D02*
D03*
X6597Y6218D02*
D03*
X8509Y4775D02*
D03*
X9322Y5258D02*
D03*
X9449Y4959D02*
D03*
X7529Y5395D02*
D03*
X7219Y5657D02*
D03*
X7940Y5347D02*
D03*
X6924Y5817D02*
D03*
X6840Y5852D02*
D03*
X7419Y4935D02*
D03*
X7216Y5799D02*
D03*
X7764Y4762D02*
D03*
X6364Y5399D02*
D03*
X8682Y5202D02*
D03*
X9726Y4618D02*
D03*
X8799Y5204D02*
D03*
X8865Y5532D02*
D03*
X8941Y5210D02*
D03*
X9401Y5050D02*
D03*
X9398Y5146D02*
D03*
X9698Y6132D02*
D03*
X9246Y5878D02*
D03*
X9248Y6015D02*
D03*
X9860Y6650D02*
D03*
X9139Y6739D02*
D03*
X8909Y6757D02*
D03*
X9384Y6968D02*
D03*
X9525Y7163D02*
D03*
X9373Y6870D02*
D03*
X9319Y6787D02*
D03*
X9225D02*
D03*
X9512Y7252D02*
D03*
X9563Y7036D02*
D03*
X9512Y7341D02*
D03*
X8966Y4699D02*
D03*
X9373Y4877D02*
D03*
X9500Y7506D02*
D03*
X8636Y6947D02*
D03*
X9169Y7188D02*
D03*
X8865D02*
D03*
X9017Y7303D02*
D03*
X8865Y7417D02*
D03*
X9169D02*
D03*
X8407Y7087D02*
D03*
X7709Y7023D02*
D03*
X8318Y7328D02*
D03*
X7785Y7175D02*
D03*
X8306Y7544D02*
D03*
X8413Y7654D02*
D03*
X8433Y7518D02*
D03*
X7861D02*
D03*
X7734D02*
D03*
X7709Y7239D02*
D03*
X8552Y7544D02*
D03*
X7366Y7582D02*
D03*
Y7137D02*
D03*
Y6947D02*
D03*
X8471Y7303D02*
D03*
X8534Y7226D02*
D03*
X8915Y7836D02*
D03*
X6655Y8014D02*
D03*
X5182Y7760D02*
D03*
X6049Y6219D02*
D03*
X5753Y6210D02*
D03*
X5588Y6540D02*
D03*
X5575Y6680D02*
D03*
Y7734D02*
D03*
X5042Y8115D02*
D03*
X3569Y6782D02*
D03*
X4928Y6007D02*
D03*
X2870Y5969D02*
D03*
X4178Y5575D02*
D03*
X5232Y6045D02*
D03*
X3404Y5982D02*
D03*
X3454Y6464D02*
D03*
X5017Y7087D02*
D03*
X5156Y7074D02*
D03*
X4343Y6845D02*
D03*
X4051Y7747D02*
D03*
X4254Y7455D02*
D03*
X4191Y7099D02*
D03*
X4051Y6960D02*
D03*
Y7239D02*
D03*
X3912Y7099D02*
D03*
X3797Y6807D02*
D03*
X3721Y7429D02*
D03*
X3670Y7188D02*
D03*
X3848Y5550D02*
D03*
X3645Y6998D02*
D03*
X4039Y8280D02*
D03*
M02*
