M48
;Layer_Color=9474304
;FILE_FORMAT=4:2
METRIC,LZ
;TYPE=PLATED
T1F00S00C0.41
T2F00S00C0.90
T3F00S00C1.25
T4F00S00C1.62
T5F00S00C1.90
;TYPE=NON_PLATED
T6F00S00C1.00
T7F00S00C3.20
%
T01
X003099Y003937
X007938Y004178
X007973Y004564
X008039Y004732
X007968Y004818
X008103Y004917
X0081Y005065
X00794Y005347
X008598Y005575
X008611Y005715
X008704Y005805
X008497Y005944
X008458Y006388
X007988Y006363
X008407Y007087
X008534Y007226
X008471Y007303
X008318Y007328
X008306Y007544
X008433Y007518
X008552Y007544
X008413Y007654
X008915Y007836
X009258Y00776
X009169Y007417
Y007188
X009017Y007303
X008865Y007188
Y007417
X008636Y006947
X008909Y006757
X009139Y006739
X009225Y006787
X009319
X009373Y00687
X009384Y006968
X009563Y007036
X009525Y007163
X009512Y007252
Y007341
X0095Y007506
X009619Y007846
X009855Y007861
X00986Y00665
X009698Y006132
X009248Y006015
X009246Y005878
X009169Y005397
X009322Y005258
X009398Y005146
X009401Y00505
X009449Y004959
X009373Y004877
X009555Y004843
X009665Y004826
X009726Y004618
X009881Y004115
X008966Y004699
X008509Y004775
X008682Y005202
X008799Y005204
X008941Y00521
X008865Y005532
X007529Y005395
X007419Y004935
X007764Y004762
X00792Y004409
X00779Y006002
X00765Y006
X007216Y005799
X007219Y005657
X006924Y005817
X00684Y005852
X006597Y006218
X00635Y006337
X006049Y006219
X005753Y00621
X005512Y005956
X005232Y006045
X004928Y006007
X005194Y00569
X004178Y005575
X004343Y006845
X004191Y007099
X004051Y00696
Y007239
X004254Y007455
X004051Y007747
X005182Y00776
X005575Y007734
X00522Y007366
X005156Y007074
X005017Y007087
X005753Y006909
X005575Y00668
X005588Y00654
X007175Y006223
X007358Y00679
X007366Y006947
Y007137
X007362Y007286
X007163Y007341
X007366Y007582
X007379Y007747
X007252Y007849
X007734Y007518
X007861
X007785Y007175
X007709Y007239
Y007023
X006364Y005399
X005842Y004051
X005321Y003975
X003848Y00555
X003404Y005982
X003454Y006464
X003569Y006782
X003797Y006807
X003645Y006998
X00367Y007188
X003721Y007429
X003912Y007099
X00287Y005969
X003277Y005029
X003696Y009131
X004508Y008852
X005194Y008915
X005321Y009258
X005639Y009512
X006388Y008865
X00625Y008014
X005994
X006655
X007252
X005042Y008115
X004039Y00828
X008785Y008093
X009474Y008839
T02
X00381Y003556
Y00381
X004064
X004318
X004572
X004826
X00508
Y003556
X004826
X004572
X004318
X004064
X006096
X00635
X006604
X006858
X007112
Y00381
X006858
X006604
X00635
X006096
X007366
Y003556
X007747Y003683
Y003937
X008001
Y003683
X008382Y003556
X008636
X00889
X009144
X009398
Y00381
X009144
X00889
X008636
X008382
X009652
Y003556
X00381Y009589
Y009843
X003277Y009919
Y009665
X004064Y009589
Y009843
X004318
X004572
X004826
X00508
Y009589
X004826
X004572
X004318
X006096
X00635
Y009843
X006604
X006858
X007112
X007366
Y009589
X007112
X006858
X006604
X006096Y009843
X008382
X008636
X00889
X009144
X009398
X009652
Y009589
X009398
X009144
X00889
X008636
X008382
X010224Y0087
X010478
Y00844
X010224
T03
X010157Y006383
X010493
X010197Y007158
X010157Y007714
X010493
T04
X010149Y004265
Y005254
T05
X010549Y004265
Y005254
T06
X010407Y006558
Y007539
T07
X002921Y002921
X010478
X002921Y010478
X010478
M30
