G04*
G04 #@! TF.GenerationSoftware,Altium Limited,Altium Designer,20.2.5 (213)*
G04*
G04 Layer_Color=65535*
%FSLAX42Y42*%
%MOMM*%
G71*
G04*
G04 #@! TF.SameCoordinates,314019C8-8427-4676-9664-B8FEBD72C539*
G04*
G04*
G04 #@! TF.FilePolarity,Positive*
G04*
G01*
G75*
%ADD10C,0.25*%
%ADD11C,0.20*%
%ADD12C,0.02*%
%ADD13C,0.25*%
%ADD14C,0.10*%
%ADD15C,0.12*%
%ADD16C,0.15*%
%ADD17C,0.15*%
%ADD18C,0.18*%
%ADD19C,0.16*%
D10*
X5367Y8062D02*
G03*
X5367Y8062I-12J0D01*
G01*
X9125Y5426D02*
G03*
X9125Y5426I-12J0D01*
G01*
X3308Y4201D02*
G03*
X3308Y4201I-12J0D01*
G01*
D11*
X8707Y6915D02*
G03*
X8707Y6915I-10J0D01*
G01*
X10105Y6639D02*
G03*
X10105Y6649I0J5D01*
G01*
D02*
G03*
X10105Y6639I0J-5D01*
G01*
D02*
G03*
X10105Y6649I0J5D01*
G01*
X10004Y4629D02*
G03*
X9983Y4629I-10J0D01*
G01*
D02*
G03*
X10004Y4629I10J0D01*
G01*
X5512Y6147D02*
Y8077D01*
Y6147D02*
X7442D01*
Y8077D01*
X5512D02*
X7442D01*
X9078Y4638D02*
Y5268D01*
X8448Y4638D02*
X9078D01*
X8448D02*
Y5268D01*
X9078D01*
X9505Y5760D02*
X9545D01*
X9505D02*
Y6051D01*
X9545D01*
Y5760D02*
Y6051D01*
X9580Y5746D02*
X9720D01*
X7333Y5325D02*
X7653D01*
Y4835D02*
Y5325D01*
X7333Y4835D02*
X7653D01*
X7333D02*
Y5325D01*
X7146Y5338D02*
X7298D01*
X2451Y4109D02*
Y5061D01*
X2616Y4698D02*
Y5061D01*
X2126Y4851D02*
X2164Y4829D01*
X2105Y4894D02*
X2126Y4856D01*
X2091Y4894D02*
X2105D01*
X2070Y4856D02*
X2091Y4894D01*
X2049D02*
X2070Y4856D01*
X2035Y4894D02*
X2049D01*
X2014Y4856D02*
X2035Y4894D01*
X1993D02*
X2014Y4856D01*
X1979Y4894D02*
X1993D01*
X1958Y4856D02*
X1979Y4894D01*
X1937D02*
X1958Y4856D01*
X1923Y4894D02*
X1937D01*
X1902Y4856D02*
X1923Y4894D01*
X1881D02*
X1902Y4856D01*
X1867Y4894D02*
X1881D01*
X1846Y4856D02*
X1867Y4894D01*
X1825D02*
X1846Y4856D01*
X1811Y4894D02*
X1825D01*
X1790Y4856D02*
X1811Y4894D01*
X1769D02*
X1790Y4856D01*
X1755Y4894D02*
X1769D01*
X1734Y4856D02*
X1755Y4894D01*
X1734Y4318D02*
Y4856D01*
Y4318D02*
X1755Y4275D01*
X1769D01*
X1790Y4313D01*
X1811Y4275D01*
X1825D01*
X1846Y4313D01*
X1867Y4275D01*
X1881D01*
X1902Y4313D01*
X1923Y4275D01*
X1937D01*
X1958Y4313D01*
X1979Y4275D01*
X1993D01*
X2014Y4313D01*
X2035Y4275D01*
X2049D01*
X2070Y4313D01*
X2091Y4275D01*
X2105D01*
X2126Y4313D01*
Y4856D01*
Y4318D02*
X2164Y4339D01*
Y4339D02*
Y4829D01*
X2451D01*
X1663Y4851D02*
X1734D01*
X1663Y4318D02*
Y4851D01*
Y4318D02*
X1734D01*
X2164Y4339D02*
X2451D01*
X2049Y4275D02*
X2105Y4894D01*
X2035Y4275D02*
X2091Y4894D01*
X2014Y4313D02*
X2070Y4856D01*
Y4313D02*
X2126Y4856D01*
X2105Y4275D02*
X2126Y4851D01*
X2091Y4275D02*
X2126Y4856D01*
X1993Y4275D02*
X2049Y4894D01*
X1979Y4275D02*
X2035Y4894D01*
X1958Y4313D02*
X2014Y4856D01*
X1937Y4275D02*
X1993Y4894D01*
X1923Y4275D02*
X1979Y4894D01*
X1902Y4313D02*
X1958Y4856D01*
X1881Y4275D02*
X1937Y4894D01*
X1867Y4275D02*
X1923Y4894D01*
X1846Y4313D02*
X1902Y4856D01*
X1825Y4275D02*
X1881Y4894D01*
X1811Y4275D02*
X1867Y4894D01*
X1790Y4313D02*
X1846Y4856D01*
X1769Y4275D02*
X1825Y4894D01*
X1755Y4275D02*
X1811Y4894D01*
X1734Y4318D02*
X1790Y4856D01*
X1734Y4318D02*
X1769Y4894D01*
X1734Y4318D02*
X1755Y4894D01*
X2451Y5061D02*
X2616D01*
X2451Y4109D02*
X2616D01*
Y4471D01*
X10490Y9226D02*
Y9316D01*
X10211Y9226D02*
Y9316D01*
X5602Y4174D02*
X5687D01*
X5567Y4173D02*
Y4463D01*
X5482D02*
X5567D01*
X5482Y4173D02*
Y4463D01*
Y4173D02*
X5567D01*
X5694Y9120D02*
Y9205D01*
X5405Y9085D02*
X5695D01*
X5405Y9000D02*
Y9085D01*
Y9000D02*
X5695D01*
Y9085D01*
X4147Y8586D02*
Y8671D01*
X4438D01*
Y8586D02*
Y8671D01*
X4147Y8586D02*
X4438D01*
X4149Y8467D02*
Y8551D01*
X3114Y3833D02*
X3199D01*
X3234Y3538D02*
Y3828D01*
Y3538D02*
X3319D01*
Y3828D01*
X3234D02*
X3319D01*
X3579Y5228D02*
Y5380D01*
X3492Y5415D02*
X4357D01*
Y5736D01*
X3492D02*
X4357D01*
X3492Y5415D02*
Y5736D01*
X3666Y4526D02*
X3761D01*
Y4266D02*
Y4526D01*
X3301D02*
X3396D01*
X3301Y4266D02*
Y4526D01*
X4798Y6081D02*
X4938D01*
X4763Y6086D02*
Y6386D01*
X4533D02*
X4763D01*
X4533Y6086D02*
Y6386D01*
Y6086D02*
X4763D01*
D12*
X10269Y9007D02*
G03*
X10269Y9006I0J-1D01*
G01*
D02*
G03*
X10269Y9007I0J1D01*
G01*
D13*
X9063Y6203D02*
G03*
X9063Y6203I-6J0D01*
G01*
X10592Y8572D02*
Y8826D01*
X10096Y8572D02*
Y8826D01*
X10109Y8572D02*
X10592D01*
X10109Y8826D02*
X10592D01*
Y8313D02*
Y8567D01*
X10096Y8313D02*
Y8567D01*
X10109Y8313D02*
X10592D01*
X10109Y8567D02*
X10592D01*
X7620Y4051D02*
X7874D01*
X7620Y3556D02*
X7874D01*
Y3569D02*
Y4051D01*
X7620Y3569D02*
Y4051D01*
X7874D02*
X8128D01*
X7874Y3556D02*
X8128D01*
Y3569D02*
Y4051D01*
X7874Y3569D02*
Y4051D01*
X9196Y6253D02*
X9346D01*
X9196Y6574D02*
X9346D01*
X5207Y2540D02*
Y3429D01*
X3683D02*
X5207D01*
X3683Y2540D02*
Y3429D01*
Y2540D02*
X5207D01*
X5969D02*
X7493D01*
X5969D02*
Y3429D01*
X7493D01*
Y2540D02*
Y3429D01*
X8255Y2540D02*
X9779D01*
X8255D02*
Y3429D01*
X9779D01*
Y2540D02*
Y3429D01*
X3683Y10858D02*
X5207D01*
Y9969D02*
Y10858D01*
X3683Y9969D02*
X5207D01*
X3683D02*
Y10858D01*
X5969D02*
X7493D01*
Y9969D02*
Y10858D01*
X5969Y9969D02*
X7493D01*
X5969D02*
Y10858D01*
X8255D02*
X9779D01*
Y9969D02*
Y10858D01*
X8255Y9969D02*
X9779D01*
X8255D02*
Y10858D01*
X3150Y9550D02*
X3404D01*
X3150Y10046D02*
X3404D01*
X3150Y9550D02*
Y10033D01*
X3404Y9550D02*
Y10033D01*
X7587Y2681D02*
Y2910D01*
X7683D01*
Y2653D02*
Y2910D01*
X7587Y2653D02*
X7683D01*
X7587D02*
Y2681D01*
X7717Y2653D02*
Y2681D01*
Y2653D02*
X7813D01*
Y2910D01*
X7717D02*
X7813D01*
X7717Y2681D02*
Y2910D01*
X7926Y2761D02*
X8157D01*
Y2667D02*
Y2761D01*
X8155Y2664D02*
X8157Y2667D01*
X7898Y2664D02*
X8155D01*
X7898D02*
Y2761D01*
X7926D01*
X7898Y2891D02*
X7926D01*
X7898Y2794D02*
Y2891D01*
Y2794D02*
X8155D01*
X8157Y2797D01*
Y2891D01*
X7926D02*
X8157D01*
X10799Y10444D02*
G03*
X10483Y10801I-316J38D01*
G01*
X10480Y2597D02*
G03*
X10801Y2921I-3J324D01*
G01*
X2597Y2921D02*
G03*
X2921Y2600I324J3D01*
G01*
X2962Y10799D02*
G03*
X2600Y10478I-39J-321D01*
G01*
X2962Y10799D02*
X2962Y10799D01*
X2598Y2921D02*
X2600Y10478D01*
X2921Y2600D02*
X10480Y2597D01*
X2911Y10800D02*
X10483Y10801D01*
X10800Y10444D02*
X10801Y2921D01*
D14*
X7299Y4631D02*
Y4761D01*
Y4631D02*
X7599D01*
Y4761D01*
X7299D02*
X7599D01*
X7310Y4217D02*
Y4347D01*
Y4217D02*
X7610D01*
Y4347D01*
X7310D02*
X7610D01*
X6302Y5658D02*
Y5798D01*
X6602D01*
X6302Y5658D02*
X6602D01*
Y5658D02*
Y5798D01*
X6327Y8439D02*
Y8579D01*
X6627D01*
X6327Y8439D02*
X6627D01*
Y8439D02*
Y8579D01*
X9567Y7245D02*
Y7385D01*
X9867D01*
X9567Y7245D02*
X9867D01*
Y7245D02*
Y7385D01*
X9567Y7423D02*
Y7563D01*
X9867D01*
X9567Y7423D02*
X9867D01*
Y7423D02*
Y7563D01*
X8756Y6288D02*
X8896D01*
X8756D02*
Y6588D01*
X8896Y6288D02*
Y6588D01*
X8756D02*
X8896D01*
X9646Y6263D02*
X9786D01*
X9646D02*
Y6564D01*
X9786Y6263D02*
Y6564D01*
X9646D02*
X9786D01*
X7728Y5628D02*
X7868D01*
X7728D02*
Y5928D01*
X7868Y5628D02*
Y5928D01*
X7728D02*
X7868D01*
X9518Y4104D02*
X9658D01*
X9518D02*
Y4404D01*
X9658Y4104D02*
Y4404D01*
X9518D02*
X9658D01*
X9338Y4104D02*
X9478D01*
X9338D02*
Y4404D01*
X9478Y4104D02*
Y4404D01*
X9338D02*
X9478D01*
X5772Y4168D02*
X5912D01*
X5772D02*
Y4468D01*
X5912Y4168D02*
Y4468D01*
X5772D02*
X5912D01*
X5701Y3943D02*
Y4083D01*
X5401Y3943D02*
X5701D01*
X5401Y4083D02*
X5701D01*
X5401Y3943D02*
Y4083D01*
X5701Y9290D02*
Y9430D01*
X5401Y9290D02*
X5701D01*
X5401Y9430D02*
X5701D01*
X5401Y9290D02*
Y9430D01*
X5772Y8880D02*
X5912D01*
X5772D02*
Y9180D01*
X5912Y8880D02*
Y9180D01*
X5772D02*
X5912D01*
X9632Y5551D02*
Y5691D01*
X9332Y5551D02*
X9632D01*
X9332Y5691D02*
X9632D01*
X9332Y5551D02*
Y5691D01*
X4442Y8235D02*
Y8375D01*
X4142Y8235D02*
X4442D01*
X4142Y8375D02*
X4442D01*
X4142Y8235D02*
Y8375D01*
Y8869D02*
Y9010D01*
Y9010D02*
X4442D01*
X4142Y8869D02*
X4442D01*
Y9010D01*
X10640Y7726D02*
X10772D01*
Y6371D02*
Y7726D01*
X10665Y6371D02*
X10772D01*
X10293Y4360D02*
X10393D01*
X10293Y5160D02*
X10393D01*
X10693Y4360D02*
X10743D01*
Y5160D01*
X10693D02*
X10743D01*
X7981Y5744D02*
X8281D01*
X7981Y6244D02*
X8301D01*
X10264Y9841D02*
X10564D01*
X10264D02*
Y9971D01*
X10564D01*
Y9841D02*
Y9971D01*
X9629Y8764D02*
X9929D01*
Y8635D02*
Y8764D01*
X9629Y8635D02*
X9929D01*
X9629D02*
Y8764D01*
Y8599D02*
X9929D01*
Y8469D02*
Y8599D01*
X9629Y8469D02*
X9929D01*
X9629D02*
Y8599D01*
X6302Y5615D02*
X6602D01*
Y5485D02*
Y5615D01*
X6302Y5485D02*
X6602D01*
X6302D02*
Y5615D01*
X6327Y8764D02*
X6627D01*
Y8635D02*
Y8764D01*
X6327Y8635D02*
X6627D01*
X6327D02*
Y8764D01*
X7733Y6060D02*
Y6360D01*
X7863D01*
Y6060D02*
Y6360D01*
X7733Y6060D02*
X7863D01*
X8067Y6453D02*
X8367D01*
Y6323D02*
Y6453D01*
X8067Y6323D02*
X8367D01*
X8067D02*
Y6453D01*
X9642Y9069D02*
X9942D01*
Y8939D02*
Y9069D01*
X9642Y8939D02*
X9942D01*
X9642D02*
Y9069D01*
X3914Y4248D02*
Y4388D01*
X4214D01*
X3914Y4248D02*
X4214D01*
Y4248D02*
Y4388D01*
X3914Y4426D02*
Y4566D01*
X4214D01*
X3914Y4426D02*
X4214D01*
Y4426D02*
Y4566D01*
X3719Y4959D02*
Y5099D01*
X3419Y4959D02*
X3719D01*
X3419Y5099D02*
X3719D01*
X3419Y4959D02*
Y5099D01*
X4444Y7855D02*
Y7995D01*
X4144Y7855D02*
X4444D01*
X4144Y7995D02*
X4444D01*
X4144Y7855D02*
Y7995D01*
X3287Y5277D02*
Y5417D01*
X2987Y5277D02*
X3287D01*
X2987Y5417D02*
X3287D01*
X2987Y5277D02*
Y5417D01*
X4464Y5121D02*
X4604D01*
X4464D02*
Y5421D01*
X4604Y5121D02*
Y5421D01*
X4464D02*
X4604D01*
X4444Y7677D02*
Y7817D01*
X4144Y7677D02*
X4444D01*
X4144Y7817D02*
X4444D01*
X4144Y7677D02*
Y7817D01*
X9642Y9104D02*
X9942D01*
X9642D02*
Y9234D01*
X9942D01*
Y9104D02*
Y9234D01*
X9642Y9269D02*
X9942D01*
X9642D02*
Y9400D01*
X9942D01*
Y9269D02*
Y9400D01*
X9993Y5555D02*
Y5685D01*
X9693D02*
X9993D01*
X9693Y5555D02*
Y5685D01*
Y5555D02*
X9993D01*
X9187Y5782D02*
Y5912D01*
X8887D02*
X9187D01*
X8887Y5782D02*
Y5912D01*
Y5782D02*
X9187D01*
X9185Y5967D02*
Y6097D01*
X8885D02*
X9185D01*
X8885Y5967D02*
Y6097D01*
Y5967D02*
X9185D01*
X9836Y6066D02*
X9966D01*
X9836Y5766D02*
Y6066D01*
Y5766D02*
X9966D01*
Y6066D01*
X7158Y5546D02*
X7458D01*
Y5416D02*
Y5546D01*
X7158Y5416D02*
X7458D01*
X7158D02*
Y5546D01*
X7706Y5411D02*
X8006D01*
X7706D02*
Y5541D01*
X8006D01*
Y5411D02*
Y5541D01*
X3092Y6378D02*
X3232D01*
X3092D02*
Y6678D01*
X3232Y6378D02*
Y6678D01*
X3092D02*
X3232D01*
X2915Y6378D02*
X3055D01*
X2915D02*
Y6678D01*
X3055Y6378D02*
Y6678D01*
X2915D02*
X3055D01*
X3471Y6585D02*
Y6725D01*
X3771D01*
X3471Y6585D02*
X3771D01*
Y6585D02*
Y6725D01*
X3473Y7489D02*
X3613D01*
Y7189D02*
Y7489D01*
X3473Y7189D02*
Y7489D01*
X3473Y7189D02*
X3613D01*
X3287Y5810D02*
Y5950D01*
X2987Y5810D02*
X3287D01*
X2987Y5950D02*
X3287D01*
X2987Y5810D02*
Y5950D01*
X3287Y5454D02*
Y5594D01*
X2987Y5454D02*
X3287D01*
X2987Y5594D02*
X3287D01*
X2987Y5454D02*
Y5594D01*
X3578Y7715D02*
Y7855D01*
X3278Y7715D02*
X3578D01*
X3278Y7855D02*
X3578D01*
X3278Y7715D02*
Y7855D01*
X3664Y7675D02*
X3804D01*
X3664D02*
Y7975D01*
X3804Y7675D02*
Y7975D01*
X3664D02*
X3804D01*
X3812Y4781D02*
Y4921D01*
X4112D01*
X3812Y4781D02*
X4112D01*
Y4781D02*
Y4921D01*
X3812Y4959D02*
Y5099D01*
X4112D01*
X3812Y4959D02*
X4112D01*
Y4959D02*
Y5099D01*
X3596Y8765D02*
Y9065D01*
X3466Y8765D02*
X3596D01*
X3466D02*
Y9065D01*
X3596D01*
X3431Y9146D02*
Y9446D01*
X3301Y9146D02*
X3431D01*
X3301D02*
Y9446D01*
X3431D01*
X3596Y9426D02*
Y9726D01*
X3466Y9426D02*
X3596D01*
X3466D02*
Y9726D01*
X3596D01*
X4446Y5836D02*
Y5976D01*
X4746D01*
X4446Y5836D02*
X4746D01*
Y5836D02*
Y5976D01*
X4449Y5480D02*
Y5620D01*
X4749D01*
X4449Y5480D02*
X4749D01*
Y5480D02*
Y5620D01*
X3842Y7672D02*
X3982D01*
X3842D02*
Y7972D01*
X3982Y7672D02*
Y7972D01*
X3842D02*
X3982D01*
X2847Y9150D02*
Y9290D01*
X3147D01*
X2847Y9150D02*
X3147D01*
Y9150D02*
Y9290D01*
X3626Y8765D02*
X3766D01*
X3626D02*
Y9065D01*
X3766Y8765D02*
Y9065D01*
X3626D02*
X3766D01*
X2987Y5993D02*
X3287D01*
X2987D02*
Y6123D01*
X3287D01*
Y5993D02*
Y6123D01*
X2987Y5767D02*
X3287D01*
Y5637D02*
Y5767D01*
X2987Y5637D02*
X3287D01*
X2987D02*
Y5767D01*
X3914Y4205D02*
X4214D01*
Y4075D02*
Y4205D01*
X3914Y4075D02*
X4214D01*
X3914D02*
Y4205D01*
X4143Y8168D02*
X4443D01*
Y8038D02*
Y8168D01*
X4143Y8038D02*
X4443D01*
X4143D02*
Y8168D01*
X3914Y4609D02*
X4214D01*
X3914D02*
Y4739D01*
X4214D01*
Y4609D02*
Y4739D01*
X4449Y5793D02*
X4749D01*
Y5663D02*
Y5793D01*
X4449Y5663D02*
X4749D01*
X4449D02*
Y5793D01*
X3471Y6247D02*
X3771D01*
X3471D02*
Y6377D01*
X3771D01*
Y6247D02*
Y6377D01*
X3471Y6044D02*
X3771D01*
X3471D02*
Y6174D01*
X3771D01*
Y6044D02*
Y6174D01*
X3090Y7317D02*
X3390D01*
Y7187D02*
Y7317D01*
X3090Y7187D02*
X3390D01*
X3090D02*
Y7317D01*
X3089Y7494D02*
X3388D01*
Y7364D02*
Y7494D01*
X3089Y7364D02*
X3388D01*
X3089D02*
Y7494D01*
X3280Y7555D02*
X3580D01*
X3280D02*
Y7685D01*
X3580D01*
Y7555D02*
Y7685D01*
D15*
X7620Y4394D02*
Y4587D01*
X7239Y4394D02*
Y4587D01*
Y4394D02*
X7620D01*
X7239Y4587D02*
X7620D01*
X7791Y8367D02*
X7811D01*
X7911Y8149D02*
X7931D01*
X7794Y8219D02*
X7931D01*
X7791Y8229D02*
X7929D01*
X7791Y8149D02*
X7811D01*
X7791D02*
Y8367D01*
X7911D02*
X7931D01*
X7931Y8152D02*
X7931Y8367D01*
X2864Y6753D02*
Y7093D01*
X3054D01*
Y6753D02*
Y7093D01*
X2864Y6753D02*
X3054D01*
X3581Y8431D02*
X3601D01*
X3461Y8649D02*
X3481D01*
X3461Y8579D02*
X3598D01*
X3463Y8569D02*
X3601D01*
X3581Y8649D02*
X3601D01*
Y8431D02*
Y8649D01*
X3461Y8431D02*
X3481D01*
X3461D02*
X3461Y8646D01*
X3093Y6753D02*
Y7093D01*
X3283D01*
Y6753D02*
Y7093D01*
X3093Y6753D02*
X3283D01*
D16*
X2800Y8674D02*
X3320D01*
Y8291D02*
Y8674D01*
X2800Y8291D02*
X3320D01*
X2800D02*
Y8674D01*
D17*
X3699Y7099D02*
X3717Y7081D01*
X4033Y7433D02*
X4051Y7451D01*
X4385Y7117D02*
X4403Y7099D01*
X4051Y6747D02*
X4069Y6765D01*
X3699Y7099D02*
X3717Y7117D01*
X4033Y6765D02*
X4051Y6747D01*
X4385Y7081D02*
X4403Y7099D01*
X4051Y7451D02*
X4069Y7433D01*
D18*
X2815Y8730D02*
Y9088D01*
X3272D01*
Y8734D02*
Y9088D01*
X3268Y8730D02*
X3272Y8734D01*
X2815Y8730D02*
X3268D01*
D19*
X2838Y9967D02*
X2822Y9984D01*
X2789D01*
X2772Y9967D01*
Y9901D01*
X2789Y9884D01*
X2822D01*
X2838Y9901D01*
Y9934D01*
X2805D01*
X2872Y9884D02*
Y9984D01*
X2938Y9884D01*
Y9984D01*
X2971D02*
Y9884D01*
X3021D01*
X3038Y9901D01*
Y9967D01*
X3021Y9984D01*
X2971D01*
X2838Y9692D02*
X2772D01*
Y9642D01*
X2805Y9658D01*
X2822D01*
X2838Y9642D01*
Y9608D01*
X2822Y9592D01*
X2789D01*
X2772Y9608D01*
X2872Y9692D02*
Y9625D01*
X2905Y9592D01*
X2938Y9625D01*
Y9692D01*
X3038D02*
X2971D01*
Y9592D01*
X3038D01*
X2971Y9642D02*
X3005D01*
X3737Y8626D02*
X3804D01*
X3770Y8659D02*
Y8592D01*
X3903Y8676D02*
X3837D01*
Y8626D01*
X3870Y8642D01*
X3887D01*
X3903Y8626D01*
Y8592D01*
X3887Y8576D01*
X3854D01*
X3837Y8592D01*
X3937Y8676D02*
Y8609D01*
X3970Y8576D01*
X4003Y8609D01*
Y8676D01*
X4652Y5043D02*
Y4944D01*
X4701D01*
X4718Y4960D01*
Y5027D01*
X4701Y5043D01*
X4652D01*
X4818Y5027D02*
X4801Y5043D01*
X4768D01*
X4751Y5027D01*
Y4960D01*
X4768Y4944D01*
X4801D01*
X4818Y4960D01*
Y4993D01*
X4785D01*
X4151Y6150D02*
X4218D01*
X4251Y6183D01*
X4218Y6217D01*
X4151D01*
X4168Y6316D02*
X4151Y6300D01*
Y6267D01*
X4168Y6250D01*
X4235D01*
X4251Y6267D01*
Y6300D01*
X4235Y6316D01*
X4251Y6350D02*
X4151D01*
X4185Y6383D01*
X4151Y6416D01*
X4251D01*
X4900Y7966D02*
Y8033D01*
X4867Y7999D02*
X4933D01*
X4950Y8066D02*
Y8099D01*
Y8083D01*
X4850D01*
X4867Y8066D01*
X4850Y8149D02*
X4916D01*
X4950Y8182D01*
X4916Y8216D01*
X4850D01*
X4867Y8249D02*
X4850Y8266D01*
Y8299D01*
X4867Y8315D01*
X4883D01*
X4900Y8299D01*
X4916Y8315D01*
X4933D01*
X4950Y8299D01*
Y8266D01*
X4933Y8249D01*
X4916D01*
X4900Y8266D01*
X4883Y8249D01*
X4867D01*
X4900Y8266D02*
Y8299D01*
X4728Y9261D02*
X4794D01*
X4761Y9294D02*
Y9227D01*
X4827Y9211D02*
X4861D01*
X4844D01*
Y9311D01*
X4827Y9294D01*
X4911Y9311D02*
Y9244D01*
X4944Y9211D01*
X4977Y9244D01*
Y9311D01*
X5077Y9211D02*
X5010D01*
X5077Y9277D01*
Y9294D01*
X5060Y9311D01*
X5027D01*
X5010Y9294D01*
X10670Y8670D02*
X10654Y8654D01*
Y8620D01*
X10670Y8604D01*
X10737D01*
X10754Y8620D01*
Y8654D01*
X10737Y8670D01*
X10704D01*
Y8637D01*
X10670Y8704D02*
X10654Y8720D01*
Y8753D01*
X10670Y8770D01*
X10737D01*
X10754Y8753D01*
Y8720D01*
X10737Y8704D01*
X10670D01*
X10673Y8416D02*
X10656Y8400D01*
Y8366D01*
X10673Y8350D01*
X10740D01*
X10756Y8366D01*
Y8400D01*
X10740Y8416D01*
X10706D01*
Y8383D01*
X10756Y8450D02*
Y8483D01*
Y8466D01*
X10656D01*
X10673Y8450D01*
X7657Y3054D02*
Y2988D01*
X7707D01*
Y3021D01*
Y2988D01*
X7756D01*
X7657Y3088D02*
X7756D01*
Y3154D01*
Y3187D02*
X7690D01*
X7657Y3221D01*
X7690Y3254D01*
X7756D01*
X7707D01*
Y3187D01*
X7673Y3354D02*
X7657Y3337D01*
Y3304D01*
X7673Y3287D01*
X7690D01*
X7707Y3304D01*
Y3337D01*
X7723Y3354D01*
X7740D01*
X7756Y3337D01*
Y3304D01*
X7740Y3287D01*
X7657Y3387D02*
X7756D01*
X7707D01*
Y3453D01*
X7657D01*
X7756D01*
X8003Y3042D02*
X7987Y3025D01*
Y2992D01*
X8003Y2975D01*
X8070D01*
X8087Y2992D01*
Y3025D01*
X8070Y3042D01*
X8087Y3075D02*
X7987D01*
Y3125D01*
X8003Y3141D01*
X8037D01*
X8053Y3125D01*
Y3075D01*
Y3108D02*
X8087Y3141D01*
Y3175D02*
X8020D01*
X7987Y3208D01*
X8020Y3241D01*
X8087D01*
X8037D01*
Y3175D01*
X8087Y3274D02*
X7987D01*
X8020Y3308D01*
X7987Y3341D01*
X8087D01*
X6992Y4235D02*
Y4335D01*
X7042D01*
X7058Y4318D01*
Y4285D01*
X7042Y4268D01*
X6992D01*
X7025D02*
X7058Y4235D01*
X7091Y4318D02*
X7108Y4335D01*
X7141D01*
X7158Y4318D01*
Y4302D01*
X7141Y4285D01*
X7125D01*
X7141D01*
X7158Y4268D01*
Y4252D01*
X7141Y4235D01*
X7108D01*
X7091Y4252D01*
X7191Y4318D02*
X7208Y4335D01*
X7241D01*
X7258Y4318D01*
Y4302D01*
X7241Y4285D01*
X7224D01*
X7241D01*
X7258Y4268D01*
Y4252D01*
X7241Y4235D01*
X7208D01*
X7191Y4252D01*
X6992Y4649D02*
Y4749D01*
X7042D01*
X7058Y4732D01*
Y4699D01*
X7042Y4682D01*
X6992D01*
X7025D02*
X7058Y4649D01*
X7091Y4732D02*
X7108Y4749D01*
X7141D01*
X7158Y4732D01*
Y4716D01*
X7141Y4699D01*
X7125D01*
X7141D01*
X7158Y4682D01*
Y4666D01*
X7141Y4649D01*
X7108D01*
X7091Y4666D01*
X7258Y4649D02*
X7191D01*
X7258Y4716D01*
Y4732D01*
X7241Y4749D01*
X7208D01*
X7191Y4732D01*
X6996Y4551D02*
Y4451D01*
X7046D01*
X7062Y4468D01*
Y4534D01*
X7046Y4551D01*
X6996D01*
X7162D02*
X7129Y4534D01*
X7096Y4501D01*
Y4468D01*
X7112Y4451D01*
X7146D01*
X7162Y4468D01*
Y4484D01*
X7146Y4501D01*
X7096D01*
X4552Y6552D02*
Y6469D01*
X4569Y6453D01*
X4602D01*
X4619Y6469D01*
Y6552D01*
X4719Y6453D02*
X4652D01*
X4719Y6519D01*
Y6536D01*
X4702Y6552D01*
X4669D01*
X4652Y6536D01*
X3451Y4088D02*
Y4005D01*
X3468Y3989D01*
X3501D01*
X3518Y4005D01*
Y4088D01*
X3551Y3989D02*
X3584D01*
X3568D01*
Y4088D01*
X3551Y4072D01*
X2966Y7570D02*
Y7670D01*
X3016D01*
X3032Y7653D01*
Y7620D01*
X3016Y7603D01*
X2966D01*
X2999D02*
X3032Y7570D01*
X3132D02*
X3066D01*
X3132Y7637D01*
Y7653D01*
X3115Y7670D01*
X3082D01*
X3066Y7653D01*
X3232Y7670D02*
X3199Y7653D01*
X3165Y7620D01*
Y7587D01*
X3182Y7570D01*
X3215D01*
X3232Y7587D01*
Y7603D01*
X3215Y7620D01*
X3165D01*
X2775Y7380D02*
Y7479D01*
X2825D01*
X2842Y7463D01*
Y7429D01*
X2825Y7413D01*
X2775D01*
X2809D02*
X2842Y7380D01*
X2942D02*
X2875D01*
X2942Y7446D01*
Y7463D01*
X2925Y7479D01*
X2892D01*
X2875Y7463D01*
X3041Y7479D02*
X2975D01*
Y7429D01*
X3008Y7446D01*
X3025D01*
X3041Y7429D01*
Y7396D01*
X3025Y7380D01*
X2991D01*
X2975Y7396D01*
X2775Y7202D02*
Y7302D01*
X2825D01*
X2842Y7285D01*
Y7252D01*
X2825Y7235D01*
X2775D01*
X2809D02*
X2842Y7202D01*
X2942D02*
X2875D01*
X2942Y7268D01*
Y7285D01*
X2925Y7302D01*
X2892D01*
X2875Y7285D01*
X3025Y7202D02*
Y7302D01*
X2975Y7252D01*
X3041D01*
X3819Y6072D02*
Y6171D01*
X3869D01*
X3886Y6155D01*
Y6121D01*
X3869Y6105D01*
X3819D01*
X3853D02*
X3886Y6072D01*
X3986D02*
X3919D01*
X3986Y6138D01*
Y6155D01*
X3969Y6171D01*
X3936D01*
X3919Y6155D01*
X4019D02*
X4036Y6171D01*
X4069D01*
X4086Y6155D01*
Y6138D01*
X4069Y6121D01*
X4052D01*
X4069D01*
X4086Y6105D01*
Y6088D01*
X4069Y6072D01*
X4036D01*
X4019Y6088D01*
X3817Y6275D02*
Y6374D01*
X3867D01*
X3883Y6358D01*
Y6325D01*
X3867Y6308D01*
X3817D01*
X3850D02*
X3883Y6275D01*
X3983D02*
X3916D01*
X3983Y6341D01*
Y6358D01*
X3966Y6374D01*
X3933D01*
X3916Y6358D01*
X4083Y6275D02*
X4016D01*
X4083Y6341D01*
Y6358D01*
X4066Y6374D01*
X4033D01*
X4016Y6358D01*
X4811Y5678D02*
Y5778D01*
X4861D01*
X4878Y5761D01*
Y5728D01*
X4861Y5711D01*
X4811D01*
X4844D02*
X4878Y5678D01*
X4977D02*
X4911D01*
X4977Y5744D01*
Y5761D01*
X4961Y5778D01*
X4928D01*
X4911Y5761D01*
X5011Y5678D02*
X5044D01*
X5027D01*
Y5778D01*
X5011Y5761D01*
X4269Y4624D02*
Y4723D01*
X4319D01*
X4336Y4707D01*
Y4674D01*
X4319Y4657D01*
X4269D01*
X4303D02*
X4336Y4624D01*
X4369D02*
X4403D01*
X4386D01*
Y4723D01*
X4369Y4707D01*
X4519Y4723D02*
X4486Y4707D01*
X4452Y4674D01*
Y4640D01*
X4469Y4624D01*
X4502D01*
X4519Y4640D01*
Y4657D01*
X4502Y4674D01*
X4452D01*
X4503Y8165D02*
Y8065D01*
X4569D01*
X4603Y8149D02*
X4619Y8165D01*
X4653D01*
X4669Y8149D01*
Y8132D01*
X4653Y8115D01*
X4669Y8099D01*
Y8082D01*
X4653Y8065D01*
X4619D01*
X4603Y8082D01*
Y8099D01*
X4619Y8115D01*
X4603Y8132D01*
Y8149D01*
X4619Y8115D02*
X4653D01*
X4273Y4190D02*
Y4090D01*
X4339D01*
X4439Y4190D02*
X4373D01*
Y4140D01*
X4406Y4157D01*
X4423D01*
X4439Y4140D01*
Y4107D01*
X4423Y4090D01*
X4389D01*
X4373Y4107D01*
X2774Y5752D02*
Y5652D01*
X2841D01*
X2924D02*
Y5752D01*
X2874Y5702D01*
X2941D01*
X2774Y6146D02*
Y6046D01*
X2841D01*
X2874Y6129D02*
X2891Y6146D01*
X2924D01*
X2941Y6129D01*
Y6113D01*
X2924Y6096D01*
X2907D01*
X2924D01*
X2941Y6079D01*
Y6063D01*
X2924Y6046D01*
X2891D01*
X2874Y6063D01*
X2668Y8870D02*
X2751D01*
X2768Y8887D01*
Y8920D01*
X2751Y8937D01*
X2668D01*
X2685Y8970D02*
X2668Y8987D01*
Y9020D01*
X2685Y9037D01*
X2701D01*
X2718Y9020D01*
Y9003D01*
Y9020D01*
X2734Y9037D01*
X2751D01*
X2768Y9020D01*
Y8987D01*
X2751Y8970D01*
X3593Y9802D02*
X3493D01*
Y9852D01*
X3510Y9869D01*
X3543D01*
X3560Y9852D01*
Y9802D01*
Y9836D02*
X3593Y9869D01*
X3510Y9902D02*
X3493Y9919D01*
Y9952D01*
X3510Y9969D01*
X3527D01*
X3543Y9952D01*
Y9935D01*
Y9952D01*
X3560Y9969D01*
X3577D01*
X3593Y9952D01*
Y9919D01*
X3577Y9902D01*
X3593Y10002D02*
Y10035D01*
Y10018D01*
X3493D01*
X3510Y10002D01*
X3486Y9234D02*
Y9334D01*
X3536D01*
X3553Y9317D01*
Y9284D01*
X3536Y9267D01*
X3486D01*
X3520D02*
X3553Y9234D01*
X3586Y9317D02*
X3603Y9334D01*
X3636D01*
X3653Y9317D01*
Y9300D01*
X3636Y9284D01*
X3619D01*
X3636D01*
X3653Y9267D01*
Y9250D01*
X3636Y9234D01*
X3603D01*
X3586Y9250D01*
X3686Y9317D02*
X3703Y9334D01*
X3736D01*
X3753Y9317D01*
Y9250D01*
X3736Y9234D01*
X3703D01*
X3686Y9250D01*
Y9317D01*
X3415Y8795D02*
X3316D01*
Y8845D01*
X3332Y8862D01*
X3365D01*
X3382Y8845D01*
Y8795D01*
Y8828D02*
X3415Y8862D01*
Y8961D02*
Y8895D01*
X3349Y8961D01*
X3332D01*
X3316Y8945D01*
Y8911D01*
X3332Y8895D01*
X3316Y8995D02*
Y9061D01*
X3332D01*
X3399Y8995D01*
X3415D01*
X2655Y8463D02*
X2755D01*
Y8529D01*
X2738Y8562D02*
X2755Y8579D01*
Y8612D01*
X2738Y8629D01*
X2672D01*
X2655Y8612D01*
Y8579D01*
X2672Y8562D01*
X2688D01*
X2705Y8579D01*
Y8629D01*
X2719Y6864D02*
X2818D01*
Y6930D01*
X2719Y6964D02*
Y7030D01*
X2735D01*
X2802Y6964D01*
X2818D01*
X3328Y6852D02*
X3428D01*
Y6919D01*
X3328Y7018D02*
X3345Y6985D01*
X3378Y6952D01*
X3411D01*
X3428Y6969D01*
Y7002D01*
X3411Y7018D01*
X3395D01*
X3378Y7002D01*
Y6952D01*
X3939Y7606D02*
X3973D01*
X3956D01*
Y7507D01*
X3939D01*
X3973D01*
X4089Y7590D02*
X4072Y7606D01*
X4039D01*
X4022Y7590D01*
Y7523D01*
X4039Y7507D01*
X4072D01*
X4089Y7523D01*
X4122Y7606D02*
X4189D01*
Y7590D01*
X4122Y7523D01*
Y7507D01*
X3341Y5476D02*
Y5509D01*
Y5493D01*
X3441D01*
Y5476D01*
Y5509D01*
X3358Y5626D02*
X3341Y5609D01*
Y5576D01*
X3358Y5559D01*
X3424D01*
X3441Y5576D01*
Y5609D01*
X3424Y5626D01*
X3341Y5725D02*
X3358Y5692D01*
X3391Y5659D01*
X3424D01*
X3441Y5676D01*
Y5709D01*
X3424Y5725D01*
X3408D01*
X3391Y5709D01*
Y5659D01*
X3435Y8343D02*
Y8243D01*
X3485D01*
X3501Y8260D01*
Y8326D01*
X3485Y8343D01*
X3435D01*
X3601D02*
X3535D01*
Y8293D01*
X3568Y8310D01*
X3584D01*
X3601Y8293D01*
Y8260D01*
X3584Y8243D01*
X3551D01*
X3535Y8260D01*
X3193Y3479D02*
Y3379D01*
X3243D01*
X3260Y3396D01*
Y3462D01*
X3243Y3479D01*
X3193D01*
X3343Y3379D02*
Y3479D01*
X3293Y3429D01*
X3360D01*
X3828Y8849D02*
X3811Y8832D01*
Y8799D01*
X3828Y8782D01*
X3894D01*
X3911Y8799D01*
Y8832D01*
X3894Y8849D01*
X3811Y8949D02*
X3828Y8915D01*
X3861Y8882D01*
X3894D01*
X3911Y8899D01*
Y8932D01*
X3894Y8949D01*
X3877D01*
X3861Y8932D01*
Y8882D01*
X3894Y8982D02*
X3911Y8999D01*
Y9032D01*
X3894Y9048D01*
X3828D01*
X3811Y9032D01*
Y8999D01*
X3828Y8982D01*
X3844D01*
X3861Y8999D01*
Y9048D01*
X2931Y9419D02*
X2914Y9435D01*
X2881D01*
X2864Y9419D01*
Y9352D01*
X2881Y9335D01*
X2914D01*
X2931Y9352D01*
X3030Y9435D02*
X2997Y9419D01*
X2964Y9385D01*
Y9352D01*
X2981Y9335D01*
X3014D01*
X3030Y9352D01*
Y9369D01*
X3014Y9385D01*
X2964D01*
X3064Y9419D02*
X3080Y9435D01*
X3114D01*
X3130Y9419D01*
Y9402D01*
X3114Y9385D01*
X3130Y9369D01*
Y9352D01*
X3114Y9335D01*
X3080D01*
X3064Y9352D01*
Y9369D01*
X3080Y9385D01*
X3064Y9402D01*
Y9419D01*
X3080Y9385D02*
X3114D01*
X3878Y8087D02*
X3862Y8070D01*
Y8037D01*
X3878Y8020D01*
X3945D01*
X3961Y8037D01*
Y8070D01*
X3945Y8087D01*
X3862Y8187D02*
X3878Y8153D01*
X3912Y8120D01*
X3945D01*
X3961Y8137D01*
Y8170D01*
X3945Y8187D01*
X3928D01*
X3912Y8170D01*
Y8120D01*
X3862Y8286D02*
X3878Y8253D01*
X3912Y8220D01*
X3945D01*
X3961Y8237D01*
Y8270D01*
X3945Y8286D01*
X3928D01*
X3912Y8270D01*
Y8220D01*
X4874Y5583D02*
X4857Y5600D01*
X4824D01*
X4807Y5583D01*
Y5517D01*
X4824Y5500D01*
X4857D01*
X4874Y5517D01*
X4974Y5600D02*
X4940Y5583D01*
X4907Y5550D01*
Y5517D01*
X4924Y5500D01*
X4957D01*
X4974Y5517D01*
Y5533D01*
X4957Y5550D01*
X4907D01*
X5073Y5600D02*
X5007D01*
Y5550D01*
X5040Y5567D01*
X5057D01*
X5073Y5550D01*
Y5517D01*
X5057Y5500D01*
X5023D01*
X5007Y5517D01*
X4874Y5939D02*
X4857Y5955D01*
X4824D01*
X4807Y5939D01*
Y5872D01*
X4824Y5856D01*
X4857D01*
X4874Y5872D01*
X4974Y5955D02*
X4940Y5939D01*
X4907Y5906D01*
Y5872D01*
X4924Y5856D01*
X4957D01*
X4974Y5872D01*
Y5889D01*
X4957Y5906D01*
X4907D01*
X5057Y5856D02*
Y5955D01*
X5007Y5906D01*
X5073D01*
X4226Y5050D02*
X4209Y5066D01*
X4176D01*
X4160Y5050D01*
Y4983D01*
X4176Y4967D01*
X4209D01*
X4226Y4983D01*
X4326Y5066D02*
X4293Y5050D01*
X4259Y5017D01*
Y4983D01*
X4276Y4967D01*
X4309D01*
X4326Y4983D01*
Y5000D01*
X4309Y5017D01*
X4259D01*
X4359Y5050D02*
X4376Y5066D01*
X4409D01*
X4426Y5050D01*
Y5033D01*
X4409Y5017D01*
X4392D01*
X4409D01*
X4426Y5000D01*
Y4983D01*
X4409Y4967D01*
X4376D01*
X4359Y4983D01*
X4226Y4885D02*
X4209Y4901D01*
X4176D01*
X4160Y4885D01*
Y4818D01*
X4176Y4802D01*
X4209D01*
X4226Y4818D01*
X4326Y4901D02*
X4293Y4885D01*
X4259Y4851D01*
Y4818D01*
X4276Y4802D01*
X4309D01*
X4326Y4818D01*
Y4835D01*
X4309Y4851D01*
X4259D01*
X4426Y4802D02*
X4359D01*
X4426Y4868D01*
Y4885D01*
X4409Y4901D01*
X4376D01*
X4359Y4885D01*
X3701Y8091D02*
X3684Y8074D01*
Y8041D01*
X3701Y8024D01*
X3767D01*
X3784Y8041D01*
Y8074D01*
X3767Y8091D01*
X3684Y8191D02*
X3701Y8157D01*
X3734Y8124D01*
X3767D01*
X3784Y8141D01*
Y8174D01*
X3767Y8191D01*
X3750D01*
X3734Y8174D01*
Y8124D01*
X3784Y8224D02*
Y8257D01*
Y8240D01*
X3684D01*
X3701Y8224D01*
X3032Y7818D02*
X3016Y7835D01*
X2982D01*
X2966Y7818D01*
Y7752D01*
X2982Y7735D01*
X3016D01*
X3032Y7752D01*
X3132Y7835D02*
X3099Y7818D01*
X3066Y7785D01*
Y7752D01*
X3082Y7735D01*
X3115D01*
X3132Y7752D01*
Y7768D01*
X3115Y7785D01*
X3066D01*
X3165Y7818D02*
X3182Y7835D01*
X3215D01*
X3232Y7818D01*
Y7752D01*
X3215Y7735D01*
X3182D01*
X3165Y7752D01*
Y7818D01*
X2740Y5558D02*
X2724Y5574D01*
X2690D01*
X2674Y5558D01*
Y5491D01*
X2690Y5475D01*
X2724D01*
X2740Y5491D01*
X2840Y5574D02*
X2773D01*
Y5524D01*
X2807Y5541D01*
X2823D01*
X2840Y5524D01*
Y5491D01*
X2823Y5475D01*
X2790D01*
X2773Y5491D01*
X2873D02*
X2890Y5475D01*
X2923D01*
X2940Y5491D01*
Y5558D01*
X2923Y5574D01*
X2890D01*
X2873Y5558D01*
Y5541D01*
X2890Y5524D01*
X2940D01*
X2740Y5888D02*
X2724Y5905D01*
X2690D01*
X2674Y5888D01*
Y5821D01*
X2690Y5805D01*
X2724D01*
X2740Y5821D01*
X2840Y5905D02*
X2773D01*
Y5855D01*
X2807Y5871D01*
X2823D01*
X2840Y5855D01*
Y5821D01*
X2823Y5805D01*
X2790D01*
X2773Y5821D01*
X2873Y5888D02*
X2890Y5905D01*
X2923D01*
X2940Y5888D01*
Y5871D01*
X2923Y5855D01*
X2940Y5838D01*
Y5821D01*
X2923Y5805D01*
X2890D01*
X2873Y5821D01*
Y5838D01*
X2890Y5855D01*
X2873Y5871D01*
Y5888D01*
X2890Y5855D02*
X2923D01*
X3497Y6944D02*
X3481Y6927D01*
Y6894D01*
X3497Y6877D01*
X3564D01*
X3580Y6894D01*
Y6927D01*
X3564Y6944D01*
X3481Y7044D02*
Y6977D01*
X3531D01*
X3514Y7010D01*
Y7027D01*
X3531Y7044D01*
X3564D01*
X3580Y7027D01*
Y6994D01*
X3564Y6977D01*
X3481Y7077D02*
Y7143D01*
X3497D01*
X3564Y7077D01*
X3580D01*
X3885Y6692D02*
X3868Y6709D01*
X3835D01*
X3818Y6692D01*
Y6626D01*
X3835Y6609D01*
X3868D01*
X3885Y6626D01*
X3984Y6709D02*
X3918D01*
Y6659D01*
X3951Y6676D01*
X3968D01*
X3984Y6659D01*
Y6626D01*
X3968Y6609D01*
X3934D01*
X3918Y6626D01*
X4084Y6709D02*
X4051Y6692D01*
X4018Y6659D01*
Y6626D01*
X4034Y6609D01*
X4068D01*
X4084Y6626D01*
Y6643D01*
X4068Y6659D01*
X4018D01*
X2786Y6474D02*
X2770Y6457D01*
Y6424D01*
X2786Y6407D01*
X2853D01*
X2869Y6424D01*
Y6457D01*
X2853Y6474D01*
X2770Y6574D02*
Y6507D01*
X2819D01*
X2803Y6540D01*
Y6557D01*
X2819Y6574D01*
X2853D01*
X2869Y6557D01*
Y6524D01*
X2853Y6507D01*
X2869Y6657D02*
X2770D01*
X2819Y6607D01*
Y6674D01*
X3294Y6461D02*
X3278Y6445D01*
Y6411D01*
X3294Y6395D01*
X3361D01*
X3377Y6411D01*
Y6445D01*
X3361Y6461D01*
X3278Y6561D02*
Y6495D01*
X3327D01*
X3311Y6528D01*
Y6544D01*
X3327Y6561D01*
X3361D01*
X3377Y6544D01*
Y6511D01*
X3361Y6495D01*
X3377Y6661D02*
Y6594D01*
X3311Y6661D01*
X3294D01*
X3278Y6644D01*
Y6611D01*
X3294Y6594D01*
X4573Y7780D02*
X4556Y7797D01*
X4523D01*
X4506Y7780D01*
Y7714D01*
X4523Y7697D01*
X4556D01*
X4573Y7714D01*
X4673Y7797D02*
X4606D01*
Y7747D01*
X4639Y7764D01*
X4656D01*
X4673Y7747D01*
Y7714D01*
X4656Y7697D01*
X4623D01*
X4606Y7714D01*
X4706Y7697D02*
X4739D01*
X4723D01*
Y7797D01*
X4706Y7780D01*
X4734Y5291D02*
X4717Y5308D01*
X4684D01*
X4668Y5291D01*
Y5225D01*
X4684Y5208D01*
X4717D01*
X4734Y5225D01*
X4834Y5308D02*
X4767D01*
Y5258D01*
X4801Y5274D01*
X4817D01*
X4834Y5258D01*
Y5225D01*
X4817Y5208D01*
X4784D01*
X4767Y5225D01*
X4867Y5291D02*
X4884Y5308D01*
X4917D01*
X4934Y5291D01*
Y5225D01*
X4917Y5208D01*
X4884D01*
X4867Y5225D01*
Y5291D01*
X2740Y5393D02*
X2724Y5409D01*
X2690D01*
X2674Y5393D01*
Y5326D01*
X2690Y5310D01*
X2724D01*
X2740Y5326D01*
X2823Y5310D02*
Y5409D01*
X2773Y5359D01*
X2840D01*
X2873Y5326D02*
X2890Y5310D01*
X2923D01*
X2940Y5326D01*
Y5393D01*
X2923Y5409D01*
X2890D01*
X2873Y5393D01*
Y5376D01*
X2890Y5359D01*
X2940D01*
X4570Y7958D02*
X4554Y7975D01*
X4520D01*
X4504Y7958D01*
Y7892D01*
X4520Y7875D01*
X4554D01*
X4570Y7892D01*
X4654Y7875D02*
Y7975D01*
X4604Y7925D01*
X4670D01*
X4703Y7958D02*
X4720Y7975D01*
X4753D01*
X4770Y7958D01*
Y7941D01*
X4753Y7925D01*
X4770Y7908D01*
Y7892D01*
X4753Y7875D01*
X4720D01*
X4703Y7892D01*
Y7908D01*
X4720Y7925D01*
X4703Y7941D01*
Y7958D01*
X4720Y7925D02*
X4753D01*
X3489Y4897D02*
X3473Y4914D01*
X3440D01*
X3423Y4897D01*
Y4831D01*
X3440Y4814D01*
X3473D01*
X3489Y4831D01*
X3573Y4814D02*
Y4914D01*
X3523Y4864D01*
X3589D01*
X3623Y4914D02*
X3689D01*
Y4897D01*
X3623Y4831D01*
Y4814D01*
X4340Y4529D02*
X4324Y4546D01*
X4290D01*
X4274Y4529D01*
Y4463D01*
X4290Y4446D01*
X4324D01*
X4340Y4463D01*
X4424Y4446D02*
Y4546D01*
X4374Y4496D01*
X4440D01*
X4540Y4546D02*
X4507Y4529D01*
X4473Y4496D01*
Y4463D01*
X4490Y4446D01*
X4523D01*
X4540Y4463D01*
Y4479D01*
X4523Y4496D01*
X4473D01*
X4339Y4351D02*
X4322Y4368D01*
X4289D01*
X4272Y4351D01*
Y4285D01*
X4289Y4268D01*
X4322D01*
X4339Y4285D01*
X4422Y4268D02*
Y4368D01*
X4372Y4318D01*
X4439D01*
X4472Y4351D02*
X4489Y4368D01*
X4522D01*
X4539Y4351D01*
Y4335D01*
X4522Y4318D01*
X4505D01*
X4522D01*
X4539Y4301D01*
Y4285D01*
X4522Y4268D01*
X4489D01*
X4472Y4285D01*
X9876Y2841D02*
Y2742D01*
Y2775D01*
X9943Y2841D01*
X9893Y2791D01*
X9943Y2742D01*
X10042Y2841D02*
X10009Y2825D01*
X9976Y2791D01*
Y2758D01*
X9993Y2742D01*
X10026D01*
X10042Y2758D01*
Y2775D01*
X10026Y2791D01*
X9976D01*
X5670Y2826D02*
Y2726D01*
Y2760D01*
X5736Y2826D01*
X5687Y2776D01*
X5736Y2726D01*
X5836Y2826D02*
X5770D01*
Y2776D01*
X5803Y2793D01*
X5820D01*
X5836Y2776D01*
Y2743D01*
X5820Y2726D01*
X5786D01*
X5770Y2743D01*
X3460Y2818D02*
Y2719D01*
Y2752D01*
X3527Y2818D01*
X3477Y2769D01*
X3527Y2719D01*
X3610D02*
Y2818D01*
X3560Y2769D01*
X3626D01*
X8007Y10731D02*
Y10631D01*
Y10664D01*
X8073Y10731D01*
X8023Y10681D01*
X8073Y10631D01*
X8107Y10714D02*
X8123Y10731D01*
X8156D01*
X8173Y10714D01*
Y10697D01*
X8156Y10681D01*
X8140D01*
X8156D01*
X8173Y10664D01*
Y10647D01*
X8156Y10631D01*
X8123D01*
X8107Y10647D01*
X5721Y10718D02*
Y10618D01*
Y10651D01*
X5787Y10718D01*
X5737Y10668D01*
X5787Y10618D01*
X5887D02*
X5821D01*
X5887Y10685D01*
Y10701D01*
X5870Y10718D01*
X5837D01*
X5821Y10701D01*
X3464Y10705D02*
Y10605D01*
Y10639D01*
X3531Y10705D01*
X3481Y10655D01*
X3531Y10605D01*
X3564D02*
X3597D01*
X3580D01*
Y10705D01*
X3564Y10689D01*
X8046Y5424D02*
Y5524D01*
X8096D01*
X8112Y5507D01*
Y5474D01*
X8096Y5457D01*
X8046D01*
X8079D02*
X8112Y5424D01*
X8212D02*
X8146D01*
X8212Y5490D01*
Y5507D01*
X8195Y5524D01*
X8162D01*
X8146Y5507D01*
X8245Y5440D02*
X8262Y5424D01*
X8295D01*
X8312Y5440D01*
Y5507D01*
X8295Y5524D01*
X8262D01*
X8245Y5507D01*
Y5490D01*
X8262Y5474D01*
X8312D01*
X6827Y5424D02*
Y5524D01*
X6876D01*
X6893Y5507D01*
Y5474D01*
X6876Y5457D01*
X6827D01*
X6860D02*
X6893Y5424D01*
X6993D02*
X6926D01*
X6993Y5490D01*
Y5507D01*
X6976Y5524D01*
X6943D01*
X6926Y5507D01*
X7026D02*
X7043Y5524D01*
X7076D01*
X7093Y5507D01*
Y5490D01*
X7076Y5474D01*
X7093Y5457D01*
Y5440D01*
X7076Y5424D01*
X7043D01*
X7026Y5440D01*
Y5457D01*
X7043Y5474D01*
X7026Y5490D01*
Y5507D01*
X7043Y5474D02*
X7076D01*
X10134Y5785D02*
X10034D01*
Y5835D01*
X10051Y5852D01*
X10084D01*
X10100Y5835D01*
Y5785D01*
Y5818D02*
X10134Y5852D01*
Y5951D02*
Y5885D01*
X10067Y5951D01*
X10051D01*
X10034Y5935D01*
Y5902D01*
X10051Y5885D01*
Y5985D02*
X10034Y6001D01*
Y6035D01*
X10051Y6051D01*
X10117D01*
X10134Y6035D01*
Y6001D01*
X10117Y5985D01*
X10051D01*
X8593Y5983D02*
Y6082D01*
X8642D01*
X8659Y6066D01*
Y6033D01*
X8642Y6016D01*
X8593D01*
X8626D02*
X8659Y5983D01*
X8692D02*
X8726D01*
X8709D01*
Y6082D01*
X8692Y6066D01*
X8775Y5999D02*
X8792Y5983D01*
X8825D01*
X8842Y5999D01*
Y6066D01*
X8825Y6082D01*
X8792D01*
X8775Y6066D01*
Y6049D01*
X8792Y6033D01*
X8842D01*
X8595Y5797D02*
Y5897D01*
X8645D01*
X8662Y5880D01*
Y5847D01*
X8645Y5830D01*
X8595D01*
X8628D02*
X8662Y5797D01*
X8695D02*
X8728D01*
X8712D01*
Y5897D01*
X8695Y5880D01*
X8778D02*
X8795Y5897D01*
X8828D01*
X8845Y5880D01*
Y5864D01*
X8828Y5847D01*
X8845Y5830D01*
Y5814D01*
X8828Y5797D01*
X8795D01*
X8778Y5814D01*
Y5830D01*
X8795Y5847D01*
X8778Y5864D01*
Y5880D01*
X8795Y5847D02*
X8828D01*
X9718Y5398D02*
Y5498D01*
X9768D01*
X9784Y5482D01*
Y5448D01*
X9768Y5432D01*
X9718D01*
X9751D02*
X9784Y5398D01*
X9818D02*
X9851D01*
X9834D01*
Y5498D01*
X9818Y5482D01*
X9901Y5498D02*
X9967D01*
Y5482D01*
X9901Y5415D01*
Y5398D01*
X9349Y9285D02*
Y9384D01*
X9399D01*
X9416Y9368D01*
Y9335D01*
X9399Y9318D01*
X9349D01*
X9383D02*
X9416Y9285D01*
X9449D02*
X9483D01*
X9466D01*
Y9384D01*
X9449Y9368D01*
X9599Y9384D02*
X9532D01*
Y9335D01*
X9566Y9351D01*
X9582D01*
X9599Y9335D01*
Y9301D01*
X9582Y9285D01*
X9549D01*
X9532Y9301D01*
X9349Y9120D02*
Y9219D01*
X9399D01*
X9416Y9203D01*
Y9169D01*
X9399Y9153D01*
X9349D01*
X9383D02*
X9416Y9120D01*
X9449D02*
X9483D01*
X9466D01*
Y9219D01*
X9449Y9203D01*
X9582Y9120D02*
Y9219D01*
X9532Y9169D01*
X9599D01*
X9349Y8954D02*
Y9054D01*
X9399D01*
X9416Y9038D01*
Y9004D01*
X9399Y8988D01*
X9349D01*
X9383D02*
X9416Y8954D01*
X9449D02*
X9483D01*
X9466D01*
Y9054D01*
X9449Y9038D01*
X9532D02*
X9549Y9054D01*
X9582D01*
X9599Y9038D01*
Y9021D01*
X9582Y9004D01*
X9566D01*
X9582D01*
X9599Y8988D01*
Y8971D01*
X9582Y8954D01*
X9549D01*
X9532Y8971D01*
X8104Y6511D02*
Y6611D01*
X8154D01*
X8170Y6594D01*
Y6561D01*
X8154Y6544D01*
X8104D01*
X8137D02*
X8170Y6511D01*
X8204D02*
X8237D01*
X8220D01*
Y6611D01*
X8204Y6594D01*
X8287Y6511D02*
X8320D01*
X8303D01*
Y6611D01*
X8287Y6594D01*
X7848Y6416D02*
X7748D01*
Y6466D01*
X7765Y6482D01*
X7798D01*
X7814Y6466D01*
Y6416D01*
Y6449D02*
X7848Y6482D01*
Y6516D02*
Y6549D01*
Y6532D01*
X7748D01*
X7765Y6516D01*
Y6599D02*
X7748Y6615D01*
Y6649D01*
X7765Y6665D01*
X7831D01*
X7848Y6649D01*
Y6615D01*
X7831Y6599D01*
X7765D01*
X6114Y8650D02*
Y8749D01*
X6164D01*
X6181Y8733D01*
Y8700D01*
X6164Y8683D01*
X6114D01*
X6148D02*
X6181Y8650D01*
X6214Y8733D02*
X6231Y8749D01*
X6264D01*
X6281Y8733D01*
Y8716D01*
X6264Y8700D01*
X6281Y8683D01*
Y8666D01*
X6264Y8650D01*
X6231D01*
X6214Y8666D01*
Y8683D01*
X6231Y8700D01*
X6214Y8716D01*
Y8733D01*
X6231Y8700D02*
X6264D01*
X6089Y5487D02*
Y5587D01*
X6139D01*
X6156Y5570D01*
Y5537D01*
X6139Y5521D01*
X6089D01*
X6122D02*
X6156Y5487D01*
X6189Y5587D02*
X6255D01*
Y5570D01*
X6189Y5504D01*
Y5487D01*
X9416Y8485D02*
Y8584D01*
X9466D01*
X9483Y8568D01*
Y8534D01*
X9466Y8518D01*
X9416D01*
X9450D02*
X9483Y8485D01*
X9583Y8584D02*
X9549Y8568D01*
X9516Y8534D01*
Y8501D01*
X9533Y8485D01*
X9566D01*
X9583Y8501D01*
Y8518D01*
X9566Y8534D01*
X9516D01*
X9416Y8650D02*
Y8749D01*
X9466D01*
X9483Y8733D01*
Y8700D01*
X9466Y8683D01*
X9416D01*
X9450D02*
X9483Y8650D01*
X9583Y8749D02*
X9516D01*
Y8700D01*
X9549Y8716D01*
X9566D01*
X9583Y8700D01*
Y8666D01*
X9566Y8650D01*
X9533D01*
X9516Y8666D01*
X10081Y9856D02*
Y9956D01*
X10131D01*
X10147Y9939D01*
Y9906D01*
X10131Y9889D01*
X10081D01*
X10114D02*
X10147Y9856D01*
X10181D02*
X10214D01*
X10197D01*
Y9956D01*
X10181Y9939D01*
X8022Y5679D02*
Y5662D01*
X8055Y5629D01*
X8089Y5662D01*
Y5679D01*
X8055Y5629D02*
Y5579D01*
X8188D02*
X8122D01*
X8188Y5645D01*
Y5662D01*
X8172Y5679D01*
X8138D01*
X8122Y5662D01*
X9382Y6743D02*
Y6726D01*
X9416Y6693D01*
X9449Y6726D01*
Y6743D01*
X9416Y6693D02*
Y6643D01*
X9482D02*
X9515D01*
X9499D01*
Y6743D01*
X9482Y6726D01*
X4502Y8573D02*
Y8673D01*
X4552D01*
X4569Y8657D01*
Y8623D01*
X4552Y8607D01*
X4502D01*
X4669Y8657D02*
X4652Y8673D01*
X4619D01*
X4602Y8657D01*
Y8640D01*
X4619Y8623D01*
X4652D01*
X4669Y8607D01*
Y8590D01*
X4652Y8573D01*
X4619D01*
X4602Y8590D01*
X4702Y8657D02*
X4719Y8673D01*
X4752D01*
X4769Y8657D01*
Y8640D01*
X4752Y8623D01*
X4735D01*
X4752D01*
X4769Y8607D01*
Y8590D01*
X4752Y8573D01*
X4719D01*
X4702Y8590D01*
X5417Y8713D02*
Y8813D01*
X5467D01*
X5483Y8796D01*
Y8763D01*
X5467Y8746D01*
X5417D01*
X5583Y8796D02*
X5567Y8813D01*
X5533D01*
X5517Y8796D01*
Y8780D01*
X5533Y8763D01*
X5567D01*
X5583Y8746D01*
Y8730D01*
X5567Y8713D01*
X5533D01*
X5517Y8730D01*
X5683Y8713D02*
X5616D01*
X5683Y8780D01*
Y8796D01*
X5666Y8813D01*
X5633D01*
X5616Y8796D01*
X5395Y4548D02*
Y4647D01*
X5445D01*
X5462Y4631D01*
Y4597D01*
X5445Y4581D01*
X5395D01*
X5562Y4631D02*
X5545Y4647D01*
X5512D01*
X5495Y4631D01*
Y4614D01*
X5512Y4597D01*
X5545D01*
X5562Y4581D01*
Y4564D01*
X5545Y4548D01*
X5512D01*
X5495Y4564D01*
X5595Y4548D02*
X5628D01*
X5612D01*
Y4647D01*
X5595Y4631D01*
X10184Y9753D02*
Y9653D01*
X10251D01*
X10350Y9753D02*
X10284D01*
Y9653D01*
X10350D01*
X10284Y9703D02*
X10317D01*
X10384Y9753D02*
Y9653D01*
X10434D01*
X10450Y9670D01*
Y9736D01*
X10434Y9753D01*
X10384D01*
X10484Y9653D02*
X10517D01*
X10500D01*
Y9753D01*
X10484Y9736D01*
X2825Y4000D02*
Y3900D01*
Y3933D01*
X2892Y4000D01*
X2842Y3950D01*
X2892Y3900D01*
X2925Y4000D02*
X2991D01*
Y3983D01*
X2925Y3916D01*
Y3900D01*
X10461Y5638D02*
X10428D01*
X10444D01*
Y5555D01*
X10428Y5538D01*
X10411D01*
X10394Y5555D01*
X10561Y5538D02*
X10494D01*
X10561Y5605D01*
Y5621D01*
X10544Y5638D01*
X10511D01*
X10494Y5621D01*
X10401Y8038D02*
X10368D01*
X10385D01*
Y7955D01*
X10368Y7938D01*
X10351D01*
X10335Y7955D01*
X10435Y7938D02*
X10468D01*
X10451D01*
Y8038D01*
X10435Y8022D01*
X6835Y5308D02*
X6868D01*
X6851D01*
Y5208D01*
X6835D01*
X6868D01*
X6985Y5291D02*
X6968Y5308D01*
X6935D01*
X6918Y5291D01*
Y5225D01*
X6935Y5208D01*
X6968D01*
X6985Y5225D01*
X7084Y5308D02*
X7018D01*
Y5258D01*
X7051Y5274D01*
X7068D01*
X7084Y5258D01*
Y5225D01*
X7068Y5208D01*
X7034D01*
X7018Y5225D01*
X9334Y6189D02*
X9367D01*
X9351D01*
Y6089D01*
X9334D01*
X9367D01*
X9484Y6172D02*
X9467Y6189D01*
X9434D01*
X9417Y6172D01*
Y6106D01*
X9434Y6089D01*
X9467D01*
X9484Y6106D01*
X9567Y6089D02*
Y6189D01*
X9517Y6139D01*
X9584D01*
X8984Y4401D02*
X9017D01*
X9000D01*
Y4301D01*
X8984D01*
X9017D01*
X9133Y4384D02*
X9117Y4401D01*
X9083D01*
X9067Y4384D01*
Y4318D01*
X9083Y4301D01*
X9117D01*
X9133Y4318D01*
X9167Y4384D02*
X9183Y4401D01*
X9217D01*
X9233Y4384D01*
Y4368D01*
X9217Y4351D01*
X9200D01*
X9217D01*
X9233Y4334D01*
Y4318D01*
X9217Y4301D01*
X9183D01*
X9167Y4318D01*
X8575Y7860D02*
X8608D01*
X8591D01*
Y7761D01*
X8575D01*
X8608D01*
X8724Y7844D02*
X8708Y7860D01*
X8675D01*
X8658Y7844D01*
Y7777D01*
X8675Y7761D01*
X8708D01*
X8724Y7777D01*
X8824Y7761D02*
X8758D01*
X8824Y7827D01*
Y7844D01*
X8808Y7860D01*
X8774D01*
X8758Y7844D01*
X5319Y8454D02*
X5352D01*
X5335D01*
Y8354D01*
X5319D01*
X5352D01*
X5468Y8437D02*
X5452Y8454D01*
X5419D01*
X5402Y8437D01*
Y8371D01*
X5419Y8354D01*
X5452D01*
X5468Y8371D01*
X5502Y8354D02*
X5535D01*
X5518D01*
Y8454D01*
X5502Y8437D01*
X7795Y8559D02*
Y8459D01*
X7845D01*
X7861Y8476D01*
Y8542D01*
X7845Y8559D01*
X7795D01*
X7895Y8459D02*
X7928D01*
X7911D01*
Y8559D01*
X7895Y8542D01*
X4556Y8999D02*
X4540Y9016D01*
X4506D01*
X4490Y8999D01*
Y8933D01*
X4506Y8916D01*
X4540D01*
X4556Y8933D01*
X4639Y8916D02*
Y9016D01*
X4590Y8966D01*
X4656D01*
X4756Y9016D02*
X4689D01*
Y8966D01*
X4723Y8983D01*
X4739D01*
X4756Y8966D01*
Y8933D01*
X4739Y8916D01*
X4706D01*
X4689Y8933D01*
X4569Y8339D02*
X4552Y8356D01*
X4519D01*
X4502Y8339D01*
Y8273D01*
X4519Y8256D01*
X4552D01*
X4569Y8273D01*
X4652Y8256D02*
Y8356D01*
X4602Y8306D01*
X4669D01*
X4752Y8256D02*
Y8356D01*
X4702Y8306D01*
X4769D01*
X9408Y5482D02*
X9391Y5498D01*
X9358D01*
X9341Y5482D01*
Y5415D01*
X9358Y5398D01*
X9391D01*
X9408Y5415D01*
X9491Y5398D02*
Y5498D01*
X9441Y5448D01*
X9507D01*
X9541Y5482D02*
X9557Y5498D01*
X9591D01*
X9607Y5482D01*
Y5415D01*
X9591Y5398D01*
X9557D01*
X9541Y5415D01*
Y5482D01*
X5987Y8963D02*
X5970Y8947D01*
Y8913D01*
X5987Y8897D01*
X6053D01*
X6070Y8913D01*
Y8947D01*
X6053Y8963D01*
X5987Y8996D02*
X5970Y9013D01*
Y9046D01*
X5987Y9063D01*
X6003D01*
X6020Y9046D01*
Y9030D01*
Y9046D01*
X6036Y9063D01*
X6053D01*
X6070Y9046D01*
Y9013D01*
X6053Y8996D01*
Y9096D02*
X6070Y9113D01*
Y9146D01*
X6053Y9163D01*
X5987D01*
X5970Y9146D01*
Y9113D01*
X5987Y9096D01*
X6003D01*
X6020Y9113D01*
Y9163D01*
X5814Y9393D02*
X5797Y9410D01*
X5764D01*
X5747Y9393D01*
Y9327D01*
X5764Y9310D01*
X5797D01*
X5814Y9327D01*
X5847Y9393D02*
X5863Y9410D01*
X5897D01*
X5913Y9393D01*
Y9377D01*
X5897Y9360D01*
X5880D01*
X5897D01*
X5913Y9343D01*
Y9327D01*
X5897Y9310D01*
X5863D01*
X5847Y9327D01*
X5947Y9393D02*
X5963Y9410D01*
X5997D01*
X6013Y9393D01*
Y9377D01*
X5997Y9360D01*
X6013Y9343D01*
Y9327D01*
X5997Y9310D01*
X5963D01*
X5947Y9327D01*
Y9343D01*
X5963Y9360D01*
X5947Y9377D01*
Y9393D01*
X5963Y9360D02*
X5997D01*
X5485Y3881D02*
X5468Y3898D01*
X5435D01*
X5418Y3881D01*
Y3815D01*
X5435Y3798D01*
X5468D01*
X5485Y3815D01*
X5518Y3881D02*
X5535Y3898D01*
X5568D01*
X5585Y3881D01*
Y3865D01*
X5568Y3848D01*
X5551D01*
X5568D01*
X5585Y3831D01*
Y3815D01*
X5568Y3798D01*
X5535D01*
X5518Y3815D01*
X5618Y3898D02*
X5684D01*
Y3881D01*
X5618Y3815D01*
Y3798D01*
X5775Y4631D02*
X5759Y4647D01*
X5726D01*
X5709Y4631D01*
Y4564D01*
X5726Y4548D01*
X5759D01*
X5775Y4564D01*
X5809Y4631D02*
X5825Y4647D01*
X5859D01*
X5875Y4631D01*
Y4614D01*
X5859Y4597D01*
X5842D01*
X5859D01*
X5875Y4581D01*
Y4564D01*
X5859Y4548D01*
X5825D01*
X5809Y4564D01*
X5975Y4647D02*
X5942Y4631D01*
X5909Y4597D01*
Y4564D01*
X5925Y4548D01*
X5958D01*
X5975Y4564D01*
Y4581D01*
X5958Y4597D01*
X5909D01*
X9365Y4518D02*
X9348Y4502D01*
Y4468D01*
X9365Y4452D01*
X9431D01*
X9448Y4468D01*
Y4502D01*
X9431Y4518D01*
X9448Y4618D02*
Y4551D01*
X9381Y4618D01*
X9365D01*
X9348Y4601D01*
Y4568D01*
X9365Y4551D01*
Y4651D02*
X9348Y4668D01*
Y4701D01*
X9365Y4718D01*
X9381D01*
X9398Y4701D01*
X9415Y4718D01*
X9431D01*
X9448Y4701D01*
Y4668D01*
X9431Y4651D01*
X9415D01*
X9398Y4668D01*
X9381Y4651D01*
X9365D01*
X9398Y4668D02*
Y4701D01*
X9555Y4518D02*
X9539Y4502D01*
Y4468D01*
X9555Y4452D01*
X9622D01*
X9638Y4468D01*
Y4502D01*
X9622Y4518D01*
X9638Y4618D02*
Y4551D01*
X9572Y4618D01*
X9555D01*
X9539Y4601D01*
Y4568D01*
X9555Y4551D01*
X9539Y4651D02*
Y4718D01*
X9555D01*
X9622Y4651D01*
X9638D01*
X7599Y5725D02*
X7583Y5708D01*
Y5675D01*
X7599Y5658D01*
X7666D01*
X7683Y5675D01*
Y5708D01*
X7666Y5725D01*
X7683Y5824D02*
Y5758D01*
X7616Y5824D01*
X7599D01*
X7583Y5808D01*
Y5775D01*
X7599Y5758D01*
X7583Y5924D02*
X7599Y5891D01*
X7633Y5858D01*
X7666D01*
X7683Y5874D01*
Y5908D01*
X7666Y5924D01*
X7649D01*
X7633Y5908D01*
Y5858D01*
X9860Y6347D02*
X9843Y6330D01*
Y6297D01*
X9860Y6280D01*
X9927D01*
X9943Y6297D01*
Y6330D01*
X9927Y6347D01*
X9943Y6447D02*
Y6380D01*
X9877Y6447D01*
X9860D01*
X9843Y6430D01*
Y6397D01*
X9860Y6380D01*
X9843Y6547D02*
Y6480D01*
X9893D01*
X9877Y6513D01*
Y6530D01*
X9893Y6547D01*
X9927D01*
X9943Y6530D01*
Y6497D01*
X9927Y6480D01*
X8608Y6377D02*
X8591Y6361D01*
Y6328D01*
X8608Y6311D01*
X8674D01*
X8691Y6328D01*
Y6361D01*
X8674Y6377D01*
X8691Y6477D02*
Y6411D01*
X8624Y6477D01*
X8608D01*
X8591Y6461D01*
Y6427D01*
X8608Y6411D01*
X8691Y6560D02*
X8591D01*
X8641Y6511D01*
Y6577D01*
X9649Y7691D02*
X9632Y7708D01*
X9599D01*
X9582Y7691D01*
Y7625D01*
X9599Y7608D01*
X9632D01*
X9649Y7625D01*
X9749Y7608D02*
X9682D01*
X9749Y7675D01*
Y7691D01*
X9732Y7708D01*
X9699D01*
X9682Y7691D01*
X9849Y7608D02*
X9782D01*
X9849Y7675D01*
Y7691D01*
X9832Y7708D01*
X9799D01*
X9782Y7691D01*
X9670Y7171D02*
X9653Y7187D01*
X9620D01*
X9603Y7171D01*
Y7104D01*
X9620Y7088D01*
X9653D01*
X9670Y7104D01*
X9703Y7088D02*
X9737D01*
X9720D01*
Y7187D01*
X9703Y7171D01*
X9786Y7104D02*
X9803Y7088D01*
X9836D01*
X9853Y7104D01*
Y7171D01*
X9836Y7187D01*
X9803D01*
X9786Y7171D01*
Y7154D01*
X9803Y7137D01*
X9853D01*
X6089Y8542D02*
X6072Y8559D01*
X6039D01*
X6022Y8542D01*
Y8476D01*
X6039Y8459D01*
X6072D01*
X6089Y8476D01*
X6122Y8459D02*
X6155D01*
X6138D01*
Y8559D01*
X6122Y8542D01*
X6205D02*
X6222Y8559D01*
X6255D01*
X6272Y8542D01*
Y8526D01*
X6255Y8509D01*
X6272Y8492D01*
Y8476D01*
X6255Y8459D01*
X6222D01*
X6205Y8476D01*
Y8492D01*
X6222Y8509D01*
X6205Y8526D01*
Y8542D01*
X6222Y8509D02*
X6255D01*
X6076Y5761D02*
X6059Y5778D01*
X6026D01*
X6009Y5761D01*
Y5694D01*
X6026Y5678D01*
X6059D01*
X6076Y5694D01*
X6109Y5678D02*
X6142D01*
X6126D01*
Y5778D01*
X6109Y5761D01*
X6259Y5778D02*
X6226Y5761D01*
X6192Y5728D01*
Y5694D01*
X6209Y5678D01*
X6242D01*
X6259Y5694D01*
Y5711D01*
X6242Y5728D01*
X6192D01*
M02*
