G04*
G04 #@! TF.GenerationSoftware,Altium Limited,Altium Designer,20.2.5 (213)*
G04*
G04 Layer_Physical_Order=2*
G04 Layer_Color=16711680*
%FSLAX42Y42*%
%MOMM*%
G71*
G04*
G04 #@! TF.SameCoordinates,314019C8-8427-4676-9664-B8FEBD72C539*
G04*
G04*
G04 #@! TF.FilePolarity,Positive*
G04*
G01*
G75*
%ADD13C,0.25*%
%ADD20R,0.80X0.80*%
%ADD23R,0.80X0.80*%
%ADD24R,0.60X0.60*%
G04:AMPARAMS|DCode=25|XSize=0.6mm|YSize=0.6mm|CornerRadius=0.15mm|HoleSize=0mm|Usage=FLASHONLY|Rotation=270.000|XOffset=0mm|YOffset=0mm|HoleType=Round|Shape=RoundedRectangle|*
%AMROUNDEDRECTD25*
21,1,0.60,0.30,0,0,270.0*
21,1,0.30,0.60,0,0,270.0*
1,1,0.30,-0.15,-0.15*
1,1,0.30,-0.15,0.15*
1,1,0.30,0.15,0.15*
1,1,0.30,0.15,-0.15*
%
%ADD25ROUNDEDRECTD25*%
%ADD36R,4.90X1.60*%
%ADD99C,0.20*%
%ADD100C,0.30*%
%ADD101C,0.64*%
%ADD102C,0.51*%
%ADD104C,0.50*%
%ADD105C,1.88*%
%ADD106C,2.42*%
%ADD107C,2.85*%
%ADD108C,1.50*%
%ADD109R,1.50X1.50*%
%ADD110R,1.50X1.50*%
%ADD111C,3.20*%
%ADD112C,0.71*%
%ADD113R,1.00X1.50*%
G04:AMPARAMS|DCode=114|XSize=1mm|YSize=1.5mm|CornerRadius=0.25mm|HoleSize=0mm|Usage=FLASHONLY|Rotation=0.000|XOffset=0mm|YOffset=0mm|HoleType=Round|Shape=RoundedRectangle|*
%AMROUNDEDRECTD114*
21,1,1.00,1.00,0,0,0.0*
21,1,0.50,1.50,0,0,0.0*
1,1,0.50,0.25,-0.50*
1,1,0.50,-0.25,-0.50*
1,1,0.50,-0.25,0.50*
1,1,0.50,0.25,0.50*
%
%ADD114ROUNDEDRECTD114*%
G04:AMPARAMS|DCode=115|XSize=1mm|YSize=1.5mm|CornerRadius=0.25mm|HoleSize=0mm|Usage=FLASHONLY|Rotation=270.000|XOffset=0mm|YOffset=0mm|HoleType=Round|Shape=RoundedRectangle|*
%AMROUNDEDRECTD115*
21,1,1.00,1.00,0,0,270.0*
21,1,0.50,1.50,0,0,270.0*
1,1,0.50,-0.50,-0.25*
1,1,0.50,-0.50,0.25*
1,1,0.50,0.50,0.25*
1,1,0.50,0.50,-0.25*
%
%ADD115ROUNDEDRECTD115*%
%ADD116R,1.50X1.00*%
G36*
X10800Y2600D02*
X10800Y2600D01*
X2600D01*
Y4035D01*
X2618Y4042D01*
X2620Y4042D01*
X2882D01*
Y4160D01*
Y4278D01*
X2620D01*
X2618Y4278D01*
X2600Y4284D01*
Y4885D01*
X2618Y4892D01*
X2620Y4892D01*
X2882D01*
Y5010D01*
Y5128D01*
X2620D01*
X2618Y5128D01*
X2600Y5134D01*
Y10800D01*
X10800D01*
Y2600D01*
D02*
G37*
%LPC*%
G36*
X10478Y10659D02*
X10442Y10655D01*
X10408Y10645D01*
X10377Y10628D01*
X10349Y10606D01*
X10327Y10578D01*
X10310Y10547D01*
X10300Y10513D01*
X10296Y10478D01*
X10300Y10442D01*
X10310Y10408D01*
X10327Y10377D01*
X10349Y10349D01*
X10377Y10327D01*
X10408Y10310D01*
X10442Y10300D01*
X10478Y10296D01*
X10513Y10300D01*
X10547Y10310D01*
X10578Y10327D01*
X10606Y10349D01*
X10628Y10377D01*
X10645Y10408D01*
X10655Y10442D01*
X10659Y10478D01*
X10655Y10513D01*
X10645Y10547D01*
X10628Y10578D01*
X10606Y10606D01*
X10578Y10628D01*
X10547Y10645D01*
X10513Y10655D01*
X10478Y10659D01*
D02*
G37*
G36*
X2921D02*
X2886Y10655D01*
X2852Y10645D01*
X2820Y10628D01*
X2793Y10606D01*
X2770Y10578D01*
X2754Y10547D01*
X2743Y10513D01*
X2740Y10478D01*
X2743Y10442D01*
X2754Y10408D01*
X2770Y10377D01*
X2793Y10349D01*
X2820Y10327D01*
X2852Y10310D01*
X2886Y10300D01*
X2921Y10296D01*
X2956Y10300D01*
X2990Y10310D01*
X3022Y10327D01*
X3049Y10349D01*
X3072Y10377D01*
X3088Y10408D01*
X3099Y10442D01*
X3102Y10478D01*
X3099Y10513D01*
X3088Y10547D01*
X3072Y10578D01*
X3049Y10606D01*
X3022Y10628D01*
X2990Y10645D01*
X2956Y10655D01*
X2921Y10659D01*
D02*
G37*
G36*
X3296Y10030D02*
Y9938D01*
X3388D01*
X3387Y9948D01*
X3375Y9976D01*
X3357Y9999D01*
X3334Y10017D01*
X3306Y10029D01*
X3296Y10030D01*
D02*
G37*
G36*
X3258D02*
X3247Y10029D01*
X3220Y10017D01*
X3196Y9999D01*
X3178Y9976D01*
X3166Y9948D01*
X3165Y9938D01*
X3258D01*
Y10030D01*
D02*
G37*
G36*
X9417Y9954D02*
Y9862D01*
X9510D01*
X9508Y9872D01*
X9497Y9900D01*
X9479Y9923D01*
X9455Y9941D01*
X9428Y9953D01*
X9417Y9954D01*
D02*
G37*
G36*
X7131D02*
Y9862D01*
X7224D01*
X7222Y9872D01*
X7211Y9900D01*
X7193Y9923D01*
X7169Y9941D01*
X7142Y9953D01*
X7131Y9954D01*
D02*
G37*
G36*
X4845D02*
Y9862D01*
X4938D01*
X4936Y9872D01*
X4925Y9900D01*
X4907Y9923D01*
X4883Y9941D01*
X4856Y9953D01*
X4845Y9954D01*
D02*
G37*
G36*
X9379D02*
X9368Y9953D01*
X9341Y9941D01*
X9317Y9923D01*
X9299Y9900D01*
X9288Y9872D01*
X9286Y9862D01*
X9379D01*
Y9954D01*
D02*
G37*
G36*
X7093D02*
X7082Y9953D01*
X7055Y9941D01*
X7031Y9923D01*
X7013Y9900D01*
X7002Y9872D01*
X7000Y9862D01*
X7093D01*
Y9954D01*
D02*
G37*
G36*
X4807D02*
X4796Y9953D01*
X4769Y9941D01*
X4745Y9923D01*
X4727Y9900D01*
X4716Y9872D01*
X4714Y9862D01*
X4807D01*
Y9954D01*
D02*
G37*
G36*
X3388Y9900D02*
X3296D01*
Y9807D01*
X3306Y9809D01*
X3334Y9820D01*
X3357Y9838D01*
X3375Y9862D01*
X3387Y9889D01*
X3388Y9900D01*
D02*
G37*
G36*
X3258D02*
X3165D01*
X3166Y9889D01*
X3178Y9862D01*
X3196Y9838D01*
X3220Y9820D01*
X3247Y9809D01*
X3258Y9807D01*
Y9900D01*
D02*
G37*
G36*
X9652Y9939D02*
X9627Y9935D01*
X9604Y9926D01*
X9584Y9910D01*
X9569Y9891D01*
X9559Y9867D01*
X9556Y9843D01*
X9559Y9818D01*
X9569Y9794D01*
X9584Y9775D01*
X9604Y9759D01*
X9627Y9750D01*
X9652Y9746D01*
X9677Y9750D01*
X9700Y9759D01*
X9720Y9775D01*
X9735Y9794D01*
X9745Y9818D01*
X9748Y9843D01*
X9745Y9867D01*
X9735Y9891D01*
X9720Y9910D01*
X9700Y9926D01*
X9677Y9935D01*
X9652Y9939D01*
D02*
G37*
G36*
X9144D02*
X9119Y9935D01*
X9096Y9926D01*
X9076Y9910D01*
X9061Y9891D01*
X9051Y9867D01*
X9048Y9843D01*
X9051Y9818D01*
X9061Y9794D01*
X9076Y9775D01*
X9096Y9759D01*
X9119Y9750D01*
X9144Y9746D01*
X9169Y9750D01*
X9192Y9759D01*
X9212Y9775D01*
X9227Y9794D01*
X9237Y9818D01*
X9240Y9843D01*
X9237Y9867D01*
X9227Y9891D01*
X9212Y9910D01*
X9192Y9926D01*
X9169Y9935D01*
X9144Y9939D01*
D02*
G37*
G36*
X8890D02*
X8865Y9935D01*
X8842Y9926D01*
X8822Y9910D01*
X8807Y9891D01*
X8797Y9867D01*
X8794Y9843D01*
X8797Y9818D01*
X8807Y9794D01*
X8822Y9775D01*
X8842Y9759D01*
X8865Y9750D01*
X8890Y9746D01*
X8915Y9750D01*
X8938Y9759D01*
X8958Y9775D01*
X8973Y9794D01*
X8983Y9818D01*
X8986Y9843D01*
X8983Y9867D01*
X8973Y9891D01*
X8958Y9910D01*
X8938Y9926D01*
X8915Y9935D01*
X8890Y9939D01*
D02*
G37*
G36*
X8636D02*
X8611Y9935D01*
X8588Y9926D01*
X8568Y9910D01*
X8553Y9891D01*
X8543Y9867D01*
X8540Y9843D01*
X8543Y9818D01*
X8553Y9794D01*
X8568Y9775D01*
X8588Y9759D01*
X8611Y9750D01*
X8636Y9746D01*
X8661Y9750D01*
X8684Y9759D01*
X8704Y9775D01*
X8719Y9794D01*
X8729Y9818D01*
X8732Y9843D01*
X8729Y9867D01*
X8719Y9891D01*
X8704Y9910D01*
X8684Y9926D01*
X8661Y9935D01*
X8636Y9939D01*
D02*
G37*
G36*
X8382D02*
X8357Y9935D01*
X8334Y9926D01*
X8314Y9910D01*
X8299Y9891D01*
X8289Y9867D01*
X8286Y9843D01*
X8289Y9818D01*
X8299Y9794D01*
X8314Y9775D01*
X8334Y9759D01*
X8357Y9750D01*
X8382Y9746D01*
X8407Y9750D01*
X8430Y9759D01*
X8450Y9775D01*
X8465Y9794D01*
X8475Y9818D01*
X8478Y9843D01*
X8475Y9867D01*
X8465Y9891D01*
X8450Y9910D01*
X8430Y9926D01*
X8407Y9935D01*
X8382Y9939D01*
D02*
G37*
G36*
X7366D02*
X7341Y9935D01*
X7318Y9926D01*
X7298Y9910D01*
X7283Y9891D01*
X7273Y9867D01*
X7270Y9843D01*
X7273Y9818D01*
X7283Y9794D01*
X7298Y9775D01*
X7318Y9759D01*
X7341Y9750D01*
X7366Y9746D01*
X7391Y9750D01*
X7414Y9759D01*
X7434Y9775D01*
X7449Y9794D01*
X7459Y9818D01*
X7462Y9843D01*
X7459Y9867D01*
X7449Y9891D01*
X7434Y9910D01*
X7414Y9926D01*
X7391Y9935D01*
X7366Y9939D01*
D02*
G37*
G36*
X6858D02*
X6833Y9935D01*
X6810Y9926D01*
X6790Y9910D01*
X6775Y9891D01*
X6765Y9867D01*
X6762Y9843D01*
X6765Y9818D01*
X6775Y9794D01*
X6790Y9775D01*
X6810Y9759D01*
X6833Y9750D01*
X6858Y9746D01*
X6883Y9750D01*
X6906Y9759D01*
X6926Y9775D01*
X6941Y9794D01*
X6951Y9818D01*
X6954Y9843D01*
X6951Y9867D01*
X6941Y9891D01*
X6926Y9910D01*
X6906Y9926D01*
X6883Y9935D01*
X6858Y9939D01*
D02*
G37*
G36*
X6604D02*
X6579Y9935D01*
X6556Y9926D01*
X6536Y9910D01*
X6521Y9891D01*
X6511Y9867D01*
X6508Y9843D01*
X6511Y9818D01*
X6521Y9794D01*
X6536Y9775D01*
X6556Y9759D01*
X6579Y9750D01*
X6604Y9746D01*
X6629Y9750D01*
X6652Y9759D01*
X6672Y9775D01*
X6687Y9794D01*
X6697Y9818D01*
X6700Y9843D01*
X6697Y9867D01*
X6687Y9891D01*
X6672Y9910D01*
X6652Y9926D01*
X6629Y9935D01*
X6604Y9939D01*
D02*
G37*
G36*
X6350D02*
X6325Y9935D01*
X6302Y9926D01*
X6282Y9910D01*
X6267Y9891D01*
X6257Y9867D01*
X6254Y9843D01*
X6257Y9818D01*
X6267Y9794D01*
X6282Y9775D01*
X6302Y9759D01*
X6325Y9750D01*
X6350Y9746D01*
X6375Y9750D01*
X6398Y9759D01*
X6418Y9775D01*
X6433Y9794D01*
X6443Y9818D01*
X6446Y9843D01*
X6443Y9867D01*
X6433Y9891D01*
X6418Y9910D01*
X6398Y9926D01*
X6375Y9935D01*
X6350Y9939D01*
D02*
G37*
G36*
X6096D02*
X6071Y9935D01*
X6048Y9926D01*
X6028Y9910D01*
X6013Y9891D01*
X6003Y9867D01*
X6000Y9843D01*
X6003Y9818D01*
X6013Y9794D01*
X6028Y9775D01*
X6048Y9759D01*
X6071Y9750D01*
X6096Y9746D01*
X6121Y9750D01*
X6144Y9759D01*
X6164Y9775D01*
X6179Y9794D01*
X6189Y9818D01*
X6192Y9843D01*
X6189Y9867D01*
X6179Y9891D01*
X6164Y9910D01*
X6144Y9926D01*
X6121Y9935D01*
X6096Y9939D01*
D02*
G37*
G36*
X5080D02*
X5055Y9935D01*
X5032Y9926D01*
X5012Y9910D01*
X4997Y9891D01*
X4987Y9867D01*
X4984Y9843D01*
X4987Y9818D01*
X4997Y9794D01*
X5012Y9775D01*
X5032Y9759D01*
X5055Y9750D01*
X5080Y9746D01*
X5105Y9750D01*
X5128Y9759D01*
X5148Y9775D01*
X5163Y9794D01*
X5173Y9818D01*
X5176Y9843D01*
X5173Y9867D01*
X5163Y9891D01*
X5148Y9910D01*
X5128Y9926D01*
X5105Y9935D01*
X5080Y9939D01*
D02*
G37*
G36*
X4572D02*
X4547Y9935D01*
X4524Y9926D01*
X4504Y9910D01*
X4489Y9891D01*
X4479Y9867D01*
X4476Y9843D01*
X4479Y9818D01*
X4489Y9794D01*
X4504Y9775D01*
X4524Y9759D01*
X4547Y9750D01*
X4572Y9746D01*
X4597Y9750D01*
X4620Y9759D01*
X4640Y9775D01*
X4655Y9794D01*
X4665Y9818D01*
X4668Y9843D01*
X4665Y9867D01*
X4655Y9891D01*
X4640Y9910D01*
X4620Y9926D01*
X4597Y9935D01*
X4572Y9939D01*
D02*
G37*
G36*
X4318D02*
X4293Y9935D01*
X4270Y9926D01*
X4250Y9910D01*
X4235Y9891D01*
X4225Y9867D01*
X4222Y9843D01*
X4225Y9818D01*
X4235Y9794D01*
X4250Y9775D01*
X4270Y9759D01*
X4293Y9750D01*
X4318Y9746D01*
X4343Y9750D01*
X4366Y9759D01*
X4386Y9775D01*
X4401Y9794D01*
X4411Y9818D01*
X4414Y9843D01*
X4411Y9867D01*
X4401Y9891D01*
X4386Y9910D01*
X4366Y9926D01*
X4343Y9935D01*
X4318Y9939D01*
D02*
G37*
G36*
X4064D02*
X4039Y9935D01*
X4016Y9926D01*
X3996Y9910D01*
X3981Y9891D01*
X3971Y9867D01*
X3968Y9843D01*
X3971Y9818D01*
X3981Y9794D01*
X3996Y9775D01*
X4016Y9759D01*
X4039Y9750D01*
X4064Y9746D01*
X4089Y9750D01*
X4112Y9759D01*
X4132Y9775D01*
X4147Y9794D01*
X4157Y9818D01*
X4160Y9843D01*
X4157Y9867D01*
X4147Y9891D01*
X4132Y9910D01*
X4112Y9926D01*
X4089Y9935D01*
X4064Y9939D01*
D02*
G37*
G36*
X3810D02*
X3785Y9935D01*
X3762Y9926D01*
X3742Y9910D01*
X3727Y9891D01*
X3717Y9867D01*
X3714Y9843D01*
X3717Y9818D01*
X3727Y9794D01*
X3742Y9775D01*
X3762Y9759D01*
X3785Y9750D01*
X3810Y9746D01*
X3835Y9750D01*
X3858Y9759D01*
X3878Y9775D01*
X3893Y9794D01*
X3903Y9818D01*
X3906Y9843D01*
X3903Y9867D01*
X3893Y9891D01*
X3878Y9910D01*
X3858Y9926D01*
X3835Y9935D01*
X3810Y9939D01*
D02*
G37*
G36*
X9510Y9823D02*
X9417D01*
Y9731D01*
X9428Y9732D01*
X9455Y9744D01*
X9479Y9762D01*
X9497Y9785D01*
X9508Y9813D01*
X9510Y9823D01*
D02*
G37*
G36*
X7224D02*
X7131D01*
Y9731D01*
X7142Y9732D01*
X7169Y9744D01*
X7193Y9762D01*
X7211Y9785D01*
X7222Y9813D01*
X7224Y9823D01*
D02*
G37*
G36*
X9379D02*
X9286D01*
X9288Y9813D01*
X9299Y9785D01*
X9317Y9762D01*
X9341Y9744D01*
X9368Y9732D01*
X9379Y9731D01*
Y9823D01*
D02*
G37*
G36*
X7093D02*
X7000D01*
X7002Y9813D01*
X7013Y9785D01*
X7031Y9762D01*
X7055Y9744D01*
X7082Y9732D01*
X7093Y9731D01*
Y9823D01*
D02*
G37*
G36*
X9417Y9700D02*
Y9608D01*
X9510D01*
X9508Y9618D01*
X9497Y9646D01*
X9479Y9669D01*
X9455Y9687D01*
X9428Y9699D01*
X9417Y9700D01*
D02*
G37*
G36*
X7131D02*
Y9608D01*
X7224D01*
X7222Y9618D01*
X7211Y9646D01*
X7193Y9669D01*
X7169Y9687D01*
X7142Y9699D01*
X7131Y9700D01*
D02*
G37*
G36*
X9379D02*
X9368Y9699D01*
X9341Y9687D01*
X9317Y9669D01*
X9299Y9646D01*
X9288Y9618D01*
X9286Y9608D01*
X9379D01*
Y9700D01*
D02*
G37*
G36*
X7093D02*
X7082Y9699D01*
X7055Y9687D01*
X7031Y9669D01*
X7013Y9646D01*
X7002Y9618D01*
X7000Y9608D01*
X7093D01*
Y9700D01*
D02*
G37*
G36*
X4938Y9823D02*
X4826D01*
X4714D01*
X4716Y9813D01*
X4727Y9785D01*
X4745Y9762D01*
X4769Y9744D01*
X4773Y9742D01*
Y9689D01*
X4769Y9687D01*
X4745Y9669D01*
X4727Y9646D01*
X4716Y9618D01*
X4714Y9608D01*
X4826D01*
X4938D01*
X4936Y9618D01*
X4925Y9646D01*
X4907Y9669D01*
X4883Y9687D01*
X4879Y9689D01*
Y9742D01*
X4883Y9744D01*
X4907Y9762D01*
X4925Y9785D01*
X4936Y9813D01*
X4938Y9823D01*
D02*
G37*
G36*
X5658Y9584D02*
Y9531D01*
X5711D01*
X5711Y9532D01*
X5703Y9549D01*
X5691Y9565D01*
X5676Y9577D01*
X5658Y9584D01*
X5658Y9584D01*
D02*
G37*
G36*
X5620D02*
X5620Y9584D01*
X5602Y9577D01*
X5586Y9565D01*
X5574Y9549D01*
X5567Y9532D01*
X5567Y9531D01*
X5620D01*
Y9584D01*
D02*
G37*
G36*
X8477Y9684D02*
X8287D01*
Y9493D01*
X8477D01*
Y9684D01*
D02*
G37*
G36*
X6191D02*
X6001D01*
Y9493D01*
X6191D01*
Y9684D01*
D02*
G37*
G36*
X3905D02*
X3715D01*
Y9493D01*
X3905D01*
Y9684D01*
D02*
G37*
G36*
X9652Y9685D02*
X9627Y9681D01*
X9604Y9672D01*
X9584Y9656D01*
X9569Y9637D01*
X9559Y9613D01*
X9556Y9589D01*
X9559Y9564D01*
X9569Y9540D01*
X9584Y9521D01*
X9604Y9505D01*
X9627Y9496D01*
X9652Y9492D01*
X9677Y9496D01*
X9700Y9505D01*
X9720Y9521D01*
X9735Y9540D01*
X9745Y9564D01*
X9748Y9589D01*
X9745Y9613D01*
X9735Y9637D01*
X9720Y9656D01*
X9700Y9672D01*
X9677Y9681D01*
X9652Y9685D01*
D02*
G37*
G36*
X9144D02*
X9119Y9681D01*
X9096Y9672D01*
X9076Y9656D01*
X9061Y9637D01*
X9051Y9613D01*
X9048Y9589D01*
X9051Y9564D01*
X9061Y9540D01*
X9076Y9521D01*
X9096Y9505D01*
X9119Y9496D01*
X9144Y9492D01*
X9169Y9496D01*
X9192Y9505D01*
X9212Y9521D01*
X9227Y9540D01*
X9237Y9564D01*
X9240Y9589D01*
X9237Y9613D01*
X9227Y9637D01*
X9212Y9656D01*
X9192Y9672D01*
X9169Y9681D01*
X9144Y9685D01*
D02*
G37*
G36*
X8890D02*
X8865Y9681D01*
X8842Y9672D01*
X8822Y9656D01*
X8807Y9637D01*
X8797Y9613D01*
X8794Y9589D01*
X8797Y9564D01*
X8807Y9540D01*
X8822Y9521D01*
X8842Y9505D01*
X8865Y9496D01*
X8890Y9492D01*
X8915Y9496D01*
X8938Y9505D01*
X8958Y9521D01*
X8973Y9540D01*
X8983Y9564D01*
X8986Y9589D01*
X8983Y9613D01*
X8973Y9637D01*
X8958Y9656D01*
X8938Y9672D01*
X8915Y9681D01*
X8890Y9685D01*
D02*
G37*
G36*
X8636D02*
X8611Y9681D01*
X8588Y9672D01*
X8568Y9656D01*
X8553Y9637D01*
X8543Y9613D01*
X8540Y9589D01*
X8543Y9564D01*
X8553Y9540D01*
X8568Y9521D01*
X8588Y9505D01*
X8611Y9496D01*
X8636Y9492D01*
X8661Y9496D01*
X8684Y9505D01*
X8704Y9521D01*
X8719Y9540D01*
X8729Y9564D01*
X8732Y9589D01*
X8729Y9613D01*
X8719Y9637D01*
X8704Y9656D01*
X8684Y9672D01*
X8661Y9681D01*
X8636Y9685D01*
D02*
G37*
G36*
X7366D02*
X7341Y9681D01*
X7318Y9672D01*
X7298Y9656D01*
X7283Y9637D01*
X7273Y9613D01*
X7270Y9589D01*
X7273Y9564D01*
X7283Y9540D01*
X7298Y9521D01*
X7318Y9505D01*
X7341Y9496D01*
X7366Y9492D01*
X7391Y9496D01*
X7414Y9505D01*
X7434Y9521D01*
X7449Y9540D01*
X7459Y9564D01*
X7462Y9589D01*
X7459Y9613D01*
X7449Y9637D01*
X7434Y9656D01*
X7414Y9672D01*
X7391Y9681D01*
X7366Y9685D01*
D02*
G37*
G36*
X6858D02*
X6833Y9681D01*
X6810Y9672D01*
X6790Y9656D01*
X6775Y9637D01*
X6765Y9613D01*
X6762Y9589D01*
X6765Y9564D01*
X6775Y9540D01*
X6790Y9521D01*
X6810Y9505D01*
X6833Y9496D01*
X6858Y9492D01*
X6883Y9496D01*
X6906Y9505D01*
X6926Y9521D01*
X6941Y9540D01*
X6951Y9564D01*
X6954Y9589D01*
X6951Y9613D01*
X6941Y9637D01*
X6926Y9656D01*
X6906Y9672D01*
X6883Y9681D01*
X6858Y9685D01*
D02*
G37*
G36*
X6604D02*
X6579Y9681D01*
X6556Y9672D01*
X6536Y9656D01*
X6521Y9637D01*
X6511Y9613D01*
X6508Y9589D01*
X6511Y9564D01*
X6521Y9540D01*
X6536Y9521D01*
X6556Y9505D01*
X6579Y9496D01*
X6604Y9492D01*
X6629Y9496D01*
X6652Y9505D01*
X6672Y9521D01*
X6687Y9540D01*
X6697Y9564D01*
X6700Y9589D01*
X6697Y9613D01*
X6687Y9637D01*
X6672Y9656D01*
X6652Y9672D01*
X6629Y9681D01*
X6604Y9685D01*
D02*
G37*
G36*
X6350D02*
X6325Y9681D01*
X6302Y9672D01*
X6282Y9656D01*
X6267Y9637D01*
X6257Y9613D01*
X6254Y9589D01*
X6257Y9564D01*
X6267Y9540D01*
X6282Y9521D01*
X6302Y9505D01*
X6325Y9496D01*
X6350Y9492D01*
X6375Y9496D01*
X6398Y9505D01*
X6418Y9521D01*
X6433Y9540D01*
X6443Y9564D01*
X6446Y9589D01*
X6443Y9613D01*
X6433Y9637D01*
X6418Y9656D01*
X6398Y9672D01*
X6375Y9681D01*
X6350Y9685D01*
D02*
G37*
G36*
X4572D02*
X4547Y9681D01*
X4524Y9672D01*
X4504Y9656D01*
X4489Y9637D01*
X4479Y9613D01*
X4476Y9589D01*
X4479Y9564D01*
X4489Y9540D01*
X4504Y9521D01*
X4524Y9505D01*
X4547Y9496D01*
X4572Y9492D01*
X4597Y9496D01*
X4620Y9505D01*
X4640Y9521D01*
X4655Y9540D01*
X4665Y9564D01*
X4668Y9589D01*
X4665Y9613D01*
X4655Y9637D01*
X4640Y9656D01*
X4620Y9672D01*
X4597Y9681D01*
X4572Y9685D01*
D02*
G37*
G36*
X4318D02*
X4293Y9681D01*
X4270Y9672D01*
X4250Y9656D01*
X4235Y9637D01*
X4225Y9613D01*
X4222Y9589D01*
X4225Y9564D01*
X4235Y9540D01*
X4250Y9521D01*
X4270Y9505D01*
X4293Y9496D01*
X4318Y9492D01*
X4343Y9496D01*
X4366Y9505D01*
X4386Y9521D01*
X4401Y9540D01*
X4411Y9564D01*
X4414Y9589D01*
X4411Y9613D01*
X4401Y9637D01*
X4386Y9656D01*
X4366Y9672D01*
X4343Y9681D01*
X4318Y9685D01*
D02*
G37*
G36*
X4064D02*
X4039Y9681D01*
X4016Y9672D01*
X3996Y9656D01*
X3981Y9637D01*
X3971Y9613D01*
X3968Y9589D01*
X3971Y9564D01*
X3981Y9540D01*
X3996Y9521D01*
X4016Y9505D01*
X4039Y9496D01*
X4064Y9492D01*
X4089Y9496D01*
X4112Y9505D01*
X4132Y9521D01*
X4147Y9540D01*
X4157Y9564D01*
X4160Y9589D01*
X4157Y9613D01*
X4147Y9637D01*
X4132Y9656D01*
X4112Y9672D01*
X4089Y9681D01*
X4064Y9685D01*
D02*
G37*
G36*
X9510Y9569D02*
X9417D01*
Y9477D01*
X9428Y9478D01*
X9455Y9490D01*
X9479Y9508D01*
X9497Y9531D01*
X9508Y9559D01*
X9510Y9569D01*
D02*
G37*
G36*
X7224D02*
X7131D01*
Y9477D01*
X7142Y9478D01*
X7169Y9490D01*
X7193Y9508D01*
X7211Y9531D01*
X7222Y9559D01*
X7224Y9569D01*
D02*
G37*
G36*
X4938D02*
X4845D01*
Y9477D01*
X4856Y9478D01*
X4883Y9490D01*
X4907Y9508D01*
X4925Y9531D01*
X4936Y9559D01*
X4938Y9569D01*
D02*
G37*
G36*
X9379D02*
X9286D01*
X9288Y9559D01*
X9299Y9531D01*
X9317Y9508D01*
X9341Y9490D01*
X9368Y9478D01*
X9379Y9477D01*
Y9569D01*
D02*
G37*
G36*
X7093D02*
X7000D01*
X7002Y9559D01*
X7013Y9531D01*
X7031Y9508D01*
X7055Y9490D01*
X7082Y9478D01*
X7093Y9477D01*
Y9569D01*
D02*
G37*
G36*
X4807D02*
X4714D01*
X4716Y9559D01*
X4727Y9531D01*
X4745Y9508D01*
X4769Y9490D01*
X4796Y9478D01*
X4807Y9477D01*
Y9569D01*
D02*
G37*
G36*
X5711Y9493D02*
X5658D01*
Y9441D01*
X5658Y9441D01*
X5676Y9448D01*
X5691Y9460D01*
X5703Y9475D01*
X5711Y9493D01*
X5711Y9493D01*
D02*
G37*
G36*
X5620D02*
X5567D01*
X5567Y9493D01*
X5574Y9475D01*
X5586Y9460D01*
X5602Y9448D01*
X5620Y9441D01*
X5620Y9441D01*
Y9493D01*
D02*
G37*
G36*
X3715Y9203D02*
Y9150D01*
X3767D01*
X3767Y9151D01*
X3760Y9168D01*
X3748Y9184D01*
X3733Y9196D01*
X3715Y9203D01*
X3715Y9203D01*
D02*
G37*
G36*
X3677D02*
X3676Y9203D01*
X3659Y9196D01*
X3643Y9184D01*
X3631Y9168D01*
X3624Y9151D01*
X3624Y9150D01*
X3677D01*
Y9203D01*
D02*
G37*
G36*
X3767Y9112D02*
X3715D01*
Y9060D01*
X3715Y9060D01*
X3733Y9067D01*
X3748Y9079D01*
X3760Y9094D01*
X3767Y9112D01*
X3767Y9112D01*
D02*
G37*
G36*
X3677D02*
X3624D01*
X3624Y9112D01*
X3631Y9094D01*
X3643Y9079D01*
X3659Y9067D01*
X3676Y9060D01*
X3677Y9060D01*
Y9112D01*
D02*
G37*
G36*
X9493Y8911D02*
Y8858D01*
X9546D01*
X9546Y8858D01*
X9539Y8876D01*
X9527Y8892D01*
X9511Y8904D01*
X9493Y8911D01*
X9493Y8911D01*
D02*
G37*
G36*
X9455D02*
X9455Y8911D01*
X9437Y8904D01*
X9422Y8892D01*
X9410Y8876D01*
X9402Y8858D01*
X9402Y8858D01*
X9455D01*
Y8911D01*
D02*
G37*
G36*
X9546Y8820D02*
X9493D01*
Y8767D01*
X9493Y8767D01*
X9511Y8775D01*
X9527Y8787D01*
X9539Y8802D01*
X9546Y8820D01*
X9546Y8820D01*
D02*
G37*
G36*
X9455D02*
X9402D01*
X9402Y8820D01*
X9410Y8802D01*
X9422Y8787D01*
X9437Y8775D01*
X9455Y8767D01*
X9455Y8767D01*
Y8820D01*
D02*
G37*
G36*
X10573Y8795D02*
X10382D01*
Y8604D01*
X10573D01*
Y8795D01*
D02*
G37*
G36*
X10224Y8796D02*
X10199Y8792D01*
X10175Y8783D01*
X10156Y8767D01*
X10140Y8748D01*
X10133Y8731D01*
X10045D01*
X10033Y8728D01*
X10023Y8721D01*
X9668Y8366D01*
X9661Y8356D01*
X9659Y8344D01*
Y8102D01*
X9333Y7776D01*
X9312Y7781D01*
X9310Y7783D01*
X9303Y7793D01*
X9306Y7814D01*
X9306D01*
Y7934D01*
X9185D01*
Y7814D01*
X9202D01*
Y7798D01*
X9204Y7786D01*
X9206Y7783D01*
X9206Y7782D01*
X9201Y7760D01*
X9206Y7738D01*
X9218Y7719D01*
X9236Y7707D01*
X9258Y7703D01*
X9280Y7707D01*
X9283Y7709D01*
X9303Y7698D01*
Y7102D01*
X9254Y7053D01*
X9247Y7043D01*
X9245Y7031D01*
Y6856D01*
X9229Y6843D01*
X9225Y6844D01*
X9203Y6840D01*
X9185Y6827D01*
X9173Y6809D01*
X9172Y6808D01*
X9161Y6791D01*
X9150Y6793D01*
X9139Y6796D01*
X9117Y6791D01*
X9099Y6779D01*
X9086Y6760D01*
X9082Y6739D01*
X9086Y6717D01*
X9096Y6702D01*
X9091Y6688D01*
X9087Y6682D01*
X9025D01*
Y6578D01*
X8958D01*
Y6682D01*
X8940D01*
Y6711D01*
X8949Y6717D01*
X8961Y6736D01*
X8966Y6757D01*
X8961Y6779D01*
X8949Y6798D01*
X8931Y6810D01*
X8909Y6814D01*
X8887Y6810D01*
X8868Y6798D01*
X8856Y6779D01*
X8852Y6757D01*
X8856Y6736D01*
X8868Y6717D01*
X8878Y6711D01*
Y6682D01*
X8837D01*
Y6561D01*
X8863D01*
X8872Y6541D01*
X8869Y6537D01*
X8867Y6525D01*
Y6507D01*
X8837D01*
Y6386D01*
X8958D01*
Y6507D01*
X8975Y6516D01*
X9007D01*
Y6466D01*
X9086D01*
X9164D01*
Y6516D01*
X9191D01*
X9211Y6513D01*
Y6393D01*
X9331D01*
Y6513D01*
X9351Y6516D01*
X9388D01*
Y6395D01*
X9509D01*
Y6465D01*
X9539Y6495D01*
X9539Y6495D01*
X9649Y6604D01*
X9649Y6604D01*
X9656Y6616D01*
X9659Y6630D01*
X9659Y6630D01*
Y6848D01*
X9683D01*
Y6969D01*
X9600D01*
X9594Y6989D01*
X9603Y6996D01*
X9616Y7014D01*
X9620Y7036D01*
X9616Y7058D01*
X9603Y7076D01*
X9585Y7088D01*
X9564Y7093D01*
X9559Y7098D01*
X9560Y7119D01*
X9565Y7123D01*
X9578Y7141D01*
X9582Y7163D01*
X9578Y7185D01*
X9565Y7203D01*
X9553Y7212D01*
X9564Y7229D01*
X9598D01*
X9601Y7229D01*
X9688D01*
Y7350D01*
X9568D01*
X9568Y7350D01*
X9565Y7362D01*
X9561Y7368D01*
X9561Y7368D01*
X9561Y7368D01*
X9553Y7381D01*
X9537Y7391D01*
Y7464D01*
X9540Y7465D01*
X9552Y7484D01*
X9557Y7506D01*
X9552Y7528D01*
X9540Y7546D01*
X9536Y7549D01*
Y7630D01*
X9645Y7739D01*
X9645Y7739D01*
X9652Y7751D01*
X9655Y7765D01*
Y7803D01*
X9659Y7806D01*
X9672Y7824D01*
X9676Y7846D01*
X9672Y7868D01*
X9659Y7886D01*
X9641Y7899D01*
X9636Y7900D01*
X9629Y7922D01*
X9745Y8037D01*
X9752Y8048D01*
X9754Y8059D01*
Y8316D01*
X9853Y8414D01*
X10131D01*
X10140Y8392D01*
X10156Y8372D01*
X10175Y8357D01*
X10199Y8348D01*
X10224Y8344D01*
X10248Y8348D01*
X10272Y8357D01*
X10291Y8372D01*
X10307Y8392D01*
X10316Y8416D01*
X10320Y8440D01*
X10316Y8465D01*
X10307Y8488D01*
X10291Y8508D01*
X10272Y8524D01*
X10248Y8533D01*
X10224Y8537D01*
X10199Y8533D01*
X10175Y8524D01*
X10156Y8508D01*
X10140Y8488D01*
X10135Y8477D01*
X9893D01*
X9885Y8495D01*
X10058Y8668D01*
X10133D01*
X10140Y8651D01*
X10156Y8632D01*
X10175Y8616D01*
X10199Y8607D01*
X10224Y8603D01*
X10248Y8607D01*
X10272Y8616D01*
X10291Y8632D01*
X10307Y8651D01*
X10316Y8675D01*
X10320Y8700D01*
X10316Y8724D01*
X10307Y8748D01*
X10291Y8767D01*
X10272Y8783D01*
X10248Y8792D01*
X10224Y8796D01*
D02*
G37*
G36*
X7330Y8446D02*
X7271D01*
Y8387D01*
X7330D01*
Y8446D01*
D02*
G37*
G36*
X7233D02*
X7174D01*
Y8387D01*
X7233D01*
Y8446D01*
D02*
G37*
G36*
X10573Y8536D02*
X10382D01*
Y8345D01*
X10573D01*
Y8536D01*
D02*
G37*
G36*
X4058Y8352D02*
Y8299D01*
X4110D01*
X4110Y8300D01*
X4103Y8318D01*
X4091Y8333D01*
X4076Y8345D01*
X4058Y8352D01*
X4058Y8352D01*
D02*
G37*
G36*
X4020D02*
X4019Y8352D01*
X4001Y8345D01*
X3986Y8333D01*
X3974Y8318D01*
X3967Y8300D01*
X3967Y8299D01*
X4020D01*
Y8352D01*
D02*
G37*
G36*
X7330Y8349D02*
X7271D01*
Y8290D01*
X7330D01*
Y8349D01*
D02*
G37*
G36*
X7233D02*
X7174D01*
Y8290D01*
X7233D01*
Y8349D01*
D02*
G37*
G36*
X4110Y8261D02*
X4058D01*
Y8209D01*
X4058Y8209D01*
X4076Y8216D01*
X4091Y8228D01*
X4103Y8243D01*
X4110Y8261D01*
X4110Y8261D01*
D02*
G37*
G36*
X4020D02*
X3967D01*
X3967Y8261D01*
X3974Y8243D01*
X3986Y8228D01*
X4001Y8216D01*
X4019Y8209D01*
X4020Y8209D01*
Y8261D01*
D02*
G37*
G36*
X9019Y8229D02*
X8960D01*
Y8170D01*
X9019D01*
Y8229D01*
D02*
G37*
G36*
X8922D02*
X8863D01*
Y8170D01*
X8922D01*
Y8229D01*
D02*
G37*
G36*
X5061Y8187D02*
Y8134D01*
X5114D01*
X5114Y8135D01*
X5106Y8152D01*
X5094Y8168D01*
X5079Y8180D01*
X5061Y8187D01*
X5061Y8187D01*
D02*
G37*
G36*
X5023D02*
X5023Y8187D01*
X5005Y8180D01*
X4989Y8168D01*
X4978Y8152D01*
X4970Y8135D01*
X4970Y8134D01*
X5023D01*
Y8187D01*
D02*
G37*
G36*
X9324Y8127D02*
X9265D01*
Y8068D01*
X9324D01*
Y8127D01*
D02*
G37*
G36*
X9227D02*
X9168D01*
Y8068D01*
X9227D01*
Y8127D01*
D02*
G37*
G36*
X5114Y8096D02*
X5061D01*
Y8044D01*
X5061Y8044D01*
X5079Y8051D01*
X5094Y8063D01*
X5106Y8078D01*
X5114Y8096D01*
X5114Y8096D01*
D02*
G37*
G36*
X5023D02*
X4970D01*
X4970Y8096D01*
X4978Y8078D01*
X4989Y8063D01*
X5005Y8051D01*
X5023Y8044D01*
X5023Y8044D01*
Y8096D01*
D02*
G37*
G36*
X6013Y8085D02*
Y8033D01*
X6066D01*
X6066Y8033D01*
X6059Y8051D01*
X6047Y8066D01*
X6032Y8078D01*
X6014Y8085D01*
X6013Y8085D01*
D02*
G37*
G36*
X5975D02*
X5975Y8085D01*
X5957Y8078D01*
X5942Y8066D01*
X5930Y8051D01*
X5923Y8033D01*
X5923Y8033D01*
X5975D01*
Y8085D01*
D02*
G37*
G36*
X9324Y8030D02*
X9265D01*
Y7971D01*
X9324D01*
Y8030D01*
D02*
G37*
G36*
X9227D02*
X9168D01*
Y7971D01*
X9227D01*
Y8030D01*
D02*
G37*
G36*
X6066Y7995D02*
X6013D01*
Y7942D01*
X6014Y7942D01*
X6032Y7949D01*
X6047Y7961D01*
X6059Y7977D01*
X6066Y7994D01*
X6066Y7995D01*
D02*
G37*
G36*
X5975D02*
X5923D01*
X5923Y7994D01*
X5930Y7977D01*
X5942Y7961D01*
X5957Y7949D01*
X5975Y7942D01*
X5975Y7942D01*
Y7995D01*
D02*
G37*
G36*
X8624Y7966D02*
X8565D01*
Y7907D01*
X8624D01*
Y7966D01*
D02*
G37*
G36*
X8527D02*
X8468D01*
Y7907D01*
X8527D01*
Y7966D01*
D02*
G37*
G36*
X6655Y8071D02*
X6633Y8066D01*
X6615Y8054D01*
X6602Y8036D01*
X6598Y8014D01*
X6602Y7992D01*
X6615Y7973D01*
X6619Y7971D01*
Y7933D01*
X6594D01*
Y7812D01*
X6715D01*
Y7933D01*
X6691D01*
Y7971D01*
X6695Y7973D01*
X6707Y7992D01*
X6712Y8014D01*
X6707Y8036D01*
X6695Y8054D01*
X6677Y8066D01*
X6655Y8071D01*
D02*
G37*
G36*
X6250D02*
X6228Y8066D01*
X6210Y8054D01*
X6197Y8036D01*
X6193Y8014D01*
X6197Y7992D01*
X6210Y7973D01*
X6212Y7972D01*
Y7933D01*
X6188D01*
Y7812D01*
X6309D01*
Y7933D01*
X6285D01*
Y7970D01*
X6290Y7973D01*
X6303Y7992D01*
X6307Y8014D01*
X6303Y8036D01*
X6290Y8054D01*
X6272Y8066D01*
X6250Y8071D01*
D02*
G37*
G36*
X8624Y7869D02*
X8565D01*
Y7810D01*
X8624D01*
Y7869D01*
D02*
G37*
G36*
X8527D02*
X8468D01*
Y7810D01*
X8527D01*
Y7869D01*
D02*
G37*
G36*
X5321Y9315D02*
X5299Y9311D01*
X5281Y9299D01*
X5269Y9280D01*
X5264Y9258D01*
X5269Y9236D01*
X5281Y9218D01*
X5299Y9206D01*
X5321Y9201D01*
X5343Y9206D01*
X5352Y9212D01*
X6051D01*
X6341Y8921D01*
Y8895D01*
X6335Y8886D01*
X6331Y8865D01*
X6335Y8843D01*
X6341Y8834D01*
Y8661D01*
X6345Y8644D01*
X6355Y8628D01*
X7003Y7981D01*
X7018Y7971D01*
X7036Y7967D01*
X7215D01*
Y7892D01*
X7211Y7889D01*
X7199Y7870D01*
X7195Y7849D01*
X7199Y7827D01*
X7211Y7808D01*
X7230Y7796D01*
X7252Y7792D01*
X7274Y7796D01*
X7292Y7808D01*
X7304Y7827D01*
X7309Y7849D01*
X7304Y7870D01*
X7292Y7889D01*
X7288Y7892D01*
Y7971D01*
X7292Y7973D01*
X7304Y7992D01*
X7309Y8014D01*
X7304Y8036D01*
X7292Y8054D01*
X7288Y8057D01*
Y8133D01*
X7312D01*
Y8253D01*
X7191D01*
Y8133D01*
X7215D01*
Y8060D01*
X7055D01*
X6435Y8681D01*
Y8834D01*
X6441Y8843D01*
X6445Y8865D01*
X6441Y8886D01*
X6435Y8895D01*
Y8941D01*
X6431Y8959D01*
X6421Y8974D01*
X6104Y9291D01*
X6088Y9301D01*
X6071Y9305D01*
X5352D01*
X5343Y9311D01*
X5321Y9315D01*
D02*
G37*
G36*
X5163Y7831D02*
X5162Y7831D01*
X5144Y7824D01*
X5129Y7812D01*
X5117Y7797D01*
X5110Y7779D01*
X5110Y7779D01*
X5163D01*
Y7831D01*
D02*
G37*
G36*
X3372Y9760D02*
X3181D01*
Y9569D01*
X3372D01*
Y9618D01*
X3422D01*
X4006Y9035D01*
X4021Y9025D01*
X4039Y9021D01*
X4273D01*
X4454Y8841D01*
X4456Y8830D01*
X4468Y8812D01*
X4487Y8799D01*
X4508Y8795D01*
X4530Y8799D01*
X4539Y8805D01*
X5125D01*
X5143Y8809D01*
X5158Y8819D01*
X5192Y8852D01*
X5275Y8769D01*
Y7773D01*
X5254Y7771D01*
X5253Y7779D01*
X5246Y7797D01*
X5234Y7812D01*
X5219Y7824D01*
X5201Y7831D01*
X5201Y7831D01*
Y7760D01*
Y7688D01*
X5201Y7688D01*
X5219Y7695D01*
X5234Y7707D01*
X5246Y7723D01*
X5253Y7740D01*
X5254Y7748D01*
X5275Y7747D01*
Y7442D01*
X5264Y7435D01*
X5254Y7431D01*
X5239Y7438D01*
X5239Y7438D01*
Y7366D01*
Y7294D01*
X5239Y7294D01*
X5254Y7301D01*
X5264Y7297D01*
X5275Y7290D01*
Y6109D01*
X5254Y6098D01*
X5254Y6098D01*
X5232Y6102D01*
X5211Y6098D01*
X5192Y6085D01*
X5180Y6067D01*
X5175Y6045D01*
X5180Y6023D01*
X5192Y6005D01*
X5196Y6002D01*
Y5946D01*
X5078Y5827D01*
X4394D01*
X4394Y5827D01*
X4380Y5825D01*
X4369Y5817D01*
X4369Y5817D01*
X4183Y5631D01*
X4178Y5632D01*
X4156Y5628D01*
X4138Y5616D01*
X4126Y5597D01*
X4121Y5575D01*
X4126Y5553D01*
X4138Y5535D01*
X4156Y5523D01*
X4178Y5518D01*
X4200Y5523D01*
X4219Y5535D01*
X4231Y5553D01*
X4235Y5575D01*
X4234Y5580D01*
X4409Y5755D01*
X5093D01*
X5093Y5755D01*
X5107Y5758D01*
X5118Y5766D01*
X5254Y5902D01*
X5269Y5898D01*
X5275Y5894D01*
Y5739D01*
X5254Y5732D01*
X5247Y5742D01*
X5231Y5754D01*
X5214Y5761D01*
X5213Y5761D01*
Y5690D01*
Y5618D01*
X5214Y5618D01*
X5231Y5625D01*
X5247Y5637D01*
X5254Y5647D01*
X5275Y5640D01*
Y4006D01*
X5269Y3997D01*
X5264Y3975D01*
X5269Y3953D01*
X5275Y3944D01*
Y3480D01*
X5278Y3462D01*
X5288Y3447D01*
X5542Y3193D01*
X5557Y3183D01*
X5575Y3179D01*
X9601Y3179D01*
X9619Y3183D01*
X9634Y3193D01*
X9863Y3421D01*
X9873Y3437D01*
X9876Y3454D01*
Y3988D01*
X9873Y4006D01*
X9863Y4021D01*
X9861Y4023D01*
X9862Y4024D01*
Y4096D01*
X9790D01*
X9788Y4095D01*
X9597Y4287D01*
Y4761D01*
X9600Y4763D01*
X9617Y4769D01*
X9628Y4762D01*
X9645Y4754D01*
X9646Y4754D01*
Y4826D01*
X9665D01*
Y4845D01*
X9736D01*
X9736Y4845D01*
X9729Y4863D01*
X9728Y4865D01*
X9738Y4885D01*
X9792D01*
Y4881D01*
X9893D01*
Y4982D01*
X9889D01*
Y5910D01*
X10288D01*
Y5906D01*
X10292Y5889D01*
X10302Y5874D01*
X10313Y5866D01*
Y5790D01*
X10317Y5772D01*
X10327Y5757D01*
X10363Y5720D01*
X10378Y5710D01*
X10396Y5706D01*
X10431D01*
Y5693D01*
X10552D01*
Y5813D01*
X10431D01*
Y5813D01*
X10413Y5819D01*
X10406Y5824D01*
Y5866D01*
X10417Y5874D01*
X10427Y5889D01*
X10431Y5906D01*
Y6006D01*
X10427Y6024D01*
X10417Y6039D01*
X10402Y6049D01*
X10385Y6053D01*
X10335D01*
X10317Y6049D01*
X10302Y6039D01*
X10292Y6024D01*
X10288Y6006D01*
Y6003D01*
X9913D01*
X9893Y6004D01*
Y6104D01*
X9840D01*
X9813Y6131D01*
Y6230D01*
X9816Y6234D01*
X9838Y6237D01*
X9870Y6205D01*
X9885Y6195D01*
X9903Y6192D01*
X9946D01*
X9992Y6146D01*
Y6092D01*
X10112D01*
Y6212D01*
X10058D01*
X9999Y6271D01*
X9984Y6281D01*
X9966Y6285D01*
X9922D01*
X9894Y6314D01*
Y6314D01*
X9891Y6328D01*
X9889Y6330D01*
Y6602D01*
X9901Y6609D01*
X9913Y6628D01*
X9917Y6650D01*
X9913Y6672D01*
X9901Y6690D01*
X9882Y6702D01*
X9860Y6707D01*
X9846Y6704D01*
X9827Y6714D01*
X9824Y6717D01*
X9823Y6727D01*
X9930Y6834D01*
X9937Y6845D01*
X9940Y6858D01*
Y7808D01*
X9937Y7821D01*
X9930Y7832D01*
X9910Y7851D01*
X9912Y7861D01*
X9908Y7883D01*
X9895Y7902D01*
X9877Y7914D01*
X9855Y7918D01*
X9833Y7914D01*
X9815Y7902D01*
X9803Y7883D01*
X9798Y7861D01*
X9803Y7839D01*
X9815Y7821D01*
X9833Y7809D01*
X9855Y7804D01*
X9856Y7805D01*
X9872Y7791D01*
Y7368D01*
X9822D01*
Y7290D01*
Y7212D01*
X9872D01*
Y6987D01*
X9817D01*
Y6909D01*
X9798D01*
Y6890D01*
X9720D01*
Y6831D01*
X9805D01*
X9812Y6812D01*
X9755Y6755D01*
X9748Y6744D01*
X9745Y6731D01*
Y6191D01*
X9725Y6181D01*
X9720Y6184D01*
X9698Y6189D01*
X9676Y6184D01*
X9657Y6172D01*
X9645Y6153D01*
X9641Y6132D01*
X9645Y6110D01*
X9657Y6091D01*
X9661Y6089D01*
Y5223D01*
X9490Y5052D01*
X9468Y5059D01*
X9468Y5065D01*
X9573Y5171D01*
X9573Y5171D01*
X9581Y5183D01*
X9584Y5197D01*
X9584Y5197D01*
Y5715D01*
X9584Y5715D01*
X9581Y5729D01*
X9573Y5741D01*
X9304Y6010D01*
X9305Y6015D01*
X9301Y6037D01*
X9288Y6055D01*
X9270Y6067D01*
X9248Y6072D01*
X9226Y6067D01*
X9208Y6055D01*
X9196Y6037D01*
X9191Y6015D01*
X9196Y5993D01*
X9208Y5974D01*
X9226Y5962D01*
X9240Y5959D01*
X9243Y5954D01*
X9233Y5932D01*
X9224Y5930D01*
X9205Y5918D01*
X9193Y5899D01*
X9189Y5878D01*
X9193Y5856D01*
X9205Y5837D01*
X9224Y5825D01*
X9246Y5821D01*
X9250Y5822D01*
X9362Y5710D01*
Y5343D01*
X9341Y5329D01*
X9341Y5330D01*
X9341Y5330D01*
Y5258D01*
Y5174D01*
X9345Y5169D01*
X9345Y5167D01*
X9341Y5146D01*
X9345Y5124D01*
X9358Y5106D01*
X9356Y5083D01*
X9348Y5071D01*
X9344Y5050D01*
X9348Y5028D01*
X9360Y5009D01*
X9379Y4997D01*
X9382Y4996D01*
X9396Y4981D01*
X9392Y4959D01*
X9392Y4959D01*
Y4896D01*
X9448D01*
X9448Y4898D01*
X9463Y4905D01*
X9471Y4907D01*
X9489Y4919D01*
X9501Y4938D01*
X9506Y4959D01*
X9505Y4964D01*
X9723Y5183D01*
X9723Y5183D01*
X9731Y5194D01*
X9734Y5208D01*
Y6074D01*
X9754Y6089D01*
X9761Y6088D01*
X9792Y6057D01*
Y6004D01*
X9796D01*
Y5956D01*
Y4982D01*
X9792D01*
Y4978D01*
X9643D01*
X9625Y4975D01*
X9610Y4964D01*
X9544Y4898D01*
X9533Y4896D01*
X9515Y4884D01*
X9503Y4865D01*
X9498Y4843D01*
X9503Y4822D01*
X9504Y4820D01*
Y4267D01*
X9507Y4249D01*
X9517Y4234D01*
X9783Y3968D01*
Y3474D01*
X9582Y3272D01*
X5595Y3272D01*
X5368Y3499D01*
Y3944D01*
X5374Y3953D01*
X5378Y3975D01*
X5374Y3997D01*
X5368Y4006D01*
Y5640D01*
X5388Y5646D01*
X5390Y5644D01*
X5530Y5504D01*
X5545Y5494D01*
X5563Y5491D01*
X5840D01*
Y4737D01*
X5840Y4737D01*
X5844Y4717D01*
X5855Y4700D01*
X6043Y4512D01*
Y3889D01*
X6028Y3878D01*
X6013Y3858D01*
X6003Y3835D01*
X6000Y3810D01*
X6003Y3785D01*
X6013Y3762D01*
X6028Y3742D01*
X6048Y3727D01*
X6071Y3717D01*
X6096Y3714D01*
X6121Y3717D01*
X6144Y3727D01*
X6164Y3742D01*
X6179Y3762D01*
X6189Y3785D01*
X6192Y3810D01*
X6189Y3835D01*
X6179Y3858D01*
X6164Y3878D01*
X6149Y3889D01*
Y4534D01*
X6149Y4534D01*
X6145Y4554D01*
X6134Y4571D01*
X5946Y4759D01*
Y5512D01*
Y6026D01*
X5979Y6059D01*
X5998Y6051D01*
Y5983D01*
X6118D01*
Y6104D01*
X6094D01*
Y6149D01*
X6094Y6149D01*
X6093Y6157D01*
Y6173D01*
X6094Y6174D01*
X6106Y6191D01*
X6110Y6212D01*
X6106Y6232D01*
X6102Y6237D01*
X6101Y6241D01*
X6089Y6260D01*
X6071Y6272D01*
X6049Y6276D01*
X6044Y6276D01*
X5969Y6350D01*
X5957Y6358D01*
X5944Y6361D01*
X5944Y6361D01*
X5692D01*
X5624Y6429D01*
Y6477D01*
X5643Y6480D01*
Y6480D01*
X5764D01*
Y6601D01*
X5643D01*
Y6593D01*
X5641Y6591D01*
X5623Y6584D01*
X5610Y6593D01*
X5588Y6597D01*
X5579Y6596D01*
X5561Y6608D01*
X5575Y6623D01*
X5597Y6628D01*
X5616Y6640D01*
X5624Y6653D01*
X5643Y6658D01*
Y6658D01*
X5643Y6658D01*
X5764D01*
Y6779D01*
X5750D01*
Y6840D01*
X5764Y6854D01*
X5775Y6856D01*
X5793Y6869D01*
X5806Y6887D01*
X5810Y6909D01*
X5806Y6931D01*
X5793Y6949D01*
X5775Y6961D01*
X5753Y6966D01*
X5731Y6961D01*
X5713Y6949D01*
X5700Y6931D01*
X5698Y6920D01*
X5671Y6892D01*
X5661Y6877D01*
X5657Y6859D01*
Y6779D01*
X5643D01*
Y6755D01*
X5613D01*
X5613Y6755D01*
X5600Y6752D01*
X5588Y6744D01*
X5580Y6736D01*
X5575Y6737D01*
X5553Y6733D01*
X5535Y6720D01*
X5523Y6702D01*
X5520Y6687D01*
X5513Y6680D01*
X5508Y6677D01*
X5508Y6677D01*
X5490Y6659D01*
X5475Y6662D01*
X5470Y6666D01*
Y8865D01*
X5466Y8882D01*
X5456Y8898D01*
X5127Y9227D01*
Y9505D01*
X5128Y9505D01*
X5148Y9521D01*
X5163Y9540D01*
X5173Y9564D01*
X5176Y9589D01*
X5173Y9613D01*
X5163Y9637D01*
X5148Y9656D01*
X5128Y9672D01*
X5105Y9681D01*
X5080Y9685D01*
X5055Y9681D01*
X5032Y9672D01*
X5012Y9656D01*
X4997Y9637D01*
X4987Y9613D01*
X4984Y9589D01*
X4987Y9564D01*
X4997Y9540D01*
X5012Y9521D01*
X5032Y9505D01*
X5033Y9505D01*
Y9207D01*
X5037Y9190D01*
X5047Y9175D01*
X5376Y8845D01*
Y8825D01*
X5356Y8819D01*
X5354Y8821D01*
X5249Y8927D01*
X5247Y8937D01*
X5235Y8956D01*
X5216Y8968D01*
X5194Y8972D01*
X5172Y8968D01*
X5154Y8956D01*
X5142Y8937D01*
X5141Y8933D01*
X5106Y8899D01*
X4539D01*
X4530Y8905D01*
X4520Y8907D01*
X4326Y9101D01*
X4310Y9111D01*
X4293Y9114D01*
X4058D01*
X3475Y9698D01*
X3460Y9708D01*
X3442Y9711D01*
X3372D01*
Y9760D01*
D02*
G37*
G36*
X5764Y7795D02*
X5643D01*
Y7771D01*
X5618D01*
X5616Y7775D01*
X5597Y7787D01*
X5575Y7791D01*
X5553Y7787D01*
X5535Y7775D01*
X5523Y7756D01*
X5518Y7734D01*
X5523Y7712D01*
X5535Y7694D01*
X5553Y7682D01*
X5575Y7677D01*
X5597Y7682D01*
X5616Y7694D01*
X5618Y7698D01*
X5643D01*
Y7674D01*
X5764D01*
Y7795D01*
D02*
G37*
G36*
X7399Y7819D02*
Y7766D01*
X7451D01*
X7451Y7766D01*
X7444Y7784D01*
X7432Y7800D01*
X7417Y7811D01*
X7399Y7819D01*
X7399Y7819D01*
D02*
G37*
G36*
X7360D02*
X7360Y7819D01*
X7342Y7811D01*
X7327Y7800D01*
X7315Y7784D01*
X7308Y7766D01*
X7308Y7766D01*
X7360D01*
Y7819D01*
D02*
G37*
G36*
X5957Y7812D02*
X5898D01*
Y7753D01*
X5957D01*
Y7812D01*
D02*
G37*
G36*
X5860D02*
X5801D01*
Y7753D01*
X5860D01*
Y7812D01*
D02*
G37*
G36*
X10177Y7844D02*
Y7733D01*
X10288D01*
X10286Y7748D01*
X10273Y7780D01*
X10252Y7808D01*
X10224Y7829D01*
X10192Y7842D01*
X10177Y7844D01*
D02*
G37*
G36*
X10138D02*
X10123Y7842D01*
X10091Y7829D01*
X10063Y7808D01*
X10042Y7780D01*
X10029Y7748D01*
X10027Y7733D01*
X10138D01*
Y7844D01*
D02*
G37*
G36*
X10512D02*
Y7733D01*
X10623D01*
X10621Y7748D01*
X10608Y7780D01*
X10587Y7808D01*
X10559Y7829D01*
X10527Y7842D01*
X10512Y7844D01*
D02*
G37*
G36*
X10473D02*
X10458Y7842D01*
X10426Y7829D01*
X10398Y7808D01*
X10377Y7780D01*
X10364Y7748D01*
X10362Y7733D01*
X10473D01*
Y7844D01*
D02*
G37*
G36*
X6733Y7776D02*
X6674D01*
Y7717D01*
X6733D01*
Y7776D01*
D02*
G37*
G36*
X6327D02*
X6267D01*
Y7717D01*
X6327D01*
Y7776D01*
D02*
G37*
G36*
X6636D02*
X6577D01*
Y7717D01*
X6636D01*
Y7776D01*
D02*
G37*
G36*
X6229D02*
X6170D01*
Y7717D01*
X6229D01*
Y7776D01*
D02*
G37*
G36*
X4051Y7804D02*
X4029Y7800D01*
X4011Y7787D01*
X3999Y7769D01*
X3994Y7747D01*
X3995Y7744D01*
X3734Y7484D01*
X3721Y7486D01*
X3699Y7482D01*
X3681Y7470D01*
X3668Y7451D01*
X3664Y7429D01*
X3666Y7420D01*
X3646Y7400D01*
X3639Y7389D01*
X3637Y7376D01*
Y7233D01*
X3630Y7228D01*
X3618Y7210D01*
X3613Y7188D01*
X3615Y7180D01*
X3545Y7110D01*
X3538Y7099D01*
X3535Y7087D01*
Y6934D01*
X3538Y6921D01*
X3545Y6910D01*
X3580Y6875D01*
X3571Y6856D01*
X3569Y6856D01*
X3549Y6854D01*
X3532Y6846D01*
X3516Y6834D01*
X3504Y6819D01*
X3497Y6801D01*
X3497Y6801D01*
X3569D01*
Y6782D01*
X3588D01*
Y6710D01*
X3588Y6710D01*
X3606Y6717D01*
X3621Y6729D01*
X3633Y6745D01*
X3640Y6763D01*
X3643Y6782D01*
X3643Y6784D01*
X3662Y6793D01*
X3672Y6783D01*
X3683Y6776D01*
X3696Y6774D01*
X3753D01*
X3757Y6767D01*
X3775Y6755D01*
X3797Y6750D01*
X3819Y6755D01*
X3838Y6767D01*
X3850Y6785D01*
X3853Y6799D01*
X3874Y6807D01*
X3924Y6756D01*
X3924Y6756D01*
X3936Y6748D01*
X3950Y6746D01*
X4140D01*
X4140Y6746D01*
X4154Y6748D01*
X4166Y6756D01*
X4268Y6859D01*
X4287Y6849D01*
X4286Y6845D01*
X4291Y6823D01*
X4293Y6820D01*
Y6790D01*
X4270D01*
Y6669D01*
X4391D01*
Y6683D01*
X4435D01*
Y6669D01*
X4556D01*
Y6693D01*
X4603D01*
X4603Y6693D01*
X4610Y6695D01*
X4671D01*
X4891Y6475D01*
Y6050D01*
X4887Y6047D01*
X4885Y6043D01*
X4752D01*
X4705Y6091D01*
X4709Y6101D01*
X4709D01*
Y6221D01*
X4588D01*
Y6101D01*
X4592D01*
X4612Y6096D01*
X4615Y6082D01*
X4623Y6070D01*
X4711Y5981D01*
X4711Y5981D01*
X4723Y5974D01*
X4737Y5971D01*
X4737Y5971D01*
X4885D01*
X4887Y5967D01*
X4906Y5954D01*
X4928Y5950D01*
X4949Y5954D01*
X4968Y5967D01*
X4980Y5985D01*
X4985Y6007D01*
X4980Y6029D01*
X4968Y6047D01*
X4964Y6050D01*
Y6490D01*
X4964Y6490D01*
X4961Y6504D01*
X4953Y6515D01*
X4953Y6515D01*
X4712Y6757D01*
X4700Y6765D01*
X4686Y6767D01*
X4686Y6767D01*
X4604D01*
X4597Y6766D01*
X4556D01*
Y6790D01*
X4435D01*
Y6776D01*
X4406D01*
X4391Y6790D01*
X4387Y6810D01*
X4396Y6823D01*
X4400Y6845D01*
X4396Y6867D01*
X4384Y6886D01*
X4365Y6898D01*
X4343Y6902D01*
X4340Y6902D01*
X4330Y6920D01*
X4460Y7050D01*
X4974D01*
X4976Y7046D01*
X4995Y7034D01*
X5017Y7030D01*
X5038Y7034D01*
X5057Y7046D01*
X5069Y7065D01*
X5070Y7068D01*
X5092Y7078D01*
X5099Y7074D01*
X5099Y7074D01*
X5104Y7052D01*
X5116Y7034D01*
X5134Y7021D01*
X5156Y7017D01*
X5178Y7021D01*
X5196Y7034D01*
X5209Y7052D01*
X5213Y7074D01*
X5209Y7096D01*
X5196Y7114D01*
X5178Y7127D01*
X5156Y7131D01*
X5148Y7129D01*
X4964Y7314D01*
X4953Y7321D01*
X4940Y7323D01*
X4434D01*
X4310Y7447D01*
X4311Y7455D01*
X4307Y7477D01*
X4295Y7495D01*
X4276Y7508D01*
X4254Y7512D01*
X4233Y7508D01*
X4214Y7495D01*
X4202Y7477D01*
X4198Y7455D01*
X4202Y7433D01*
X4214Y7415D01*
X4233Y7402D01*
X4254Y7398D01*
X4262Y7399D01*
X4396Y7266D01*
X4407Y7259D01*
X4420Y7256D01*
X4926D01*
X5019Y7163D01*
X5018Y7157D01*
X5011Y7143D01*
X4995Y7139D01*
X4976Y7127D01*
X4974Y7123D01*
X4445D01*
X4431Y7120D01*
X4419Y7112D01*
X4419Y7112D01*
X4125Y6818D01*
X3965D01*
X3752Y7031D01*
X3740Y7039D01*
X3726Y7042D01*
X3726Y7042D01*
X3680D01*
X3667Y7050D01*
X3645Y7055D01*
X3630Y7052D01*
X3612Y7063D01*
X3610Y7065D01*
X3609Y7079D01*
X3662Y7133D01*
X3670Y7131D01*
X3692Y7136D01*
X3711Y7148D01*
X3723Y7166D01*
X3727Y7188D01*
X3723Y7210D01*
X3711Y7228D01*
X3704Y7233D01*
Y7359D01*
X3720Y7373D01*
X3721Y7373D01*
X3743Y7377D01*
X3761Y7389D01*
X3774Y7408D01*
X3778Y7429D01*
X3778Y7432D01*
X4038Y7693D01*
X4051Y7690D01*
X4073Y7694D01*
X4092Y7707D01*
X4104Y7725D01*
X4108Y7747D01*
X4104Y7769D01*
X4092Y7787D01*
X4073Y7800D01*
X4051Y7804D01*
D02*
G37*
G36*
X5163Y7741D02*
X5110D01*
X5110Y7740D01*
X5117Y7723D01*
X5129Y7707D01*
X5144Y7695D01*
X5162Y7688D01*
X5163Y7688D01*
Y7741D01*
D02*
G37*
G36*
X7451Y7728D02*
X7399D01*
Y7675D01*
X7399Y7675D01*
X7417Y7683D01*
X7432Y7694D01*
X7444Y7710D01*
X7451Y7728D01*
X7451Y7728D01*
D02*
G37*
G36*
X7360D02*
X7308D01*
X7308Y7728D01*
X7315Y7710D01*
X7327Y7694D01*
X7342Y7683D01*
X7360Y7675D01*
X7360Y7675D01*
Y7728D01*
D02*
G37*
G36*
X5957Y7715D02*
X5898D01*
Y7656D01*
X5957D01*
Y7715D01*
D02*
G37*
G36*
X5860D02*
X5801D01*
Y7656D01*
X5860D01*
Y7715D01*
D02*
G37*
G36*
X6733Y7679D02*
X6674D01*
Y7620D01*
X6733D01*
Y7679D01*
D02*
G37*
G36*
X6636D02*
X6577D01*
Y7620D01*
X6636D01*
Y7679D01*
D02*
G37*
G36*
X6327D02*
X6267D01*
Y7620D01*
X6327D01*
Y7679D01*
D02*
G37*
G36*
X6229D02*
X6170D01*
Y7620D01*
X6229D01*
Y7679D01*
D02*
G37*
G36*
X7153Y7660D02*
X7094D01*
Y7601D01*
X7153D01*
Y7660D01*
D02*
G37*
G36*
X7056D02*
X6997D01*
Y7601D01*
X7056D01*
Y7660D01*
D02*
G37*
G36*
X10138Y7694D02*
X10027D01*
X10029Y7679D01*
X10042Y7647D01*
X10063Y7619D01*
X10091Y7598D01*
X10123Y7585D01*
X10138Y7583D01*
Y7694D01*
D02*
G37*
G36*
X10288D02*
X10177D01*
Y7583D01*
X10192Y7585D01*
X10224Y7598D01*
X10252Y7619D01*
X10273Y7647D01*
X10286Y7679D01*
X10288Y7694D01*
D02*
G37*
G36*
X10623Y7694D02*
X10493D01*
X10362D01*
X10364Y7679D01*
X10377Y7647D01*
X10392Y7628D01*
X10391Y7619D01*
X10385Y7606D01*
X10385Y7605D01*
X10372Y7600D01*
X10357Y7589D01*
X10346Y7574D01*
X10339Y7557D01*
X10337Y7539D01*
X10339Y7520D01*
X10346Y7503D01*
X10357Y7488D01*
X10372Y7477D01*
X10389Y7470D01*
X10407Y7468D01*
X10426Y7470D01*
X10443Y7477D01*
X10458Y7488D01*
X10469Y7503D01*
X10476Y7520D01*
X10478Y7539D01*
X10476Y7557D01*
X10474Y7562D01*
X10488Y7581D01*
X10493Y7581D01*
X10527Y7585D01*
X10559Y7598D01*
X10587Y7619D01*
X10608Y7647D01*
X10621Y7679D01*
X10623Y7694D01*
D02*
G37*
G36*
X8785Y8150D02*
X8763Y8146D01*
X8745Y8134D01*
X8732Y8115D01*
X8728Y8093D01*
X8732Y8072D01*
X8745Y8053D01*
X8763Y8041D01*
X8785Y8037D01*
X8807Y8041D01*
X8825Y8053D01*
X8829Y8059D01*
X8871D01*
X8884Y8045D01*
X8880Y8036D01*
X8880D01*
Y7915D01*
X8884D01*
Y7882D01*
X8875Y7876D01*
X8863Y7858D01*
X8858Y7836D01*
X8863Y7814D01*
X8875Y7796D01*
X8881Y7792D01*
X8882Y7771D01*
X8620Y7508D01*
X8604Y7521D01*
X8605Y7522D01*
X8609Y7544D01*
X8605Y7566D01*
X8592Y7584D01*
X8583Y7590D01*
Y7652D01*
X8606D01*
Y7773D01*
X8486D01*
Y7773D01*
X8467Y7777D01*
X8363Y7881D01*
X8351Y7889D01*
X8337Y7892D01*
X8337Y7892D01*
X7780D01*
X7780Y7892D01*
X7766Y7889D01*
X7754Y7881D01*
X7754Y7881D01*
X7491Y7618D01*
X7409D01*
X7406Y7622D01*
X7388Y7635D01*
X7366Y7639D01*
X7344Y7635D01*
X7331Y7626D01*
X7313Y7632D01*
X7311Y7635D01*
Y7642D01*
X7190D01*
Y7522D01*
X7311D01*
Y7529D01*
X7313Y7531D01*
X7331Y7538D01*
X7344Y7529D01*
X7366Y7525D01*
X7388Y7529D01*
X7406Y7542D01*
X7409Y7546D01*
X7506D01*
X7506Y7546D01*
X7520Y7548D01*
X7532Y7556D01*
X7795Y7819D01*
X8322D01*
X8411Y7730D01*
X8404Y7709D01*
X8391Y7706D01*
X8373Y7694D01*
X8366Y7684D01*
X7945D01*
Y7685D01*
X7928Y7681D01*
X7908Y7692D01*
Y7719D01*
X7908D01*
X7904Y7740D01*
X7892Y7758D01*
X7874Y7769D01*
X7854Y7773D01*
X7833Y7769D01*
X7815Y7758D01*
X7803Y7740D01*
X7799Y7719D01*
X7800D01*
Y7684D01*
X7755D01*
X7743Y7682D01*
X7733Y7675D01*
X7712Y7655D01*
X7706Y7645D01*
X7703Y7633D01*
Y7565D01*
X7694Y7559D01*
X7682Y7540D01*
X7677Y7518D01*
X7682Y7497D01*
X7694Y7478D01*
X7712Y7466D01*
X7734Y7461D01*
X7756Y7466D01*
X7775Y7478D01*
X7787Y7497D01*
X7787Y7499D01*
X7808D01*
X7809Y7497D01*
X7821Y7478D01*
X7839Y7466D01*
X7861Y7461D01*
X7883Y7466D01*
X7902Y7478D01*
X7908Y7487D01*
X7935D01*
Y7487D01*
X7952Y7490D01*
X7964Y7484D01*
X7972Y7467D01*
X7972D01*
X7976Y7446D01*
X7988Y7428D01*
X8006Y7416D01*
X8018Y7414D01*
X8016Y7401D01*
X8020Y7381D01*
X8029Y7367D01*
X8024Y7351D01*
X8021Y7346D01*
X7785D01*
X7773Y7344D01*
X7763Y7337D01*
X7720Y7294D01*
X7709Y7296D01*
X7687Y7292D01*
X7669Y7279D01*
X7656Y7261D01*
X7652Y7239D01*
X7656Y7217D01*
X7669Y7199D01*
X7687Y7186D01*
X7709Y7182D01*
X7710Y7182D01*
X7730Y7168D01*
X7732Y7154D01*
X7745Y7135D01*
X7763Y7123D01*
X7785Y7119D01*
X7807Y7123D01*
X7825Y7135D01*
X7832Y7144D01*
X7859D01*
Y7144D01*
X7876Y7147D01*
X7896Y7137D01*
Y7109D01*
X7896D01*
X7900Y7089D01*
X7909Y7074D01*
X7905Y7062D01*
X7900Y7054D01*
X7755D01*
X7749Y7063D01*
X7731Y7076D01*
X7709Y7080D01*
X7687Y7076D01*
X7669Y7063D01*
X7656Y7045D01*
X7652Y7023D01*
X7656Y7001D01*
X7669Y6983D01*
X7687Y6970D01*
X7709Y6966D01*
X7731Y6970D01*
X7749Y6983D01*
X7755Y6992D01*
X8113D01*
Y6992D01*
X8130Y6995D01*
X8150Y6984D01*
Y6957D01*
X8150D01*
X8154Y6936D01*
X8166Y6919D01*
X8183Y6907D01*
X8204Y6903D01*
X8225Y6907D01*
X8243Y6919D01*
X8254Y6936D01*
X8259Y6957D01*
X8258D01*
Y6984D01*
X8278Y6995D01*
X8296Y6992D01*
Y6992D01*
X8344D01*
X8356Y6994D01*
X8366Y7001D01*
X8397Y7032D01*
X8407Y7030D01*
X8429Y7034D01*
X8448Y7046D01*
X8460Y7065D01*
X8464Y7087D01*
X8460Y7108D01*
X8448Y7127D01*
X8429Y7139D01*
X8407Y7144D01*
X8386Y7139D01*
X8367Y7127D01*
X8355Y7108D01*
X8350Y7087D01*
X8353Y7076D01*
X8335Y7059D01*
X8313Y7059D01*
X8304Y7069D01*
X8300Y7090D01*
X8288Y7108D01*
X8271Y7119D01*
X8250Y7124D01*
X8229Y7119D01*
X8226Y7118D01*
X8210Y7110D01*
X8200Y7123D01*
X8197Y7128D01*
X8191Y7131D01*
X8189Y7144D01*
X8191Y7156D01*
X8308Y7273D01*
X8318Y7271D01*
X8340Y7275D01*
X8343Y7277D01*
X8364Y7266D01*
Y7264D01*
X8366Y7253D01*
X8373Y7242D01*
X8411Y7204D01*
X8421Y7198D01*
X8433Y7195D01*
X8488D01*
X8494Y7186D01*
X8501Y7182D01*
Y7006D01*
X8461D01*
Y6885D01*
X8582D01*
Y6893D01*
X8582Y6893D01*
X8602Y6902D01*
X8614Y6894D01*
X8636Y6890D01*
X8658Y6894D01*
X8676Y6907D01*
X8689Y6925D01*
X8693Y6947D01*
X8689Y6969D01*
X8676Y6987D01*
X8667Y6993D01*
Y7303D01*
Y7467D01*
X8937Y7738D01*
X8944Y7748D01*
X8946Y7760D01*
Y7789D01*
X8956Y7796D01*
X8968Y7814D01*
X8972Y7836D01*
X8968Y7858D01*
X8956Y7876D01*
X8946Y7882D01*
Y7915D01*
X9001D01*
Y8036D01*
X8975D01*
X8965Y8054D01*
X8971Y8072D01*
X9019D01*
Y8132D01*
X8941D01*
X8863D01*
Y8122D01*
X8833D01*
X8825Y8134D01*
X8807Y8146D01*
X8785Y8150D01*
D02*
G37*
G36*
X7153Y7563D02*
X7094D01*
Y7504D01*
X7153D01*
Y7563D01*
D02*
G37*
G36*
X7056D02*
X6997D01*
Y7504D01*
X7056D01*
Y7563D01*
D02*
G37*
G36*
X9188Y7489D02*
Y7436D01*
X9241D01*
X9241Y7436D01*
X9234Y7454D01*
X9222Y7469D01*
X9207Y7481D01*
X9189Y7489D01*
X9188Y7489D01*
D02*
G37*
G36*
X9150D02*
X9150Y7489D01*
X9132Y7481D01*
X9117Y7469D01*
X9105Y7454D01*
X9098Y7436D01*
X9098Y7436D01*
X9150D01*
Y7489D01*
D02*
G37*
G36*
X8884D02*
Y7436D01*
X8936D01*
X8936Y7436D01*
X8929Y7454D01*
X8917Y7469D01*
X8902Y7481D01*
X8884Y7489D01*
X8884Y7489D01*
D02*
G37*
G36*
X8846D02*
X8845Y7489D01*
X8827Y7481D01*
X8812Y7469D01*
X8800Y7454D01*
X8793Y7436D01*
X8793Y7436D01*
X8846D01*
Y7489D01*
D02*
G37*
G36*
X5201Y7438D02*
X5200Y7438D01*
X5183Y7430D01*
X5167Y7419D01*
X5155Y7403D01*
X5148Y7385D01*
X5148Y7385D01*
X5201D01*
Y7438D01*
D02*
G37*
G36*
X9241Y7398D02*
X9188D01*
Y7345D01*
X9189Y7345D01*
X9207Y7352D01*
X9222Y7364D01*
X9234Y7380D01*
X9241Y7398D01*
X9241Y7398D01*
D02*
G37*
G36*
X9150D02*
X9098D01*
X9098Y7398D01*
X9105Y7380D01*
X9117Y7364D01*
X9132Y7352D01*
X9150Y7345D01*
X9150Y7345D01*
Y7398D01*
D02*
G37*
G36*
X8936D02*
X8884D01*
Y7345D01*
X8884Y7345D01*
X8902Y7352D01*
X8917Y7364D01*
X8929Y7380D01*
X8936Y7398D01*
X8936Y7398D01*
D02*
G37*
G36*
X8846D02*
X8793D01*
X8793Y7398D01*
X8800Y7380D01*
X8812Y7364D01*
X8827Y7352D01*
X8845Y7345D01*
X8846Y7345D01*
Y7398D01*
D02*
G37*
G36*
X9036Y7374D02*
Y7322D01*
X9089D01*
X9089Y7322D01*
X9081Y7340D01*
X9070Y7355D01*
X9054Y7367D01*
X9036Y7374D01*
X9036Y7374D01*
D02*
G37*
G36*
X8998D02*
X8998Y7374D01*
X8980Y7367D01*
X8964Y7355D01*
X8953Y7340D01*
X8945Y7322D01*
X8945Y7322D01*
X8998D01*
Y7374D01*
D02*
G37*
G36*
X9784Y7368D02*
X9725D01*
Y7309D01*
X9784D01*
Y7368D01*
D02*
G37*
G36*
X5201Y7347D02*
X5148D01*
X5148Y7347D01*
X5155Y7329D01*
X5167Y7313D01*
X5183Y7302D01*
X5200Y7294D01*
X5201Y7294D01*
Y7347D01*
D02*
G37*
G36*
X4070Y7311D02*
Y7258D01*
X4123D01*
X4123Y7258D01*
X4116Y7276D01*
X4104Y7292D01*
X4088Y7303D01*
X4071Y7311D01*
X4070Y7311D01*
D02*
G37*
G36*
X4032D02*
X4032Y7311D01*
X4014Y7303D01*
X3999Y7292D01*
X3987Y7276D01*
X3980Y7258D01*
X3980Y7258D01*
X4032D01*
Y7311D01*
D02*
G37*
G36*
X9089Y7283D02*
X9036D01*
Y7231D01*
X9036Y7231D01*
X9054Y7238D01*
X9070Y7250D01*
X9081Y7265D01*
X9089Y7283D01*
X9089Y7283D01*
D02*
G37*
G36*
X8998D02*
X8945D01*
X8945Y7283D01*
X8953Y7265D01*
X8964Y7250D01*
X8980Y7238D01*
X8998Y7231D01*
X8998Y7231D01*
Y7283D01*
D02*
G37*
G36*
X9784Y7271D02*
X9725D01*
Y7212D01*
X9784D01*
Y7271D01*
D02*
G37*
G36*
X9188Y7260D02*
Y7207D01*
X9241D01*
X9241Y7207D01*
X9234Y7225D01*
X9222Y7241D01*
X9207Y7253D01*
X9189Y7260D01*
X9188Y7260D01*
D02*
G37*
G36*
X9150D02*
X9150Y7260D01*
X9132Y7253D01*
X9117Y7241D01*
X9105Y7225D01*
X9098Y7207D01*
X9098Y7207D01*
X9150D01*
Y7260D01*
D02*
G37*
G36*
X8884D02*
Y7207D01*
X8936D01*
X8936Y7207D01*
X8929Y7225D01*
X8917Y7241D01*
X8902Y7253D01*
X8884Y7260D01*
X8884Y7260D01*
D02*
G37*
G36*
X8846D02*
X8845Y7260D01*
X8827Y7253D01*
X8812Y7241D01*
X8800Y7225D01*
X8793Y7207D01*
X8793Y7207D01*
X8846D01*
Y7260D01*
D02*
G37*
G36*
X10217Y7289D02*
Y7178D01*
X10328D01*
X10326Y7193D01*
X10313Y7225D01*
X10292Y7253D01*
X10264Y7274D01*
X10232Y7287D01*
X10217Y7289D01*
D02*
G37*
G36*
X10178Y7289D02*
X10163Y7287D01*
X10131Y7274D01*
X10103Y7253D01*
X10082Y7225D01*
X10069Y7193D01*
X10067Y7178D01*
X10178D01*
Y7289D01*
D02*
G37*
G36*
X4123Y7220D02*
X4070D01*
Y7167D01*
X4071Y7167D01*
X4088Y7175D01*
X4104Y7186D01*
X4116Y7202D01*
X4123Y7220D01*
X4123Y7220D01*
D02*
G37*
G36*
X4032D02*
X3980D01*
X3980Y7220D01*
X3987Y7202D01*
X3999Y7186D01*
X4014Y7175D01*
X4032Y7167D01*
X4032Y7167D01*
Y7220D01*
D02*
G37*
G36*
X7056Y7215D02*
X6997D01*
Y7156D01*
X7056D01*
Y7215D01*
D02*
G37*
G36*
X4210Y7171D02*
Y7118D01*
X4263D01*
X4263Y7119D01*
X4255Y7136D01*
X4244Y7152D01*
X4228Y7164D01*
X4210Y7171D01*
X4210Y7171D01*
D02*
G37*
G36*
X4172D02*
X4172Y7171D01*
X4154Y7164D01*
X4138Y7152D01*
X4127Y7136D01*
X4119Y7119D01*
X4119Y7118D01*
X4172D01*
Y7171D01*
D02*
G37*
G36*
X3931D02*
Y7118D01*
X3983D01*
X3983Y7119D01*
X3976Y7136D01*
X3964Y7152D01*
X3949Y7164D01*
X3931Y7171D01*
X3931Y7171D01*
D02*
G37*
G36*
X3893D02*
X3892Y7171D01*
X3874Y7164D01*
X3859Y7152D01*
X3847Y7136D01*
X3840Y7119D01*
X3840Y7118D01*
X3893D01*
Y7171D01*
D02*
G37*
G36*
X9241Y7169D02*
X9188D01*
Y7116D01*
X9189Y7116D01*
X9207Y7124D01*
X9222Y7136D01*
X9234Y7151D01*
X9241Y7169D01*
X9241Y7169D01*
D02*
G37*
G36*
X9150D02*
X9098D01*
X9098Y7169D01*
X9105Y7151D01*
X9117Y7136D01*
X9132Y7124D01*
X9150Y7116D01*
X9150Y7116D01*
Y7169D01*
D02*
G37*
G36*
X8936D02*
X8884D01*
Y7116D01*
X8884Y7116D01*
X8902Y7124D01*
X8917Y7136D01*
X8929Y7151D01*
X8936Y7169D01*
X8936Y7169D01*
D02*
G37*
G36*
X8846D02*
X8793D01*
X8793Y7169D01*
X8800Y7151D01*
X8812Y7136D01*
X8827Y7124D01*
X8845Y7116D01*
X8846Y7116D01*
Y7169D01*
D02*
G37*
G36*
X7163Y7398D02*
X7141Y7393D01*
X7123Y7381D01*
X7110Y7362D01*
X7106Y7341D01*
X7110Y7319D01*
X7123Y7300D01*
X7127Y7298D01*
Y7225D01*
X7127Y7225D01*
X7119Y7215D01*
X7094D01*
Y7156D01*
X7153D01*
Y7156D01*
X7172Y7164D01*
X7190Y7146D01*
Y7077D01*
X7311D01*
Y7085D01*
X7313Y7087D01*
X7331Y7094D01*
X7344Y7085D01*
X7366Y7080D01*
X7388Y7085D01*
X7406Y7097D01*
X7419Y7116D01*
X7423Y7137D01*
X7419Y7159D01*
X7406Y7178D01*
X7388Y7190D01*
X7366Y7194D01*
X7344Y7190D01*
X7331Y7181D01*
X7313Y7188D01*
X7311Y7190D01*
Y7198D01*
X7241D01*
X7199Y7240D01*
Y7298D01*
X7203Y7300D01*
X7215Y7319D01*
X7220Y7341D01*
X7215Y7362D01*
X7203Y7381D01*
X7185Y7393D01*
X7163Y7398D01*
D02*
G37*
G36*
X7153Y7118D02*
X7094D01*
Y7059D01*
X7153D01*
Y7118D01*
D02*
G37*
G36*
X7056D02*
X6997D01*
Y7059D01*
X7056D01*
Y7118D01*
D02*
G37*
G36*
X10328Y7139D02*
X10217D01*
Y7028D01*
X10232Y7030D01*
X10264Y7043D01*
X10292Y7064D01*
X10313Y7092D01*
X10326Y7124D01*
X10328Y7139D01*
D02*
G37*
G36*
X10178D02*
X10067D01*
X10069Y7124D01*
X10082Y7092D01*
X10103Y7064D01*
X10131Y7043D01*
X10163Y7030D01*
X10178Y7028D01*
Y7139D01*
D02*
G37*
G36*
X4263Y7080D02*
X4210D01*
Y7028D01*
X4210Y7028D01*
X4228Y7035D01*
X4244Y7047D01*
X4255Y7062D01*
X4263Y7080D01*
X4263Y7080D01*
D02*
G37*
G36*
X4172D02*
X4119D01*
X4119Y7080D01*
X4127Y7062D01*
X4138Y7047D01*
X4154Y7035D01*
X4172Y7028D01*
X4172Y7028D01*
Y7080D01*
D02*
G37*
G36*
X3983D02*
X3931D01*
Y7028D01*
X3931Y7028D01*
X3949Y7035D01*
X3964Y7047D01*
X3976Y7062D01*
X3983Y7080D01*
X3983Y7080D01*
D02*
G37*
G36*
X3893D02*
X3840D01*
X3840Y7080D01*
X3847Y7062D01*
X3859Y7047D01*
X3874Y7035D01*
X3892Y7028D01*
X3893Y7028D01*
Y7080D01*
D02*
G37*
G36*
X4070Y7031D02*
Y6979D01*
X4123D01*
X4123Y6979D01*
X4116Y6997D01*
X4104Y7012D01*
X4088Y7024D01*
X4071Y7031D01*
X4070Y7031D01*
D02*
G37*
G36*
X4032D02*
X4032Y7031D01*
X4014Y7024D01*
X3999Y7012D01*
X3987Y6997D01*
X3980Y6979D01*
X3980Y6979D01*
X4032D01*
Y7031D01*
D02*
G37*
G36*
X7153Y7025D02*
X7094D01*
Y6966D01*
X7153D01*
Y7025D01*
D02*
G37*
G36*
X7056D02*
X6997D01*
Y6966D01*
X7056D01*
Y7025D01*
D02*
G37*
G36*
X9779Y6987D02*
X9720D01*
Y6928D01*
X9779D01*
Y6987D01*
D02*
G37*
G36*
X7311Y7007D02*
X7190D01*
Y6887D01*
X7311D01*
Y6894D01*
X7313Y6896D01*
X7331Y6903D01*
X7344Y6894D01*
X7366Y6890D01*
X7388Y6894D01*
X7406Y6907D01*
X7419Y6925D01*
X7423Y6947D01*
X7419Y6969D01*
X7406Y6987D01*
X7388Y7000D01*
X7366Y7004D01*
X7344Y7000D01*
X7331Y6991D01*
X7313Y6997D01*
X7311Y7000D01*
Y7007D01*
D02*
G37*
G36*
X4123Y6941D02*
X4070D01*
Y6888D01*
X4071Y6888D01*
X4088Y6895D01*
X4104Y6907D01*
X4116Y6922D01*
X4123Y6940D01*
X4123Y6941D01*
D02*
G37*
G36*
X4032D02*
X3980D01*
X3980Y6940D01*
X3987Y6922D01*
X3999Y6907D01*
X4014Y6895D01*
X4032Y6888D01*
X4032Y6888D01*
Y6941D01*
D02*
G37*
G36*
X7153Y6928D02*
X7094D01*
Y6869D01*
X7153D01*
Y6928D01*
D02*
G37*
G36*
X7056D02*
X6997D01*
Y6869D01*
X7056D01*
Y6928D01*
D02*
G37*
G36*
X7377Y6861D02*
Y6809D01*
X7430D01*
X7430Y6809D01*
X7423Y6827D01*
X7411Y6842D01*
X7395Y6854D01*
X7377Y6861D01*
X7377Y6861D01*
D02*
G37*
G36*
X7339D02*
X7339Y6861D01*
X7321Y6854D01*
X7306Y6842D01*
X7294Y6827D01*
X7286Y6809D01*
X7286Y6809D01*
X7339D01*
Y6861D01*
D02*
G37*
G36*
X8600Y6849D02*
X8541D01*
Y6790D01*
X8600D01*
Y6849D01*
D02*
G37*
G36*
X8503D02*
X8444D01*
Y6790D01*
X8503D01*
Y6849D01*
D02*
G37*
G36*
X5957Y6796D02*
X5898D01*
Y6737D01*
X5957D01*
Y6796D01*
D02*
G37*
G36*
X5860D02*
X5801D01*
Y6737D01*
X5860D01*
Y6796D01*
D02*
G37*
G36*
X7430Y6771D02*
X7377D01*
Y6718D01*
X7377Y6718D01*
X7395Y6725D01*
X7411Y6737D01*
X7423Y6752D01*
X7430Y6770D01*
X7430Y6771D01*
D02*
G37*
G36*
X7339D02*
X7286D01*
X7286Y6770D01*
X7294Y6752D01*
X7306Y6737D01*
X7321Y6725D01*
X7339Y6718D01*
X7339Y6718D01*
Y6771D01*
D02*
G37*
G36*
X3550Y6763D02*
X3497D01*
X3497Y6763D01*
X3504Y6745D01*
X3516Y6729D01*
X3532Y6717D01*
X3549Y6710D01*
X3550Y6710D01*
Y6763D01*
D02*
G37*
G36*
X8600Y6751D02*
X8541D01*
Y6692D01*
X8600D01*
Y6751D01*
D02*
G37*
G36*
X8503D02*
X8444D01*
Y6692D01*
X8503D01*
Y6751D01*
D02*
G37*
G36*
X5957Y6699D02*
X5898D01*
Y6640D01*
X5957D01*
Y6699D01*
D02*
G37*
G36*
X5860D02*
X5801D01*
Y6640D01*
X5860D01*
Y6699D01*
D02*
G37*
G36*
X4515Y6633D02*
Y6574D01*
X4574D01*
Y6633D01*
X4515D01*
D02*
G37*
G36*
X4312D02*
X4253D01*
Y6574D01*
X4312D01*
Y6633D01*
D02*
G37*
G36*
X5957Y6619D02*
X5898D01*
Y6560D01*
X5957D01*
Y6619D01*
D02*
G37*
G36*
X5860D02*
X5801D01*
Y6560D01*
X5860D01*
Y6619D01*
D02*
G37*
G36*
X4574Y6536D02*
X4515D01*
Y6476D01*
X4574D01*
Y6536D01*
D02*
G37*
G36*
X4312D02*
X4253D01*
Y6476D01*
X4312D01*
Y6536D01*
D02*
G37*
G36*
X4418Y6633D02*
X4397Y6633D01*
X4350D01*
Y6555D01*
Y6476D01*
X4397D01*
X4409Y6476D01*
X4429Y6476D01*
X4477D01*
Y6555D01*
Y6633D01*
X4429D01*
X4418Y6633D01*
D02*
G37*
G36*
X5957Y6521D02*
X5898D01*
Y6462D01*
X5957D01*
Y6521D01*
D02*
G37*
G36*
X5860D02*
X5801D01*
Y6462D01*
X5860D01*
Y6521D01*
D02*
G37*
G36*
X10177Y6514D02*
Y6403D01*
X10288D01*
X10286Y6418D01*
X10273Y6450D01*
X10252Y6478D01*
X10224Y6499D01*
X10192Y6512D01*
X10177Y6514D01*
D02*
G37*
G36*
X10138D02*
X10123Y6512D01*
X10091Y6499D01*
X10063Y6478D01*
X10042Y6450D01*
X10029Y6418D01*
X10027Y6403D01*
X10138D01*
Y6514D01*
D02*
G37*
G36*
X10407Y6629D02*
X10389Y6627D01*
X10372Y6620D01*
X10357Y6609D01*
X10346Y6594D01*
X10339Y6577D01*
X10337Y6558D01*
X10339Y6540D01*
X10346Y6523D01*
X10357Y6508D01*
X10372Y6497D01*
X10385Y6492D01*
X10385Y6491D01*
X10391Y6478D01*
X10392Y6469D01*
X10377Y6450D01*
X10364Y6418D01*
X10362Y6403D01*
X10493D01*
X10623D01*
X10621Y6418D01*
X10608Y6450D01*
X10587Y6478D01*
X10559Y6499D01*
X10527Y6512D01*
X10493Y6516D01*
X10488Y6516D01*
X10474Y6535D01*
X10476Y6540D01*
X10478Y6558D01*
X10476Y6577D01*
X10469Y6594D01*
X10458Y6609D01*
X10443Y6620D01*
X10426Y6627D01*
X10407Y6629D01*
D02*
G37*
G36*
X9164Y6428D02*
X9105D01*
Y6369D01*
X9164D01*
Y6428D01*
D02*
G37*
G36*
X9067D02*
X9007D01*
Y6369D01*
X9067D01*
Y6428D01*
D02*
G37*
G36*
X4726Y6414D02*
X4667D01*
Y6355D01*
X4726D01*
Y6414D01*
D02*
G37*
G36*
X4629D02*
X4570D01*
Y6355D01*
X4629D01*
Y6414D01*
D02*
G37*
G36*
X7362Y7343D02*
X7340Y7338D01*
X7322Y7326D01*
X7309Y7308D01*
X7305Y7286D01*
X7309Y7264D01*
X7322Y7245D01*
X7340Y7233D01*
X7362Y7229D01*
X7384Y7233D01*
X7402Y7245D01*
X7405Y7250D01*
X7487D01*
X7558Y7178D01*
Y6756D01*
X7558Y6756D01*
X7561Y6743D01*
X7569Y6731D01*
X7932Y6367D01*
X7931Y6363D01*
X7936Y6341D01*
X7948Y6322D01*
X7966Y6310D01*
X7988Y6306D01*
X8010Y6310D01*
X8029Y6322D01*
X8041Y6341D01*
X8045Y6363D01*
X8041Y6385D01*
X8029Y6403D01*
X8010Y6415D01*
X7988Y6420D01*
X7984Y6419D01*
X7631Y6771D01*
Y7193D01*
X7628Y7207D01*
X7620Y7219D01*
X7620Y7219D01*
X7528Y7311D01*
X7516Y7319D01*
X7502Y7322D01*
X7502Y7322D01*
X7405D01*
X7402Y7326D01*
X7384Y7338D01*
X7362Y7343D01*
D02*
G37*
G36*
X4726Y6317D02*
X4667D01*
Y6258D01*
X4726D01*
Y6317D01*
D02*
G37*
G36*
X4629D02*
X4570D01*
Y6258D01*
X4629D01*
Y6317D01*
D02*
G37*
G36*
X10623Y6364D02*
X10512D01*
Y6253D01*
X10527Y6255D01*
X10559Y6268D01*
X10587Y6289D01*
X10608Y6317D01*
X10621Y6349D01*
X10623Y6364D01*
D02*
G37*
G36*
X10138Y6364D02*
X10027D01*
X10029Y6349D01*
X10042Y6317D01*
X10063Y6289D01*
X10091Y6268D01*
X10123Y6255D01*
X10138Y6253D01*
Y6364D01*
D02*
G37*
G36*
X10288D02*
X10177D01*
Y6253D01*
X10192Y6255D01*
X10224Y6268D01*
X10252Y6289D01*
X10273Y6317D01*
X10286Y6349D01*
X10288Y6364D01*
D02*
G37*
G36*
X10473Y6364D02*
X10362D01*
X10364Y6349D01*
X10377Y6317D01*
X10398Y6289D01*
X10426Y6268D01*
X10458Y6255D01*
X10473Y6253D01*
Y6364D01*
D02*
G37*
G36*
X7195Y6295D02*
Y6242D01*
X7247D01*
X7247Y6242D01*
X7240Y6260D01*
X7228Y6276D01*
X7213Y6287D01*
X7195Y6295D01*
X7195Y6295D01*
D02*
G37*
G36*
X7156D02*
X7156Y6295D01*
X7138Y6287D01*
X7123Y6276D01*
X7111Y6260D01*
X7104Y6242D01*
X7104Y6242D01*
X7156D01*
Y6295D01*
D02*
G37*
G36*
X10305Y6230D02*
X10246D01*
Y6171D01*
X10305D01*
Y6230D01*
D02*
G37*
G36*
X10208D02*
X10149D01*
Y6171D01*
X10208D01*
Y6230D01*
D02*
G37*
G36*
X7247Y6204D02*
X7195D01*
Y6151D01*
X7195Y6151D01*
X7213Y6159D01*
X7228Y6170D01*
X7240Y6186D01*
X7247Y6204D01*
X7247Y6204D01*
D02*
G37*
G36*
X7156D02*
X7104D01*
X7104Y6204D01*
X7111Y6186D01*
X7123Y6170D01*
X7138Y6159D01*
X7156Y6151D01*
X7156Y6151D01*
Y6204D01*
D02*
G37*
G36*
X10305Y6133D02*
X10246D01*
Y6074D01*
X10305D01*
Y6133D01*
D02*
G37*
G36*
X10208D02*
X10149D01*
Y6074D01*
X10208D01*
Y6133D01*
D02*
G37*
G36*
X2889Y6041D02*
Y5988D01*
X2942D01*
X2942Y5988D01*
X2935Y6006D01*
X2923Y6022D01*
X2907Y6033D01*
X2889Y6041D01*
X2889Y6041D01*
D02*
G37*
G36*
X2851D02*
X2851Y6041D01*
X2833Y6033D01*
X2818Y6022D01*
X2806Y6006D01*
X2798Y5988D01*
X2798Y5988D01*
X2851D01*
Y6041D01*
D02*
G37*
G36*
X10769Y6069D02*
X10700D01*
Y5975D01*
X10769D01*
Y6069D01*
D02*
G37*
G36*
X10662D02*
X10593D01*
Y5975D01*
X10662D01*
Y6069D01*
D02*
G37*
G36*
X6597Y6275D02*
X6575Y6270D01*
X6556Y6258D01*
X6544Y6239D01*
X6540Y6218D01*
X6544Y6196D01*
X6556Y6177D01*
X6566Y6171D01*
Y6091D01*
X6544D01*
Y5971D01*
X6664D01*
Y6091D01*
X6638D01*
Y6179D01*
X6649Y6196D01*
X6654Y6218D01*
X6649Y6239D01*
X6637Y6258D01*
X6619Y6270D01*
X6597Y6275D01*
D02*
G37*
G36*
X8516Y6015D02*
Y5963D01*
X8569D01*
X8569Y5963D01*
X8561Y5981D01*
X8550Y5996D01*
X8534Y6008D01*
X8516Y6015D01*
X8516Y6015D01*
D02*
G37*
G36*
X8478D02*
X8478Y6015D01*
X8460Y6008D01*
X8444Y5996D01*
X8433Y5981D01*
X8425Y5963D01*
X8425Y5963D01*
X8478D01*
Y6015D01*
D02*
G37*
G36*
X3454Y6521D02*
X3433Y6517D01*
X3414Y6505D01*
X3402Y6486D01*
X3397Y6464D01*
X3400Y6450D01*
X3378Y6428D01*
X3370Y6416D01*
X3367Y6403D01*
X3367Y6403D01*
Y6025D01*
X3363Y6022D01*
X3351Y6004D01*
X3347Y5982D01*
X3351Y5960D01*
X3363Y5941D01*
X3382Y5929D01*
X3404Y5925D01*
X3425Y5929D01*
X3444Y5941D01*
X3456Y5960D01*
X3461Y5982D01*
X3456Y6004D01*
X3444Y6022D01*
X3440Y6025D01*
Y6387D01*
X3461Y6409D01*
X3476Y6412D01*
X3495Y6424D01*
X3507Y6442D01*
X3511Y6464D01*
X3507Y6486D01*
X3495Y6505D01*
X3476Y6517D01*
X3454Y6521D01*
D02*
G37*
G36*
X2942Y5950D02*
X2889D01*
Y5897D01*
X2889Y5897D01*
X2907Y5905D01*
X2923Y5916D01*
X2935Y5932D01*
X2942Y5950D01*
X2942Y5950D01*
D02*
G37*
G36*
X2851D02*
X2798D01*
X2798Y5950D01*
X2806Y5932D01*
X2818Y5916D01*
X2833Y5905D01*
X2851Y5897D01*
X2851Y5897D01*
Y5950D01*
D02*
G37*
G36*
X6136Y5947D02*
X6077D01*
Y5888D01*
X6136D01*
Y5947D01*
D02*
G37*
G36*
X6039D02*
X5980D01*
Y5888D01*
X6039D01*
Y5947D01*
D02*
G37*
G36*
X6682Y5934D02*
X6623D01*
Y5875D01*
X6682D01*
Y5934D01*
D02*
G37*
G36*
X6585D02*
X6526D01*
Y5875D01*
X6585D01*
Y5934D01*
D02*
G37*
G36*
X8569Y5925D02*
X8516D01*
Y5872D01*
X8516Y5872D01*
X8534Y5879D01*
X8550Y5891D01*
X8561Y5906D01*
X8569Y5924D01*
X8569Y5925D01*
D02*
G37*
G36*
X8478D02*
X8425D01*
X8425Y5924D01*
X8433Y5906D01*
X8444Y5891D01*
X8460Y5879D01*
X8478Y5872D01*
X8478Y5872D01*
Y5925D01*
D02*
G37*
G36*
X7790Y6059D02*
X7768Y6055D01*
X7750Y6042D01*
X7738Y6024D01*
X7733Y6002D01*
X7738Y5980D01*
X7750Y5962D01*
X7754Y5959D01*
Y5872D01*
X7734Y5863D01*
X7686Y5911D01*
Y5957D01*
X7691Y5960D01*
X7703Y5978D01*
X7707Y6000D01*
X7703Y6022D01*
X7691Y6040D01*
X7672Y6053D01*
X7650Y6057D01*
X7629Y6053D01*
X7610Y6040D01*
X7598Y6022D01*
X7594Y6000D01*
X7598Y5978D01*
X7610Y5960D01*
X7613Y5958D01*
Y5896D01*
X7613Y5896D01*
X7615Y5886D01*
X7605Y5877D01*
X7599Y5874D01*
X7544Y5929D01*
X7532Y5936D01*
X7518Y5939D01*
X7518Y5939D01*
X6902D01*
X6902Y5939D01*
X6888Y5936D01*
X6876Y5929D01*
X6876Y5929D01*
X6854Y5906D01*
X6840Y5909D01*
X6818Y5905D01*
X6800Y5892D01*
X6788Y5874D01*
X6783Y5852D01*
X6788Y5830D01*
X6800Y5812D01*
X6818Y5800D01*
X6840Y5795D01*
X6862Y5800D01*
X6878Y5786D01*
X6884Y5776D01*
X6902Y5764D01*
X6924Y5760D01*
X6929Y5761D01*
X7147Y5542D01*
X7147Y5542D01*
X7159Y5534D01*
X7173Y5531D01*
X7498D01*
X7571Y5458D01*
X7558Y5443D01*
X7551Y5448D01*
X7529Y5452D01*
X7507Y5448D01*
X7489Y5435D01*
X7477Y5417D01*
X7472Y5395D01*
X7473Y5390D01*
X7394Y5311D01*
X7386Y5299D01*
X7383Y5285D01*
X7383Y5285D01*
Y4978D01*
X7379Y4976D01*
X7367Y4957D01*
X7362Y4935D01*
X7367Y4913D01*
X7379Y4895D01*
X7398Y4883D01*
X7419Y4878D01*
X7441Y4883D01*
X7460Y4895D01*
X7472Y4913D01*
X7476Y4935D01*
X7472Y4957D01*
X7460Y4976D01*
X7456Y4978D01*
Y5270D01*
X7524Y5339D01*
X7529Y5338D01*
X7551Y5342D01*
X7569Y5355D01*
X7582Y5373D01*
X7586Y5395D01*
X7582Y5417D01*
X7577Y5424D01*
X7593Y5437D01*
X7673Y5357D01*
Y4925D01*
X7673Y4925D01*
X7675Y4911D01*
X7683Y4899D01*
X7749Y4834D01*
X7744Y4818D01*
X7741Y4813D01*
X7724Y4802D01*
X7712Y4784D01*
X7707Y4762D01*
X7712Y4740D01*
X7724Y4722D01*
X7728Y4719D01*
Y4032D01*
X7652D01*
Y3842D01*
X7842D01*
Y4032D01*
X7800D01*
Y4719D01*
X7804Y4722D01*
X7816Y4738D01*
X7821Y4742D01*
X7836Y4746D01*
X7937Y4646D01*
Y4607D01*
X7933Y4605D01*
X7920Y4586D01*
X7916Y4564D01*
X7920Y4543D01*
X7933Y4524D01*
X7937Y4521D01*
Y4480D01*
X7921Y4466D01*
X7920Y4466D01*
X7898Y4462D01*
X7879Y4450D01*
X7867Y4431D01*
X7863Y4409D01*
X7867Y4388D01*
X7879Y4369D01*
X7898Y4357D01*
X7920Y4352D01*
X7942Y4357D01*
X7960Y4369D01*
X7972Y4388D01*
X7975Y4402D01*
X7983Y4407D01*
X8002Y4397D01*
X8003Y4396D01*
Y4295D01*
X7942Y4234D01*
X7938Y4235D01*
X7916Y4231D01*
X7897Y4219D01*
X7885Y4200D01*
X7881Y4178D01*
X7885Y4157D01*
X7897Y4138D01*
X7916Y4126D01*
X7938Y4121D01*
X7959Y4126D01*
X7978Y4138D01*
X7990Y4157D01*
X7994Y4178D01*
X7994Y4183D01*
X8065Y4254D01*
X8065Y4254D01*
X8073Y4266D01*
X8075Y4280D01*
X8075Y4280D01*
Y4689D01*
X8079Y4692D01*
X8092Y4710D01*
X8096Y4732D01*
X8092Y4754D01*
X8079Y4772D01*
X8075Y4775D01*
Y4846D01*
X8096Y4862D01*
X8103Y4860D01*
X8124Y4865D01*
X8143Y4877D01*
X8155Y4896D01*
X8157Y4906D01*
X8174Y4914D01*
X8179Y4914D01*
X8179Y4914D01*
X8236D01*
Y4992D01*
Y5071D01*
X8184Y5071D01*
D01*
X8177Y5071D01*
X8171Y5073D01*
X8164Y5087D01*
X8177Y5101D01*
X8195Y5107D01*
X8203Y5107D01*
X8315D01*
Y5178D01*
X8316Y5182D01*
Y5227D01*
X8383D01*
X8390Y5216D01*
X8405Y5206D01*
X8423Y5203D01*
X8523D01*
X8541Y5206D01*
X8556Y5216D01*
X8563Y5227D01*
X8590D01*
X8627Y5191D01*
X8629Y5180D01*
X8641Y5162D01*
X8660Y5149D01*
X8682Y5145D01*
X8696Y5148D01*
X8713Y5136D01*
X8715Y5133D01*
Y5026D01*
X8836D01*
Y5147D01*
X8836D01*
X8840Y5165D01*
X8851Y5183D01*
X8856Y5204D01*
X8851Y5226D01*
X8839Y5245D01*
X8820Y5257D01*
X8799Y5261D01*
X8777Y5257D01*
X8758Y5245D01*
X8751Y5234D01*
X8728Y5233D01*
X8728Y5233D01*
X8722Y5242D01*
X8704Y5255D01*
X8693Y5257D01*
X8643Y5307D01*
X8627Y5317D01*
X8610Y5321D01*
X8563D01*
X8556Y5332D01*
X8541Y5342D01*
X8523Y5345D01*
X8522D01*
Y5412D01*
X8539D01*
Y5502D01*
X8559Y5512D01*
X8561Y5511D01*
X8579Y5504D01*
X8579Y5504D01*
Y5575D01*
X8617D01*
Y5487D01*
X8623Y5483D01*
X8643Y5479D01*
X8813D01*
X8827Y5468D01*
X8845Y5460D01*
X8846Y5460D01*
Y5532D01*
X8884D01*
Y5460D01*
X8884Y5460D01*
X8884Y5461D01*
X8905Y5447D01*
Y5253D01*
X8901Y5250D01*
X8888Y5231D01*
X8884Y5210D01*
X8888Y5188D01*
X8901Y5169D01*
X8905Y5167D01*
Y5147D01*
X8880D01*
Y5026D01*
X9001D01*
Y5147D01*
X8977D01*
Y5167D01*
X8981Y5169D01*
X8988Y5180D01*
X9049D01*
X9049Y5180D01*
X9059Y5165D01*
X9074Y5155D01*
X9091Y5151D01*
X9191D01*
X9209Y5155D01*
X9224Y5165D01*
X9234Y5180D01*
X9238Y5197D01*
Y5215D01*
X9256Y5220D01*
X9258Y5220D01*
X9269Y5205D01*
X9285Y5193D01*
X9303Y5186D01*
X9303Y5186D01*
Y5258D01*
Y5330D01*
X9303Y5330D01*
X9285Y5322D01*
X9269Y5310D01*
X9257Y5295D01*
X9250Y5277D01*
X9229Y5273D01*
X9224Y5280D01*
X9209Y5290D01*
X9191Y5293D01*
X9091D01*
X9074Y5290D01*
X9059Y5280D01*
X9049Y5265D01*
X9046Y5252D01*
X8978D01*
X8977Y5253D01*
Y5609D01*
X8977Y5609D01*
X8975Y5619D01*
Y5627D01*
X8975Y5627D01*
X8974Y5630D01*
Y5712D01*
X8854D01*
Y5605D01*
X8845Y5604D01*
X8827Y5596D01*
X8819Y5590D01*
X8799Y5599D01*
Y5712D01*
X8715D01*
X8713Y5712D01*
X8712Y5732D01*
X8716Y5733D01*
X8724Y5734D01*
X8741Y5741D01*
X8757Y5753D01*
X8769Y5768D01*
X8776Y5786D01*
X8776Y5786D01*
X8631D01*
X8627Y5781D01*
X8617Y5771D01*
X8611Y5772D01*
X8589Y5768D01*
X8570Y5755D01*
X8558Y5737D01*
X8554Y5719D01*
X8544Y5711D01*
X8534Y5708D01*
X8418D01*
Y5587D01*
X8513D01*
X8524Y5575D01*
X8526Y5556D01*
X8527Y5553D01*
X8514Y5533D01*
X8418D01*
Y5412D01*
X8429D01*
Y5345D01*
X8423D01*
X8405Y5342D01*
X8390Y5332D01*
X8383Y5321D01*
X8294D01*
X8276Y5317D01*
X8261Y5307D01*
X8237Y5283D01*
X8227Y5267D01*
X8223Y5250D01*
Y5242D01*
X8213Y5233D01*
X8191Y5235D01*
X8187Y5245D01*
Y5494D01*
X8184Y5508D01*
X8176Y5520D01*
X8176Y5520D01*
X7826Y5870D01*
Y5959D01*
X7830Y5962D01*
X7843Y5980D01*
X7847Y6002D01*
X7843Y6024D01*
X7830Y6042D01*
X7812Y6055D01*
X7790Y6059D01*
D02*
G37*
G36*
X8723Y5877D02*
Y5824D01*
X8776D01*
X8776Y5825D01*
X8769Y5843D01*
X8757Y5858D01*
X8741Y5870D01*
X8724Y5877D01*
X8723Y5877D01*
D02*
G37*
G36*
X8685D02*
X8685Y5877D01*
X8667Y5870D01*
X8652Y5858D01*
X8640Y5843D01*
X8633Y5825D01*
X8632Y5824D01*
X8685D01*
Y5877D01*
D02*
G37*
G36*
X6136Y5850D02*
X6077D01*
Y5791D01*
X6136D01*
Y5850D01*
D02*
G37*
G36*
X6039D02*
X5980D01*
Y5791D01*
X6039D01*
Y5850D01*
D02*
G37*
G36*
X6682Y5837D02*
X6623D01*
Y5778D01*
X6682D01*
Y5837D01*
D02*
G37*
G36*
X6585D02*
X6526D01*
Y5778D01*
X6585D01*
Y5837D01*
D02*
G37*
G36*
X10769Y5937D02*
X10593D01*
Y5850D01*
X10589Y5831D01*
X10589Y5825D01*
Y5772D01*
X10745D01*
Y5823D01*
X10745Y5831D01*
X10760Y5843D01*
X10769D01*
Y5937D01*
D02*
G37*
G36*
X5175Y5761D02*
X5175Y5761D01*
X5157Y5754D01*
X5142Y5742D01*
X5130Y5727D01*
X5123Y5709D01*
X5123Y5709D01*
X5175D01*
Y5761D01*
D02*
G37*
G36*
X10745Y5734D02*
X10686D01*
Y5675D01*
X10745D01*
Y5734D01*
D02*
G37*
G36*
X10648D02*
X10589D01*
Y5675D01*
X10648D01*
Y5734D01*
D02*
G37*
G36*
X5175Y5671D02*
X5123D01*
X5123Y5670D01*
X5130Y5652D01*
X5142Y5637D01*
X5157Y5625D01*
X5175Y5618D01*
X5175Y5618D01*
Y5671D01*
D02*
G37*
G36*
X3867Y5622D02*
Y5569D01*
X3920D01*
X3920Y5569D01*
X3912Y5587D01*
X3901Y5602D01*
X3885Y5614D01*
X3867Y5622D01*
X3867Y5622D01*
D02*
G37*
G36*
X3829D02*
X3829Y5622D01*
X3811Y5614D01*
X3796Y5602D01*
X3784Y5587D01*
X3776Y5569D01*
X3776Y5569D01*
X3829D01*
Y5622D01*
D02*
G37*
G36*
X3920Y5531D02*
X3867D01*
Y5478D01*
X3867Y5478D01*
X3885Y5486D01*
X3901Y5497D01*
X3912Y5513D01*
X3920Y5531D01*
X3920Y5531D01*
D02*
G37*
G36*
X3829D02*
X3776D01*
X3776Y5531D01*
X3784Y5513D01*
X3796Y5497D01*
X3811Y5486D01*
X3829Y5478D01*
X3829Y5478D01*
Y5531D01*
D02*
G37*
G36*
X6350Y6394D02*
X6328Y6390D01*
X6310Y6378D01*
X6297Y6359D01*
X6293Y6337D01*
X6297Y6315D01*
X6310Y6297D01*
X6321Y6290D01*
Y5435D01*
X6311Y5421D01*
X6307Y5399D01*
X6311Y5377D01*
X6324Y5359D01*
X6342Y5346D01*
X6364Y5342D01*
X6386Y5346D01*
X6404Y5359D01*
X6417Y5377D01*
X6421Y5399D01*
X6417Y5421D01*
X6404Y5439D01*
X6393Y5447D01*
Y6302D01*
X6403Y6315D01*
X6407Y6337D01*
X6403Y6359D01*
X6390Y6378D01*
X6372Y6390D01*
X6350Y6394D01*
D02*
G37*
G36*
X8458Y6445D02*
X8436Y6441D01*
X8418Y6428D01*
X8406Y6410D01*
X8401Y6388D01*
X8406Y6366D01*
X8418Y6348D01*
X8436Y6335D01*
X8458Y6331D01*
X8463Y6332D01*
X9133Y5662D01*
Y5440D01*
X9129Y5438D01*
X9117Y5419D01*
X9112Y5397D01*
X9117Y5376D01*
X9129Y5357D01*
X9148Y5345D01*
X9169Y5341D01*
X9191Y5345D01*
X9210Y5357D01*
X9222Y5376D01*
X9226Y5397D01*
X9222Y5419D01*
X9210Y5438D01*
X9206Y5440D01*
Y5677D01*
X9206Y5677D01*
X9203Y5691D01*
X9195Y5703D01*
X8514Y6383D01*
X8515Y6388D01*
X8511Y6410D01*
X8498Y6428D01*
X8480Y6441D01*
X8458Y6445D01*
D02*
G37*
G36*
X10168Y5413D02*
Y5274D01*
X10307D01*
X10305Y5286D01*
X10296Y5316D01*
X10282Y5343D01*
X10262Y5368D01*
X10237Y5388D01*
X10210Y5402D01*
X10180Y5411D01*
X10168Y5413D01*
D02*
G37*
G36*
X10129D02*
X10117Y5411D01*
X10087Y5402D01*
X10060Y5388D01*
X10035Y5368D01*
X10015Y5343D01*
X10001Y5316D01*
X9992Y5286D01*
X9990Y5274D01*
X10129D01*
Y5413D01*
D02*
G37*
G36*
X10568Y5434D02*
Y5274D01*
X10728D01*
X10726Y5290D01*
X10716Y5324D01*
X10699Y5355D01*
X10677Y5383D01*
X10649Y5405D01*
X10618Y5422D01*
X10584Y5432D01*
X10568Y5434D01*
D02*
G37*
G36*
X10529D02*
X10513Y5432D01*
X10479Y5422D01*
X10448Y5405D01*
X10420Y5383D01*
X10398Y5355D01*
X10381Y5324D01*
X10371Y5290D01*
X10369Y5274D01*
X10529D01*
Y5434D01*
D02*
G37*
G36*
X10307Y5235D02*
X10168D01*
Y5096D01*
X10180Y5098D01*
X10210Y5107D01*
X10237Y5121D01*
X10262Y5141D01*
X10282Y5166D01*
X10296Y5193D01*
X10305Y5223D01*
X10307Y5235D01*
D02*
G37*
G36*
X10129D02*
X9990D01*
X9992Y5223D01*
X10001Y5193D01*
X10015Y5166D01*
X10035Y5141D01*
X10060Y5121D01*
X10087Y5107D01*
X10117Y5098D01*
X10129Y5096D01*
Y5235D01*
D02*
G37*
G36*
X10728Y5235D02*
X10568D01*
Y5075D01*
X10584Y5077D01*
X10618Y5087D01*
X10649Y5104D01*
X10677Y5126D01*
X10699Y5154D01*
X10716Y5185D01*
X10726Y5219D01*
X10728Y5235D01*
D02*
G37*
G36*
X10529D02*
X10369D01*
X10371Y5219D01*
X10381Y5185D01*
X10398Y5154D01*
X10420Y5126D01*
X10448Y5104D01*
X10479Y5087D01*
X10513Y5077D01*
X10529Y5075D01*
Y5235D01*
D02*
G37*
G36*
X3296Y5101D02*
Y5048D01*
X3348D01*
X3348Y5048D01*
X3341Y5066D01*
X3329Y5082D01*
X3314Y5094D01*
X3296Y5101D01*
X3296Y5101D01*
D02*
G37*
G36*
X8274Y5071D02*
Y5012D01*
X8333D01*
Y5071D01*
X8274D01*
D02*
G37*
G36*
X8586Y5041D02*
X8492D01*
Y4972D01*
X8586D01*
Y5041D01*
D02*
G37*
G36*
X8454D02*
X8360D01*
Y4972D01*
X8454D01*
Y5041D01*
D02*
G37*
G36*
X3348Y5010D02*
X3296D01*
Y4957D01*
X3296Y4957D01*
X3314Y4965D01*
X3329Y4977D01*
X3341Y4992D01*
X3348Y5010D01*
X3348Y5010D01*
D02*
G37*
G36*
X2920Y5128D02*
Y5010D01*
Y4892D01*
X3184D01*
Y5014D01*
X3204Y5015D01*
X3205Y5010D01*
X3212Y4992D01*
X3224Y4977D01*
X3239Y4965D01*
X3257Y4957D01*
X3258Y4957D01*
Y5029D01*
Y5101D01*
X3257Y5101D01*
X3239Y5094D01*
X3224Y5082D01*
X3212Y5066D01*
X3205Y5048D01*
X3204Y5043D01*
X3184Y5044D01*
Y5128D01*
X2920D01*
D02*
G37*
G36*
X8757Y4989D02*
X8698D01*
Y4930D01*
X8757D01*
Y4989D01*
D02*
G37*
G36*
X9161Y4989D02*
Y4920D01*
X9255D01*
Y4989D01*
X9161D01*
D02*
G37*
G36*
X8333Y4973D02*
X8274D01*
Y4914D01*
X8333D01*
Y4973D01*
D02*
G37*
G36*
X9354Y4949D02*
X9353Y4949D01*
X9335Y4941D01*
X9320Y4929D01*
X9308Y4914D01*
X9301Y4896D01*
X9301Y4896D01*
X9354D01*
Y4949D01*
D02*
G37*
G36*
X8757Y4892D02*
X8698D01*
Y4833D01*
X8757D01*
Y4892D01*
D02*
G37*
G36*
X8854Y4989D02*
X8842Y4989D01*
X8795D01*
Y4911D01*
Y4833D01*
X8842D01*
X8863Y4833D01*
X8874Y4833D01*
X8922D01*
Y4911D01*
Y4989D01*
X8874D01*
X8854Y4989D01*
D02*
G37*
G36*
X9255Y4882D02*
X9161D01*
Y4813D01*
X9255D01*
Y4882D01*
D02*
G37*
G36*
X9028Y4989D02*
X9008Y4989D01*
X8960D01*
Y4911D01*
Y4833D01*
X9008D01*
X9019Y4833D01*
X9028Y4817D01*
Y4813D01*
X9122D01*
Y4901D01*
Y4989D01*
X9039D01*
X9028Y4989D01*
D02*
G37*
G36*
X9444Y4858D02*
X9392D01*
Y4805D01*
X9392Y4805D01*
X9410Y4812D01*
X9425Y4824D01*
X9437Y4840D01*
X9444Y4858D01*
X9444Y4858D01*
D02*
G37*
G36*
X9354D02*
X9301D01*
X9301Y4858D01*
X9308Y4840D01*
X9320Y4824D01*
X9335Y4812D01*
X9353Y4805D01*
X9354Y4805D01*
Y4858D01*
D02*
G37*
G36*
X8586Y4934D02*
X8473D01*
X8360D01*
Y4865D01*
X8480D01*
X8484Y4845D01*
X8472Y4840D01*
X8456Y4828D01*
X8445Y4812D01*
X8437Y4794D01*
X8437Y4794D01*
X8581D01*
X8581Y4794D01*
X8573Y4812D01*
X8562Y4828D01*
X8546Y4840D01*
X8534Y4845D01*
X8538Y4865D01*
X8586D01*
Y4934D01*
D02*
G37*
G36*
X9736Y4807D02*
X9684D01*
Y4754D01*
X9684Y4754D01*
X9702Y4762D01*
X9717Y4773D01*
X9729Y4789D01*
X9736Y4807D01*
X9736Y4807D01*
D02*
G37*
G36*
X8581Y4756D02*
X8528D01*
Y4703D01*
X8528Y4703D01*
X8546Y4711D01*
X8562Y4723D01*
X8573Y4738D01*
X8581Y4756D01*
X8581Y4756D01*
D02*
G37*
G36*
X8490D02*
X8437D01*
X8437Y4756D01*
X8445Y4738D01*
X8456Y4723D01*
X8472Y4711D01*
X8490Y4703D01*
X8490Y4703D01*
Y4756D01*
D02*
G37*
G36*
X9857Y4738D02*
X9828D01*
X9814Y4735D01*
X9802Y4727D01*
X9794Y4715D01*
X9791Y4701D01*
Y4672D01*
X9783Y4661D01*
X9761D01*
X9747Y4670D01*
X9726Y4675D01*
X9704Y4670D01*
X9685Y4658D01*
X9673Y4640D01*
X9669Y4618D01*
X9673Y4596D01*
X9685Y4577D01*
X9704Y4565D01*
X9726Y4561D01*
X9747Y4565D01*
X9752Y4568D01*
X9782D01*
Y4472D01*
X9903D01*
Y4593D01*
X9889D01*
Y4655D01*
X9891Y4658D01*
X9894Y4672D01*
Y4701D01*
X9891Y4715D01*
X9883Y4727D01*
X9871Y4735D01*
X9857Y4738D01*
D02*
G37*
G36*
X8966Y4756D02*
X8944Y4752D01*
X8926Y4739D01*
X8920Y4730D01*
X8913D01*
X8900Y4728D01*
X8889Y4720D01*
X8765Y4596D01*
X8757Y4585D01*
X8755Y4572D01*
Y4539D01*
X8738D01*
X8721Y4536D01*
X8706Y4526D01*
X8696Y4511D01*
X8694Y4502D01*
X8630D01*
Y4522D01*
X8510D01*
Y4401D01*
X8630D01*
Y4435D01*
X8694D01*
X8696Y4426D01*
X8706Y4411D01*
X8721Y4401D01*
X8738Y4397D01*
X8838D01*
X8856Y4401D01*
X8871Y4411D01*
X8881Y4426D01*
X8885Y4443D01*
Y4493D01*
X8881Y4511D01*
X8871Y4526D01*
X8856Y4536D01*
X8838Y4539D01*
X8826D01*
X8824Y4560D01*
X8923Y4659D01*
X8926Y4659D01*
X8944Y4646D01*
X8966Y4642D01*
X8988Y4646D01*
X9006Y4659D01*
X9019Y4677D01*
X9023Y4699D01*
X9019Y4721D01*
X9006Y4739D01*
X8988Y4752D01*
X8966Y4756D01*
D02*
G37*
G36*
X9921Y4436D02*
X9862D01*
Y4377D01*
X9921D01*
Y4436D01*
D02*
G37*
G36*
X9823D02*
X9764D01*
Y4377D01*
X9823D01*
Y4436D01*
D02*
G37*
G36*
X8648Y4364D02*
X8589D01*
Y4305D01*
X8648D01*
Y4364D01*
D02*
G37*
G36*
X8551D02*
X8492D01*
Y4305D01*
X8551D01*
Y4364D01*
D02*
G37*
G36*
X10168Y4423D02*
Y4284D01*
X10307D01*
X10305Y4296D01*
X10296Y4326D01*
X10282Y4353D01*
X10262Y4378D01*
X10237Y4398D01*
X10210Y4412D01*
X10180Y4421D01*
X10168Y4423D01*
D02*
G37*
G36*
X10129D02*
X10117Y4421D01*
X10087Y4412D01*
X10060Y4398D01*
X10035Y4378D01*
X10015Y4353D01*
X10001Y4326D01*
X9992Y4296D01*
X9990Y4284D01*
X10129D01*
Y4423D01*
D02*
G37*
G36*
X10568Y4444D02*
Y4284D01*
X10728D01*
X10726Y4300D01*
X10716Y4334D01*
X10699Y4365D01*
X10677Y4393D01*
X10649Y4415D01*
X10618Y4432D01*
X10584Y4442D01*
X10568Y4444D01*
D02*
G37*
G36*
X10529D02*
X10513Y4442D01*
X10479Y4432D01*
X10448Y4415D01*
X10420Y4393D01*
X10398Y4365D01*
X10381Y4334D01*
X10371Y4300D01*
X10369Y4284D01*
X10529D01*
Y4444D01*
D02*
G37*
G36*
X9921Y4338D02*
X9862D01*
Y4279D01*
X9921D01*
Y4338D01*
D02*
G37*
G36*
X9823D02*
X9764D01*
Y4279D01*
X9823D01*
Y4338D01*
D02*
G37*
G36*
X8648Y4267D02*
X8589D01*
Y4208D01*
X8648D01*
Y4267D01*
D02*
G37*
G36*
X8551D02*
X8492D01*
Y4208D01*
X8551D01*
Y4267D01*
D02*
G37*
G36*
X2920Y4278D02*
Y4179D01*
X3184D01*
Y4278D01*
X2920D01*
D02*
G37*
G36*
X8901Y4235D02*
X8807D01*
Y4166D01*
X8901D01*
Y4235D01*
D02*
G37*
G36*
X8769D02*
X8675D01*
Y4166D01*
X8769D01*
Y4235D01*
D02*
G37*
G36*
X9900Y4187D02*
Y4134D01*
X9952D01*
X9952Y4134D01*
X9945Y4152D01*
X9933Y4167D01*
X9918Y4179D01*
X9900Y4187D01*
X9900Y4187D01*
D02*
G37*
G36*
X9862D02*
X9861Y4187D01*
X9843Y4179D01*
X9828Y4167D01*
X9816Y4152D01*
X9809Y4134D01*
X9809Y4134D01*
X9862D01*
Y4187D01*
D02*
G37*
G36*
X10307Y4245D02*
X10168D01*
Y4106D01*
X10180Y4108D01*
X10210Y4117D01*
X10237Y4131D01*
X10262Y4151D01*
X10282Y4176D01*
X10296Y4203D01*
X10305Y4233D01*
X10307Y4245D01*
D02*
G37*
G36*
X10129D02*
X9990D01*
X9992Y4233D01*
X10001Y4203D01*
X10015Y4176D01*
X10035Y4151D01*
X10060Y4131D01*
X10087Y4117D01*
X10117Y4108D01*
X10129Y4106D01*
Y4245D01*
D02*
G37*
G36*
X10728Y4245D02*
X10568D01*
Y4085D01*
X10584Y4087D01*
X10618Y4097D01*
X10649Y4114D01*
X10677Y4136D01*
X10699Y4164D01*
X10716Y4195D01*
X10726Y4229D01*
X10728Y4245D01*
D02*
G37*
G36*
X10529D02*
X10369D01*
X10371Y4229D01*
X10381Y4195D01*
X10398Y4164D01*
X10420Y4136D01*
X10448Y4114D01*
X10479Y4097D01*
X10513Y4087D01*
X10529Y4085D01*
Y4245D01*
D02*
G37*
G36*
X5861Y4123D02*
Y4070D01*
X5914D01*
X5914Y4071D01*
X5906Y4088D01*
X5895Y4104D01*
X5879Y4116D01*
X5861Y4123D01*
X5861Y4123D01*
D02*
G37*
G36*
X5823D02*
X5823Y4123D01*
X5805Y4116D01*
X5789Y4104D01*
X5778Y4088D01*
X5770Y4071D01*
X5770Y4070D01*
X5823D01*
Y4123D01*
D02*
G37*
G36*
X8901Y4128D02*
X8807D01*
Y4059D01*
X8901D01*
Y4128D01*
D02*
G37*
G36*
X8769D02*
X8675D01*
Y4059D01*
X8769D01*
Y4128D01*
D02*
G37*
G36*
X9952Y4096D02*
X9900D01*
Y4043D01*
X9900Y4043D01*
X9918Y4050D01*
X9933Y4062D01*
X9945Y4078D01*
X9952Y4096D01*
X9952Y4096D01*
D02*
G37*
G36*
X3184Y4141D02*
X2920D01*
Y4042D01*
X3184D01*
Y4141D01*
D02*
G37*
G36*
X5914Y4032D02*
X5861D01*
Y3980D01*
X5861Y3980D01*
X5879Y3987D01*
X5895Y3999D01*
X5906Y4014D01*
X5914Y4032D01*
X5914Y4032D01*
D02*
G37*
G36*
X5823D02*
X5770D01*
X5770Y4032D01*
X5778Y4014D01*
X5789Y3999D01*
X5805Y3987D01*
X5823Y3980D01*
X5823Y3980D01*
Y4032D01*
D02*
G37*
G36*
X3118Y4009D02*
Y3956D01*
X3171D01*
X3171Y3956D01*
X3163Y3974D01*
X3151Y3990D01*
X3136Y4001D01*
X3118Y4009D01*
X3118Y4009D01*
D02*
G37*
G36*
X3080D02*
X3080Y4009D01*
X3062Y4001D01*
X3046Y3990D01*
X3034Y3974D01*
X3027Y3956D01*
X3027Y3956D01*
X3080D01*
Y4009D01*
D02*
G37*
G36*
X3171Y3918D02*
X3118D01*
Y3865D01*
X3118Y3865D01*
X3136Y3873D01*
X3151Y3884D01*
X3163Y3900D01*
X3171Y3918D01*
X3171Y3918D01*
D02*
G37*
G36*
X3080D02*
X3027D01*
X3027Y3918D01*
X3034Y3900D01*
X3046Y3884D01*
X3062Y3873D01*
X3080Y3865D01*
X3080Y3865D01*
Y3918D01*
D02*
G37*
G36*
X8096Y4032D02*
X7906D01*
Y3842D01*
X8096D01*
Y4032D01*
D02*
G37*
G36*
X8655Y3922D02*
Y3829D01*
X8748D01*
X8746Y3840D01*
X8735Y3867D01*
X8717Y3891D01*
X8693Y3909D01*
X8666Y3920D01*
X8655Y3922D01*
D02*
G37*
G36*
X6369D02*
Y3829D01*
X6462D01*
X6460Y3840D01*
X6449Y3867D01*
X6431Y3891D01*
X6407Y3909D01*
X6380Y3920D01*
X6369Y3922D01*
D02*
G37*
G36*
X4083D02*
Y3829D01*
X4176D01*
X4174Y3840D01*
X4163Y3867D01*
X4145Y3891D01*
X4121Y3909D01*
X4094Y3920D01*
X4083Y3922D01*
D02*
G37*
G36*
X8617D02*
X8606Y3920D01*
X8579Y3909D01*
X8555Y3891D01*
X8537Y3867D01*
X8526Y3840D01*
X8524Y3829D01*
X8617D01*
Y3922D01*
D02*
G37*
G36*
X4045D02*
X4034Y3920D01*
X4007Y3909D01*
X3983Y3891D01*
X3965Y3867D01*
X3954Y3840D01*
X3952Y3829D01*
X4045D01*
Y3922D01*
D02*
G37*
G36*
X6331D02*
X6320Y3920D01*
X6293Y3909D01*
X6269Y3891D01*
X6251Y3867D01*
X6240Y3840D01*
X6238Y3829D01*
X6331D01*
Y3922D01*
D02*
G37*
G36*
X9747Y3905D02*
X9557D01*
Y3715D01*
X9747D01*
Y3905D01*
D02*
G37*
G36*
X7461D02*
X7271D01*
Y3715D01*
X7461D01*
Y3905D01*
D02*
G37*
G36*
X5175D02*
X4985D01*
Y3715D01*
X5175D01*
Y3905D01*
D02*
G37*
G36*
X9398Y3906D02*
X9373Y3903D01*
X9350Y3893D01*
X9330Y3878D01*
X9315Y3858D01*
X9305Y3835D01*
X9302Y3810D01*
X9305Y3785D01*
X9315Y3762D01*
X9330Y3742D01*
X9350Y3727D01*
X9373Y3717D01*
X9398Y3714D01*
X9423Y3717D01*
X9446Y3727D01*
X9466Y3742D01*
X9481Y3762D01*
X9491Y3785D01*
X9494Y3810D01*
X9491Y3835D01*
X9481Y3858D01*
X9466Y3878D01*
X9446Y3893D01*
X9423Y3903D01*
X9398Y3906D01*
D02*
G37*
G36*
X9144D02*
X9119Y3903D01*
X9096Y3893D01*
X9076Y3878D01*
X9061Y3858D01*
X9051Y3835D01*
X9048Y3810D01*
X9051Y3785D01*
X9061Y3762D01*
X9076Y3742D01*
X9096Y3727D01*
X9119Y3717D01*
X9144Y3714D01*
X9169Y3717D01*
X9192Y3727D01*
X9212Y3742D01*
X9227Y3762D01*
X9237Y3785D01*
X9240Y3810D01*
X9237Y3835D01*
X9227Y3858D01*
X9212Y3878D01*
X9192Y3893D01*
X9169Y3903D01*
X9144Y3906D01*
D02*
G37*
G36*
X8890D02*
X8865Y3903D01*
X8842Y3893D01*
X8822Y3878D01*
X8807Y3858D01*
X8797Y3835D01*
X8794Y3810D01*
X8797Y3785D01*
X8807Y3762D01*
X8822Y3742D01*
X8842Y3727D01*
X8865Y3717D01*
X8890Y3714D01*
X8915Y3717D01*
X8938Y3727D01*
X8958Y3742D01*
X8973Y3762D01*
X8983Y3785D01*
X8986Y3810D01*
X8983Y3835D01*
X8973Y3858D01*
X8958Y3878D01*
X8938Y3893D01*
X8915Y3903D01*
X8890Y3906D01*
D02*
G37*
G36*
X8382D02*
X8357Y3903D01*
X8334Y3893D01*
X8314Y3878D01*
X8299Y3858D01*
X8289Y3835D01*
X8286Y3810D01*
X8289Y3785D01*
X8299Y3762D01*
X8314Y3742D01*
X8334Y3727D01*
X8357Y3717D01*
X8382Y3714D01*
X8407Y3717D01*
X8430Y3727D01*
X8450Y3742D01*
X8465Y3762D01*
X8475Y3785D01*
X8478Y3810D01*
X8475Y3835D01*
X8465Y3858D01*
X8450Y3878D01*
X8430Y3893D01*
X8407Y3903D01*
X8382Y3906D01*
D02*
G37*
G36*
X7112D02*
X7087Y3903D01*
X7064Y3893D01*
X7044Y3878D01*
X7029Y3858D01*
X7019Y3835D01*
X7016Y3810D01*
X7019Y3785D01*
X7029Y3762D01*
X7044Y3742D01*
X7064Y3727D01*
X7087Y3717D01*
X7112Y3714D01*
X7137Y3717D01*
X7160Y3727D01*
X7180Y3742D01*
X7195Y3762D01*
X7205Y3785D01*
X7208Y3810D01*
X7205Y3835D01*
X7195Y3858D01*
X7180Y3878D01*
X7160Y3893D01*
X7137Y3903D01*
X7112Y3906D01*
D02*
G37*
G36*
X6858D02*
X6833Y3903D01*
X6810Y3893D01*
X6790Y3878D01*
X6775Y3858D01*
X6765Y3835D01*
X6762Y3810D01*
X6765Y3785D01*
X6775Y3762D01*
X6790Y3742D01*
X6810Y3727D01*
X6833Y3717D01*
X6858Y3714D01*
X6883Y3717D01*
X6906Y3727D01*
X6926Y3742D01*
X6941Y3762D01*
X6951Y3785D01*
X6954Y3810D01*
X6951Y3835D01*
X6941Y3858D01*
X6926Y3878D01*
X6906Y3893D01*
X6883Y3903D01*
X6858Y3906D01*
D02*
G37*
G36*
X6604D02*
X6579Y3903D01*
X6556Y3893D01*
X6536Y3878D01*
X6521Y3858D01*
X6511Y3835D01*
X6508Y3810D01*
X6511Y3785D01*
X6521Y3762D01*
X6536Y3742D01*
X6556Y3727D01*
X6579Y3717D01*
X6604Y3714D01*
X6629Y3717D01*
X6652Y3727D01*
X6672Y3742D01*
X6687Y3762D01*
X6697Y3785D01*
X6700Y3810D01*
X6697Y3835D01*
X6687Y3858D01*
X6672Y3878D01*
X6652Y3893D01*
X6629Y3903D01*
X6604Y3906D01*
D02*
G37*
G36*
X4826D02*
X4801Y3903D01*
X4778Y3893D01*
X4758Y3878D01*
X4743Y3858D01*
X4733Y3835D01*
X4730Y3810D01*
X4733Y3785D01*
X4743Y3762D01*
X4758Y3742D01*
X4778Y3727D01*
X4801Y3717D01*
X4826Y3714D01*
X4851Y3717D01*
X4874Y3727D01*
X4894Y3742D01*
X4909Y3762D01*
X4919Y3785D01*
X4922Y3810D01*
X4919Y3835D01*
X4909Y3858D01*
X4894Y3878D01*
X4874Y3893D01*
X4851Y3903D01*
X4826Y3906D01*
D02*
G37*
G36*
X4572D02*
X4547Y3903D01*
X4524Y3893D01*
X4504Y3878D01*
X4489Y3858D01*
X4479Y3835D01*
X4476Y3810D01*
X4479Y3785D01*
X4489Y3762D01*
X4504Y3742D01*
X4524Y3727D01*
X4547Y3717D01*
X4572Y3714D01*
X4597Y3717D01*
X4620Y3727D01*
X4640Y3742D01*
X4655Y3762D01*
X4665Y3785D01*
X4668Y3810D01*
X4665Y3835D01*
X4655Y3858D01*
X4640Y3878D01*
X4620Y3893D01*
X4597Y3903D01*
X4572Y3906D01*
D02*
G37*
G36*
X4318D02*
X4293Y3903D01*
X4270Y3893D01*
X4250Y3878D01*
X4235Y3858D01*
X4225Y3835D01*
X4222Y3810D01*
X4225Y3785D01*
X4235Y3762D01*
X4250Y3742D01*
X4270Y3727D01*
X4293Y3717D01*
X4318Y3714D01*
X4343Y3717D01*
X4366Y3727D01*
X4386Y3742D01*
X4401Y3762D01*
X4411Y3785D01*
X4414Y3810D01*
X4411Y3835D01*
X4401Y3858D01*
X4386Y3878D01*
X4366Y3893D01*
X4343Y3903D01*
X4318Y3906D01*
D02*
G37*
G36*
X3810D02*
X3785Y3903D01*
X3762Y3893D01*
X3742Y3878D01*
X3727Y3858D01*
X3717Y3835D01*
X3714Y3810D01*
X3717Y3785D01*
X3727Y3762D01*
X3742Y3742D01*
X3762Y3727D01*
X3785Y3717D01*
X3810Y3714D01*
X3835Y3717D01*
X3858Y3727D01*
X3878Y3742D01*
X3893Y3762D01*
X3903Y3785D01*
X3906Y3810D01*
X3903Y3835D01*
X3893Y3858D01*
X3878Y3878D01*
X3858Y3893D01*
X3835Y3903D01*
X3810Y3906D01*
D02*
G37*
G36*
X8748Y3791D02*
X8655D01*
Y3698D01*
X8666Y3700D01*
X8693Y3711D01*
X8717Y3729D01*
X8735Y3753D01*
X8746Y3780D01*
X8748Y3791D01*
D02*
G37*
G36*
X6462D02*
X6369D01*
Y3698D01*
X6380Y3700D01*
X6407Y3711D01*
X6431Y3729D01*
X6449Y3753D01*
X6460Y3780D01*
X6462Y3791D01*
D02*
G37*
G36*
X4176D02*
X4083D01*
Y3698D01*
X4094Y3700D01*
X4121Y3711D01*
X4145Y3729D01*
X4163Y3753D01*
X4174Y3780D01*
X4176Y3791D01*
D02*
G37*
G36*
X8617D02*
X8524D01*
X8526Y3780D01*
X8537Y3753D01*
X8555Y3729D01*
X8579Y3711D01*
X8606Y3700D01*
X8617Y3698D01*
Y3791D01*
D02*
G37*
G36*
X6331D02*
X6238D01*
X6240Y3780D01*
X6251Y3753D01*
X6269Y3729D01*
X6293Y3711D01*
X6320Y3700D01*
X6331Y3698D01*
Y3791D01*
D02*
G37*
G36*
X4045D02*
X3952D01*
X3954Y3780D01*
X3965Y3753D01*
X3983Y3729D01*
X4007Y3711D01*
X4034Y3700D01*
X4045Y3698D01*
Y3791D01*
D02*
G37*
G36*
X8001Y3779D02*
X7976Y3776D01*
X7953Y3766D01*
X7933Y3751D01*
X7918Y3731D01*
X7908Y3708D01*
X7905Y3683D01*
X7908Y3658D01*
X7918Y3635D01*
X7933Y3615D01*
X7953Y3600D01*
X7976Y3590D01*
X8001Y3587D01*
X8026Y3590D01*
X8049Y3600D01*
X8069Y3615D01*
X8084Y3635D01*
X8094Y3658D01*
X8097Y3683D01*
X8094Y3708D01*
X8084Y3731D01*
X8069Y3751D01*
X8049Y3766D01*
X8026Y3776D01*
X8001Y3779D01*
D02*
G37*
G36*
X7747D02*
X7722Y3776D01*
X7699Y3766D01*
X7679Y3751D01*
X7664Y3731D01*
X7654Y3708D01*
X7651Y3683D01*
X7654Y3658D01*
X7664Y3635D01*
X7679Y3615D01*
X7699Y3600D01*
X7722Y3590D01*
X7747Y3587D01*
X7772Y3590D01*
X7795Y3600D01*
X7815Y3615D01*
X7830Y3635D01*
X7840Y3658D01*
X7843Y3683D01*
X7840Y3708D01*
X7830Y3731D01*
X7815Y3751D01*
X7795Y3766D01*
X7772Y3776D01*
X7747Y3779D01*
D02*
G37*
G36*
X8655Y3668D02*
Y3575D01*
X8748D01*
X8746Y3586D01*
X8735Y3613D01*
X8717Y3637D01*
X8693Y3655D01*
X8666Y3666D01*
X8655Y3668D01*
D02*
G37*
G36*
X4083D02*
Y3575D01*
X4176D01*
X4174Y3586D01*
X4163Y3613D01*
X4145Y3637D01*
X4121Y3655D01*
X4094Y3666D01*
X4083Y3668D01*
D02*
G37*
G36*
X6369D02*
Y3575D01*
X6462D01*
X6460Y3586D01*
X6449Y3613D01*
X6431Y3637D01*
X6407Y3655D01*
X6380Y3666D01*
X6369Y3668D01*
D02*
G37*
G36*
X8617D02*
X8606Y3666D01*
X8579Y3655D01*
X8555Y3637D01*
X8537Y3613D01*
X8526Y3586D01*
X8524Y3575D01*
X8617D01*
Y3668D01*
D02*
G37*
G36*
X4045D02*
X4034Y3666D01*
X4007Y3655D01*
X3983Y3637D01*
X3965Y3613D01*
X3954Y3586D01*
X3952Y3575D01*
X4045D01*
Y3668D01*
D02*
G37*
G36*
X6331D02*
X6320Y3666D01*
X6293Y3655D01*
X6269Y3637D01*
X6251Y3613D01*
X6240Y3586D01*
X6238Y3575D01*
X6331D01*
Y3668D01*
D02*
G37*
G36*
X9652Y3652D02*
X9627Y3649D01*
X9604Y3639D01*
X9584Y3624D01*
X9569Y3604D01*
X9559Y3581D01*
X9556Y3556D01*
X9559Y3531D01*
X9569Y3508D01*
X9584Y3488D01*
X9604Y3473D01*
X9627Y3463D01*
X9652Y3460D01*
X9677Y3463D01*
X9700Y3473D01*
X9720Y3488D01*
X9735Y3508D01*
X9745Y3531D01*
X9748Y3556D01*
X9745Y3581D01*
X9735Y3604D01*
X9720Y3624D01*
X9700Y3639D01*
X9677Y3649D01*
X9652Y3652D01*
D02*
G37*
G36*
X9398D02*
X9373Y3649D01*
X9350Y3639D01*
X9330Y3624D01*
X9315Y3604D01*
X9305Y3581D01*
X9302Y3556D01*
X9305Y3531D01*
X9315Y3508D01*
X9330Y3488D01*
X9350Y3473D01*
X9373Y3463D01*
X9398Y3460D01*
X9423Y3463D01*
X9446Y3473D01*
X9466Y3488D01*
X9481Y3508D01*
X9491Y3531D01*
X9494Y3556D01*
X9491Y3581D01*
X9481Y3604D01*
X9466Y3624D01*
X9446Y3639D01*
X9423Y3649D01*
X9398Y3652D01*
D02*
G37*
G36*
X9144D02*
X9119Y3649D01*
X9096Y3639D01*
X9076Y3624D01*
X9061Y3604D01*
X9051Y3581D01*
X9048Y3556D01*
X9051Y3531D01*
X9061Y3508D01*
X9076Y3488D01*
X9096Y3473D01*
X9119Y3463D01*
X9144Y3460D01*
X9169Y3463D01*
X9192Y3473D01*
X9212Y3488D01*
X9227Y3508D01*
X9237Y3531D01*
X9240Y3556D01*
X9237Y3581D01*
X9227Y3604D01*
X9212Y3624D01*
X9192Y3639D01*
X9169Y3649D01*
X9144Y3652D01*
D02*
G37*
G36*
X8890D02*
X8865Y3649D01*
X8842Y3639D01*
X8822Y3624D01*
X8807Y3604D01*
X8797Y3581D01*
X8794Y3556D01*
X8797Y3531D01*
X8807Y3508D01*
X8822Y3488D01*
X8842Y3473D01*
X8865Y3463D01*
X8890Y3460D01*
X8915Y3463D01*
X8938Y3473D01*
X8958Y3488D01*
X8973Y3508D01*
X8983Y3531D01*
X8986Y3556D01*
X8983Y3581D01*
X8973Y3604D01*
X8958Y3624D01*
X8938Y3639D01*
X8915Y3649D01*
X8890Y3652D01*
D02*
G37*
G36*
X8382D02*
X8357Y3649D01*
X8334Y3639D01*
X8314Y3624D01*
X8299Y3604D01*
X8289Y3581D01*
X8286Y3556D01*
X8289Y3531D01*
X8299Y3508D01*
X8314Y3488D01*
X8334Y3473D01*
X8357Y3463D01*
X8382Y3460D01*
X8407Y3463D01*
X8430Y3473D01*
X8450Y3488D01*
X8465Y3508D01*
X8475Y3531D01*
X8478Y3556D01*
X8475Y3581D01*
X8465Y3604D01*
X8450Y3624D01*
X8430Y3639D01*
X8407Y3649D01*
X8382Y3652D01*
D02*
G37*
G36*
X7366D02*
X7341Y3649D01*
X7318Y3639D01*
X7298Y3624D01*
X7283Y3604D01*
X7273Y3581D01*
X7270Y3556D01*
X7273Y3531D01*
X7283Y3508D01*
X7298Y3488D01*
X7318Y3473D01*
X7341Y3463D01*
X7366Y3460D01*
X7391Y3463D01*
X7414Y3473D01*
X7434Y3488D01*
X7449Y3508D01*
X7459Y3531D01*
X7462Y3556D01*
X7459Y3581D01*
X7449Y3604D01*
X7434Y3624D01*
X7414Y3639D01*
X7391Y3649D01*
X7366Y3652D01*
D02*
G37*
G36*
X7112D02*
X7087Y3649D01*
X7064Y3639D01*
X7044Y3624D01*
X7029Y3604D01*
X7019Y3581D01*
X7016Y3556D01*
X7019Y3531D01*
X7029Y3508D01*
X7044Y3488D01*
X7064Y3473D01*
X7087Y3463D01*
X7112Y3460D01*
X7137Y3463D01*
X7160Y3473D01*
X7180Y3488D01*
X7195Y3508D01*
X7205Y3531D01*
X7208Y3556D01*
X7205Y3581D01*
X7195Y3604D01*
X7180Y3624D01*
X7160Y3639D01*
X7137Y3649D01*
X7112Y3652D01*
D02*
G37*
G36*
X6858D02*
X6833Y3649D01*
X6810Y3639D01*
X6790Y3624D01*
X6775Y3604D01*
X6765Y3581D01*
X6762Y3556D01*
X6765Y3531D01*
X6775Y3508D01*
X6790Y3488D01*
X6810Y3473D01*
X6833Y3463D01*
X6858Y3460D01*
X6883Y3463D01*
X6906Y3473D01*
X6926Y3488D01*
X6941Y3508D01*
X6951Y3531D01*
X6954Y3556D01*
X6951Y3581D01*
X6941Y3604D01*
X6926Y3624D01*
X6906Y3639D01*
X6883Y3649D01*
X6858Y3652D01*
D02*
G37*
G36*
X6604D02*
X6579Y3649D01*
X6556Y3639D01*
X6536Y3624D01*
X6521Y3604D01*
X6511Y3581D01*
X6508Y3556D01*
X6511Y3531D01*
X6521Y3508D01*
X6536Y3488D01*
X6556Y3473D01*
X6579Y3463D01*
X6604Y3460D01*
X6629Y3463D01*
X6652Y3473D01*
X6672Y3488D01*
X6687Y3508D01*
X6697Y3531D01*
X6700Y3556D01*
X6697Y3581D01*
X6687Y3604D01*
X6672Y3624D01*
X6652Y3639D01*
X6629Y3649D01*
X6604Y3652D01*
D02*
G37*
G36*
X6096D02*
X6071Y3649D01*
X6048Y3639D01*
X6028Y3624D01*
X6013Y3604D01*
X6003Y3581D01*
X6000Y3556D01*
X6003Y3531D01*
X6013Y3508D01*
X6028Y3488D01*
X6048Y3473D01*
X6071Y3463D01*
X6096Y3460D01*
X6121Y3463D01*
X6144Y3473D01*
X6164Y3488D01*
X6179Y3508D01*
X6189Y3531D01*
X6192Y3556D01*
X6189Y3581D01*
X6179Y3604D01*
X6164Y3624D01*
X6144Y3639D01*
X6121Y3649D01*
X6096Y3652D01*
D02*
G37*
G36*
X5080D02*
X5055Y3649D01*
X5032Y3639D01*
X5012Y3624D01*
X4997Y3604D01*
X4987Y3581D01*
X4984Y3556D01*
X4987Y3531D01*
X4997Y3508D01*
X5012Y3488D01*
X5032Y3473D01*
X5055Y3463D01*
X5080Y3460D01*
X5105Y3463D01*
X5128Y3473D01*
X5148Y3488D01*
X5163Y3508D01*
X5173Y3531D01*
X5176Y3556D01*
X5173Y3581D01*
X5163Y3604D01*
X5148Y3624D01*
X5128Y3639D01*
X5105Y3649D01*
X5080Y3652D01*
D02*
G37*
G36*
X4826D02*
X4801Y3649D01*
X4778Y3639D01*
X4758Y3624D01*
X4743Y3604D01*
X4733Y3581D01*
X4730Y3556D01*
X4733Y3531D01*
X4743Y3508D01*
X4758Y3488D01*
X4778Y3473D01*
X4801Y3463D01*
X4826Y3460D01*
X4851Y3463D01*
X4874Y3473D01*
X4894Y3488D01*
X4909Y3508D01*
X4919Y3531D01*
X4922Y3556D01*
X4919Y3581D01*
X4909Y3604D01*
X4894Y3624D01*
X4874Y3639D01*
X4851Y3649D01*
X4826Y3652D01*
D02*
G37*
G36*
X4572D02*
X4547Y3649D01*
X4524Y3639D01*
X4504Y3624D01*
X4489Y3604D01*
X4479Y3581D01*
X4476Y3556D01*
X4479Y3531D01*
X4489Y3508D01*
X4504Y3488D01*
X4524Y3473D01*
X4547Y3463D01*
X4572Y3460D01*
X4597Y3463D01*
X4620Y3473D01*
X4640Y3488D01*
X4655Y3508D01*
X4665Y3531D01*
X4668Y3556D01*
X4665Y3581D01*
X4655Y3604D01*
X4640Y3624D01*
X4620Y3639D01*
X4597Y3649D01*
X4572Y3652D01*
D02*
G37*
G36*
X4318D02*
X4293Y3649D01*
X4270Y3639D01*
X4250Y3624D01*
X4235Y3604D01*
X4225Y3581D01*
X4222Y3556D01*
X4225Y3531D01*
X4235Y3508D01*
X4250Y3488D01*
X4270Y3473D01*
X4293Y3463D01*
X4318Y3460D01*
X4343Y3463D01*
X4366Y3473D01*
X4386Y3488D01*
X4401Y3508D01*
X4411Y3531D01*
X4414Y3556D01*
X4411Y3581D01*
X4401Y3604D01*
X4386Y3624D01*
X4366Y3639D01*
X4343Y3649D01*
X4318Y3652D01*
D02*
G37*
G36*
X3810D02*
X3785Y3649D01*
X3762Y3639D01*
X3742Y3624D01*
X3727Y3604D01*
X3717Y3581D01*
X3714Y3556D01*
X3717Y3531D01*
X3727Y3508D01*
X3742Y3488D01*
X3762Y3473D01*
X3785Y3463D01*
X3810Y3460D01*
X3835Y3463D01*
X3858Y3473D01*
X3878Y3488D01*
X3893Y3508D01*
X3903Y3531D01*
X3906Y3556D01*
X3903Y3581D01*
X3893Y3604D01*
X3878Y3624D01*
X3858Y3639D01*
X3835Y3649D01*
X3810Y3652D01*
D02*
G37*
G36*
X8748Y3537D02*
X8655D01*
Y3444D01*
X8666Y3446D01*
X8693Y3457D01*
X8717Y3475D01*
X8735Y3499D01*
X8746Y3526D01*
X8748Y3537D01*
D02*
G37*
G36*
X6462D02*
X6369D01*
Y3444D01*
X6380Y3446D01*
X6407Y3457D01*
X6431Y3475D01*
X6449Y3499D01*
X6460Y3526D01*
X6462Y3537D01*
D02*
G37*
G36*
X4176D02*
X4083D01*
Y3444D01*
X4094Y3446D01*
X4121Y3457D01*
X4145Y3475D01*
X4163Y3499D01*
X4174Y3526D01*
X4176Y3537D01*
D02*
G37*
G36*
X8617D02*
X8524D01*
X8526Y3526D01*
X8537Y3499D01*
X8555Y3475D01*
X8579Y3457D01*
X8606Y3446D01*
X8617Y3444D01*
Y3537D01*
D02*
G37*
G36*
X6331D02*
X6238D01*
X6240Y3526D01*
X6251Y3499D01*
X6269Y3475D01*
X6293Y3457D01*
X6320Y3446D01*
X6331Y3444D01*
Y3537D01*
D02*
G37*
G36*
X4045D02*
X3952D01*
X3954Y3526D01*
X3965Y3499D01*
X3983Y3475D01*
X4007Y3457D01*
X4034Y3446D01*
X4045Y3444D01*
Y3537D01*
D02*
G37*
G36*
X10478Y3102D02*
X10442Y3099D01*
X10408Y3088D01*
X10377Y3072D01*
X10349Y3049D01*
X10327Y3022D01*
X10310Y2990D01*
X10300Y2956D01*
X10296Y2921D01*
X10300Y2886D01*
X10310Y2852D01*
X10327Y2820D01*
X10349Y2793D01*
X10377Y2770D01*
X10408Y2754D01*
X10442Y2743D01*
X10478Y2740D01*
X10513Y2743D01*
X10547Y2754D01*
X10578Y2770D01*
X10606Y2793D01*
X10628Y2820D01*
X10645Y2852D01*
X10655Y2886D01*
X10659Y2921D01*
X10655Y2956D01*
X10645Y2990D01*
X10628Y3022D01*
X10606Y3049D01*
X10578Y3072D01*
X10547Y3088D01*
X10513Y3099D01*
X10478Y3102D01*
D02*
G37*
G36*
X2921D02*
X2886Y3099D01*
X2852Y3088D01*
X2820Y3072D01*
X2793Y3049D01*
X2770Y3022D01*
X2754Y2990D01*
X2743Y2956D01*
X2740Y2921D01*
X2743Y2886D01*
X2754Y2852D01*
X2770Y2820D01*
X2793Y2793D01*
X2820Y2770D01*
X2852Y2754D01*
X2886Y2743D01*
X2921Y2740D01*
X2956Y2743D01*
X2990Y2754D01*
X3022Y2770D01*
X3049Y2793D01*
X3072Y2820D01*
X3088Y2852D01*
X3099Y2886D01*
X3102Y2921D01*
X3099Y2956D01*
X3088Y2990D01*
X3072Y3022D01*
X3049Y3049D01*
X3022Y3072D01*
X2990Y3088D01*
X2956Y3099D01*
X2921Y3102D01*
D02*
G37*
%LPD*%
G36*
X9565Y7829D02*
X9566Y7824D01*
X9579Y7806D01*
X9583Y7803D01*
Y7780D01*
X9474Y7671D01*
X9466Y7659D01*
X9463Y7645D01*
X9463Y7645D01*
Y7549D01*
X9459Y7546D01*
X9447Y7528D01*
X9443Y7506D01*
X9447Y7484D01*
X9459Y7465D01*
X9475Y7455D01*
Y7383D01*
X9472Y7381D01*
X9460Y7362D01*
X9455Y7341D01*
X9460Y7319D01*
X9472Y7300D01*
Y7292D01*
X9460Y7274D01*
X9455Y7252D01*
X9460Y7230D01*
X9472Y7211D01*
X9485Y7203D01*
X9472Y7185D01*
X9468Y7163D01*
X9472Y7141D01*
X9485Y7123D01*
X9494Y7116D01*
Y7088D01*
X9496Y7076D01*
X9503Y7066D01*
X9511Y7058D01*
X9510Y7058D01*
X9506Y7036D01*
X9510Y7014D01*
X9511Y7014D01*
X9496Y6999D01*
X9493Y7001D01*
X9479Y7004D01*
X9479Y7004D01*
X9427D01*
X9424Y7008D01*
X9405Y7020D01*
X9389Y7024D01*
X9382Y7038D01*
X9381Y7044D01*
X9389Y7053D01*
X9396Y7063D01*
X9398Y7075D01*
Y7690D01*
X9543Y7836D01*
X9565Y7829D01*
D02*
G37*
G36*
X5651Y6299D02*
X5651Y6299D01*
X5663Y6291D01*
X5677Y6288D01*
X5677Y6288D01*
X5929D01*
X5979Y6238D01*
X5979Y6209D01*
X5855Y6086D01*
X5844Y6068D01*
X5840Y6048D01*
X5840Y6048D01*
Y5964D01*
X5831Y5947D01*
X5819Y5947D01*
X5772D01*
Y5869D01*
Y5791D01*
X5819D01*
X5831Y5791D01*
X5840Y5774D01*
Y5584D01*
X5582D01*
X5470Y5696D01*
Y5872D01*
X5490Y5886D01*
X5493Y5885D01*
X5493Y5885D01*
Y5956D01*
Y6028D01*
X5493Y6028D01*
X5490Y6027D01*
X5470Y6041D01*
Y6300D01*
X5475Y6304D01*
X5490Y6308D01*
X5613Y6185D01*
X5613Y6185D01*
X5625Y6177D01*
X5639Y6174D01*
X5639Y6174D01*
X5710D01*
X5713Y6170D01*
X5717Y6167D01*
Y6150D01*
X5717Y6149D01*
X5717Y6149D01*
Y6104D01*
X5693D01*
Y5983D01*
X5813D01*
Y6104D01*
X5789D01*
Y6149D01*
X5789Y6150D01*
Y6167D01*
X5793Y6170D01*
X5806Y6188D01*
X5810Y6210D01*
X5806Y6232D01*
X5793Y6251D01*
X5775Y6263D01*
X5753Y6267D01*
X5731Y6263D01*
X5713Y6251D01*
X5710Y6247D01*
X5654D01*
X5548Y6352D01*
Y6373D01*
X5568Y6382D01*
X5651Y6299D01*
D02*
G37*
%LPC*%
G36*
X5531Y6028D02*
Y5975D01*
X5584D01*
X5584Y5976D01*
X5576Y5993D01*
X5564Y6009D01*
X5549Y6021D01*
X5531Y6028D01*
X5531Y6028D01*
D02*
G37*
G36*
X5734Y5947D02*
X5675D01*
Y5888D01*
X5734D01*
Y5947D01*
D02*
G37*
G36*
X5584Y5937D02*
X5531D01*
Y5885D01*
X5531Y5885D01*
X5549Y5892D01*
X5564Y5904D01*
X5576Y5919D01*
X5584Y5937D01*
X5584Y5937D01*
D02*
G37*
G36*
X5734Y5850D02*
X5675D01*
Y5791D01*
X5734D01*
Y5850D01*
D02*
G37*
%LPD*%
D13*
X9906Y6858D02*
Y7808D01*
X9779Y6731D02*
X9906Y6858D01*
X9855Y7859D02*
X9906Y7808D01*
X9855Y7859D02*
Y7861D01*
X9779Y6117D02*
X9843Y6054D01*
X9779Y6117D02*
Y6731D01*
X8611Y5651D02*
X8739D01*
X8482D02*
X8611D01*
X8611Y5715D02*
X8611Y5715D01*
Y5651D02*
Y5715D01*
X8964Y4696D02*
X8966Y4699D01*
X8913Y4696D02*
X8964D01*
X8788Y4572D02*
X8913Y4696D01*
X8788Y4468D02*
Y4572D01*
X8570Y4461D02*
X8577Y4468D01*
X8788D01*
X7488Y5799D02*
X7940Y5347D01*
X7216Y5799D02*
X7488D01*
X8479Y5648D02*
X8482Y5651D01*
X8776Y5086D02*
Y5169D01*
X8799Y5192D01*
Y5204D01*
X8522Y6946D02*
X8534Y6958D01*
Y7226D01*
X4420Y7290D02*
X4940D01*
X5156Y7074D02*
X5156D01*
X4940Y7290D02*
X5156Y7074D01*
X3721Y7429D02*
X3727D01*
X4045Y7747D01*
X4051D01*
X3670Y7188D02*
Y7376D01*
X3721Y7427D01*
Y7429D01*
X3569Y7087D02*
X3670Y7188D01*
X3569Y6934D02*
Y7087D01*
X3696Y6807D02*
X3797D01*
X3569Y6934D02*
X3696Y6807D01*
X4254Y7455D02*
X4420Y7290D01*
X10799Y10444D02*
G03*
X10483Y10801I-316J38D01*
G01*
X10480Y2597D02*
G03*
X10801Y2921I-3J324D01*
G01*
X2597Y2921D02*
G03*
X2921Y2600I324J3D01*
G01*
X2962Y10799D02*
G03*
X2600Y10478I-39J-321D01*
G01*
X2962Y10799D02*
X2962Y10799D01*
X2598Y2921D02*
X2600Y10478D01*
X2921Y2600D02*
X10480Y2597D01*
X2911Y10800D02*
X10483Y10801D01*
X10800Y10444D02*
X10801Y2921D01*
D20*
X7075Y6947D02*
D03*
X7250D02*
D03*
X7075Y7582D02*
D03*
X7250D02*
D03*
X9798Y6909D02*
D03*
X9623D02*
D03*
X5704Y6718D02*
D03*
X5879D02*
D03*
X7075Y7137D02*
D03*
X7250D02*
D03*
X10052Y6152D02*
D03*
X10227D02*
D03*
X5704Y7734D02*
D03*
X5879D02*
D03*
X5704Y6541D02*
D03*
X5879D02*
D03*
X9628Y7290D02*
D03*
X9803D02*
D03*
X10667Y5753D02*
D03*
X10492D02*
D03*
X8914Y5651D02*
D03*
X8739D02*
D03*
D23*
X6058Y6044D02*
D03*
Y5869D02*
D03*
X6604Y6031D02*
D03*
Y5856D02*
D03*
X6248Y7873D02*
D03*
Y7698D02*
D03*
X6655Y7873D02*
D03*
Y7698D02*
D03*
X8546Y7888D02*
D03*
Y7713D02*
D03*
X8522Y6771D02*
D03*
Y6946D02*
D03*
X9246Y8049D02*
D03*
Y7874D02*
D03*
X9086Y6622D02*
D03*
Y6447D02*
D03*
X5753Y6044D02*
D03*
Y5869D02*
D03*
X7252Y8368D02*
D03*
Y8193D02*
D03*
X8941Y8151D02*
D03*
Y7976D02*
D03*
X9843Y4358D02*
D03*
Y4533D02*
D03*
X8479Y5473D02*
D03*
Y5648D02*
D03*
X9449Y6456D02*
D03*
Y6631D02*
D03*
X9271Y6453D02*
D03*
Y6628D02*
D03*
X8898Y6447D02*
D03*
Y6622D02*
D03*
X8776Y5086D02*
D03*
Y4911D02*
D03*
X4331Y6555D02*
D03*
Y6730D02*
D03*
X4496Y6555D02*
D03*
Y6730D02*
D03*
X4648Y6336D02*
D03*
Y6161D02*
D03*
X8570Y4461D02*
D03*
Y4286D02*
D03*
X8941Y5086D02*
D03*
Y4911D02*
D03*
X8255Y5167D02*
D03*
Y4992D02*
D03*
D24*
X9843Y6054D02*
D03*
Y4931D02*
D03*
D25*
Y6299D02*
D03*
Y4687D02*
D03*
D36*
X2901Y4160D02*
D03*
Y5010D02*
D03*
D99*
X8273Y7046D02*
G03*
X8296Y7023I23J0D01*
G01*
X8273Y7069D02*
G03*
X8227Y7069I-23J0D01*
G01*
X8181Y6957D02*
G03*
X8227Y6957I23J0D01*
G01*
X8181Y7089D02*
G03*
X8136Y7089I-23J0D01*
G01*
X8113Y7023D02*
G03*
X8136Y7046I0J23D01*
G01*
X8019Y7198D02*
G03*
X8042Y7175I23J0D01*
G01*
X8019Y7208D02*
G03*
X7973Y7208I-23J0D01*
G01*
X7927Y7109D02*
G03*
X7973Y7109I23J0D01*
G01*
X7927Y7242D02*
G03*
X7882Y7242I-23J0D01*
G01*
X7859Y7175D02*
G03*
X7882Y7198I0J23D01*
G01*
X8181Y7419D02*
G03*
X8181Y7387I16J-16D01*
G01*
X8210Y7326D02*
G03*
X8210Y7359I-16J16D01*
G01*
X8178Y7326D02*
G03*
X8210Y7326I16J16D01*
G01*
X8086Y7418D02*
G03*
X8054Y7418I-16J-16D01*
G01*
X8054Y7418D02*
G03*
X8054Y7385I16J-16D01*
G01*
X8084Y7322D02*
G03*
X8084Y7355I-16J16D01*
G01*
X8095Y7541D02*
G03*
X8118Y7518I23J0D01*
G01*
X8095Y7541D02*
G03*
X8049Y7541I-23J0D01*
G01*
X8004Y7467D02*
G03*
X8049Y7467I23J0D01*
G01*
X8004Y7584D02*
G03*
X7958Y7584I-23J0D01*
G01*
X7935Y7518D02*
G03*
X7958Y7541I0J23D01*
G01*
X7945Y7653D02*
G03*
X7922Y7630I0J-23D01*
G01*
X7877Y7606D02*
G03*
X7922Y7606I23J0D01*
G01*
X7877Y7719D02*
G03*
X7831Y7719I-23J0D01*
G01*
X7808Y7653D02*
G03*
X7831Y7676I0J23D01*
G01*
X9367Y7703D02*
X9723Y8059D01*
X9367Y7075D02*
Y7703D01*
X9723Y8059D02*
Y8329D01*
X9335Y7089D02*
Y7734D01*
X9690Y8090D02*
Y8344D01*
X9335Y7734D02*
X9690Y8090D01*
X9271Y6547D02*
X9488D01*
X9514Y6521D01*
X9258Y7760D02*
Y7772D01*
X9233Y7798D02*
X9258Y7772D01*
X8788Y8090D02*
X8883D01*
X8940Y7977D02*
X8941Y7976D01*
X8940Y7977D02*
Y8034D01*
X8883Y8090D02*
X8940Y8034D01*
X8915Y7950D02*
X8941Y7976D01*
X8785Y8093D02*
X8788Y8090D01*
X9723Y8329D02*
X9840Y8446D01*
X10218D02*
X10224Y8440D01*
X9840Y8446D02*
X10218D01*
X9500Y7506D02*
X9506Y7499D01*
Y7347D02*
Y7499D01*
Y7347D02*
X9512Y7341D01*
X9309Y6933D02*
Y7017D01*
X9367Y7075D01*
X9276Y7031D02*
X9335Y7089D01*
X9309Y6933D02*
X9373Y6870D01*
X9690Y8344D02*
X10045Y8700D01*
X10224D01*
X9276Y6837D02*
Y7031D01*
X9319Y6787D02*
Y6794D01*
X9276Y6837D02*
X9319Y6794D01*
X8919Y6547D02*
X9271D01*
X9271Y6453D02*
Y6547D01*
X9271Y6547D01*
X8898Y6459D02*
Y6525D01*
X8919Y6547D01*
X9449Y6456D02*
X9449Y6456D01*
X8898Y6634D02*
X8909Y6645D01*
Y6757D01*
X9131Y6640D02*
Y6743D01*
X9139Y6751D01*
X9390Y6662D02*
X9461D01*
X9347Y6706D02*
X9390Y6662D01*
X9241Y6706D02*
X9347D01*
X9225Y6721D02*
X9241Y6706D01*
X9225Y6721D02*
Y6787D01*
X9522Y7163D02*
X9525D01*
Y7088D02*
Y7163D01*
Y7088D02*
X9563Y7050D01*
Y7036D02*
Y7050D01*
X9598Y7260D02*
X9628Y7290D01*
X9521Y7260D02*
X9598D01*
X9512Y7252D02*
X9521Y7260D01*
X8636Y7303D02*
Y7480D01*
Y6947D02*
Y7303D01*
X8471D02*
X8636D01*
Y7480D02*
X8915Y7760D01*
Y7836D01*
X8433Y7226D02*
X8534D01*
X8395Y7264D02*
Y7379D01*
Y7264D02*
X8433Y7226D01*
X8395Y7379D02*
X8446Y7429D01*
X8534Y7226D02*
X8534Y7226D01*
X8457Y7442D02*
X8522D01*
X8446Y7430D02*
X8457Y7442D01*
X8446Y7429D02*
Y7430D01*
X8552Y7473D02*
Y7544D01*
X8522Y7442D02*
X8552Y7473D01*
Y7544D02*
Y7706D01*
X9233Y7861D02*
X9246Y7874D01*
X9233Y7798D02*
Y7861D01*
X8915Y7836D02*
Y7950D01*
X8344Y7023D02*
X8407Y7087D01*
X8296Y7023D02*
X8344D01*
X8273Y7046D02*
Y7069D01*
X8227Y6957D02*
Y7069D01*
X8181Y6957D02*
Y7089D01*
X8136Y7046D02*
Y7089D01*
X8103Y7023D02*
X8113D01*
X7709D02*
X8103D01*
X8042Y7175D02*
X8128D01*
X8019Y7198D02*
Y7208D01*
X7973Y7109D02*
Y7208D01*
X7927Y7109D02*
Y7242D01*
X7882Y7198D02*
Y7242D01*
X7849Y7175D02*
X7859D01*
X8128D02*
X8166D01*
X7785D02*
X7849D01*
X7709Y7239D02*
X7785Y7315D01*
X8077D01*
X8166Y7175D02*
X8318Y7328D01*
X8181Y7419D02*
X8230Y7468D01*
X8181Y7387D02*
X8210Y7359D01*
X8210Y7326D02*
X8210Y7326D01*
X8086Y7418D02*
X8178Y7326D01*
X8086Y7418D02*
X8086Y7418D01*
X8054D02*
X8054Y7418D01*
X8054Y7385D02*
X8054Y7385D01*
X8084Y7355D01*
X8077Y7315D02*
X8084Y7322D01*
X8230Y7468D02*
X8306Y7544D01*
X8118Y7518D02*
X8166D01*
X8095Y7541D02*
Y7541D01*
X8049Y7467D02*
Y7541D01*
X8004Y7467D02*
Y7584D01*
X7958Y7541D02*
Y7584D01*
X7925Y7518D02*
X7935D01*
X8166D02*
X8192D01*
X7861D02*
X7925D01*
X8296Y7623D02*
X8345D01*
X8415Y7553D01*
Y7550D02*
Y7553D01*
Y7550D02*
X8433Y7532D01*
Y7518D02*
Y7532D01*
X8192Y7518D02*
X8296Y7623D01*
X7945Y7653D02*
X8014D01*
X7922Y7606D02*
Y7630D01*
X7877Y7606D02*
Y7719D01*
X7831Y7676D02*
Y7719D01*
X7798Y7653D02*
X7808D01*
X8014D02*
X8412D01*
X7755D02*
X7798D01*
X7734Y7518D02*
Y7633D01*
X7755Y7653D01*
D100*
X8039Y4732D02*
Y4872D01*
X7963Y4948D02*
Y5212D01*
Y4948D02*
X8039Y4872D01*
Y4280D02*
Y4732D01*
X7938Y4178D02*
X8039Y4280D01*
X7938Y4178D02*
X7938D01*
X7765Y5022D02*
X7968Y4818D01*
X8037Y5286D02*
Y5385D01*
X7963Y5212D02*
X8037Y5286D01*
X7790Y5855D02*
Y6002D01*
X7650Y5896D02*
Y5999D01*
X8100Y5232D02*
Y5446D01*
X7650Y5896D02*
X8100Y5446D01*
X7650Y5999D02*
X7650Y6000D01*
X8029Y5161D02*
X8100Y5232D01*
X8029Y4991D02*
X8103Y4917D01*
X8029Y4991D02*
Y5161D01*
X8151Y5127D02*
Y5494D01*
X7790Y5855D02*
X8151Y5494D01*
X8100Y5065D02*
Y5076D01*
X8151Y5127D01*
X7518Y5657D02*
X7765Y5410D01*
Y5022D02*
Y5410D01*
X7709Y4925D02*
X7973Y4661D01*
X7513Y5568D02*
X7709Y5372D01*
Y4925D02*
Y5372D01*
X7518Y5903D02*
X8037Y5385D01*
X7973Y4463D02*
Y4564D01*
X7920Y4409D02*
X7973Y4463D01*
Y4564D02*
Y4661D01*
X6248Y7999D02*
X6263Y8014D01*
X7236Y7582D02*
X7366D01*
X3950Y6782D02*
X4140D01*
X4445Y7087D02*
X5017D01*
X4140Y6782D02*
X4445Y7087D01*
X3653Y7005D02*
X3726D01*
X3950Y6782D01*
X9619Y7765D02*
Y7846D01*
X9500Y7645D02*
X9619Y7765D01*
X9500Y7506D02*
Y7645D01*
X8546Y7713D02*
X8552Y7706D01*
X8526Y7732D02*
X8546Y7713D01*
X8460Y7732D02*
X8526D01*
X8337Y7856D02*
X8460Y7732D01*
X7780Y7856D02*
X8337D01*
X7506Y7582D02*
X7780Y7856D01*
X7366Y7582D02*
X7506D01*
X9538Y6909D02*
X9623D01*
X9479Y6968D02*
X9538Y6909D01*
X9384Y6968D02*
X9479D01*
X9514Y6521D02*
X9623Y6630D01*
X9449Y6456D02*
X9514Y6521D01*
X9623Y6630D02*
Y6909D01*
X6350Y6337D02*
X6357Y6330D01*
Y5406D02*
Y6330D01*
Y5406D02*
X6364Y5399D01*
X7163Y7225D02*
Y7341D01*
Y7225D02*
X7250Y7137D01*
X7252Y7849D02*
Y8014D01*
X7252Y8193D02*
X7252Y8193D01*
Y8014D02*
Y8193D01*
Y8014D02*
X7252Y8014D01*
X6248Y7873D02*
Y7999D01*
Y7873D02*
X6248Y7873D01*
X5753Y6149D02*
Y6210D01*
X6049Y6219D02*
X6056Y6212D01*
Y6151D02*
Y6212D01*
X9698Y5208D02*
Y6132D01*
X9449Y4959D02*
X9698Y5208D01*
X9169Y5397D02*
Y5677D01*
X8458Y6388D02*
X9169Y5677D01*
X7595Y6756D02*
X7988Y6363D01*
X7595Y6756D02*
Y7193D01*
X7502Y7286D02*
X7595Y7193D01*
X7362Y7286D02*
X7502D01*
X6602Y6033D02*
Y6199D01*
Y6033D02*
X6604Y6031D01*
X7173Y5568D02*
X7513D01*
X6924Y5817D02*
X7173Y5568D01*
X6840Y5852D02*
X6851D01*
X6902Y5903D01*
X7518D01*
X7219Y5657D02*
X7518D01*
X7419Y4935D02*
Y5285D01*
X7529Y5395D01*
X7747Y3937D02*
X7764Y3954D01*
Y4762D01*
X8941Y5086D02*
Y5210D01*
X8914Y5651D02*
X8939Y5627D01*
Y5611D02*
Y5627D01*
Y5611D02*
X8941Y5609D01*
Y5210D02*
Y5609D01*
X9135Y5216D02*
X9141Y5222D01*
X8947Y5216D02*
X9135D01*
X8941Y5210D02*
X8947Y5216D01*
X9246Y5870D02*
X9253D01*
X9398Y5725D01*
Y5146D02*
Y5725D01*
X9246Y5870D02*
Y5878D01*
X9248Y6015D02*
X9548Y5715D01*
Y5197D02*
Y5715D01*
X9401Y5050D02*
X9548Y5197D01*
X9131Y6640D02*
X9255D01*
X7366Y7137D02*
X7379D01*
X7250D02*
X7366D01*
X7250Y7137D02*
X7250Y7137D01*
X7250Y6947D02*
X7366D01*
X7366Y6947D01*
X6655Y7873D02*
X6655Y7873D01*
X6655Y7873D02*
Y8014D01*
X6655Y8014D02*
X6655Y8014D01*
X5588Y6414D02*
X5677Y6325D01*
X5944D01*
X5588Y6414D02*
Y6540D01*
X5944Y6325D02*
X6049Y6219D01*
X5564Y6680D02*
X5575D01*
X5535Y6651D02*
X5564Y6680D01*
X5533Y6651D02*
X5535D01*
X5512Y6629D02*
X5533Y6651D01*
X5512Y6337D02*
Y6629D01*
X5639Y6210D02*
X5753D01*
X5512Y6337D02*
X5639Y6210D01*
X5588Y6540D02*
X5664D01*
X5613Y6718D02*
X5664D01*
X5575Y6680D02*
X5613Y6718D01*
X5575Y7734D02*
X5678D01*
X5575Y7734D02*
X5575Y7734D01*
X5753Y6044D02*
Y6149D01*
X5753Y6149D02*
X5753Y6149D01*
X6058Y6044D02*
Y6149D01*
X6056Y6151D02*
X6058Y6149D01*
X4686Y6731D02*
X4928Y6490D01*
X4496Y6730D02*
X4603D01*
X4604Y6731D01*
X4686D01*
X4928Y6007D02*
Y6490D01*
X5232Y5931D02*
Y6045D01*
X5093Y5791D02*
X5232Y5931D01*
X4178Y5575D02*
X4394Y5791D01*
X5093D01*
X4648Y6161D02*
X4648Y6161D01*
Y6096D02*
Y6161D01*
X4737Y6007D02*
X4928D01*
X4648Y6096D02*
X4737Y6007D01*
X3404Y5982D02*
Y6403D01*
X3454Y6453D01*
Y6464D01*
X3645Y6998D02*
X3653Y7005D01*
D101*
X5893Y6048D02*
X6056Y6212D01*
X4826Y9589D02*
Y9843D01*
X8643Y5532D02*
X8865D01*
X8600Y5575D02*
X8643Y5532D01*
X8598Y5575D02*
X8600D01*
X5893Y5512D02*
Y6048D01*
Y4737D02*
Y5512D01*
Y4737D02*
X6096Y4534D01*
Y3810D02*
Y4534D01*
D102*
X9643Y4931D02*
X9843D01*
X9555Y4843D02*
X9643Y4931D01*
X9550Y4839D02*
X9555Y4843D01*
X9550Y4267D02*
Y4839D01*
Y4267D02*
X9830Y3988D01*
X5080Y9207D02*
Y9589D01*
Y9207D02*
X5423Y8865D01*
Y5677D02*
Y8865D01*
X5563Y5537D02*
X5867D01*
X5893Y5512D01*
X5423Y5677D02*
X5563Y5537D01*
X9843Y5956D02*
Y6054D01*
Y4931D02*
Y5956D01*
X5321Y3975D02*
Y8788D01*
X5194Y8915D02*
X5321Y8788D01*
X5189Y8915D02*
X5194D01*
X4293Y9068D02*
X4508Y8852D01*
X4039Y9068D02*
X4293D01*
X3442Y9665D02*
X4039Y9068D01*
X3277Y9665D02*
X3442D01*
X4508Y8852D02*
X5125D01*
X5189Y8915D01*
X5704Y6859D02*
X5753Y6909D01*
X5704Y6718D02*
Y6859D01*
X7252Y8014D02*
X7252Y8014D01*
X7036Y8014D02*
X7252D01*
X6388Y8661D02*
X7036Y8014D01*
X6388Y8661D02*
Y8865D01*
Y8941D01*
X6071Y9258D02*
X6388Y8941D01*
X5321Y9258D02*
X6071D01*
X5321Y3480D02*
Y3975D01*
Y3480D02*
X5575Y3226D01*
Y3226D02*
Y3226D01*
Y3226D02*
X9601Y3226D01*
X9830Y3454D01*
Y3988D01*
X8473Y5274D02*
X8610D01*
X8682Y5202D01*
X8255Y5167D02*
X8270Y5182D01*
Y5250D01*
X8294Y5274D01*
X8473D01*
X8476Y5470D02*
X8479Y5473D01*
X8476Y5277D02*
Y5470D01*
X8473Y5274D02*
X8476Y5277D01*
X9843Y4610D02*
Y4686D01*
Y4533D02*
Y4610D01*
X9726Y4618D02*
X9729Y4615D01*
X9837D01*
X9843Y4610D01*
X9843Y4687D02*
X9843Y4686D01*
Y4533D02*
X9843Y4533D01*
X10360Y5790D02*
Y5956D01*
Y5790D02*
X10396Y5753D01*
X10492D01*
X9843Y5956D02*
X10360D01*
X9843Y6299D02*
X9903Y6238D01*
X9966D01*
X10052Y6152D01*
X9843Y6299D02*
Y6626D01*
X9860Y6644D01*
Y6650D01*
X4331Y6730D02*
X4340Y6738D01*
Y6841D01*
X4343Y6845D01*
X4331Y6730D02*
X4496D01*
D104*
X10407Y7539D02*
D03*
Y6558D02*
D03*
D105*
X10157Y6383D02*
D03*
X10197Y7158D02*
D03*
X10157Y7714D02*
D03*
X10493D02*
D03*
Y6383D02*
D03*
D106*
X10149Y4265D02*
D03*
Y5254D02*
D03*
D107*
X10549Y4265D02*
D03*
Y5254D02*
D03*
D108*
X10224Y8700D02*
D03*
Y8440D02*
D03*
X7747Y3683D02*
D03*
X8001D02*
D03*
X5080Y3556D02*
D03*
X4826Y3810D02*
D03*
X4572D02*
D03*
X4318D02*
D03*
X4064D02*
D03*
X3810D02*
D03*
X4826Y3556D02*
D03*
X4572D02*
D03*
X4318D02*
D03*
X4064D02*
D03*
X3810D02*
D03*
X6096D02*
D03*
X6350D02*
D03*
X6604D02*
D03*
X6858D02*
D03*
X7112D02*
D03*
X6096Y3810D02*
D03*
X6350D02*
D03*
X6604D02*
D03*
X6858D02*
D03*
X7112D02*
D03*
X7366Y3556D02*
D03*
X8382D02*
D03*
X8636D02*
D03*
X8890D02*
D03*
X9144D02*
D03*
X9398D02*
D03*
X8382Y3810D02*
D03*
X8636D02*
D03*
X8890D02*
D03*
X9144D02*
D03*
X9398D02*
D03*
X9652Y3556D02*
D03*
X5080Y9843D02*
D03*
X4826D02*
D03*
X4572D02*
D03*
X4318D02*
D03*
X4064D02*
D03*
X5080Y9589D02*
D03*
X4826D02*
D03*
X4572D02*
D03*
X4318D02*
D03*
X4064D02*
D03*
X3810Y9843D02*
D03*
X7366D02*
D03*
X7112D02*
D03*
X6858D02*
D03*
X6604D02*
D03*
X6350D02*
D03*
X7366Y9589D02*
D03*
X7112D02*
D03*
X6858D02*
D03*
X6604D02*
D03*
X6350D02*
D03*
X6096Y9843D02*
D03*
X9652D02*
D03*
X9398D02*
D03*
X9144D02*
D03*
X8890D02*
D03*
X8636D02*
D03*
X9652Y9589D02*
D03*
X9398D02*
D03*
X9144D02*
D03*
X8890D02*
D03*
X8636D02*
D03*
X8382Y9843D02*
D03*
X3277Y9919D02*
D03*
D109*
X10478Y8700D02*
D03*
Y8440D02*
D03*
X5080Y3810D02*
D03*
X7366D02*
D03*
X9652D02*
D03*
X3810Y9589D02*
D03*
X6096D02*
D03*
X8382D02*
D03*
D110*
X7747Y3937D02*
D03*
X8001D02*
D03*
X3277Y9665D02*
D03*
D111*
X10478Y2921D02*
D03*
Y10478D02*
D03*
X2921D02*
D03*
Y2921D02*
D03*
D112*
X7968Y4818D02*
D03*
X7790Y6002D02*
D03*
X7650Y6000D02*
D03*
X8103Y4917D02*
D03*
X8100Y5065D02*
D03*
X7973Y4564D02*
D03*
X7920Y4409D02*
D03*
X8039Y4732D02*
D03*
X7938Y4178D02*
D03*
X9619Y7846D02*
D03*
X9665Y4826D02*
D03*
X9555Y4843D02*
D03*
X5194Y5690D02*
D03*
X5512Y5956D02*
D03*
X7379Y7747D02*
D03*
X8704Y5805D02*
D03*
X9855Y7861D02*
D03*
X5220Y7366D02*
D03*
X9881Y4115D02*
D03*
X5639Y9512D02*
D03*
X3099Y3937D02*
D03*
X9474Y8839D02*
D03*
X9258Y7760D02*
D03*
X8785Y8093D02*
D03*
X6350Y6337D02*
D03*
X4508Y8852D02*
D03*
X5194Y8915D02*
D03*
X3696Y9131D02*
D03*
X3277Y5029D02*
D03*
X5753Y6909D02*
D03*
X6388Y8865D02*
D03*
X5321Y9258D02*
D03*
X7252Y7849D02*
D03*
X7163Y7341D02*
D03*
X7252Y8014D02*
D03*
X5994D02*
D03*
X6250D02*
D03*
X5842Y4051D02*
D03*
X5321Y3975D02*
D03*
X8611Y5715D02*
D03*
X8598Y5575D02*
D03*
X8497Y5944D02*
D03*
X8458Y6388D02*
D03*
X9169Y5397D02*
D03*
X7988Y6363D02*
D03*
X7362Y7286D02*
D03*
X7175Y6223D02*
D03*
X7358Y6790D02*
D03*
X6597Y6218D02*
D03*
X8509Y4775D02*
D03*
X9322Y5258D02*
D03*
X9449Y4959D02*
D03*
X7529Y5395D02*
D03*
X7219Y5657D02*
D03*
X7940Y5347D02*
D03*
X6924Y5817D02*
D03*
X6840Y5852D02*
D03*
X7419Y4935D02*
D03*
X7216Y5799D02*
D03*
X7764Y4762D02*
D03*
X6364Y5399D02*
D03*
X8682Y5202D02*
D03*
X9726Y4618D02*
D03*
X8799Y5204D02*
D03*
X8865Y5532D02*
D03*
X8941Y5210D02*
D03*
X9401Y5050D02*
D03*
X9398Y5146D02*
D03*
X9698Y6132D02*
D03*
X9246Y5878D02*
D03*
X9248Y6015D02*
D03*
X9860Y6650D02*
D03*
X9139Y6739D02*
D03*
X8909Y6757D02*
D03*
X9384Y6968D02*
D03*
X9525Y7163D02*
D03*
X9373Y6870D02*
D03*
X9319Y6787D02*
D03*
X9225D02*
D03*
X9512Y7252D02*
D03*
X9563Y7036D02*
D03*
X9512Y7341D02*
D03*
X8966Y4699D02*
D03*
X9373Y4877D02*
D03*
X9500Y7506D02*
D03*
X8636Y6947D02*
D03*
X9169Y7188D02*
D03*
X8865D02*
D03*
X9017Y7303D02*
D03*
X8865Y7417D02*
D03*
X9169D02*
D03*
X8407Y7087D02*
D03*
X7709Y7023D02*
D03*
X8318Y7328D02*
D03*
X7785Y7175D02*
D03*
X8306Y7544D02*
D03*
X8413Y7654D02*
D03*
X8433Y7518D02*
D03*
X7861D02*
D03*
X7734D02*
D03*
X7709Y7239D02*
D03*
X8552Y7544D02*
D03*
X7366Y7582D02*
D03*
Y7137D02*
D03*
Y6947D02*
D03*
X8471Y7303D02*
D03*
X8534Y7226D02*
D03*
X8915Y7836D02*
D03*
X6655Y8014D02*
D03*
X5182Y7760D02*
D03*
X6049Y6219D02*
D03*
X5753Y6210D02*
D03*
X5588Y6540D02*
D03*
X5575Y6680D02*
D03*
Y7734D02*
D03*
X5042Y8115D02*
D03*
X3569Y6782D02*
D03*
X4928Y6007D02*
D03*
X2870Y5969D02*
D03*
X4178Y5575D02*
D03*
X5232Y6045D02*
D03*
X3404Y5982D02*
D03*
X3454Y6464D02*
D03*
X5017Y7087D02*
D03*
X5156Y7074D02*
D03*
X4343Y6845D02*
D03*
X4051Y7747D02*
D03*
X4254Y7455D02*
D03*
X4191Y7099D02*
D03*
X4051Y6960D02*
D03*
Y7239D02*
D03*
X3912Y7099D02*
D03*
X3797Y6807D02*
D03*
X3721Y7429D02*
D03*
X3670Y7188D02*
D03*
X3848Y5550D02*
D03*
X3645Y6998D02*
D03*
X4039Y8280D02*
D03*
D113*
X10681Y5956D02*
D03*
D114*
X10360D02*
D03*
D115*
X8788Y4468D02*
D03*
X9141Y5222D02*
D03*
X8473Y5274D02*
D03*
D116*
X8788Y4147D02*
D03*
X9141Y4901D02*
D03*
X8473Y4953D02*
D03*
M02*
